<svg width="450" height="153" viewBox="0 0 450 153" fill="none" xmlns="http://www.w3.org/2000/svg">
<circle cx="76.5" cy="76.5" r="66" transform="matrix(-1 0 0 1 450 0)" stroke="#7A1E2D" stroke-width="21"/>
<path d="M362 29H4V92C4 109.121 17.8792 123 35 123H362C387.405 123 408 102.405 408 77V75C408 49.5949 387.405 29 362 29Z" fill="white" stroke="#7A1E2D" stroke-width="8"/>
<path d="M59.5987 104V92.3636H61.2976V96.6875H61.3999C61.4983 96.5057 61.6404 96.2955 61.826 96.0568C62.0116 95.8182 62.2692 95.6098 62.5987 95.4318C62.9283 95.25 63.3639 95.1591 63.9055 95.1591C64.6101 95.1591 65.2389 95.3371 65.7919 95.6932C66.3449 96.0492 66.7786 96.5625 67.093 97.233C67.4112 97.9034 67.5703 98.7102 67.5703 99.6534C67.5703 100.597 67.4131 101.405 67.0987 102.08C66.7843 102.75 66.3525 103.267 65.8033 103.631C65.254 103.991 64.6271 104.17 63.9226 104.17C63.3923 104.17 62.9586 104.081 62.6214 103.903C62.2881 103.725 62.0268 103.517 61.8374 103.278C61.648 103.04 61.5021 102.828 61.3999 102.642H61.2578V104H59.5987ZM61.2635 99.6364C61.2635 100.25 61.3525 100.788 61.5305 101.25C61.7086 101.712 61.9661 102.074 62.3033 102.335C62.6404 102.593 63.0533 102.722 63.5419 102.722C64.0495 102.722 64.4737 102.587 64.8146 102.318C65.1555 102.045 65.4131 101.676 65.5874 101.21C65.7654 100.744 65.8544 100.22 65.8544 99.6364C65.8544 99.0606 65.7673 98.5436 65.593 98.0852C65.4226 97.6269 65.165 97.2652 64.8203 97C64.4794 96.7348 64.0533 96.6023 63.5419 96.6023C63.0495 96.6023 62.6328 96.7292 62.2919 96.983C61.9548 97.2367 61.6991 97.5909 61.5249 98.0455C61.3506 98.5 61.2635 99.0303 61.2635 99.6364ZM75.0064 100.381V95.2727H76.7109V104H75.0405V102.489H74.9496C74.7488 102.955 74.4268 103.343 73.9837 103.653C73.5443 103.96 72.9969 104.114 72.3416 104.114C71.781 104.114 71.2848 103.991 70.853 103.744C70.425 103.494 70.0878 103.125 69.8416 102.636C69.5992 102.148 69.478 101.544 69.478 100.824V95.2727H71.1768V100.619C71.1768 101.214 71.3416 101.687 71.6712 102.04C72.0007 102.392 72.4287 102.568 72.9553 102.568C73.2734 102.568 73.5897 102.489 73.9041 102.33C74.2223 102.17 74.4856 101.93 74.6939 101.608C74.906 101.286 75.0102 100.877 75.0064 100.381ZM78.9936 104V95.2727H80.6925V104H78.9936ZM79.8516 93.9261C79.5561 93.9261 79.3023 93.8277 79.0902 93.6307C78.8819 93.4299 78.7777 93.1913 78.7777 92.9148C78.7777 92.6345 78.8819 92.3958 79.0902 92.1989C79.3023 91.9981 79.5561 91.8977 79.8516 91.8977C80.147 91.8977 80.3989 91.9981 80.6072 92.1989C80.8194 92.3958 80.9254 92.6345 80.9254 92.9148C80.9254 93.1913 80.8194 93.4299 80.6072 93.6307C80.3989 93.8277 80.147 93.9261 79.8516 93.9261ZM84.6768 92.3636V104H82.978V92.3636H84.6768ZM90.2294 104.17C89.5249 104.17 88.8961 103.991 88.343 103.631C87.7938 103.267 87.362 102.75 87.0476 102.08C86.737 101.405 86.5817 100.597 86.5817 99.6534C86.5817 98.7102 86.7389 97.9034 87.0533 97.233C87.3714 96.5625 87.8071 96.0492 88.3601 95.6932C88.9131 95.3371 89.54 95.1591 90.2408 95.1591C90.7824 95.1591 91.218 95.25 91.5476 95.4318C91.8809 95.6098 92.1385 95.8182 92.3203 96.0568C92.5059 96.2955 92.6499 96.5057 92.7521 96.6875H92.8544V92.3636H94.5533V104H92.8942V102.642H92.7521C92.6499 102.828 92.5021 103.04 92.3089 103.278C92.1196 103.517 91.8582 103.725 91.5249 103.903C91.1915 104.081 90.7597 104.17 90.2294 104.17ZM90.6044 102.722C91.093 102.722 91.5059 102.593 91.843 102.335C92.1839 102.074 92.4415 101.712 92.6158 101.25C92.7938 100.788 92.8828 100.25 92.8828 99.6364C92.8828 99.0303 92.7957 98.5 92.6214 98.0455C92.4472 97.5909 92.1915 97.2367 91.8544 96.983C91.5173 96.7292 91.1006 96.6023 90.6044 96.6023C90.093 96.6023 89.6669 96.7348 89.326 97C88.9851 97.2652 88.7275 97.6269 88.5533 98.0852C88.3828 98.5436 88.2976 99.0606 88.2976 99.6364C88.2976 100.22 88.3847 100.744 88.5589 101.21C88.7332 101.676 88.9908 102.045 89.3317 102.318C89.6764 102.587 90.1006 102.722 90.6044 102.722ZM101.212 107.273V95.2727H102.871V96.6875H103.013C103.112 96.5057 103.254 96.2955 103.44 96.0568C103.625 95.8182 103.883 95.6098 104.212 95.4318C104.542 95.25 104.978 95.1591 105.519 95.1591C106.224 95.1591 106.853 95.3371 107.406 95.6932C107.959 96.0492 108.392 96.5625 108.707 97.233C109.025 97.9034 109.184 98.7102 109.184 99.6534C109.184 100.597 109.027 101.405 108.712 102.08C108.398 102.75 107.966 103.267 107.417 103.631C106.868 103.991 106.241 104.17 105.536 104.17C105.006 104.17 104.572 104.081 104.235 103.903C103.902 103.725 103.64 103.517 103.451 103.278C103.262 103.04 103.116 102.828 103.013 102.642H102.911V107.273H101.212ZM102.877 99.6364C102.877 100.25 102.966 100.788 103.144 101.25C103.322 101.712 103.58 102.074 103.917 102.335C104.254 102.593 104.667 102.722 105.156 102.722C105.663 102.722 106.087 102.587 106.428 102.318C106.769 102.045 107.027 101.676 107.201 101.21C107.379 100.744 107.468 100.22 107.468 99.6364C107.468 99.0606 107.381 98.5436 107.207 98.0852C107.036 97.6269 106.779 97.2652 106.434 97C106.093 96.7348 105.667 96.6023 105.156 96.6023C104.663 96.6023 104.246 96.7292 103.906 96.983C103.568 97.2367 103.313 97.5909 103.138 98.0455C102.964 98.5 102.877 99.0303 102.877 99.6364ZM114.763 104.176C113.945 104.176 113.231 103.989 112.621 103.614C112.012 103.239 111.538 102.714 111.201 102.04C110.864 101.366 110.695 100.578 110.695 99.6761C110.695 98.7708 110.864 97.9792 111.201 97.3011C111.538 96.6231 112.012 96.0966 112.621 95.7216C113.231 95.3466 113.945 95.1591 114.763 95.1591C115.582 95.1591 116.296 95.3466 116.906 95.7216C117.515 96.0966 117.989 96.6231 118.326 97.3011C118.663 97.9792 118.832 98.7708 118.832 99.6761C118.832 100.578 118.663 101.366 118.326 102.04C117.989 102.714 117.515 103.239 116.906 103.614C116.296 103.989 115.582 104.176 114.763 104.176ZM114.769 102.75C115.299 102.75 115.739 102.61 116.087 102.33C116.436 102.049 116.693 101.676 116.86 101.21C117.031 100.744 117.116 100.231 117.116 99.6705C117.116 99.1136 117.031 98.6023 116.86 98.1364C116.693 97.6667 116.436 97.2898 116.087 97.0057C115.739 96.7216 115.299 96.5795 114.769 96.5795C114.235 96.5795 113.792 96.7216 113.44 97.0057C113.091 97.2898 112.832 97.6667 112.661 98.1364C112.495 98.6023 112.411 99.1136 112.411 99.6705C112.411 100.231 112.495 100.744 112.661 101.21C112.832 101.676 113.091 102.049 113.44 102.33C113.792 102.61 114.235 102.75 114.769 102.75ZM122.354 104L119.786 95.2727H121.542L123.252 101.682H123.337L125.053 95.2727H126.809L128.513 101.653H128.599L130.298 95.2727H132.053L129.491 104H127.758L125.985 97.6989H125.854L124.082 104H122.354ZM137.161 104.176C136.301 104.176 135.561 103.992 134.94 103.625C134.322 103.254 133.845 102.733 133.508 102.062C133.174 101.388 133.008 100.598 133.008 99.6932C133.008 98.7992 133.174 98.0114 133.508 97.3295C133.845 96.6477 134.315 96.1155 134.917 95.733C135.523 95.3504 136.231 95.1591 137.042 95.1591C137.534 95.1591 138.012 95.2405 138.474 95.4034C138.936 95.5663 139.351 95.822 139.718 96.1705C140.085 96.5189 140.375 96.9716 140.587 97.5284C140.799 98.0814 140.906 98.7538 140.906 99.5455V100.148H133.968V98.875H139.241C139.241 98.428 139.15 98.0322 138.968 97.6875C138.786 97.339 138.531 97.0644 138.201 96.8636C137.875 96.6629 137.493 96.5625 137.053 96.5625C136.576 96.5625 136.159 96.6799 135.803 96.9148C135.451 97.1458 135.178 97.4489 134.985 97.8239C134.796 98.1951 134.701 98.5985 134.701 99.0341V100.028C134.701 100.612 134.803 101.108 135.008 101.517C135.216 101.926 135.506 102.239 135.877 102.455C136.248 102.667 136.682 102.773 137.178 102.773C137.5 102.773 137.794 102.727 138.059 102.636C138.324 102.542 138.553 102.402 138.746 102.216C138.94 102.03 139.087 101.801 139.19 101.528L140.798 101.818C140.669 102.292 140.438 102.706 140.104 103.062C139.775 103.415 139.36 103.689 138.86 103.886C138.364 104.08 137.798 104.176 137.161 104.176ZM142.79 104V95.2727H144.433V96.6591H144.523C144.683 96.1894 144.963 95.8201 145.364 95.5511C145.77 95.2784 146.228 95.142 146.739 95.142C146.845 95.142 146.97 95.1458 147.114 95.1534C147.262 95.161 147.378 95.1705 147.461 95.1818V96.8068C147.393 96.7879 147.272 96.767 147.097 96.7443C146.923 96.7178 146.749 96.7045 146.575 96.7045C146.173 96.7045 145.815 96.7898 145.501 96.9602C145.19 97.1269 144.944 97.3598 144.762 97.6591C144.58 97.9545 144.489 98.2917 144.489 98.6705V104H142.79ZM153.6 95.2727V96.6364H148.668V95.2727H153.6ZM150.021 104V94.2614C150.021 93.7159 150.14 93.2633 150.379 92.9034C150.617 92.5398 150.933 92.2689 151.327 92.0909C151.721 91.9091 152.149 91.8182 152.612 91.8182C152.952 91.8182 153.244 91.8466 153.487 91.9034C153.729 91.9564 153.909 92.0057 154.026 92.0511L153.629 93.4261C153.549 93.4034 153.447 93.3769 153.322 93.3466C153.197 93.3125 153.045 93.2955 152.867 93.2955C152.454 93.2955 152.159 93.3977 151.981 93.6023C151.807 93.8068 151.719 94.1023 151.719 94.4886V104H150.021ZM160.881 100.381V95.2727H162.586V104H160.915V102.489H160.825C160.624 102.955 160.302 103.343 159.859 103.653C159.419 103.96 158.872 104.114 158.217 104.114C157.656 104.114 157.16 103.991 156.728 103.744C156.3 103.494 155.963 103.125 155.717 102.636C155.474 102.148 155.353 101.544 155.353 100.824V95.2727H157.052V100.619C157.052 101.214 157.217 101.687 157.546 102.04C157.876 102.392 158.304 102.568 158.83 102.568C159.148 102.568 159.465 102.489 159.779 102.33C160.097 102.17 160.361 101.93 160.569 101.608C160.781 101.286 160.885 100.877 160.881 100.381ZM166.567 92.3636V104H164.869V92.3636H166.567ZM174.979 104L172.411 95.2727H174.167L175.877 101.682H175.962L177.678 95.2727H179.434L181.138 101.653H181.224L182.923 95.2727H184.678L182.116 104H180.383L178.61 97.6989H178.479L176.707 104H174.979ZM189.786 104.176C188.926 104.176 188.186 103.992 187.565 103.625C186.947 103.254 186.47 102.733 186.133 102.062C185.799 101.388 185.633 100.598 185.633 99.6932C185.633 98.7992 185.799 98.0114 186.133 97.3295C186.47 96.6477 186.94 96.1155 187.542 95.733C188.148 95.3504 188.856 95.1591 189.667 95.1591C190.159 95.1591 190.637 95.2405 191.099 95.4034C191.561 95.5663 191.976 95.822 192.343 96.1705C192.71 96.5189 193 96.9716 193.212 97.5284C193.424 98.0814 193.531 98.7538 193.531 99.5455V100.148H186.593V98.875H191.866C191.866 98.428 191.775 98.0322 191.593 97.6875C191.411 97.339 191.156 97.0644 190.826 96.8636C190.5 96.6629 190.118 96.5625 189.678 96.5625C189.201 96.5625 188.784 96.6799 188.428 96.9148C188.076 97.1458 187.803 97.4489 187.61 97.8239C187.421 98.1951 187.326 98.5985 187.326 99.0341V100.028C187.326 100.612 187.428 101.108 187.633 101.517C187.841 101.926 188.131 102.239 188.502 102.455C188.873 102.667 189.307 102.773 189.803 102.773C190.125 102.773 190.419 102.727 190.684 102.636C190.949 102.542 191.178 102.402 191.371 102.216C191.565 102.03 191.712 101.801 191.815 101.528L193.423 101.818C193.294 102.292 193.063 102.706 192.729 103.062C192.4 103.415 191.985 103.689 191.485 103.886C190.989 104.08 190.423 104.176 189.786 104.176ZM195.552 104V92.3636H197.251V96.6875H197.353C197.451 96.5057 197.594 96.2955 197.779 96.0568C197.965 95.8182 198.222 95.6098 198.552 95.4318C198.881 95.25 199.317 95.1591 199.859 95.1591C200.563 95.1591 201.192 95.3371 201.745 95.6932C202.298 96.0492 202.732 96.5625 203.046 97.233C203.364 97.9034 203.523 98.7102 203.523 99.6534C203.523 100.597 203.366 101.405 203.052 102.08C202.737 102.75 202.306 103.267 201.756 103.631C201.207 103.991 200.58 104.17 199.876 104.17C199.345 104.17 198.912 104.081 198.575 103.903C198.241 103.725 197.98 103.517 197.79 103.278C197.601 103.04 197.455 102.828 197.353 102.642H197.211V104H195.552ZM197.217 99.6364C197.217 100.25 197.306 100.788 197.484 101.25C197.662 101.712 197.919 102.074 198.256 102.335C198.594 102.593 199.006 102.722 199.495 102.722C200.003 102.722 200.427 102.587 200.768 102.318C201.109 102.045 201.366 101.676 201.54 101.21C201.719 100.744 201.808 100.22 201.808 99.6364C201.808 99.0606 201.72 98.5436 201.546 98.0852C201.376 97.6269 201.118 97.2652 200.773 97C200.433 96.7348 200.006 96.6023 199.495 96.6023C199.003 96.6023 198.586 96.7292 198.245 96.983C197.908 97.2367 197.652 97.5909 197.478 98.0455C197.304 98.5 197.217 99.0303 197.217 99.6364ZM211.971 97.4034L210.431 97.6761C210.367 97.4792 210.264 97.2917 210.124 97.1136C209.988 96.9356 209.802 96.7898 209.567 96.6761C209.333 96.5625 209.039 96.5057 208.687 96.5057C208.206 96.5057 207.804 96.6136 207.482 96.8295C207.16 97.0417 206.999 97.3163 206.999 97.6534C206.999 97.9451 207.107 98.1799 207.323 98.358C207.539 98.536 207.888 98.6818 208.369 98.7955L209.755 99.1136C210.558 99.2992 211.156 99.5852 211.55 99.9716C211.944 100.358 212.141 100.86 212.141 101.477C212.141 102 211.99 102.466 211.687 102.875C211.388 103.28 210.969 103.598 210.431 103.83C209.897 104.061 209.278 104.176 208.573 104.176C207.596 104.176 206.799 103.968 206.181 103.551C205.564 103.131 205.185 102.534 205.045 101.761L206.687 101.511C206.789 101.939 206.999 102.263 207.317 102.483C207.636 102.699 208.05 102.807 208.562 102.807C209.119 102.807 209.564 102.691 209.897 102.46C210.23 102.225 210.397 101.939 210.397 101.602C210.397 101.33 210.295 101.1 210.09 100.915C209.889 100.729 209.581 100.589 209.164 100.494L207.687 100.17C206.872 99.9848 206.27 99.6894 205.88 99.2841C205.494 98.8788 205.3 98.3655 205.3 97.7443C205.3 97.2292 205.444 96.7784 205.732 96.392C206.02 96.0057 206.418 95.7045 206.925 95.4886C207.433 95.2689 208.014 95.1591 208.67 95.1591C209.613 95.1591 210.355 95.3636 210.897 95.7727C211.439 96.178 211.797 96.7216 211.971 97.4034ZM214.009 104V95.2727H215.708V104H214.009ZM214.867 93.9261C214.572 93.9261 214.318 93.8277 214.106 93.6307C213.897 93.4299 213.793 93.1913 213.793 92.9148C213.793 92.6345 213.897 92.3958 214.106 92.1989C214.318 91.9981 214.572 91.8977 214.867 91.8977C215.163 91.8977 215.415 91.9981 215.623 92.1989C215.835 92.3958 215.941 92.6345 215.941 92.9148C215.941 93.1913 215.835 93.4299 215.623 93.6307C215.415 93.8277 215.163 93.9261 214.867 93.9261ZM222.067 95.2727V96.6364H217.3V95.2727H222.067ZM218.579 93.1818H220.278V101.438C220.278 101.767 220.327 102.015 220.425 102.182C220.524 102.345 220.651 102.456 220.806 102.517C220.965 102.574 221.138 102.602 221.323 102.602C221.46 102.602 221.579 102.593 221.681 102.574C221.783 102.555 221.863 102.54 221.92 102.528L222.227 103.932C222.128 103.97 221.988 104.008 221.806 104.045C221.624 104.087 221.397 104.11 221.124 104.114C220.677 104.121 220.261 104.042 219.874 103.875C219.488 103.708 219.175 103.451 218.937 103.102C218.698 102.754 218.579 102.316 218.579 101.79V93.1818ZM227.614 104.176C226.754 104.176 226.014 103.992 225.393 103.625C224.775 103.254 224.298 102.733 223.961 102.062C223.628 101.388 223.461 100.598 223.461 99.6932C223.461 98.7992 223.628 98.0114 223.961 97.3295C224.298 96.6477 224.768 96.1155 225.37 95.733C225.976 95.3504 226.684 95.1591 227.495 95.1591C227.987 95.1591 228.465 95.2405 228.927 95.4034C229.389 95.5663 229.804 95.822 230.171 96.1705C230.539 96.5189 230.828 96.9716 231.04 97.5284C231.253 98.0814 231.359 98.7538 231.359 99.5455V100.148H224.421V98.875H229.694C229.694 98.428 229.603 98.0322 229.421 97.6875C229.239 97.339 228.984 97.0644 228.654 96.8636C228.328 96.6629 227.946 96.5625 227.506 96.5625C227.029 96.5625 226.612 96.6799 226.256 96.9148C225.904 97.1458 225.631 97.4489 225.438 97.8239C225.249 98.1951 225.154 98.5985 225.154 99.0341V100.028C225.154 100.612 225.256 101.108 225.461 101.517C225.669 101.926 225.959 102.239 226.33 102.455C226.701 102.667 227.135 102.773 227.631 102.773C227.953 102.773 228.247 102.727 228.512 102.636C228.777 102.542 229.006 102.402 229.2 102.216C229.393 102.03 229.54 101.801 229.643 101.528L231.251 101.818C231.122 102.292 230.891 102.706 230.558 103.062C230.228 103.415 229.813 103.689 229.313 103.886C228.817 104.08 228.251 104.176 227.614 104.176ZM239.783 97.4034L238.244 97.6761C238.179 97.4792 238.077 97.2917 237.937 97.1136C237.8 96.9356 237.615 96.7898 237.38 96.6761C237.145 96.5625 236.852 96.5057 236.499 96.5057C236.018 96.5057 235.617 96.6136 235.295 96.8295C234.973 97.0417 234.812 97.3163 234.812 97.6534C234.812 97.9451 234.92 98.1799 235.136 98.358C235.352 98.536 235.7 98.6818 236.181 98.7955L237.567 99.1136C238.371 99.2992 238.969 99.5852 239.363 99.9716C239.757 100.358 239.954 100.86 239.954 101.477C239.954 102 239.802 102.466 239.499 102.875C239.2 103.28 238.781 103.598 238.244 103.83C237.71 104.061 237.09 104.176 236.386 104.176C235.408 104.176 234.611 103.968 233.994 103.551C233.376 103.131 232.997 102.534 232.857 101.761L234.499 101.511C234.602 101.939 234.812 102.263 235.13 102.483C235.448 102.699 235.863 102.807 236.374 102.807C236.931 102.807 237.376 102.691 237.71 102.46C238.043 102.225 238.21 101.939 238.21 101.602C238.21 101.33 238.107 101.1 237.903 100.915C237.702 100.729 237.393 100.589 236.977 100.494L235.499 100.17C234.685 99.9848 234.083 99.6894 233.692 99.2841C233.306 98.8788 233.113 98.3655 233.113 97.7443C233.113 97.2292 233.257 96.7784 233.545 96.392C233.833 96.0057 234.23 95.7045 234.738 95.4886C235.246 95.2689 235.827 95.1591 236.482 95.1591C237.425 95.1591 238.168 95.3636 238.71 95.7727C239.251 96.178 239.609 96.7216 239.783 97.4034Z" fill="black"/>
<circle cx="36.5" cy="36.5" r="36.5" transform="matrix(-1 0 0 1 398 39)" fill="#7A1E2D"/>
<path d="M60.0746 61V48.6364H68.2607V50.7915H62.6886V53.7376H67.7173V55.8928H62.6886V61H60.0746ZM75.3359 57.0518V51.7273H77.9077V61H75.4386V59.3157H75.342C75.1327 59.859 74.7846 60.2957 74.2976 60.6257C73.8146 60.9557 73.225 61.1207 72.5288 61.1207C71.909 61.1207 71.3636 60.9799 70.8928 60.6982C70.4219 60.4164 70.0536 60.016 69.788 59.4968C69.5264 58.9776 69.3936 58.3558 69.3896 57.6314V51.7273H71.9613V57.1726C71.9653 57.7199 72.1122 58.1526 72.402 58.4705C72.6918 58.7885 73.0801 58.9474 73.5671 58.9474C73.877 58.9474 74.1668 58.877 74.4364 58.7362C74.7061 58.5913 74.9234 58.378 75.0884 58.0962C75.2575 57.8145 75.34 57.4664 75.3359 57.0518ZM82.5365 48.6364V61H79.9648V48.6364H82.5365ZM87.1683 48.6364V61H84.5966V48.6364H87.1683ZM99.9183 52.1921C99.87 51.7051 99.6628 51.3268 99.2965 51.0572C98.9303 50.7875 98.4332 50.6527 97.8054 50.6527C97.3788 50.6527 97.0186 50.7131 96.7248 50.8338C96.431 50.9505 96.2056 51.1135 96.0487 51.3228C95.8957 51.5321 95.8192 51.7695 95.8192 52.0352C95.8112 52.2565 95.8575 52.4497 95.9581 52.6147C96.0627 52.7797 96.2056 52.9226 96.3867 53.0433C96.5678 53.16 96.7771 53.2627 97.0146 53.3512C97.252 53.4357 97.5056 53.5082 97.7752 53.5685L98.886 53.8342C99.4253 53.9549 99.9203 54.1159 100.371 54.3171C100.822 54.5183 101.212 54.7659 101.542 55.0597C101.872 55.3535 102.128 55.6996 102.309 56.098C102.494 56.4964 102.589 56.9532 102.593 57.4684C102.589 58.225 102.395 58.881 102.013 59.4364C101.635 59.9878 101.087 60.4164 100.371 60.7223C99.6587 61.0241 98.7995 61.1751 97.7933 61.1751C96.7952 61.1751 95.9259 61.0221 95.1854 60.7163C94.4489 60.4104 93.8733 59.9576 93.4588 59.358C93.0483 58.7543 92.833 58.0077 92.8129 57.1183H95.3423C95.3705 57.5328 95.4892 57.8789 95.6985 58.1566C95.9118 58.4303 96.1955 58.6375 96.5497 58.7784C96.9079 58.9152 97.3124 58.9837 97.7631 58.9837C98.2058 58.9837 98.5902 58.9193 98.9162 58.7905C99.2462 58.6617 99.5018 58.4826 99.6829 58.2532C99.864 58.0238 99.9545 57.7602 99.9545 57.4624C99.9545 57.1847 99.872 56.9512 99.707 56.7621C99.546 56.5729 99.3086 56.4119 98.9947 56.2791C98.6848 56.1463 98.3045 56.0256 97.8537 55.9169L96.5075 55.5788C95.4651 55.3253 94.642 54.9289 94.0384 54.3896C93.4347 53.8503 93.1348 53.1238 93.1388 52.2102C93.1348 51.4616 93.334 50.8076 93.7365 50.2482C94.143 49.6888 94.7004 49.2521 95.4087 48.9382C96.1171 48.6243 96.922 48.4673 97.8235 48.4673C98.7411 48.4673 99.542 48.6243 100.226 48.9382C100.914 49.2521 101.45 49.6888 101.832 50.2482C102.214 50.8076 102.412 51.4556 102.424 52.1921H99.9183ZM109.235 51.7273V53.6591H103.651V51.7273H109.235ZM104.918 49.5057H107.49V58.1506C107.49 58.388 107.526 58.5732 107.599 58.706C107.671 58.8348 107.772 58.9253 107.901 58.9776C108.033 59.0299 108.186 59.0561 108.359 59.0561C108.48 59.0561 108.601 59.046 108.722 59.0259C108.842 59.0018 108.935 58.9837 108.999 58.9716L109.404 60.8853C109.275 60.9255 109.094 60.9718 108.861 61.0241C108.627 61.0805 108.343 61.1147 108.009 61.1268C107.39 61.1509 106.846 61.0684 106.379 60.8793C105.917 60.6901 105.556 60.3963 105.299 59.9979C105.041 59.5994 104.914 59.0964 104.918 58.4886V49.5057ZM113.554 61.1751C112.963 61.1751 112.435 61.0724 111.973 60.8672C111.51 60.6579 111.143 60.35 110.874 59.9435C110.608 59.533 110.475 59.0219 110.475 58.4102C110.475 57.895 110.57 57.4624 110.759 57.1122C110.948 56.7621 111.206 56.4804 111.532 56.267C111.858 56.0537 112.228 55.8928 112.643 55.7841C113.061 55.6754 113.5 55.599 113.959 55.5547C114.498 55.4983 114.933 55.446 115.263 55.3977C115.593 55.3454 115.832 55.2689 115.981 55.1683C116.13 55.0677 116.204 54.9188 116.204 54.7216V54.6854C116.204 54.303 116.084 54.0072 115.842 53.7979C115.605 53.5887 115.267 53.484 114.828 53.484C114.365 53.484 113.997 53.5866 113.723 53.7919C113.45 53.9931 113.268 54.2467 113.18 54.5526L110.801 54.3594C110.922 53.7959 111.16 53.3089 111.514 52.8984C111.868 52.4839 112.325 52.166 112.884 51.9446C113.448 51.7192 114.1 51.6065 114.84 51.6065C115.355 51.6065 115.848 51.6669 116.319 51.7876C116.794 51.9084 117.215 52.0955 117.581 52.3491C117.951 52.6026 118.243 52.9286 118.456 53.3271C118.67 53.7215 118.776 54.1944 118.776 54.7457V61H116.337V59.7141H116.265C116.116 60.0039 115.917 60.2595 115.667 60.4808C115.418 60.6982 115.118 60.8692 114.768 60.994C114.418 61.1147 114.013 61.1751 113.554 61.1751ZM114.291 59.4002C114.669 59.4002 115.003 59.3258 115.293 59.1768C115.583 59.0239 115.81 58.8187 115.975 58.5611C116.14 58.3035 116.223 58.0117 116.223 57.6857V56.7017C116.142 56.754 116.031 56.8023 115.891 56.8466C115.754 56.8868 115.599 56.9251 115.426 56.9613C115.253 56.9935 115.08 57.0237 114.907 57.0518C114.733 57.076 114.576 57.0981 114.436 57.1183C114.134 57.1625 113.87 57.233 113.645 57.3295C113.419 57.4261 113.244 57.5569 113.12 57.7219C112.995 57.8829 112.932 58.0842 112.932 58.3256C112.932 58.6758 113.059 58.9434 113.313 59.1286C113.57 59.3097 113.896 59.4002 114.291 59.4002ZM124.961 61.1811C124.011 61.1811 123.194 60.9799 122.51 60.5774C121.83 60.1709 121.307 59.6075 120.94 58.8871C120.578 58.1667 120.397 57.3376 120.397 56.3999C120.397 55.45 120.58 54.617 120.946 53.9006C121.317 53.1802 121.842 52.6187 122.522 52.2163C123.202 51.8098 124.011 51.6065 124.949 51.6065C125.758 51.6065 126.466 51.7534 127.074 52.0472C127.682 52.341 128.163 52.7536 128.517 53.2848C128.871 53.8161 129.066 54.4399 129.102 55.1562H126.676C126.607 54.6934 126.426 54.3211 126.132 54.0394C125.842 53.7537 125.462 53.6108 124.991 53.6108C124.593 53.6108 124.245 53.7195 123.947 53.9368C123.653 54.1501 123.424 54.462 123.259 54.8725C123.094 55.283 123.011 55.7801 123.011 56.3636C123.011 56.9553 123.092 57.4583 123.253 57.8729C123.418 58.2874 123.649 58.6033 123.947 58.8207C124.245 59.038 124.593 59.1467 124.991 59.1467C125.285 59.1467 125.549 59.0863 125.782 58.9656C126.02 58.8448 126.215 58.6697 126.368 58.4403C126.525 58.2069 126.627 57.9272 126.676 57.6012H129.102C129.062 58.3095 128.869 58.9334 128.523 59.4727C128.181 60.0079 127.708 60.4265 127.104 60.7283C126.5 61.0302 125.786 61.1811 124.961 61.1811ZM133.079 58.3317L133.085 55.2468H133.46L136.43 51.7273H139.382L135.391 56.3878H134.782L133.079 58.3317ZM130.749 61V48.6364H133.321V61H130.749ZM136.544 61L133.816 56.9613L135.53 55.1442L139.557 61H136.544ZM147.409 61L143.872 48.6364H146.727L148.774 57.2269H148.876L151.134 48.6364H153.579L155.831 57.245H155.94L157.986 48.6364H160.842L157.304 61H154.756L152.402 52.9165H152.305L149.957 61H147.409ZM165.422 61.1811C164.468 61.1811 163.647 60.9879 162.959 60.6016C162.275 60.2112 161.748 59.6598 161.377 58.9474C161.007 58.2311 160.822 57.3839 160.822 56.4059C160.822 55.4521 161.007 54.6149 161.377 53.8945C161.748 53.1741 162.269 52.6127 162.941 52.2102C163.617 51.8078 164.41 51.6065 165.319 51.6065C165.931 51.6065 166.501 51.7051 167.028 51.9023C167.559 52.0955 168.022 52.3873 168.416 52.7777C168.815 53.1681 169.125 53.6591 169.346 54.2507C169.567 54.8383 169.678 55.5265 169.678 56.3153V57.0217H161.848V55.4279H167.257C167.257 55.0576 167.177 54.7296 167.016 54.4439C166.855 54.1581 166.631 53.9348 166.346 53.7738C166.064 53.6088 165.736 53.5263 165.362 53.5263C164.971 53.5263 164.625 53.6168 164.323 53.7979C164.026 53.975 163.792 54.2145 163.623 54.5163C163.454 54.8142 163.367 55.1462 163.363 55.5124V57.0277C163.363 57.4865 163.448 57.8829 163.617 58.217C163.79 58.551 164.034 58.8086 164.347 58.9897C164.661 59.1708 165.034 59.2614 165.464 59.2614C165.75 59.2614 166.012 59.2211 166.249 59.1406C166.487 59.0601 166.69 58.9394 166.859 58.7784C167.028 58.6174 167.157 58.4202 167.245 58.1868L169.624 58.3438C169.503 58.9152 169.256 59.4143 168.881 59.8409C168.511 60.2635 168.032 60.5935 167.444 60.831C166.861 61.0644 166.187 61.1811 165.422 61.1811ZM171.405 61V48.6364H173.976V53.2848H174.055C174.168 53.0353 174.331 52.7817 174.544 52.5241C174.761 52.2625 175.043 52.0452 175.389 51.8722C175.739 51.6951 176.174 51.6065 176.693 51.6065C177.369 51.6065 177.993 51.7836 178.564 52.1378C179.136 52.4879 179.593 53.0172 179.935 53.7255C180.277 54.4298 180.448 55.3132 180.448 56.3757C180.448 57.41 180.281 58.2834 179.947 58.9957C179.617 59.7041 179.166 60.2414 178.595 60.6076C178.027 60.9698 177.391 61.1509 176.687 61.1509C176.188 61.1509 175.763 61.0684 175.413 60.9034C175.067 60.7384 174.783 60.5311 174.562 60.2816C174.341 60.0281 174.172 59.7725 174.055 59.5149H173.94V61H171.405ZM173.922 56.3636C173.922 56.915 173.999 57.396 174.151 57.8065C174.304 58.217 174.526 58.5369 174.816 58.7663C175.105 58.9917 175.457 59.1044 175.872 59.1044C176.291 59.1044 176.645 58.9897 176.934 58.7603C177.224 58.5269 177.444 58.2049 177.593 57.7944C177.745 57.3799 177.822 56.9029 177.822 56.3636C177.822 55.8284 177.747 55.3575 177.599 54.951C177.45 54.5445 177.23 54.2266 176.941 53.9972C176.651 53.7678 176.295 53.6531 175.872 53.6531C175.453 53.6531 175.099 53.7637 174.809 53.9851C174.524 54.2064 174.304 54.5204 174.151 54.9268C173.999 55.3333 173.922 55.8123 173.922 56.3636ZM190.53 61H186.147V48.6364H190.566C191.809 48.6364 192.88 48.8839 193.778 49.3789C194.675 49.8699 195.365 50.5762 195.848 51.4979C196.335 52.4195 196.579 53.5223 196.579 54.8061C196.579 56.094 196.335 57.2008 195.848 58.1264C195.365 59.0521 194.671 59.7624 193.765 60.2575C192.864 60.7525 191.785 61 190.53 61ZM188.761 58.7603H190.421C191.194 58.7603 191.844 58.6235 192.371 58.3498C192.902 58.0721 193.301 57.6435 193.566 57.0639C193.836 56.4804 193.971 55.7277 193.971 54.8061C193.971 53.8925 193.836 53.146 193.566 52.5664C193.301 51.9869 192.904 51.5603 192.377 51.2866C191.85 51.0129 191.2 50.8761 190.427 50.8761H188.761V58.7603ZM202.693 61.1811C201.739 61.1811 200.918 60.9879 200.229 60.6016C199.545 60.2112 199.018 59.6598 198.648 58.9474C198.278 58.2311 198.092 57.3839 198.092 56.4059C198.092 55.4521 198.278 54.6149 198.648 53.8945C199.018 53.1741 199.539 52.6127 200.211 52.2102C200.888 51.8078 201.68 51.6065 202.59 51.6065C203.202 51.6065 203.771 51.7051 204.298 51.9023C204.83 52.0955 205.292 52.3873 205.687 52.7777C206.085 53.1681 206.395 53.6591 206.617 54.2507C206.838 54.8383 206.949 55.5265 206.949 56.3153V57.0217H199.119V55.4279H204.528C204.528 55.0576 204.447 54.7296 204.286 54.4439C204.125 54.1581 203.902 53.9348 203.616 53.7738C203.334 53.6088 203.006 53.5263 202.632 53.5263C202.242 53.5263 201.896 53.6168 201.594 53.7979C201.296 53.975 201.063 54.2145 200.894 54.5163C200.725 54.8142 200.638 55.1462 200.634 55.5124V57.0277C200.634 57.4865 200.718 57.8829 200.888 58.217C201.061 58.551 201.304 58.8086 201.618 58.9897C201.932 59.1708 202.304 59.2614 202.735 59.2614C203.021 59.2614 203.282 59.2211 203.52 59.1406C203.757 59.0601 203.96 58.9394 204.129 58.7784C204.298 58.6174 204.427 58.4202 204.516 58.1868L206.894 58.3438C206.774 58.9152 206.526 59.4143 206.152 59.8409C205.781 60.2635 205.303 60.5935 204.715 60.831C204.131 61.0644 203.457 61.1811 202.693 61.1811ZM217.023 51.7273L213.781 61H210.883L207.641 51.7273H210.358L212.284 58.3619H212.38L214.3 51.7273H217.023ZM222.266 61.1811C221.312 61.1811 220.491 60.9879 219.803 60.6016C219.119 60.2112 218.591 59.6598 218.221 58.9474C217.851 58.2311 217.666 57.3839 217.666 56.4059C217.666 55.4521 217.851 54.6149 218.221 53.8945C218.591 53.1741 219.113 52.6127 219.785 52.2102C220.461 51.8078 221.254 51.6065 222.163 51.6065C222.775 51.6065 223.344 51.7051 223.872 51.9023C224.403 52.0955 224.866 52.3873 225.26 52.7777C225.659 53.1681 225.968 53.6591 226.19 54.2507C226.411 54.8383 226.522 55.5265 226.522 56.3153V57.0217H218.692V55.4279H224.101C224.101 55.0576 224.021 54.7296 223.86 54.4439C223.699 54.1581 223.475 53.9348 223.189 53.7738C222.908 53.6088 222.58 53.5263 222.205 53.5263C221.815 53.5263 221.469 53.6168 221.167 53.7979C220.869 53.975 220.636 54.2145 220.467 54.5163C220.298 54.8142 220.211 55.1462 220.207 55.5124V57.0277C220.207 57.4865 220.292 57.8829 220.461 58.217C220.634 58.551 220.877 58.8086 221.191 58.9897C221.505 59.1708 221.877 59.2614 222.308 59.2614C222.594 59.2614 222.855 59.2211 223.093 59.1406C223.33 59.0601 223.534 58.9394 223.703 58.7784C223.872 58.6174 224 58.4202 224.089 58.1868L226.468 58.3438C226.347 58.9152 226.099 59.4143 225.725 59.8409C225.355 60.2635 224.876 60.5935 224.288 60.831C223.705 61.0644 223.03 61.1811 222.266 61.1811ZM230.772 48.6364V61H228.2V48.6364H230.772ZM237.022 61.1811C236.084 61.1811 235.273 60.9819 234.589 60.5835C233.909 60.181 233.383 59.6216 233.013 58.9052C232.643 58.1848 232.458 57.3497 232.458 56.3999C232.458 55.442 232.643 54.6049 233.013 53.8885C233.383 53.1681 233.909 52.6087 234.589 52.2102C235.273 51.8078 236.084 51.6065 237.022 51.6065C237.959 51.6065 238.768 51.8078 239.448 52.2102C240.133 52.6087 240.66 53.1681 241.03 53.8885C241.4 54.6049 241.585 55.442 241.585 56.3999C241.585 57.3497 241.4 58.1848 241.03 58.9052C240.66 59.6216 240.133 60.181 239.448 60.5835C238.768 60.9819 237.959 61.1811 237.022 61.1811ZM237.034 59.1889C237.46 59.1889 237.816 59.0682 238.102 58.8267C238.388 58.5812 238.603 58.2472 238.748 57.8246C238.897 57.402 238.972 56.921 238.972 56.3817C238.972 55.8424 238.897 55.3615 238.748 54.9389C238.603 54.5163 238.388 54.1823 238.102 53.9368C237.816 53.6913 237.46 53.5685 237.034 53.5685C236.603 53.5685 236.241 53.6913 235.947 53.9368C235.657 54.1823 235.438 54.5163 235.289 54.9389C235.144 55.3615 235.072 55.8424 235.072 56.3817C235.072 56.921 235.144 57.402 235.289 57.8246C235.438 58.2472 235.657 58.5812 235.947 58.8267C236.241 59.0682 236.603 59.1889 237.034 59.1889ZM243.258 64.4773V51.7273H245.793V53.2848H245.908C246.021 53.0353 246.184 52.7817 246.397 52.5241C246.614 52.2625 246.896 52.0452 247.242 51.8722C247.592 51.6951 248.027 51.6065 248.546 51.6065C249.222 51.6065 249.846 51.7836 250.418 52.1378C250.989 52.4879 251.446 53.0172 251.788 53.7255C252.13 54.4298 252.301 55.3132 252.301 56.3757C252.301 57.41 252.134 58.2834 251.8 58.9957C251.47 59.7041 251.019 60.2414 250.448 60.6076C249.88 60.9698 249.244 61.1509 248.54 61.1509C248.041 61.1509 247.616 61.0684 247.266 60.9034C246.92 60.7384 246.636 60.5311 246.415 60.2816C246.194 60.0281 246.025 59.7725 245.908 59.5149H245.829V64.4773H243.258ZM245.775 56.3636C245.775 56.915 245.852 57.396 246.005 57.8065C246.157 58.217 246.379 58.5369 246.669 58.7663C246.958 58.9917 247.311 59.1044 247.725 59.1044C248.144 59.1044 248.498 58.9897 248.788 58.7603C249.077 58.5269 249.297 58.2049 249.446 57.7944C249.599 57.3799 249.675 56.9029 249.675 56.3636C249.675 55.8284 249.601 55.3575 249.452 54.951C249.303 54.5445 249.083 54.2266 248.794 53.9972C248.504 53.7678 248.148 53.6531 247.725 53.6531C247.306 53.6531 246.952 53.7637 246.663 53.9851C246.377 54.2064 246.157 54.5204 246.005 54.9268C245.852 55.3333 245.775 55.8123 245.775 56.3636ZM254.016 61V51.7273H256.467V53.3633H256.575C256.768 52.82 257.09 52.3913 257.541 52.0774C257.992 51.7635 258.531 51.6065 259.159 51.6065C259.795 51.6065 260.336 51.7655 260.783 52.0835C261.23 52.3974 261.527 52.824 261.676 53.3633H261.773C261.962 52.832 262.304 52.4074 262.799 52.0895C263.298 51.7675 263.888 51.6065 264.568 51.6065C265.433 51.6065 266.136 51.8822 266.675 52.4336C267.218 52.9809 267.49 53.7577 267.49 54.7638V61H264.924V55.271C264.924 54.7558 264.787 54.3694 264.514 54.1119C264.24 53.8543 263.898 53.7255 263.487 53.7255C263.021 53.7255 262.656 53.8744 262.395 54.1722C262.133 54.466 262.002 54.8544 262.002 55.3374V61H259.509V55.2166C259.509 54.7618 259.378 54.3996 259.117 54.13C258.859 53.8603 258.519 53.7255 258.097 53.7255C257.811 53.7255 257.553 53.7979 257.324 53.9428C257.098 54.0837 256.919 54.2829 256.786 54.5405C256.654 54.794 256.587 55.0919 256.587 55.4339V61H254.016ZM273.747 61.1811C272.793 61.1811 271.972 60.9879 271.284 60.6016C270.6 60.2112 270.073 59.6598 269.703 58.9474C269.332 58.2311 269.147 57.3839 269.147 56.4059C269.147 55.4521 269.332 54.6149 269.703 53.8945C270.073 53.1741 270.594 52.6127 271.266 52.2102C271.942 51.8078 272.735 51.6065 273.645 51.6065C274.256 51.6065 274.826 51.7051 275.353 51.9023C275.884 52.0955 276.347 52.3873 276.742 52.7777C277.14 53.1681 277.45 53.6591 277.671 54.2507C277.893 54.8383 278.003 55.5265 278.003 56.3153V57.0217H270.173V55.4279H275.582C275.582 55.0576 275.502 54.7296 275.341 54.4439C275.18 54.1581 274.957 53.9348 274.671 53.7738C274.389 53.6088 274.061 53.5263 273.687 53.5263C273.296 53.5263 272.95 53.6168 272.649 53.7979C272.351 53.975 272.117 54.2145 271.948 54.5163C271.779 54.8142 271.693 55.1462 271.689 55.5124V57.0277C271.689 57.4865 271.773 57.8829 271.942 58.217C272.115 58.551 272.359 58.8086 272.673 58.9897C272.987 59.1708 273.359 59.2614 273.79 59.2614C274.075 59.2614 274.337 59.2211 274.574 59.1406C274.812 59.0601 275.015 58.9394 275.184 58.7784C275.353 58.6174 275.482 58.4202 275.57 58.1868L277.949 58.3438C277.828 58.9152 277.581 59.4143 277.206 59.8409C276.836 60.2635 276.357 60.5935 275.77 60.831C275.186 61.0644 274.512 61.1811 273.747 61.1811ZM282.253 55.6392V61H279.682V51.7273H282.133V53.3633H282.241C282.446 52.824 282.791 52.3974 283.274 52.0835C283.756 51.7655 284.342 51.6065 285.03 51.6065C285.674 51.6065 286.236 51.7474 286.715 52.0291C287.194 52.3108 287.566 52.7133 287.831 53.2365C288.097 53.7557 288.23 54.3755 288.23 55.0959V61H285.658V55.5547C285.662 54.9872 285.517 54.5445 285.223 54.2266C284.93 53.9046 284.525 53.7436 284.01 53.7436C283.664 53.7436 283.358 53.8181 283.092 53.967C282.831 54.1159 282.626 54.3332 282.477 54.619C282.332 54.9007 282.257 55.2408 282.253 55.6392ZM295.189 51.7273V53.6591H289.605V51.7273H295.189ZM290.873 49.5057H293.444V58.1506C293.444 58.388 293.48 58.5732 293.553 58.706C293.625 58.8348 293.726 58.9253 293.855 58.9776C293.988 59.0299 294.141 59.0561 294.314 59.0561C294.434 59.0561 294.555 59.046 294.676 59.0259C294.797 59.0018 294.889 58.9837 294.953 58.9716L295.358 60.8853C295.229 60.9255 295.048 60.9718 294.815 61.0241C294.581 61.0805 294.297 61.1147 293.963 61.1268C293.344 61.1509 292.8 61.0684 292.333 60.8793C291.871 60.6901 291.51 60.3963 291.253 59.9979C290.995 59.5994 290.868 59.0964 290.873 58.4886V49.5057ZM60.5938 75.8182C60.5938 74.321 60.793 72.9426 61.1914 71.6829C61.5939 70.4232 62.2076 69.256 63.0327 68.1815H65.4897C65.1758 68.5799 64.884 69.0669 64.6143 69.6424C64.3447 70.2139 64.1093 70.8417 63.908 71.5259C63.7068 72.2101 63.5498 72.9184 63.4371 73.6509C63.3245 74.3794 63.2681 75.1018 63.2681 75.8182C63.2681 76.772 63.3647 77.7359 63.5579 78.7099C63.7551 79.6798 64.0207 80.5813 64.3548 81.4144C64.6928 82.2475 65.0711 82.9297 65.4897 83.4609H63.0327C62.2076 82.3864 61.5939 81.2192 61.1914 79.9595C60.793 78.6998 60.5938 77.3194 60.5938 75.8182ZM67.0306 82V69.6364H71.9085C72.8462 69.6364 73.6451 69.8155 74.3051 70.1737C74.9652 70.5278 75.4682 71.0208 75.8144 71.6527C76.1645 72.2805 76.3396 73.005 76.3396 73.826C76.3396 74.647 76.1625 75.3714 75.8083 75.9993C75.4542 76.6271 74.941 77.1161 74.2689 77.4663C73.6008 77.8164 72.7919 77.9915 71.8421 77.9915H68.733V75.8967H71.4195C71.9226 75.8967 72.3371 75.8101 72.6631 75.6371C72.9931 75.46 73.2386 75.2165 73.3996 74.9066C73.5646 74.5927 73.6471 74.2325 73.6471 73.826C73.6471 73.4155 73.5646 73.0573 73.3996 72.7514C73.2386 72.4415 72.9931 72.2021 72.6631 72.033C72.3331 71.86 71.9145 71.7734 71.4074 71.7734H69.6446V82H67.0306ZM78.0375 82V69.6364H80.6515V74.7376H85.9579V69.6364H88.5659V82H85.9579V76.8928H80.6515V82H78.0375ZM90.7211 82V69.6364H95.5989C96.5366 69.6364 97.3355 69.8155 97.9956 70.1737C98.6556 70.5278 99.1587 71.0208 99.5048 71.6527C99.8549 72.2805 100.03 73.005 100.03 73.826C100.03 74.647 99.8529 75.3714 99.4988 75.9993C99.1446 76.6271 98.6315 77.1161 97.9593 77.4663C97.2913 77.8164 96.4823 77.9915 95.5325 77.9915H92.4235V75.8967H95.1099C95.613 75.8967 96.0275 75.8101 96.3535 75.6371C96.6835 75.46 96.929 75.2165 97.09 74.9066C97.255 74.5927 97.3375 74.2325 97.3375 73.826C97.3375 73.4155 97.255 73.0573 97.09 72.7514C96.929 72.4415 96.6835 72.2021 96.3535 72.033C96.0235 71.86 95.6049 71.7734 95.0978 71.7734H93.335V82H90.7211ZM109.405 82.1811C108.552 82.1811 107.816 82.0282 107.196 81.7223C106.576 81.4164 106.099 81.0019 105.765 80.4787C105.435 79.9515 105.27 79.3639 105.27 78.7159C105.27 78.233 105.367 77.8043 105.56 77.43C105.753 77.0558 106.023 76.7116 106.369 76.3977C106.715 76.0798 107.117 75.7638 107.576 75.4499L109.973 73.8743C110.283 73.6771 110.51 73.4698 110.655 73.2525C110.8 73.0311 110.872 72.7917 110.872 72.5341C110.872 72.2886 110.774 72.0612 110.577 71.8519C110.379 71.6426 110.1 71.54 109.737 71.544C109.496 71.544 109.287 71.5984 109.11 71.707C108.932 71.8117 108.794 71.9505 108.693 72.1236C108.596 72.2926 108.548 72.4818 108.548 72.6911C108.548 72.9486 108.621 73.2102 108.765 73.4759C108.91 73.7415 109.104 74.0232 109.345 74.321C109.586 74.6148 109.85 74.9328 110.136 75.2749L115.998 82H113.317L108.427 76.5547C108.105 76.1884 107.783 75.8061 107.461 75.4077C107.144 75.0052 106.878 74.5786 106.665 74.1278C106.451 73.6731 106.345 73.18 106.345 72.6488C106.345 72.0491 106.483 71.5098 106.761 71.0309C107.043 70.552 107.437 70.1737 107.944 69.896C108.452 69.6142 109.043 69.4734 109.719 69.4734C110.379 69.4734 110.949 69.6082 111.428 69.8778C111.911 70.1435 112.281 70.4976 112.539 70.9403C112.8 71.379 112.931 71.862 112.931 72.3892C112.931 72.9728 112.786 73.502 112.496 73.9769C112.211 74.4478 111.808 74.8704 111.289 75.2447L108.765 77.0618C108.423 77.3113 108.17 77.5669 108.005 77.8285C107.844 78.0861 107.763 78.3336 107.763 78.571C107.763 78.8648 107.836 79.1284 107.981 79.3619C108.126 79.5953 108.331 79.7804 108.596 79.9173C108.862 80.0501 109.174 80.1165 109.532 80.1165C109.967 80.1165 110.395 80.0179 110.818 79.8207C111.245 79.6194 111.631 79.3357 111.977 78.9695C112.327 78.5992 112.607 78.1605 112.816 77.6534C113.026 77.1463 113.13 76.5849 113.13 75.9691H115.261C115.261 76.7257 115.179 77.4079 115.014 78.0156C114.849 78.6193 114.619 79.1465 114.325 79.5973C114.032 80.044 113.696 80.4103 113.317 80.696C113.197 80.7725 113.08 80.8449 112.967 80.9134C112.854 80.9818 112.738 81.0542 112.617 81.1307C112.158 81.5009 111.645 81.7686 111.078 81.9336C110.514 82.0986 109.957 82.1811 109.405 82.1811ZM121.052 82V69.6364H123.666V79.8448H128.967V82H121.052ZM133.294 82.1751C132.702 82.1751 132.175 82.0724 131.712 81.8672C131.249 81.6579 130.883 81.35 130.613 80.9435C130.347 80.533 130.215 80.0219 130.215 79.4102C130.215 78.895 130.309 78.4624 130.498 78.1122C130.688 77.7621 130.945 77.4804 131.271 77.267C131.597 77.0537 131.967 76.8928 132.382 76.7841C132.8 76.6754 133.239 76.599 133.698 76.5547C134.237 76.4983 134.672 76.446 135.002 76.3977C135.332 76.3454 135.571 76.2689 135.72 76.1683C135.869 76.0677 135.944 75.9188 135.944 75.7216V75.6854C135.944 75.303 135.823 75.0072 135.581 74.7979C135.344 74.5887 135.006 74.484 134.567 74.484C134.104 74.484 133.736 74.5866 133.463 74.7919C133.189 74.9931 133.008 75.2467 132.919 75.5526L130.541 75.3594C130.661 74.7959 130.899 74.3089 131.253 73.8984C131.607 73.4839 132.064 73.166 132.623 72.9446C133.187 72.7192 133.839 72.6065 134.579 72.6065C135.095 72.6065 135.588 72.6669 136.058 72.7876C136.533 72.9084 136.954 73.0955 137.32 73.3491C137.69 73.6026 137.982 73.9286 138.195 74.3271C138.409 74.7215 138.515 75.1944 138.515 75.7457V82H136.077V80.7141H136.004C135.855 81.0039 135.656 81.2595 135.406 81.4808C135.157 81.6982 134.857 81.8692 134.507 81.994C134.157 82.1147 133.752 82.1751 133.294 82.1751ZM134.03 80.4002C134.408 80.4002 134.742 80.3258 135.032 80.1768C135.322 80.0239 135.549 79.8187 135.714 79.5611C135.879 79.3035 135.962 79.0117 135.962 78.6857V77.7017C135.881 77.754 135.771 77.8023 135.63 77.8466C135.493 77.8868 135.338 77.9251 135.165 77.9613C134.992 77.9935 134.819 78.0237 134.646 78.0518C134.473 78.076 134.316 78.0981 134.175 78.1183C133.873 78.1625 133.609 78.233 133.384 78.3295C133.159 78.4261 132.984 78.5569 132.859 78.7219C132.734 78.8829 132.672 79.0842 132.672 79.3256C132.672 79.6758 132.798 79.9434 133.052 80.1286C133.31 80.3097 133.636 80.4002 134.03 80.4002ZM140.511 82V72.7273H143.004V74.3452H143.1C143.27 73.7696 143.553 73.335 143.952 73.0412C144.35 72.7434 144.809 72.5945 145.328 72.5945C145.457 72.5945 145.596 72.6025 145.745 72.6186C145.894 72.6347 146.024 72.6568 146.137 72.685V74.967C146.016 74.9308 145.849 74.8986 145.636 74.8704C145.423 74.8422 145.228 74.8281 145.05 74.8281C144.672 74.8281 144.334 74.9106 144.036 75.0756C143.742 75.2366 143.509 75.462 143.336 75.7518C143.167 76.0415 143.082 76.3756 143.082 76.7539V82H140.511ZM149.845 82.1751C149.254 82.1751 148.726 82.0724 148.264 81.8672C147.801 81.6579 147.435 81.35 147.165 80.9435C146.899 80.533 146.766 80.0219 146.766 79.4102C146.766 78.895 146.861 78.4624 147.05 78.1122C147.239 77.7621 147.497 77.4804 147.823 77.267C148.149 77.0537 148.519 76.8928 148.934 76.7841C149.352 76.6754 149.791 76.599 150.25 76.5547C150.789 76.4983 151.224 76.446 151.554 76.3977C151.884 76.3454 152.123 76.2689 152.272 76.1683C152.421 76.0677 152.495 75.9188 152.495 75.7216V75.6854C152.495 75.303 152.375 75.0072 152.133 74.7979C151.896 74.5887 151.558 74.484 151.119 74.484C150.656 74.484 150.288 74.5866 150.014 74.7919C149.741 74.9931 149.56 75.2467 149.471 75.5526L147.092 75.3594C147.213 74.7959 147.451 74.3089 147.805 73.8984C148.159 73.4839 148.616 73.166 149.175 72.9446C149.739 72.7192 150.391 72.6065 151.131 72.6065C151.646 72.6065 152.139 72.6669 152.61 72.7876C153.085 72.9084 153.506 73.0955 153.872 73.3491C154.242 73.6026 154.534 73.9286 154.747 74.3271C154.961 74.7215 155.067 75.1944 155.067 75.7457V82H152.628V80.7141H152.556C152.407 81.0039 152.208 81.2595 151.958 81.4808C151.709 81.6982 151.409 81.8692 151.059 81.994C150.709 82.1147 150.304 82.1751 149.845 82.1751ZM150.582 80.4002C150.96 80.4002 151.294 80.3258 151.584 80.1768C151.874 80.0239 152.101 79.8187 152.266 79.5611C152.431 79.3035 152.514 79.0117 152.514 78.6857V77.7017C152.433 77.754 152.322 77.8023 152.182 77.8466C152.045 77.8868 151.89 77.9251 151.717 77.9613C151.544 77.9935 151.371 78.0237 151.198 78.0518C151.024 78.076 150.868 78.0981 150.727 78.1183C150.425 78.1625 150.161 78.233 149.936 78.3295C149.71 78.4261 149.535 78.5569 149.411 78.7219C149.286 78.8829 149.223 79.0842 149.223 79.3256C149.223 79.6758 149.35 79.9434 149.604 80.1286C149.861 80.3097 150.187 80.4002 150.582 80.4002ZM165.375 72.7273L162.133 82H159.236L155.994 72.7273H158.71L160.636 79.3619H160.733L162.653 72.7273H165.375ZM170.618 82.1811C169.665 82.1811 168.843 81.9879 168.155 81.6016C167.471 81.2112 166.944 80.6598 166.574 79.9474C166.203 79.2311 166.018 78.3839 166.018 77.4059C166.018 76.4521 166.203 75.6149 166.574 74.8945C166.944 74.1741 167.465 73.6127 168.137 73.2102C168.813 72.8078 169.606 72.6065 170.516 72.6065C171.127 72.6065 171.697 72.7051 172.224 72.9023C172.755 73.0955 173.218 73.3873 173.613 73.7777C174.011 74.1681 174.321 74.6591 174.542 75.2507C174.764 75.8383 174.874 76.5265 174.874 77.3153V78.0217H167.044V76.4279H172.454C172.454 76.0576 172.373 75.7296 172.212 75.4439C172.051 75.1581 171.828 74.9348 171.542 74.7738C171.26 74.6088 170.932 74.5263 170.558 74.5263C170.168 74.5263 169.821 74.6168 169.52 74.7979C169.222 74.975 168.988 75.2145 168.819 75.5163C168.65 75.8142 168.564 76.1462 168.56 76.5124V78.0277C168.56 78.4865 168.644 78.8829 168.813 79.217C168.986 79.551 169.23 79.8086 169.544 79.9897C169.858 80.1708 170.23 80.2614 170.661 80.2614C170.946 80.2614 171.208 80.2211 171.445 80.1406C171.683 80.0601 171.886 79.9394 172.055 79.7784C172.224 79.6174 172.353 79.4202 172.441 79.1868L174.82 79.3438C174.699 79.9152 174.452 80.4143 174.078 80.8409C173.707 81.2635 173.228 81.5935 172.641 81.831C172.057 82.0644 171.383 82.1811 170.618 82.1811ZM179.124 69.6364V82H176.553V69.6364H179.124ZM185.519 77.0437C185.519 78.5449 185.318 79.9253 184.915 81.185C184.517 82.4447 183.905 83.6119 183.08 84.6864H180.623C180.937 84.288 181.229 83.801 181.498 83.2255C181.768 82.65 182.003 82.0221 182.205 81.342C182.406 80.6578 182.563 79.9495 182.676 79.217C182.788 78.4845 182.845 77.7601 182.845 77.0437C182.845 76.0898 182.746 75.128 182.549 74.158C182.356 73.1841 182.09 72.2826 181.752 71.4535C181.418 70.6204 181.042 69.9382 180.623 69.407H183.08C183.905 70.4815 184.517 71.6487 184.915 72.9084C185.318 74.1681 185.519 75.5465 185.519 77.0437Z" fill="black"/>
<path d="M354.153 84.324C352.605 84.324 351.219 83.946 349.995 83.19C348.771 82.416 347.808 81.3 347.106 79.842C346.404 78.384 346.053 76.62 346.053 74.55C346.053 72.48 346.404 70.716 347.106 69.258C347.808 67.8 348.771 66.693 349.995 65.937C351.219 65.163 352.605 64.776 354.153 64.776C355.719 64.776 357.105 65.163 358.311 65.937C359.535 66.693 360.498 67.8 361.2 69.258C361.902 70.716 362.253 72.48 362.253 74.55C362.253 76.62 361.902 78.384 361.2 79.842C360.498 81.3 359.535 82.416 358.311 83.19C357.105 83.946 355.719 84.324 354.153 84.324ZM354.153 80.625C354.891 80.625 355.53 80.418 356.07 80.004C356.628 79.59 357.06 78.933 357.366 78.033C357.69 77.133 357.852 75.972 357.852 74.55C357.852 73.128 357.69 71.967 357.366 71.067C357.06 70.167 356.628 69.51 356.07 69.096C355.53 68.682 354.891 68.475 354.153 68.475C353.433 68.475 352.794 68.682 352.236 69.096C351.696 69.51 351.264 70.167 350.94 71.067C350.634 71.967 350.481 73.128 350.481 74.55C350.481 75.972 350.634 77.133 350.94 78.033C351.264 78.933 351.696 79.59 352.236 80.004C352.794 80.418 353.433 80.625 354.153 80.625ZM364.111 84V81.165L371.401 74.28C371.977 73.758 372.4 73.29 372.67 72.876C372.94 72.462 373.12 72.084 373.21 71.742C373.318 71.4 373.372 71.085 373.372 70.797C373.372 70.041 373.111 69.465 372.589 69.069C372.085 68.655 371.338 68.448 370.348 68.448C369.556 68.448 368.818 68.601 368.134 68.907C367.468 69.213 366.901 69.69 366.433 70.338L363.247 68.286C363.967 67.206 364.975 66.351 366.271 65.721C367.567 65.091 369.061 64.776 370.753 64.776C372.157 64.776 373.381 65.01 374.425 65.478C375.487 65.928 376.306 66.567 376.882 67.395C377.476 68.223 377.773 69.213 377.773 70.365C377.773 70.977 377.692 71.589 377.53 72.201C377.386 72.795 377.08 73.425 376.612 74.091C376.162 74.757 375.496 75.504 374.614 76.332L368.566 82.029L367.729 80.436H378.394V84H364.111Z" fill="white"/>
</svg>
