<svg width="451" height="155" viewBox="0 0 451 155" fill="none" xmlns="http://www.w3.org/2000/svg">
<circle cx="76.5" cy="76.5" r="66" transform="matrix(0.999991 -0.00416857 -0.00416857 -0.999991 0.637669 154.875)" stroke="#7A1E2D" stroke-width="21"/>
<path d="M88.5159 125.508L446.513 124.016L446.25 61.0161C446.179 43.8955 432.242 30.0743 415.121 30.1456L88.1241 31.5087C62.7192 31.6147 42.2104 52.2952 42.3163 77.7001L42.3246 79.7001C42.4305 105.105 63.1111 125.614 88.5159 125.508Z" fill="white" stroke="#7A1E2D" stroke-width="8"/>
<path d="M143.53 68.7984L143.395 56.4355L151.581 56.3464L151.604 58.5015L146.033 58.5621L146.065 61.5079L151.093 61.4532L151.117 63.6083L146.088 63.663L146.144 68.7699L143.53 68.7984ZM158.747 64.6845L158.689 59.3602L161.261 59.3323L161.362 68.6044L158.893 68.6313L158.875 66.9471L158.778 66.9481C158.575 67.4937 158.231 67.9341 157.748 68.2694C157.269 68.6047 156.681 68.7761 155.985 68.7837C155.365 68.7904 154.818 68.6555 154.344 68.3789C153.87 68.1023 153.498 67.7059 153.226 67.1896C152.959 66.6733 152.82 66.053 152.808 65.3287L152.743 59.4249L155.315 59.3969L155.374 64.8419C155.384 65.3892 155.536 65.8202 155.829 66.135C156.122 66.4498 156.512 66.6045 156.999 66.5992C157.309 66.5958 157.598 66.5223 157.866 66.3785C158.134 66.2307 158.349 66.015 158.511 65.7315C158.677 65.448 158.756 65.0989 158.747 64.6845ZM165.856 56.1912L165.99 68.5541L163.419 68.5821L163.284 56.2192L165.856 56.1912ZM170.488 56.1408L170.622 68.5037L168.05 68.5317L167.916 56.1688L170.488 56.1408ZM183.275 59.5577C183.222 59.0713 183.011 58.6953 182.641 58.4296C182.272 58.164 181.774 58.0345 181.146 58.0414C180.719 58.046 180.36 58.1103 180.067 58.2342C179.775 58.3541 179.551 58.5196 179.397 58.7305C179.246 58.9415 179.172 59.1797 179.175 59.4453C179.169 59.6668 179.218 59.8594 179.32 60.0233C179.426 60.1872 179.571 60.3285 179.753 60.4473C179.936 60.562 180.146 60.6624 180.384 60.7483C180.623 60.8303 180.877 60.8999 181.147 60.9574L182.261 61.2109C182.802 61.3258 183.298 61.4814 183.751 61.6777C184.204 61.874 184.597 62.1172 184.93 62.4074C185.264 62.6976 185.523 63.0409 185.708 63.4374C185.898 63.8338 185.997 64.2895 186.007 64.8046C186.011 65.5612 185.825 66.2193 185.449 66.7788C185.077 67.3343 184.534 67.7688 183.821 68.0825C183.112 68.3921 182.254 68.5523 181.248 68.5633C180.25 68.5741 179.379 68.4306 178.635 68.1328C177.896 67.835 177.315 67.3885 176.894 66.7934C176.477 66.1942 176.254 65.45 176.224 64.5608L178.753 64.5333C178.786 64.9475 178.908 65.2923 179.121 65.5677C179.337 65.8391 179.623 66.0433 179.979 66.1803C180.338 66.3132 180.744 66.3772 181.194 66.3723C181.637 66.3675 182.021 66.2989 182.345 66.1666C182.674 66.0342 182.927 65.8524 183.106 65.621C183.285 65.3896 183.372 65.1251 183.369 64.8273C183.366 64.5496 183.281 64.3171 183.114 64.1297C182.951 63.9423 182.712 63.7839 182.396 63.6545C182.085 63.5251 181.703 63.4085 181.251 63.3047L179.902 62.9813C178.857 62.7391 178.029 62.3517 177.42 61.819C176.81 61.2863 176.503 60.5631 176.497 59.6496C176.484 58.9011 176.677 58.2449 177.073 57.6812C177.473 57.1174 178.026 56.6747 178.731 56.353C179.436 56.0314 180.239 55.8657 181.14 55.8559C182.058 55.846 182.86 55.9942 183.548 56.3007C184.24 56.6071 184.78 57.0379 185.168 57.5931C185.556 58.1484 185.761 58.7941 185.781 59.5305L183.275 59.5577ZM192.586 58.9916L192.607 60.9233L187.024 60.984L187.003 59.0523L192.586 58.9916ZM188.246 56.8171L190.818 56.7891L190.912 65.4335C190.914 65.6709 190.952 65.8557 191.026 65.9877C191.1 66.1157 191.202 66.2051 191.331 66.256C191.464 66.3069 191.618 66.3314 191.791 66.3295C191.911 66.3282 192.032 66.3168 192.153 66.2954C192.273 66.2699 192.365 66.2508 192.43 66.238L192.855 68.1472C192.727 68.1889 192.546 68.2371 192.313 68.292C192.08 68.3509 191.797 68.3882 191.463 68.4039C190.844 68.4348 190.299 68.3582 189.831 68.1741C189.366 67.99 189.002 67.7001 188.74 67.3045C188.479 66.9089 188.346 66.4072 188.344 65.7995L188.246 56.8171ZM197.008 68.3919C196.417 68.3983 195.888 68.3014 195.423 68.1012C194.958 67.897 194.589 67.5931 194.315 67.1896C194.045 66.782 193.906 66.2723 193.9 65.6606C193.894 65.1455 193.984 64.7118 194.169 64.3596C194.354 64.0075 194.609 63.723 194.933 63.5061C195.256 63.2893 195.625 63.1243 196.038 63.0111C196.455 62.8979 196.893 62.8167 197.352 62.7674C197.89 62.7052 198.324 62.6482 198.654 62.5963C198.983 62.5404 199.222 62.4613 199.37 62.3591C199.517 62.2569 199.59 62.1071 199.588 61.9099L199.588 61.8737C199.584 61.4914 199.46 61.1969 199.216 60.9903C198.976 60.7836 198.637 60.6826 198.198 60.6874C197.736 60.6925 197.368 60.7991 197.097 61.0073C196.826 61.2115 196.647 61.467 196.562 61.7738L194.181 61.6065C194.296 61.0418 194.528 60.5522 194.878 60.1379C195.228 59.7195 195.681 59.3967 196.238 59.1692C196.799 58.9377 197.45 58.818 198.19 58.8099C198.705 58.8043 199.199 58.8593 199.671 58.9749C200.147 59.0905 200.57 59.2731 200.939 59.5226C201.312 59.7721 201.607 60.0949 201.825 60.491C202.042 60.8831 202.154 61.3548 202.16 61.9061L202.228 68.16L199.789 68.1865L199.775 66.9008L199.703 66.9015C199.557 67.1929 199.361 67.4506 199.114 67.6747C198.866 67.8947 198.568 68.069 198.22 68.1976C197.871 68.3221 197.467 68.3869 197.008 68.3919ZM197.725 66.6091C198.104 66.605 198.437 66.5269 198.725 66.3749C199.013 66.2188 199.238 66.0111 199.401 65.7517C199.563 65.4923 199.642 65.1997 199.638 64.8737L199.628 63.8897C199.548 63.9429 199.438 63.9924 199.297 64.0382C199.161 64.08 199.006 64.1199 198.834 64.158C198.661 64.1921 198.488 64.2241 198.316 64.2542C198.143 64.2802 197.986 64.304 197.845 64.3257C197.544 64.3733 197.281 64.4465 197.057 64.5456C196.833 64.6446 196.659 64.7773 196.536 64.9437C196.413 65.106 196.353 65.3079 196.356 65.5494C196.359 65.8995 196.489 66.1657 196.745 66.3481C197.004 66.5264 197.331 66.6134 197.725 66.6091ZM208.414 68.2739C207.465 68.2842 206.646 68.0919 205.957 67.6969C205.272 67.2978 204.743 66.7401 204.369 66.0237C203.999 65.3073 203.809 64.4802 203.799 63.5425C203.788 62.5928 203.963 61.7577 204.321 61.0374C204.683 60.313 205.202 59.7459 205.878 59.3361C206.554 58.9222 207.361 58.7102 208.298 58.7C209.107 58.6912 209.817 58.8304 210.428 59.1175C211.039 59.4047 211.524 59.812 211.884 60.3394C212.244 60.8667 212.446 61.4884 212.49 62.2043L210.063 62.2307C209.99 61.7687 209.805 61.3984 209.508 61.1199C209.215 60.8373 208.833 60.6985 208.362 60.7037C207.964 60.708 207.617 60.8204 207.322 61.041C207.03 61.2575 206.804 61.5719 206.644 61.9842C206.483 62.3964 206.406 62.8943 206.412 63.4779C206.419 64.0695 206.505 64.5716 206.67 64.9844C206.84 65.3971 207.074 65.7105 207.375 65.9246C207.675 66.1387 208.024 66.2435 208.422 66.2392C208.716 66.236 208.979 66.1728 209.211 66.0495C209.447 65.9262 209.641 65.749 209.791 65.518C209.946 65.2828 210.045 65.002 210.09 64.6755L212.517 64.6491C212.484 65.3579 212.298 65.9837 211.957 66.5268C211.621 67.0657 211.153 67.4894 210.553 67.7978C209.952 68.1062 209.239 68.2649 208.414 68.2739ZM216.501 65.3363L216.474 62.2516L216.848 62.2475L219.78 58.6959L222.732 58.6638L218.792 63.3674L218.182 63.374L216.501 65.3363ZM214.2 68.0298L214.066 55.6669L216.637 55.639L216.772 68.0019L214.2 68.0298ZM219.995 67.9668L217.223 63.958L218.917 62.1224L223.007 67.934L219.995 67.9668ZM230.859 67.8487L227.188 55.5242L230.043 55.4932L232.183 64.061L232.285 64.0598L234.45 55.4452L236.894 55.4187L239.24 64.0023L239.348 64.0011L241.301 55.3707L244.156 55.3397L240.753 67.7411L238.206 67.7688L235.764 59.7114L235.667 59.7124L233.407 67.821L230.859 67.8487ZM248.873 67.8339C247.919 67.8442 247.096 67.66 246.404 67.2811C245.715 66.8982 245.182 66.3526 244.804 65.6443C244.426 64.932 244.232 64.0869 244.221 63.109C244.211 62.1552 244.387 61.3161 244.749 60.5917C245.112 59.8673 245.627 59.3003 246.294 58.8905C246.966 58.4807 247.757 58.2709 248.666 58.261C249.278 58.2543 249.849 58.3467 250.378 58.5382C250.911 58.7256 251.377 59.0123 251.776 59.3984C252.178 59.7844 252.494 60.272 252.721 60.8612C252.949 61.4464 253.067 62.1333 253.076 62.9221L253.084 63.6284L245.254 63.7135L245.237 62.1199L250.646 62.0611C250.642 61.6908 250.558 61.3637 250.393 61.0797C250.229 60.7957 250.004 60.5748 249.716 60.417C249.433 60.255 249.104 60.1761 248.729 60.1802C248.339 60.1844 247.994 60.2787 247.694 60.4631C247.398 60.6434 247.167 60.8854 247.002 61.1891C246.836 61.4887 246.753 61.8217 246.753 62.1879L246.769 63.7031C246.774 64.1619 246.863 64.5574 247.036 64.8895C247.213 65.2217 247.459 65.4766 247.775 65.6543C248.091 65.832 248.464 65.9185 248.894 65.9138C249.18 65.9107 249.441 65.8676 249.678 65.7845C249.914 65.7015 250.116 65.5785 250.284 65.4157C250.451 65.2529 250.578 65.0543 250.664 64.8199L253.044 64.951C252.929 65.5238 252.687 66.0255 252.317 66.4561C251.952 66.8827 251.476 67.2179 250.892 67.4618C250.311 67.7015 249.638 67.8256 248.873 67.8339ZM254.853 67.5877L254.719 55.2248L257.29 55.1969L257.341 59.845L257.42 59.8442C257.529 59.5934 257.69 59.3381 257.9 59.0782C258.115 58.8143 258.394 58.5939 258.738 58.4171C259.086 58.2362 259.52 58.143 260.039 58.1373C260.715 58.13 261.341 58.3002 261.916 58.6482C262.492 58.9921 262.954 59.5163 263.304 60.2209C263.654 60.9214 263.834 61.8029 263.846 62.8654C263.857 63.8996 263.7 64.7747 263.373 65.4907C263.051 66.2026 262.606 66.7447 262.039 67.1172C261.475 67.4855 260.841 67.6735 260.137 67.6812C259.638 67.6866 259.213 67.6087 258.861 67.4475C258.513 67.2863 258.227 67.0821 258.003 66.835C257.779 66.5839 257.607 66.3302 257.487 66.0739L257.373 66.0752L257.389 67.5602L254.853 67.5877ZM257.32 62.9243C257.326 63.4756 257.408 63.9557 257.565 64.3645C257.723 64.7733 257.947 65.0909 258.24 65.3171C258.532 65.5393 258.885 65.6482 259.3 65.6437C259.718 65.6391 260.071 65.5206 260.358 65.288C260.646 65.0515 260.862 64.7271 261.006 64.315C261.154 63.8988 261.226 63.4211 261.22 62.8819C261.214 62.3466 261.134 61.8766 260.981 61.4717C260.828 61.0669 260.605 60.7513 260.313 60.5251C260.02 60.2989 259.663 60.188 259.241 60.1926C258.822 60.1972 258.469 60.3117 258.182 60.5362C257.898 60.7606 257.682 61.0769 257.534 61.4851C257.385 61.8932 257.314 62.3729 257.32 62.9243ZM273.977 67.3798L269.595 67.4274L269.46 55.0645L273.879 55.0165C275.123 55.0029 276.196 55.2388 277.099 55.724C278.001 56.2052 278.699 56.904 279.192 57.8203C279.689 58.7366 279.945 59.8367 279.959 61.1204C279.973 62.4083 279.741 63.5176 279.264 64.4485C278.791 65.3794 278.105 66.0972 277.205 66.6021C276.309 67.1069 275.233 67.3661 273.977 67.3798ZM272.184 65.1594L273.844 65.1414C274.617 65.133 275.265 64.9891 275.79 64.7097C276.318 64.4262 276.712 63.9933 276.971 63.4109C277.234 62.8244 277.361 62.0704 277.351 61.1488C277.341 60.2353 277.198 59.4902 276.922 58.9136C276.65 58.337 276.249 57.9147 275.719 57.6468C275.189 57.3789 274.537 57.2491 273.765 57.2575L272.098 57.2757L272.184 65.1594ZM286.141 67.4286C285.188 67.439 284.365 67.2547 283.672 66.8759C282.984 66.4929 282.451 65.9473 282.073 65.239C281.695 64.5267 281.5 63.6816 281.49 62.7037C281.479 61.7499 281.655 60.9108 282.018 60.1864C282.38 59.462 282.895 58.895 283.563 58.4852C284.235 58.0754 285.025 57.8656 285.935 57.8557C286.546 57.849 287.117 57.9414 287.646 58.1329C288.18 58.3203 288.646 58.607 289.044 58.9931C289.447 59.3791 289.762 59.8668 289.99 60.4559C290.218 61.0411 290.336 61.728 290.344 62.5168L290.352 63.2231L282.522 63.3082L282.505 61.7146L287.914 61.6558C287.91 61.2855 287.826 60.9584 287.662 60.6744C287.498 60.3905 287.272 60.1695 286.984 60.0117C286.701 59.8497 286.372 59.7708 285.998 59.7749C285.607 59.7791 285.262 59.8734 284.962 60.0578C284.667 60.2381 284.436 60.4801 284.27 60.7838C284.104 61.0834 284.021 61.4164 284.021 61.7826L284.038 63.2978C284.043 63.7566 284.132 64.1521 284.304 64.4843C284.481 64.8164 284.727 65.0713 285.043 65.249C285.359 65.4267 285.732 65.5132 286.163 65.5085C286.448 65.5054 286.71 65.4623 286.946 65.3792C287.183 65.2962 287.385 65.1732 287.552 65.0104C287.719 64.8476 287.846 64.649 287.932 64.4146L290.312 64.5457C290.197 65.1185 289.955 65.6202 289.586 66.0509C289.22 66.4774 288.745 66.8126 288.16 67.0565C287.579 67.2962 286.906 67.4203 286.141 67.4286ZM300.368 57.8195L297.227 67.1269L294.33 67.1584L290.987 57.9215L293.704 57.892L295.701 64.5052L295.798 64.5042L297.645 57.8491L300.368 57.8195ZM305.713 67.2157C304.76 67.2261 303.937 67.0419 303.244 66.663C302.556 66.2801 302.023 65.7345 301.645 65.0262C301.267 64.3139 301.072 63.4688 301.062 62.4908C301.051 61.5371 301.227 60.698 301.59 59.9736C301.952 59.2492 302.467 58.6821 303.135 58.2724C303.807 57.8626 304.597 57.6527 305.507 57.6429C306.118 57.6362 306.689 57.7286 307.218 57.9201C307.752 58.1075 308.218 58.3942 308.616 58.7803C309.019 59.1663 309.334 59.6539 309.562 60.2431C309.79 60.8282 309.908 61.5152 309.916 62.304L309.924 63.0103L302.095 63.0954L302.077 61.5017L307.486 61.4429C307.482 61.0727 307.398 60.7456 307.234 60.4616C307.07 60.1776 306.844 59.9567 306.557 59.7988C306.273 59.6369 305.944 59.558 305.57 59.562C305.179 59.5663 304.834 59.6606 304.535 59.845C304.239 60.0253 304.008 60.2673 303.842 60.5709C303.676 60.8706 303.593 61.2035 303.593 61.5698L303.61 63.085C303.615 63.5437 303.704 63.9392 303.876 64.2714C304.053 64.6036 304.299 64.8585 304.615 65.0362C304.931 65.2138 305.304 65.3003 305.735 65.2957C306.021 65.2925 306.282 65.2495 306.518 65.1664C306.755 65.0833 306.957 64.9604 307.124 64.7976C307.291 64.6347 307.418 64.4362 307.504 64.2018L309.884 64.3329C309.77 64.9056 309.527 65.4074 309.158 65.838C308.792 66.2646 308.317 66.5998 307.732 66.8436C307.151 67.0834 306.478 67.2074 305.713 67.2157ZM314.083 54.5792L314.217 66.9421L311.645 66.9701L311.511 54.6072L314.083 54.5792ZM320.468 67.0553C319.531 67.0655 318.718 66.8751 318.029 66.4841C317.345 66.0891 316.813 65.5354 316.435 64.8231C316.057 64.1067 315.863 63.2737 315.853 62.3239C315.842 61.3661 316.018 60.5271 316.381 59.8067C316.743 59.0823 317.262 58.5172 317.938 58.1114C318.618 57.7015 319.427 57.4915 320.364 57.4813C321.302 57.4711 322.113 57.6635 322.798 58.0585C323.486 58.4495 324.019 59.0032 324.397 59.7195C324.775 60.4318 324.97 61.2669 324.98 62.2247C324.99 63.1744 324.814 64.0115 324.452 64.7359C324.089 65.4563 323.568 66.0214 322.889 66.4313C322.213 66.8371 321.406 67.0451 320.468 67.0553ZM320.459 65.0631C320.885 65.0584 321.24 64.9338 321.523 64.6893C321.806 64.4407 322.018 64.1043 322.158 63.6802C322.303 63.256 322.372 62.7743 322.366 62.235C322.36 61.6957 322.28 61.2156 322.127 60.7947C321.977 60.3737 321.759 60.042 321.47 59.7996C321.182 59.5573 320.824 59.4384 320.398 59.443C319.967 59.4477 319.606 59.5744 319.315 59.8231C319.028 60.0717 318.812 60.4081 318.668 60.8323C318.528 61.2564 318.46 61.7381 318.466 62.2774C318.472 62.8167 318.55 63.2968 318.699 63.7178C318.853 64.1387 319.076 64.4704 319.368 64.7127C319.665 64.951 320.028 65.0678 320.459 65.0631ZM326.74 70.2834L326.601 57.5342L329.137 57.5066L329.154 59.0641L329.268 59.0628C329.378 58.8121 329.539 58.5568 329.749 58.2969C329.963 58.0329 330.243 57.8126 330.587 57.6357C330.935 57.4549 331.369 57.3616 331.888 57.356C332.564 57.3486 333.19 57.5189 333.765 57.8668C334.34 58.2107 334.803 58.735 335.153 59.4395C335.502 60.1401 335.683 61.0216 335.695 62.084C335.706 63.1183 335.548 63.9934 335.222 64.7093C334.9 65.4212 334.455 65.9634 333.887 66.3358C333.324 66.7042 332.69 66.8922 331.986 66.8998C331.487 66.9053 331.061 66.8274 330.709 66.6662C330.362 66.505 330.076 66.3008 329.851 66.0537C329.627 65.8026 329.456 65.5488 329.336 65.2926L329.258 65.2934L329.312 70.2555L326.74 70.2834ZM329.169 62.1429C329.175 62.6942 329.257 63.1743 329.414 63.5832C329.571 63.992 329.796 64.3095 330.089 64.5357C330.381 64.758 330.734 64.8668 331.149 64.8623C331.567 64.8578 331.92 64.7392 332.207 64.5067C332.495 64.2701 332.71 63.9458 332.855 63.5337C333.003 63.1175 333.074 62.6398 333.069 62.1005C333.063 61.5653 332.983 61.0952 332.83 60.6904C332.677 60.2855 332.454 59.97 332.162 59.7437C331.869 59.5175 331.512 59.4067 331.089 59.4113C330.671 59.4158 330.318 59.5304 330.031 59.7548C329.747 59.9793 329.531 60.2956 329.383 60.7037C329.234 61.1118 329.163 61.5916 329.169 62.1429ZM337.459 66.6894L337.359 57.4172L339.809 57.3906L339.827 59.0265L339.936 59.0253C340.123 58.4799 340.44 58.0478 340.888 57.729C341.335 57.4102 341.873 57.2474 342.5 57.2405C343.136 57.2336 343.679 57.3867 344.129 57.6998C344.58 58.0088 344.882 58.4322 345.037 58.9698L345.133 58.9688C345.317 58.4355 345.654 58.0072 346.146 57.6839C346.641 57.3565 347.229 57.1891 347.909 57.1817C348.774 57.1723 349.48 57.4404 350.025 57.9858C350.574 58.5272 350.854 59.301 350.865 60.3071L350.933 66.5429L348.367 66.5708L348.305 60.8421C348.3 60.3269 348.159 59.9421 347.882 59.6875C347.606 59.4329 347.262 59.3079 346.852 59.3123C346.385 59.3174 346.022 59.4703 345.764 59.7709C345.505 60.0675 345.379 60.4573 345.384 60.9402L345.446 66.6025L342.953 66.6297L342.89 60.8466C342.885 60.3919 342.75 60.0311 342.486 59.7643C342.225 59.4975 341.884 59.3663 341.461 59.3709C341.175 59.374 340.918 59.4493 340.691 59.5967C340.467 59.74 340.29 59.9411 340.16 60.2001C340.03 60.4551 339.967 60.7536 339.97 61.0957L340.031 66.6614L337.459 66.6894ZM357.192 66.6559C356.238 66.6663 355.415 66.482 354.723 66.1032C354.034 65.7203 353.501 65.1747 353.123 64.4664C352.745 63.7541 352.551 62.9089 352.54 61.931C352.53 60.9772 352.706 60.1381 353.068 59.4138C353.431 58.6894 353.946 58.1223 354.613 57.7125C355.285 57.3028 356.076 57.0929 356.985 57.083C357.597 57.0764 358.167 57.1688 358.697 57.3602C359.23 57.5476 359.696 57.8344 360.095 58.2204C360.497 58.6065 360.813 59.0941 361.04 59.6833C361.268 60.2684 361.386 60.9554 361.395 61.7442L361.402 62.4504L353.573 62.5356L353.556 60.9419L358.964 60.8831C358.96 60.5129 358.876 60.1858 358.712 59.9018C358.548 59.6178 358.322 59.3969 358.035 59.239C357.751 59.0771 357.423 58.9981 357.048 59.0022C356.658 59.0064 356.313 59.1008 356.013 59.2851C355.717 59.4654 355.486 59.7074 355.32 60.0111C355.155 60.3107 355.072 60.6437 355.072 61.01L355.088 62.5251C355.093 62.9839 355.182 63.3794 355.355 63.7116C355.531 64.0437 355.778 64.2986 356.094 64.4763C356.409 64.654 356.783 64.7405 357.213 64.7358C357.499 64.7327 357.76 64.6896 357.997 64.6066C358.233 64.5235 358.435 64.4006 358.602 64.2377C358.77 64.0749 358.896 63.8763 358.982 63.642L361.362 63.773C361.248 64.3458 361.006 64.8475 360.636 65.2782C360.271 65.7048 359.795 66.04 359.21 66.2838C358.629 66.5236 357.956 66.6476 357.192 66.6559ZM365.637 61.0218L365.695 66.3823L363.124 66.4103L363.023 57.1381L365.474 57.1115L365.492 58.7474L365.6 58.7462C365.8 58.2047 366.139 57.7744 366.619 57.4552C367.098 57.132 367.682 56.9667 368.37 56.9592C369.014 56.9522 369.577 57.087 370.059 57.3635C370.541 57.64 370.918 58.0383 371.189 58.5586C371.46 59.0749 371.6 59.6932 371.607 60.4136L371.672 66.3173L369.1 66.3453L369.041 60.9003C369.039 60.3328 368.889 59.8917 368.592 59.577C368.294 59.2582 367.888 59.1017 367.373 59.1073C367.027 59.111 366.722 59.1888 366.458 59.3406C366.198 59.4923 365.995 59.7119 365.849 59.9992C365.708 60.2825 365.637 60.6234 365.637 61.0218ZM378.529 56.9695L378.55 58.9012L372.967 58.9619L372.946 57.0302L378.529 56.9695ZM374.189 54.795L376.761 54.767L376.855 63.4114C376.857 63.6488 376.896 63.8335 376.969 63.9655C377.043 64.0935 377.145 64.183 377.274 64.2339C377.408 64.2848 377.561 64.3093 377.734 64.3074C377.855 64.3061 377.975 64.2947 378.096 64.2733C378.216 64.2478 378.309 64.2287 378.373 64.2159L378.798 66.1251C378.67 66.1668 378.489 66.215 378.256 66.2699C378.023 66.3288 377.74 66.366 377.406 66.3818C376.787 66.4126 376.243 66.336 375.774 66.152C375.309 65.9679 374.945 65.678 374.684 65.2824C374.422 64.8868 374.289 64.3851 374.287 63.7774L374.189 54.795ZM144.21 83.61C144.194 82.1129 144.378 80.7324 144.763 79.4685C145.152 78.2045 145.753 77.0307 146.566 75.9472L149.023 75.9205C148.713 76.3223 148.427 76.8125 148.163 77.3909C147.9 77.9653 147.671 78.5956 147.478 79.282C147.284 79.9683 147.135 80.6783 147.03 81.412C146.925 82.1416 146.877 82.8646 146.884 83.5809C146.895 84.5347 147.002 85.4975 147.206 86.4693C147.413 87.437 147.689 88.3356 148.032 89.165C148.379 89.9944 148.765 90.6724 149.189 91.1991L146.732 91.2258C145.895 90.1603 145.269 88.9999 144.853 87.7446C144.441 86.4893 144.226 85.1111 144.21 83.61ZM150.714 89.7215L150.579 77.3586L155.457 77.3055C156.391 77.2954 157.189 77.4537 157.853 77.7806C158.521 78.1033 159.031 78.5667 159.383 79.1706C159.74 79.7705 159.923 80.4789 159.932 81.2958C159.941 82.1168 159.771 82.825 159.424 83.4204C159.076 84.0118 158.568 84.4681 157.899 84.7894C157.234 85.1105 156.427 85.2763 155.477 85.2866L152.212 85.3221L152.189 83.2214L155.032 83.1905C155.531 83.185 155.945 83.1121 156.273 82.9717C156.602 82.8313 156.845 82.6234 157.003 82.348C157.165 82.0725 157.244 81.7316 157.239 81.3251C157.235 80.9146 157.149 80.5694 156.981 80.2895C156.817 80.0095 156.567 79.7989 156.231 79.6577C155.9 79.5124 155.482 79.4425 154.979 79.4479L153.216 79.4671L153.328 89.693L150.714 89.7215ZM157.329 84.0228L160.463 89.6155L157.577 89.6468L154.51 84.0534L157.329 84.0228ZM165.899 89.7375C164.946 89.7478 164.122 89.5636 163.43 89.1847C162.742 88.8018 162.209 88.2562 161.831 87.5479C161.452 86.8356 161.258 85.9905 161.248 85.0125C161.237 84.0588 161.413 83.2197 161.776 82.4953C162.138 81.7709 162.653 81.2038 163.321 80.7941C163.992 80.3843 164.783 80.1745 165.693 80.1646C166.304 80.1579 166.875 80.2503 167.404 80.4418C167.937 80.6292 168.403 80.9159 168.802 81.302C169.205 81.688 169.52 82.1756 169.748 82.7648C169.975 83.3499 170.094 84.0369 170.102 84.8257L170.11 85.532L162.28 85.6171L162.263 84.0235L167.672 83.9646C167.668 83.5944 167.584 83.2673 167.42 82.9833C167.256 82.6993 167.03 82.4784 166.742 82.3205C166.459 82.1586 166.13 82.0797 165.756 82.0837C165.365 82.088 165.02 82.1823 164.72 82.3667C164.425 82.547 164.194 82.789 164.028 83.0926C163.862 83.3923 163.779 83.7252 163.779 84.0915L163.796 85.6067C163.801 86.0655 163.889 86.4609 164.062 86.7931C164.239 87.1253 164.485 87.3802 164.801 87.5579C165.117 87.7355 165.49 87.822 165.921 87.8174C166.206 87.8143 166.468 87.7712 166.704 87.6881C166.941 87.605 167.143 87.4821 167.31 87.3193C167.477 87.1565 167.604 86.9579 167.69 86.7235L170.07 86.8546C169.955 87.4273 169.713 87.9291 169.344 88.3597C168.978 88.7863 168.503 89.1215 167.918 89.3653C167.337 89.6051 166.664 89.7291 165.899 89.7375ZM174.477 89.6381C173.886 89.6446 173.357 89.5477 172.892 89.3475C172.427 89.1432 172.058 88.8393 171.784 88.4358C171.514 88.0282 171.375 87.5186 171.369 86.9069C171.363 86.3917 171.453 85.9581 171.638 85.6059C171.823 85.2537 172.078 84.9692 172.402 84.7524C172.725 84.5355 173.094 84.3705 173.507 84.2574C173.924 84.1442 174.362 84.0629 174.821 84.0137C175.359 83.9515 175.793 83.8944 176.123 83.8425C176.452 83.7866 176.691 83.7076 176.839 83.6053C176.986 83.5031 177.059 83.3534 177.057 83.1562L177.057 83.12C177.053 82.7377 176.929 82.4432 176.685 82.2366C176.445 82.0299 176.106 81.9289 175.667 81.9337C175.205 81.9387 174.837 82.0453 174.566 82.2536C174.294 82.4578 174.116 82.7133 174.031 83.0201L171.65 82.8528C171.765 82.288 171.997 81.7985 172.347 81.3842C172.697 80.9658 173.15 80.6429 173.707 80.4155C174.268 80.184 174.918 80.0642 175.659 80.0562C176.174 80.0506 176.668 80.1056 177.14 80.2212C177.616 80.3368 178.039 80.5193 178.408 80.7689C178.781 81.0184 179.076 81.3412 179.294 81.7373C179.511 82.1293 179.623 82.6011 179.629 83.1524L179.697 89.4063L177.258 89.4328L177.244 88.147L177.172 88.1478C177.026 88.4392 176.83 88.6969 176.582 88.9209C176.335 89.141 176.037 89.3153 175.689 89.4438C175.34 89.5684 174.936 89.6331 174.477 89.6381ZM175.194 87.8554C175.573 87.8513 175.906 87.7732 176.194 87.6211C176.482 87.465 176.707 87.2573 176.869 86.998C177.032 86.7386 177.111 86.4459 177.107 86.12L177.097 85.136C177.017 85.1892 176.907 85.2387 176.766 85.2845C176.63 85.3262 176.475 85.3661 176.303 85.4043C176.13 85.4383 175.957 85.4704 175.785 85.5004C175.612 85.5265 175.455 85.5503 175.314 85.572C175.013 85.6195 174.75 85.6928 174.526 85.7918C174.302 85.8909 174.128 86.0236 174.005 86.1899C173.882 86.3523 173.822 86.5542 173.824 86.7956C173.828 87.1458 173.958 87.412 174.214 87.5944C174.473 87.7727 174.8 87.8597 175.194 87.8554ZM185.883 89.5201C184.934 89.5305 184.115 89.3381 183.426 88.9431C182.741 88.5441 182.212 87.9863 181.838 87.2699C181.468 86.5535 181.278 85.7265 181.268 84.7888C181.257 83.839 181.431 83.004 181.79 82.2837C182.152 81.5593 182.671 80.9922 183.347 80.5823C184.023 80.1685 184.83 79.9564 185.767 79.9463C186.576 79.9375 187.286 80.0766 187.897 80.3638C188.508 80.651 188.993 81.0583 189.353 81.5856C189.713 82.113 189.915 82.7346 189.959 83.4506L187.532 83.477C187.459 83.0149 187.274 82.6446 186.977 82.3661C186.684 82.0835 186.302 81.9448 185.831 81.9499C185.433 81.9543 185.086 82.0667 184.79 82.2873C184.499 82.5038 184.273 82.8181 184.112 83.2304C183.952 83.6427 183.875 84.1406 183.881 84.7241C183.888 85.3157 183.974 85.8179 184.139 86.2307C184.309 86.6434 184.543 86.9568 184.844 87.1709C185.144 87.3849 185.493 87.4898 185.891 87.4855C186.185 87.4823 186.448 87.419 186.68 87.2958C186.916 87.1725 187.11 86.9953 187.26 86.7642C187.415 86.5291 187.514 86.2483 187.559 85.9218L189.986 85.8954C189.953 86.6041 189.767 87.23 189.426 87.773C189.09 88.312 188.622 88.7357 188.021 89.0441C187.421 89.3525 186.708 89.5112 185.883 89.5201ZM196.5 79.9503L196.521 81.882L190.937 81.9427L190.916 80.011L196.5 79.9503ZM192.16 77.7758L194.731 77.7478L194.825 86.3922C194.828 86.6296 194.866 86.8143 194.94 86.9463C195.014 87.0743 195.115 87.1638 195.245 87.2147C195.378 87.2656 195.531 87.2901 195.704 87.2882C195.825 87.2869 195.946 87.2755 196.066 87.2541C196.187 87.2286 196.279 87.2095 196.343 87.1967L196.769 89.1059C196.64 89.1476 196.46 89.1958 196.227 89.2507C195.994 89.3096 195.711 89.3468 195.377 89.3626C194.757 89.3934 194.213 89.3168 193.744 89.1328C193.279 88.9487 192.916 88.6588 192.654 88.2632C192.392 87.8676 192.26 87.3659 192.257 86.7582L192.16 77.7758ZM202.556 84.2011C202.573 85.7022 202.387 87.0847 201.998 88.3487C201.613 89.6127 201.014 90.7864 200.201 91.8699L197.744 91.8966C198.053 91.4948 198.34 91.0047 198.603 90.4262C198.867 89.8478 199.095 89.2175 199.289 88.5352C199.483 87.8488 199.632 87.1388 199.737 86.4052C199.842 85.6715 199.89 84.9465 199.882 84.2302C199.872 83.2764 199.763 82.3156 199.555 81.3479C199.351 80.3761 199.076 79.4775 198.729 78.6522C198.386 77.8228 198.002 77.1447 197.578 76.618L200.035 76.5913C200.871 77.6569 201.496 78.8173 201.908 80.0726C202.324 81.3278 202.54 82.704 202.556 84.2011Z" fill="black"/>
<path d="M146.437 110.916C145.592 110.929 144.862 110.749 144.246 110.376C143.634 109.999 143.16 109.474 142.824 108.801C142.488 108.128 142.314 107.354 142.3 106.479C142.287 105.593 142.441 104.808 142.764 104.125C143.087 103.438 143.549 102.899 144.149 102.507C144.749 102.115 145.46 101.913 146.282 101.9C146.945 101.89 147.537 102.004 148.06 102.243C148.583 102.477 149.006 102.812 149.331 103.246C149.66 103.68 149.859 104.191 149.928 104.777L148.275 104.802C148.178 104.394 147.964 104.045 147.634 103.755C147.308 103.465 146.874 103.323 146.332 103.332C145.859 103.339 145.446 103.47 145.094 103.726C144.745 103.977 144.476 104.334 144.286 104.795C144.096 105.252 144.006 105.792 144.015 106.413C144.025 107.049 144.13 107.597 144.33 108.056C144.53 108.515 144.809 108.869 145.165 109.117C145.525 109.366 145.945 109.486 146.426 109.479C146.748 109.474 147.039 109.411 147.298 109.289C147.562 109.164 147.78 108.988 147.955 108.762C148.133 108.536 148.256 108.265 148.323 107.949L149.977 107.924C149.925 108.489 149.749 108.996 149.449 109.444C149.149 109.892 148.743 110.246 148.232 110.508C147.724 110.77 147.126 110.906 146.437 110.916ZM151.835 110.657L151.702 101.931L153.344 101.906L153.365 103.292L153.456 103.291C153.608 102.819 153.882 102.445 154.28 102.17C154.681 101.891 155.137 101.748 155.648 101.74C155.754 101.739 155.879 101.74 156.023 101.746C156.171 101.751 156.287 101.759 156.37 101.769L156.395 103.394C156.327 103.376 156.205 103.357 156.031 103.337C155.856 103.313 155.682 103.302 155.507 103.305C155.106 103.311 154.749 103.402 154.438 103.577C154.13 103.748 153.887 103.985 153.71 104.287C153.532 104.585 153.447 104.924 153.453 105.303L153.534 110.632L151.835 110.657ZM161.426 110.687C160.567 110.7 159.823 110.528 159.197 110.17C158.574 109.808 158.088 109.295 157.741 108.629C157.397 107.96 157.219 107.173 157.205 106.268C157.191 105.374 157.346 104.584 157.669 103.897C157.995 103.21 158.457 102.671 159.053 102.279C159.653 101.887 160.359 101.685 161.169 101.673C161.662 101.665 162.14 101.739 162.605 101.895C163.069 102.051 163.488 102.3 163.861 102.643C164.233 102.986 164.53 103.434 164.75 103.988C164.971 104.537 165.087 105.208 165.099 106L165.109 106.602L158.172 106.708L158.153 105.435L163.425 105.355C163.418 104.908 163.321 104.513 163.134 104.171C162.947 103.826 162.687 103.555 162.354 103.359C162.025 103.164 161.641 103.069 161.202 103.076C160.725 103.083 160.31 103.207 159.958 103.447C159.609 103.684 159.341 103.991 159.153 104.369C158.97 104.743 158.881 105.148 158.888 105.583L158.903 106.577C158.912 107.161 159.022 107.655 159.233 108.061C159.447 108.467 159.742 108.775 160.116 108.985C160.491 109.192 160.926 109.291 161.422 109.283C161.744 109.279 162.037 109.229 162.3 109.134C162.564 109.035 162.791 108.891 162.981 108.703C163.172 108.514 163.316 108.283 163.414 108.009L165.026 108.274C164.905 108.749 164.68 109.167 164.352 109.528C164.028 109.886 163.618 110.167 163.121 110.371C162.627 110.572 162.063 110.677 161.426 110.687ZM169.595 110.579C169.042 110.588 168.54 110.493 168.09 110.295C167.64 110.094 167.281 109.798 167.014 109.408C166.75 109.018 166.614 108.537 166.606 107.965C166.598 107.473 166.687 107.066 166.871 106.745C167.056 106.424 167.307 106.168 167.626 105.978C167.946 105.787 168.303 105.642 168.699 105.541C169.096 105.44 169.5 105.362 169.912 105.307C170.434 105.238 170.857 105.182 171.182 105.139C171.507 105.093 171.743 105.023 171.889 104.93C172.036 104.837 172.107 104.688 172.104 104.483L172.103 104.443C172.096 103.947 171.95 103.565 171.665 103.297C171.385 103.028 170.97 102.898 170.421 102.906C169.849 102.915 169.4 103.049 169.074 103.308C168.753 103.563 168.531 103.845 168.411 104.153L166.809 103.814C166.99 103.281 167.26 102.849 167.619 102.517C167.981 102.182 168.4 101.937 168.875 101.782C169.35 101.623 169.85 101.54 170.377 101.532C170.725 101.527 171.095 101.563 171.487 101.64C171.882 101.714 172.251 101.856 172.596 102.066C172.944 102.277 173.23 102.581 173.456 102.979C173.682 103.374 173.8 103.889 173.809 104.525L173.898 110.32L172.239 110.345L172.221 109.152L172.153 109.153C172.046 109.375 171.885 109.593 171.668 109.809C171.452 110.024 171.173 110.205 170.83 110.35C170.487 110.495 170.076 110.572 169.595 110.579ZM169.943 109.21C170.413 109.203 170.813 109.104 171.143 108.913C171.478 108.722 171.729 108.476 171.899 108.174C172.073 107.869 172.157 107.543 172.151 107.199L172.134 106.074C172.074 106.135 171.958 106.194 171.784 106.25C171.615 106.302 171.42 106.348 171.201 106.389C170.982 106.427 170.769 106.462 170.561 106.496C170.353 106.525 170.179 106.551 170.039 106.572C169.71 106.619 169.41 106.693 169.139 106.796C168.872 106.898 168.658 107.044 168.498 107.232C168.342 107.416 168.266 107.66 168.27 107.963C168.277 108.383 168.437 108.699 168.751 108.91C169.065 109.117 169.462 109.217 169.943 109.21ZM180.101 101.497L180.121 102.86L175.355 102.933L175.334 101.57L180.101 101.497ZM176.58 99.4596L178.279 99.4336L178.405 107.688C178.41 108.018 178.463 108.265 178.564 108.43C178.665 108.592 178.794 108.701 178.95 108.76C179.11 108.814 179.283 108.84 179.468 108.837C179.605 108.835 179.724 108.824 179.826 108.803C179.928 108.783 180.007 108.766 180.064 108.754L180.392 110.153C180.294 110.192 180.155 110.232 179.973 110.273C179.792 110.317 179.565 110.343 179.293 110.351C178.846 110.366 178.428 110.292 178.039 110.132C177.65 109.971 177.334 109.718 177.09 109.373C176.846 109.029 176.72 108.593 176.712 108.067L176.58 99.4596ZM185.783 110.315C184.923 110.328 184.18 110.155 183.553 109.797C182.93 109.436 182.445 108.922 182.098 108.257C181.754 107.588 181.575 106.801 181.561 105.896C181.548 105.002 181.702 104.211 182.025 103.525C182.352 102.838 182.813 102.298 183.41 101.907C184.01 101.515 184.715 101.313 185.526 101.3C186.018 101.293 186.497 101.367 186.961 101.523C187.426 101.679 187.844 101.928 188.217 102.271C188.59 102.613 188.886 103.062 189.107 103.615C189.328 104.165 189.444 104.836 189.456 105.627L189.465 106.229L182.529 106.335L182.509 105.063L187.781 104.982C187.774 104.535 187.677 104.141 187.49 103.799C187.303 103.453 187.043 103.183 186.711 102.987C186.382 102.791 185.998 102.697 185.559 102.703C185.081 102.711 184.667 102.834 184.314 103.075C183.965 103.311 183.697 103.618 183.51 103.996C183.326 104.37 183.238 104.775 183.244 105.211L183.26 106.205C183.268 106.788 183.378 107.283 183.589 107.689C183.804 108.095 184.098 108.403 184.473 108.613C184.847 108.819 185.282 108.919 185.779 108.911C186.1 108.906 186.393 108.856 186.657 108.761C186.921 108.662 187.148 108.519 187.338 108.33C187.528 108.142 187.673 107.91 187.771 107.636L189.383 107.901C189.261 108.377 189.037 108.795 188.709 109.156C188.385 109.513 187.974 109.794 187.477 109.999C186.984 110.2 186.419 110.305 185.783 110.315ZM195.643 109.988L195.509 101.261L197.14 101.236L197.161 102.657L197.269 102.655C197.444 102.171 197.735 101.792 198.144 101.517C198.553 101.238 199.045 101.094 199.621 101.085C200.204 101.076 200.695 101.205 201.093 101.471C201.495 101.738 201.794 102.109 201.99 102.583L202.081 102.581C202.283 102.112 202.608 101.736 203.059 101.453C203.509 101.166 204.048 101.017 204.677 101.007C205.468 100.995 206.118 101.234 206.626 101.722C207.137 102.211 207.4 102.955 207.415 103.955L207.505 109.806L205.806 109.832L205.719 104.14C205.71 103.549 205.543 103.123 205.217 102.863C204.891 102.603 204.504 102.476 204.057 102.483C203.504 102.491 203.077 102.668 202.776 103.014C202.474 103.356 202.327 103.792 202.335 104.322L202.42 109.884L200.727 109.91L200.639 104.109C200.631 103.636 200.478 103.258 200.178 102.974C199.878 102.691 199.492 102.553 199.018 102.56C198.696 102.565 198.4 102.655 198.13 102.829C197.864 103 197.65 103.236 197.487 103.538C197.329 103.84 197.253 104.188 197.259 104.582L197.341 109.962L195.643 109.988ZM213.46 109.891C212.642 109.904 211.925 109.727 211.31 109.362C210.694 108.996 210.213 108.479 209.865 107.81C209.518 107.141 209.337 106.355 209.324 105.454C209.31 104.549 209.466 103.755 209.793 103.072C210.12 102.388 210.585 101.855 211.189 101.47C211.793 101.086 212.504 100.888 213.322 100.875C214.14 100.863 214.857 101.039 215.473 101.405C216.088 101.771 216.57 102.29 216.917 102.963C217.264 103.635 217.445 104.424 217.459 105.33C217.473 106.231 217.316 107.021 216.99 107.701C216.663 108.38 216.197 108.912 215.593 109.296C214.989 109.68 214.278 109.879 213.46 109.891ZM213.444 108.465C213.974 108.457 214.411 108.31 214.756 108.025C215.1 107.739 215.352 107.362 215.511 106.894C215.674 106.425 215.752 105.911 215.743 105.35C215.735 104.793 215.642 104.283 215.464 103.82C215.29 103.353 215.027 102.98 214.674 102.701C214.321 102.423 213.88 102.287 213.35 102.295C212.816 102.304 212.375 102.452 212.027 102.742C211.683 103.031 211.429 103.412 211.266 103.884C211.106 104.353 211.031 104.865 211.039 105.422C211.048 105.983 211.139 106.495 211.313 106.958C211.49 107.421 211.755 107.79 212.108 108.065C212.465 108.34 212.91 108.473 213.444 108.465ZM222.69 109.744C221.986 109.755 221.355 109.585 220.796 109.234C220.241 108.878 219.802 108.368 219.477 107.702C219.156 107.033 218.989 106.227 218.974 105.284C218.96 104.341 219.105 103.531 219.409 102.856C219.717 102.181 220.144 101.661 220.692 101.297C221.239 100.932 221.863 100.745 222.564 100.734C223.106 100.726 223.543 100.81 223.875 100.987C224.211 101.16 224.472 101.364 224.657 101.6C224.846 101.836 224.993 102.044 225.098 102.224L225.201 102.222L225.135 97.8988L226.833 97.8729L227.011 109.508L225.352 109.533L225.332 108.175L225.19 108.178C225.09 108.365 224.946 108.579 224.756 108.821C224.57 109.062 224.312 109.274 223.982 109.458C223.651 109.641 223.221 109.736 222.69 109.744ZM223.043 108.29C223.532 108.283 223.943 108.147 224.276 107.885C224.613 107.618 224.865 107.253 225.032 106.788C225.203 106.323 225.284 105.784 225.274 105.17C225.265 104.564 225.17 104.035 224.989 103.584C224.807 103.132 224.546 102.782 224.205 102.533C223.864 102.284 223.446 102.164 222.95 102.171C222.438 102.179 222.014 102.318 221.678 102.589C221.341 102.859 221.089 103.225 220.921 103.686C220.758 104.146 220.681 104.665 220.69 105.24C220.698 105.824 220.794 106.347 220.975 106.81C221.156 107.273 221.419 107.639 221.765 107.906C222.113 108.17 222.54 108.298 223.043 108.29ZM233.199 109.589C232.34 109.603 231.596 109.43 230.969 109.072C230.346 108.711 229.861 108.197 229.514 107.532C229.17 106.863 228.992 106.076 228.978 105.17C228.964 104.277 229.119 103.486 229.442 102.799C229.768 102.113 230.23 101.573 230.826 101.182C231.426 100.79 232.132 100.588 232.942 100.575C233.434 100.568 233.913 100.642 234.377 100.798C234.842 100.953 235.261 101.203 235.633 101.546C236.006 101.888 236.303 102.337 236.523 102.89C236.744 103.44 236.86 104.11 236.872 104.902L236.882 105.504L229.945 105.61L229.925 104.338L235.198 104.257C235.191 103.81 235.094 103.416 234.907 103.074C234.72 102.728 234.46 102.458 234.127 102.262C233.798 102.066 233.414 101.972 232.975 101.978C232.498 101.986 232.083 102.109 231.73 102.35C231.382 102.586 231.114 102.893 230.926 103.271C230.743 103.645 230.654 104.05 230.661 104.486L230.676 105.48C230.685 106.063 230.795 106.558 231.005 106.964C231.22 107.369 231.515 107.677 231.889 107.888C232.263 108.094 232.699 108.193 233.195 108.186C233.517 108.181 233.81 108.131 234.073 108.036C234.337 107.937 234.564 107.794 234.754 107.605C234.945 107.417 235.089 107.185 235.187 106.911L236.799 107.176C236.678 107.652 236.453 108.07 236.125 108.431C235.801 108.788 235.39 109.069 234.893 109.274C234.4 109.474 233.836 109.58 233.199 109.589ZM238.825 109.327L238.692 100.601L240.334 100.576L240.355 101.962L240.446 101.961C240.598 101.489 240.872 101.115 241.27 100.84C241.671 100.561 242.127 100.418 242.638 100.41C242.744 100.408 242.869 100.41 243.013 100.416C243.161 100.421 243.277 100.429 243.36 100.439L243.385 102.063C243.317 102.046 243.195 102.027 243.021 102.007C242.846 101.983 242.671 101.972 242.497 101.975C242.096 101.981 241.739 102.072 241.427 102.247C241.119 102.418 240.877 102.655 240.7 102.957C240.522 103.255 240.437 103.594 240.442 103.972L240.524 109.301L238.825 109.327ZM246.585 104.026L246.664 109.207L244.965 109.233L244.832 100.507L246.462 100.482L246.484 101.902L246.592 101.901C246.785 101.436 247.094 101.06 247.518 100.773C247.945 100.486 248.487 100.338 249.142 100.328C249.737 100.318 250.259 100.435 250.71 100.679C251.161 100.918 251.513 101.28 251.766 101.765C252.02 102.25 252.152 102.852 252.163 103.571L252.248 109.122L250.55 109.148L250.468 103.802C250.458 103.169 250.286 102.678 249.951 102.327C249.616 101.972 249.161 101.799 248.585 101.808C248.191 101.814 247.842 101.904 247.538 102.08C247.237 102.255 247.001 102.508 246.828 102.84C246.659 103.169 246.577 103.564 246.585 104.026ZM260.652 108.993L257.951 100.306L259.706 100.28L261.514 106.662L261.6 106.66L263.217 100.226L264.973 100.199L266.775 106.553L266.86 106.552L268.461 100.146L270.216 100.119L267.788 108.884L266.055 108.911L264.186 102.638L264.055 102.64L262.379 108.967L260.652 108.993ZM275.46 108.943C274.6 108.956 273.857 108.784 273.23 108.426C272.607 108.064 272.122 107.551 271.775 106.886C271.431 106.217 271.252 105.429 271.238 104.524C271.225 103.63 271.379 102.84 271.702 102.153C272.029 101.466 272.49 100.927 273.087 100.535C273.687 100.143 274.392 99.9414 275.203 99.929C275.695 99.9214 276.174 99.9956 276.638 100.151C277.103 100.307 277.521 100.556 277.894 100.899C278.267 101.242 278.563 101.69 278.784 102.244C279.005 102.794 279.121 103.464 279.133 104.256L279.142 104.858L272.206 104.964L272.186 103.691L277.458 103.611C277.451 103.164 277.354 102.77 277.167 102.428C276.98 102.082 276.72 101.811 276.388 101.616C276.059 101.42 275.675 101.325 275.236 101.332C274.758 101.339 274.344 101.463 273.991 101.703C273.642 101.94 273.374 102.247 273.187 102.625C273.003 102.999 272.915 103.404 272.921 103.839L272.937 104.834C272.945 105.417 273.055 105.911 273.266 106.317C273.481 106.723 273.775 107.031 274.15 107.241C274.524 107.448 274.959 107.547 275.456 107.54C275.777 107.535 276.07 107.485 276.334 107.39C276.598 107.291 276.825 107.147 277.015 106.959C277.205 106.77 277.35 106.539 277.448 106.265L279.06 106.53C278.938 107.005 278.714 107.424 278.386 107.785C278.062 108.142 277.651 108.423 277.154 108.627C276.661 108.828 276.096 108.933 275.46 108.943ZM281.222 108.679L281.044 97.0439L282.743 97.0179L282.809 101.341L282.911 101.34C283.007 101.156 283.146 100.944 283.328 100.703C283.51 100.461 283.764 100.249 284.091 100.066C284.418 99.879 284.852 99.7814 285.393 99.7731C286.098 99.7624 286.729 99.9308 287.288 100.278C287.846 100.626 288.288 101.132 288.612 101.798C288.941 102.464 289.112 103.268 289.126 104.211C289.141 105.154 288.996 105.965 288.692 106.644C288.388 107.319 287.964 107.843 287.42 108.215C286.877 108.583 286.253 108.772 285.548 108.783C285.018 108.791 284.583 108.709 284.243 108.536C283.907 108.363 283.643 108.159 283.45 107.923C283.257 107.687 283.107 107.478 283.002 107.294L282.86 107.296L282.881 108.654L281.222 108.679ZM282.82 104.29C282.829 104.904 282.927 105.44 283.112 105.9C283.297 106.359 283.56 106.717 283.901 106.973C284.242 107.225 284.657 107.348 285.145 107.34C285.653 107.333 286.075 107.192 286.412 106.917C286.748 106.64 287 106.266 287.167 105.798C287.338 105.329 287.419 104.803 287.41 104.22C287.402 103.644 287.307 103.129 287.125 102.673C286.948 102.217 286.685 101.86 286.336 101.6C285.991 101.34 285.563 101.214 285.052 101.222C284.559 101.229 284.145 101.362 283.808 101.621C283.475 101.88 283.224 102.238 283.057 102.696C282.89 103.153 282.811 103.684 282.82 104.29ZM297.877 108.617C297.324 108.626 296.822 108.531 296.372 108.334C295.922 108.132 295.563 107.836 295.296 107.446C295.032 107.057 294.896 106.576 294.887 106.004C294.88 105.511 294.968 105.105 295.153 104.784C295.337 104.463 295.589 104.207 295.908 104.016C296.227 103.826 296.585 103.68 296.981 103.579C297.378 103.479 297.782 103.4 298.194 103.345C298.715 103.276 299.139 103.221 299.464 103.178C299.789 103.131 300.025 103.061 300.171 102.968C300.317 102.875 300.389 102.726 300.386 102.521L300.385 102.482C300.378 101.986 300.232 101.603 299.947 101.335C299.667 101.066 299.252 100.936 298.703 100.945C298.131 100.954 297.682 101.087 297.356 101.346C297.034 101.601 296.813 101.883 296.693 102.192L295.091 101.852C295.272 101.319 295.542 100.887 295.901 100.556C296.263 100.221 296.682 99.9756 297.157 99.8206C297.632 99.6618 298.132 99.5783 298.659 99.5703C299.007 99.565 299.377 99.601 299.769 99.6783C300.164 99.7518 300.533 99.8939 300.877 100.105C301.225 100.315 301.512 100.62 301.738 101.018C301.964 101.412 302.082 101.927 302.091 102.564L302.18 108.358L300.521 108.384L300.503 107.191L300.435 107.192C300.328 107.413 300.167 107.632 299.95 107.847C299.734 108.062 299.454 108.243 299.112 108.388C298.769 108.534 298.358 108.61 297.877 108.617ZM298.225 107.248C298.695 107.241 299.095 107.142 299.425 106.951C299.759 106.761 300.011 106.514 300.181 106.213C300.354 105.907 300.438 105.582 300.433 105.237L300.416 104.112C300.356 104.174 300.24 104.232 300.066 104.288C299.897 104.34 299.702 104.386 299.483 104.428C299.264 104.465 299.051 104.5 298.843 104.534C298.635 104.564 298.461 104.589 298.321 104.61C297.992 104.657 297.692 104.732 297.421 104.834C297.154 104.937 296.94 105.082 296.78 105.27C296.624 105.454 296.548 105.698 296.552 106.001C296.559 106.421 296.719 106.737 297.033 106.948C297.347 107.156 297.744 107.256 298.225 107.248ZM304.493 111.596L304.309 99.5975L305.968 99.5722L305.99 100.987L306.132 100.985C306.227 100.801 306.366 100.589 306.548 100.347C306.73 100.106 306.984 99.8938 307.311 99.7107C307.638 99.5239 308.072 99.4263 308.614 99.4181C309.318 99.4073 309.95 99.5757 310.508 99.9232C311.066 100.271 311.508 100.777 311.832 101.443C312.161 102.108 312.332 102.913 312.347 103.856C312.361 104.799 312.216 105.61 311.912 106.289C311.608 106.964 311.184 107.488 310.641 107.86C310.097 108.228 309.473 108.417 308.768 108.428C308.238 108.436 307.803 108.354 307.463 108.181C307.127 108.008 306.863 107.804 306.67 107.568C306.477 107.332 306.328 107.122 306.223 106.938L306.12 106.94L306.191 111.57L304.493 111.596ZM306.04 103.935C306.05 104.549 306.147 105.085 306.332 105.545C306.517 106.004 306.78 106.362 307.121 106.618C307.462 106.87 307.877 106.993 308.366 106.985C308.873 106.977 309.295 106.837 309.632 106.562C309.969 106.284 310.221 105.911 310.388 105.443C310.559 104.974 310.64 104.448 310.631 103.865C310.622 103.289 310.527 102.774 310.346 102.318C310.168 101.862 309.905 101.505 309.556 101.245C309.212 100.985 308.783 100.859 308.272 100.867C307.78 100.874 307.365 101.007 307.028 101.266C306.695 101.525 306.445 101.883 306.277 102.34C306.11 102.798 306.031 103.329 306.04 103.935ZM314.366 111.445L314.183 99.4465L315.842 99.4212L315.863 100.836L316.005 100.834C316.101 100.65 316.24 100.438 316.422 100.196C316.604 99.955 316.858 99.7428 317.185 99.5597C317.512 99.3729 317.946 99.2753 318.487 99.2671C319.192 99.2563 319.823 99.4247 320.382 99.7722C320.94 100.12 321.382 100.626 321.706 101.292C322.035 101.957 322.206 102.762 322.221 103.705C322.235 104.648 322.09 105.459 321.786 106.138C321.482 106.813 321.058 107.337 320.515 107.709C319.971 108.077 319.347 108.266 318.642 108.277C318.112 108.285 317.677 108.203 317.337 108.03C317.001 107.857 316.737 107.653 316.544 107.417C316.351 107.181 316.202 106.971 316.096 106.787L315.994 106.789L316.065 111.419L314.366 111.445ZM315.914 103.784C315.924 104.398 316.021 104.934 316.206 105.394C316.391 105.853 316.654 106.211 316.995 106.467C317.336 106.719 317.751 106.842 318.24 106.834C318.747 106.826 319.169 106.686 319.506 106.411C319.843 106.134 320.095 105.76 320.262 105.292C320.432 104.823 320.513 104.297 320.505 103.714C320.496 103.138 320.401 102.623 320.22 102.167C320.042 101.711 319.779 101.354 319.43 101.094C319.085 100.834 318.657 100.708 318.146 100.716C317.654 100.723 317.239 100.856 316.902 101.115C316.569 101.374 316.318 101.732 316.151 102.189C315.984 102.647 315.905 103.178 315.914 103.784ZM330.628 101.326L329.093 101.622C329.026 101.426 328.92 101.24 328.778 101.064C328.638 100.889 328.451 100.746 328.214 100.636C327.978 100.526 327.683 100.473 327.331 100.479C326.85 100.486 326.45 100.6 326.131 100.821C325.813 101.038 325.656 101.315 325.661 101.652C325.666 101.944 325.777 102.177 325.996 102.351C326.214 102.526 326.565 102.667 327.048 102.773L328.439 103.07C329.245 103.243 329.847 103.52 330.247 103.9C330.647 104.281 330.852 104.779 330.861 105.397C330.869 105.919 330.725 106.388 330.428 106.801C330.135 107.211 329.721 107.536 329.187 107.775C328.656 108.014 328.039 108.139 327.335 108.15C326.357 108.165 325.557 107.969 324.933 107.562C324.309 107.151 323.922 106.56 323.77 105.789L325.408 105.514C325.516 105.941 325.732 106.261 326.053 106.476C326.375 106.687 326.791 106.789 327.302 106.781C327.859 106.772 328.302 106.65 328.632 106.414C328.962 106.174 329.124 105.886 329.119 105.548C329.115 105.276 329.009 105.048 328.802 104.866C328.598 104.683 328.287 104.548 327.869 104.459L326.387 104.158C325.57 103.985 324.963 103.699 324.567 103.3C324.174 102.9 323.973 102.39 323.964 101.769C323.956 101.254 324.093 100.801 324.375 100.41C324.657 100.019 325.05 99.7122 325.554 99.4886C326.058 99.2611 326.638 99.1424 327.293 99.1324C328.236 99.118 328.982 99.3111 329.53 99.7119C330.077 100.109 330.444 100.647 330.628 101.326Z" fill="black"/>
<circle cx="36.5" cy="36.5" r="36.5" transform="matrix(0.999991 -0.00416857 -0.00416857 -0.999991 52.4746 115.658)" fill="#7A1E2D"/>
<path d="M84.1956 86.3826C82.6476 86.3727 81.2641 85.9858 80.045 85.222C78.8259 84.4402 77.8701 83.318 77.1775 81.8555C76.4848 80.3931 76.1451 78.6269 76.1584 76.5569C76.1716 74.4869 76.5339 72.7252 77.2453 71.2718C77.9566 69.8183 78.9266 68.7175 80.1555 67.9693C81.3844 67.2032 82.7728 66.8251 84.3208 66.835C85.8868 66.845 87.2703 67.2409 88.4713 68.0226C89.6904 68.7864 90.6463 69.8996 91.339 71.362C92.0316 72.8245 92.3713 74.5907 92.358 76.6607C92.3448 78.7306 91.9825 80.4923 91.2712 81.9458C90.5599 83.3993 89.5897 84.5091 88.3608 85.2752C87.15 86.0235 85.7616 86.3926 84.1956 86.3826ZM84.2193 82.6837C84.9573 82.6884 85.5976 82.4855 86.1402 82.0749C86.7009 81.6645 87.1371 81.0103 87.4488 80.1123C87.7786 79.2144 87.948 78.0544 87.9571 76.6325C87.9662 75.2105 87.8117 74.0485 87.4935 73.1464C87.1932 72.2445 86.7654 71.5847 86.2101 71.1672C85.6728 70.7497 85.0351 70.5386 84.2971 70.5339C83.5771 70.5293 82.9368 70.7322 82.3762 71.1426C81.8335 71.5531 81.3973 72.2074 81.0676 73.1053C80.7558 74.0033 80.5954 75.1633 80.5863 76.5853C80.5772 78.0072 80.7227 79.1692 81.023 80.0711C81.3412 80.9732 81.769 81.6329 82.3063 82.0504C82.8617 82.468 83.4993 82.679 84.2193 82.6837ZM100.286 86.4856C98.9718 86.4772 97.668 86.2979 96.3742 85.9476C95.0805 85.5793 93.9858 85.0683 93.0899 84.4145L94.8123 81.0775C95.529 81.6041 96.3633 82.0234 97.3153 82.3355C98.2673 82.6476 99.2293 82.8068 100.201 82.813C101.299 82.8201 102.165 82.6096 102.797 82.1816C103.43 81.7537 103.749 81.1617 103.754 80.4057C103.758 79.6857 103.483 79.117 102.928 78.6994C102.372 78.2818 101.474 78.0691 100.232 78.0611L98.2338 78.0483L98.2523 75.1594L103.555 69.2262L104.031 70.7953L94.1226 70.7318L94.1451 67.2219L107.375 67.3066L107.357 70.1416L102.081 76.0749L99.8747 74.7918L101.144 74.7999C103.466 74.8148 105.217 75.348 106.399 76.3996C107.58 77.4512 108.165 78.7959 108.155 80.4339C108.148 81.4959 107.863 82.4931 107.299 83.4255C106.735 84.3399 105.875 85.0814 104.719 85.65C103.564 86.2186 102.086 86.4972 100.286 86.4856Z" fill="white"/>
</svg>
