<svg width="267" height="250" viewBox="0 0 267 250" fill="none" xmlns="http://www.w3.org/2000/svg">
<path d="M10.9631 240.499L12.4169 18.412C12.4784 9.02338 20.1393 1.4517 29.528 1.50022L240.707 2.5915C250.096 2.64002 257.657 10.2903 257.595 19.679L257.38 52.6377" stroke="white" stroke-width="3"/>
<path d="M253.874 52.8552C255.866 55.0506 259.393 54.7912 261.048 52.3274C263.082 49.3016 260.932 45.2343 257.288 45.2155C253.312 45.1949 251.203 49.9126 253.874 52.8552Z" fill="white" stroke="white" stroke-width="3"/>
<path d="M7.05986 243.711C9.05213 245.906 12.5786 245.647 14.2344 243.183C16.268 240.157 14.1176 236.09 10.4743 236.071C6.49799 236.051 4.38951 240.768 7.05986 243.711Z" fill="white" stroke="white" stroke-width="3"/>
<rect x="26.3112" y="18.9531" width="212.682" height="200.622" rx="14" fill="white" fill-opacity="0.53"/>
<rect x="26.8112" y="19.4531" width="211.682" height="199.622" rx="13.5" stroke="#7A1E2D" stroke-opacity="0.58"/>
<path d="M47.2463 123.751L44.2804 123.751L48.7996 110.66L52.3664 110.66L56.8792 123.751L53.9132 123.751L50.6341 113.651L50.5319 113.651L47.2463 123.751ZM47.061 118.605L54.0667 118.605L54.0667 120.766L47.061 120.766L47.061 118.605ZM67.0058 123.942C66.0001 123.942 65.135 123.729 64.4106 123.303C63.6904 122.873 63.1364 122.276 62.7487 121.513C62.3651 120.751 62.1734 119.873 62.1734 118.88C62.1734 117.874 62.3673 116.992 62.755 116.234C63.1471 115.471 63.7032 114.876 64.4234 114.45C65.1435 114.02 66.0001 113.805 66.993 113.805C67.8495 113.805 68.5995 113.96 69.243 114.271C69.8864 114.582 70.3957 115.019 70.7707 115.582C71.1457 116.144 71.3523 116.805 71.3907 117.563L68.8211 117.563C68.7487 117.073 68.5569 116.679 68.2458 116.381C67.939 116.078 67.5363 115.927 67.0377 115.927C66.6158 115.927 66.2472 116.042 65.9319 116.272C65.6208 116.498 65.3779 116.828 65.2032 117.263C65.0285 117.697 64.9411 118.224 64.9411 118.842C64.9411 119.468 65.0264 120.001 65.1968 120.44C65.3715 120.879 65.6166 121.213 65.9319 121.443C66.2472 121.673 66.6158 121.788 67.0377 121.788C67.3488 121.788 67.6279 121.724 67.8751 121.597C68.1265 121.469 68.3332 121.283 68.4951 121.04C68.6613 120.793 68.77 120.497 68.8211 120.152L71.3907 120.152C71.3481 120.902 71.1435 121.562 70.7771 122.133C70.4148 122.7 69.9141 123.143 69.2749 123.463C68.6357 123.783 67.8793 123.942 67.0058 123.942ZM77.5702 123.942C76.5773 123.942 75.7186 123.731 74.9942 123.31C74.274 122.883 73.7179 122.291 73.3259 121.533C72.9338 120.77 72.7378 119.886 72.7378 118.88C72.7378 117.866 72.9338 116.979 73.3259 116.221C73.7179 115.458 74.274 114.866 74.9942 114.444C75.7186 114.018 76.5773 113.805 77.5702 113.805C78.5631 113.805 79.4196 114.018 80.1398 114.444C80.8642 114.866 81.4225 115.458 81.8145 116.221C82.2066 116.979 82.4026 117.866 82.4026 118.88C82.4026 119.886 82.2066 120.77 81.8145 121.533C81.4225 122.291 80.8642 122.883 80.1398 123.31C79.4196 123.731 78.5631 123.942 77.5702 123.942ZM77.583 121.833C78.0347 121.833 78.4118 121.705 78.7144 121.45C79.0169 121.19 79.2449 120.836 79.3983 120.388C79.556 119.941 79.6348 119.432 79.6348 118.861C79.6348 118.29 79.556 117.781 79.3983 117.333C79.2449 116.886 79.0169 116.532 78.7144 116.272C78.4118 116.012 78.0347 115.882 77.583 115.882C77.127 115.882 76.7435 116.012 76.4324 116.272C76.1256 116.532 75.8934 116.886 75.7357 117.333C75.5823 117.781 75.5056 118.29 75.5056 118.861C75.5056 119.432 75.5823 119.941 75.7357 120.388C75.8934 120.836 76.1256 121.19 76.4324 121.45C76.7435 121.705 77.127 121.833 77.583 121.833ZM84.1732 123.751L84.1732 113.932L86.7684 113.932L86.7684 115.665L86.8834 115.665C87.088 115.089 87.4289 114.636 87.9061 114.303C88.3834 113.971 88.9544 113.805 89.6192 113.805C90.2925 113.805 90.8657 113.973 91.3387 114.31C91.8117 114.642 92.127 115.094 92.2847 115.665L92.387 115.665C92.5873 115.102 92.9495 114.653 93.4736 114.316C94.002 113.975 94.6263 113.805 95.3465 113.805C96.2627 113.805 97.0063 114.097 97.5773 114.68C98.1526 115.26 98.4402 116.082 98.4402 117.148L98.4402 123.751L95.7236 123.751L95.7236 117.685C95.7236 117.139 95.5787 116.73 95.289 116.457C94.9992 116.185 94.637 116.048 94.2023 116.048C93.708 116.048 93.3223 116.206 93.0454 116.521C92.7684 116.832 92.6299 117.244 92.6299 117.755L92.6299 123.751L89.99 123.751L89.99 117.627C89.99 117.146 89.8515 116.762 89.5745 116.477C89.3017 116.191 88.9417 116.048 88.4942 116.048C88.1917 116.048 87.9189 116.125 87.676 116.278C87.4374 116.428 87.2478 116.638 87.1071 116.911C86.9665 117.18 86.8962 117.495 86.8962 117.857L86.8962 123.751L84.1732 123.751ZM100.591 127.432L100.591 113.932L103.276 113.932L103.276 115.582L103.397 115.582C103.517 115.317 103.689 115.049 103.915 114.776C104.145 114.499 104.443 114.269 104.81 114.086C105.181 113.898 105.641 113.805 106.191 113.805C106.907 113.805 107.567 113.992 108.172 114.367C108.777 114.738 109.261 115.298 109.623 116.048C109.985 116.794 110.166 117.729 110.166 118.854C110.166 119.95 109.99 120.874 109.636 121.629C109.286 122.379 108.809 122.947 108.204 123.335C107.603 123.719 106.93 123.91 106.184 123.91C105.656 123.91 105.206 123.823 104.835 123.648C104.469 123.474 104.169 123.254 103.934 122.99C103.7 122.722 103.521 122.451 103.397 122.178L103.314 122.178L103.314 127.432L100.591 127.432ZM103.257 118.842C103.257 119.425 103.338 119.935 103.5 120.369C103.661 120.804 103.896 121.143 104.203 121.386C104.509 121.624 104.882 121.744 105.321 121.744C105.764 121.744 106.139 121.622 106.446 121.379C106.753 121.132 106.985 120.791 107.143 120.356C107.305 119.918 107.386 119.413 107.386 118.842C107.386 118.275 107.307 117.776 107.149 117.346C106.992 116.915 106.759 116.579 106.453 116.336C106.146 116.093 105.769 115.972 105.321 115.972C104.878 115.972 104.503 116.089 104.196 116.323C103.894 116.557 103.661 116.89 103.5 117.32C103.338 117.751 103.257 118.258 103.257 118.842ZM114.705 110.66L114.705 123.751L111.982 123.751L111.982 110.66L114.705 110.66ZM121.361 123.942C120.351 123.942 119.481 123.738 118.753 123.329C118.028 122.915 117.47 122.332 117.078 121.577C116.686 120.819 116.49 119.922 116.49 118.886C116.49 117.876 116.686 116.99 117.078 116.227C117.47 115.464 118.022 114.87 118.733 114.444C119.449 114.018 120.289 113.805 121.252 113.805C121.9 113.805 122.503 113.909 123.061 114.118C123.623 114.322 124.113 114.631 124.531 115.045C124.953 115.458 125.281 115.978 125.515 116.604C125.75 117.227 125.867 117.955 125.867 118.79L125.867 119.538L117.576 119.538L117.576 117.851L123.304 117.851C123.304 117.459 123.218 117.111 123.048 116.809C122.878 116.506 122.641 116.27 122.338 116.099C122.04 115.925 121.693 115.837 121.297 115.837C120.883 115.837 120.517 115.933 120.197 116.125C119.882 116.312 119.635 116.566 119.456 116.886C119.277 117.201 119.185 117.553 119.181 117.94L119.181 119.545C119.181 120.031 119.27 120.45 119.449 120.804C119.633 121.158 119.89 121.43 120.223 121.622C120.555 121.814 120.949 121.91 121.405 121.91C121.708 121.91 121.985 121.867 122.236 121.782C122.488 121.697 122.703 121.569 122.882 121.398C123.061 121.228 123.197 121.019 123.291 120.772L125.809 120.938C125.682 121.543 125.419 122.072 125.023 122.523C124.631 122.971 124.124 123.32 123.502 123.572C122.884 123.819 122.17 123.942 121.361 123.942ZM132.866 113.932L132.866 115.978L126.954 115.978L126.954 113.932L132.866 113.932ZM128.296 111.58L131.019 111.58L131.019 120.734C131.019 120.985 131.057 121.181 131.134 121.322C131.211 121.458 131.317 121.554 131.454 121.609C131.594 121.665 131.756 121.692 131.939 121.692C132.067 121.692 132.195 121.682 132.323 121.66C132.451 121.635 132.549 121.616 132.617 121.603L133.045 123.629C132.909 123.672 132.717 123.721 132.47 123.776C132.223 123.836 131.922 123.872 131.569 123.885C130.912 123.91 130.337 123.823 129.843 123.623C129.353 123.423 128.971 123.111 128.699 122.69C128.426 122.268 128.292 121.735 128.296 121.092L128.296 111.58ZM139.009 123.942C137.999 123.942 137.13 123.738 136.401 123.329C135.677 122.915 135.118 122.332 134.726 121.577C134.334 120.819 134.138 119.922 134.138 118.886C134.138 117.876 134.334 116.99 134.726 116.227C135.118 115.464 135.67 114.87 136.382 114.444C137.098 114.018 137.937 113.805 138.9 113.805C139.548 113.805 140.151 113.909 140.709 114.118C141.272 114.322 141.762 114.631 142.179 115.045C142.601 115.458 142.929 115.978 143.164 116.604C143.398 117.227 143.515 117.955 143.515 118.79L143.515 119.538L135.225 119.538L135.225 117.851L140.952 117.851C140.952 117.459 140.867 117.111 140.696 116.809C140.526 116.506 140.289 116.27 139.987 116.099C139.689 115.925 139.341 115.837 138.945 115.837C138.532 115.837 138.165 115.933 137.846 116.125C137.53 116.312 137.283 116.566 137.104 116.886C136.925 117.201 136.834 117.553 136.829 117.94L136.829 119.545C136.829 120.031 136.919 120.45 137.098 120.804C137.281 121.158 137.539 121.43 137.871 121.622C138.204 121.814 138.598 121.91 139.054 121.91C139.356 121.91 139.633 121.867 139.885 121.782C140.136 121.697 140.351 121.569 140.53 121.398C140.709 121.228 140.846 121.019 140.939 120.772L143.458 120.938C143.33 121.543 143.068 122.072 142.672 122.523C142.28 122.971 141.772 123.32 141.15 123.572C140.532 123.819 139.819 123.942 139.009 123.942ZM153.894 123.942C152.889 123.942 152.024 123.729 151.299 123.303C150.579 122.873 150.025 122.276 149.637 121.513C149.254 120.751 149.062 119.873 149.062 118.88C149.062 117.874 149.256 116.992 149.644 116.234C150.036 115.471 150.592 114.876 151.312 114.45C152.032 114.02 152.889 113.805 153.882 113.805C154.738 113.805 155.488 113.96 156.132 114.271C156.775 114.582 157.284 115.019 157.659 115.582C158.034 116.144 158.241 116.805 158.279 117.563L155.71 117.563C155.637 117.073 155.446 116.679 155.134 116.381C154.828 116.078 154.425 115.927 153.926 115.927C153.505 115.927 153.136 116.042 152.821 116.272C152.509 116.498 152.267 116.828 152.092 117.263C151.917 117.697 151.83 118.224 151.83 118.842C151.83 119.468 151.915 120.001 152.085 120.44C152.26 120.879 152.505 121.213 152.821 121.443C153.136 121.673 153.505 121.788 153.926 121.788C154.237 121.788 154.517 121.724 154.764 121.597C155.015 121.469 155.222 121.283 155.384 121.04C155.55 120.793 155.659 120.497 155.71 120.152L158.279 120.152C158.237 120.902 158.032 121.562 157.666 122.133C157.304 122.7 156.803 123.143 156.164 123.463C155.524 123.783 154.768 123.942 153.894 123.942ZM162.746 110.66L162.746 123.751L160.023 123.751L160.023 110.66L162.746 110.66ZM164.927 123.751L164.927 113.932L167.65 113.932L167.65 123.751L164.927 123.751ZM166.295 112.667C165.89 112.667 165.543 112.533 165.253 112.264C164.968 111.991 164.825 111.665 164.825 111.286C164.825 110.911 164.968 110.589 165.253 110.321C165.543 110.048 165.89 109.912 166.295 109.912C166.7 109.912 167.045 110.048 167.331 110.321C167.62 110.589 167.765 110.911 167.765 111.286C167.765 111.665 167.62 111.991 167.331 112.264C167.045 112.533 166.7 112.667 166.295 112.667ZM174.306 123.942C173.296 123.942 172.427 123.738 171.698 123.329C170.973 122.915 170.415 122.332 170.023 121.577C169.631 120.819 169.435 119.922 169.435 118.886C169.435 117.876 169.631 116.99 170.023 116.227C170.415 115.464 170.967 114.87 171.679 114.444C172.395 114.018 173.234 113.805 174.197 113.805C174.845 113.805 175.448 113.909 176.006 114.118C176.569 114.322 177.059 114.631 177.476 115.045C177.898 115.458 178.226 115.978 178.461 116.604C178.695 117.227 178.812 117.955 178.812 118.79L178.812 119.538L170.522 119.538L170.522 117.851L176.249 117.851C176.249 117.459 176.164 117.111 175.993 116.809C175.823 116.506 175.586 116.27 175.284 116.099C174.986 115.925 174.638 115.837 174.242 115.837C173.829 115.837 173.462 115.933 173.142 116.125C172.827 116.312 172.58 116.566 172.401 116.886C172.222 117.201 172.13 117.553 172.126 117.94L172.126 119.545C172.126 120.031 172.216 120.45 172.395 120.804C172.578 121.158 172.836 121.43 173.168 121.622C173.5 121.814 173.895 121.91 174.351 121.91C174.653 121.91 174.93 121.867 175.182 121.782C175.433 121.697 175.648 121.569 175.827 121.398C176.006 121.228 176.142 121.019 176.236 120.772L178.755 120.938C178.627 121.543 178.365 122.072 177.968 122.523C177.576 122.971 177.069 123.32 176.447 123.572C175.829 123.819 175.115 123.942 174.306 123.942ZM183.312 118.075L183.312 123.751L180.589 123.751L180.589 113.932L183.184 113.932L183.184 115.665L183.299 115.665C183.517 115.094 183.881 114.642 184.392 114.31C184.904 113.973 185.524 113.805 186.253 113.805C186.934 113.805 187.529 113.954 188.036 114.252C188.543 114.55 188.937 114.977 189.218 115.531C189.5 116.08 189.64 116.736 189.64 117.499L189.64 123.751L186.917 123.751L186.917 117.985C186.922 117.384 186.768 116.915 186.457 116.579C186.146 116.238 185.718 116.067 185.172 116.067C184.806 116.067 184.482 116.146 184.201 116.304C183.924 116.462 183.706 116.692 183.549 116.994C183.395 117.293 183.316 117.653 183.312 118.075ZM197.009 113.932L197.009 115.978L191.096 115.978L191.096 113.932L197.009 113.932ZM192.438 111.58L195.161 111.58L195.161 120.734C195.161 120.985 195.2 121.181 195.277 121.322C195.353 121.458 195.46 121.554 195.596 121.609C195.737 121.665 195.899 121.692 196.082 121.692C196.21 121.692 196.338 121.682 196.465 121.66C196.593 121.635 196.691 121.616 196.759 121.603L197.188 123.629C197.051 123.672 196.86 123.721 196.612 123.776C196.365 123.836 196.065 123.872 195.711 123.885C195.055 123.91 194.48 123.823 193.985 123.623C193.495 123.423 193.114 123.111 192.841 122.69C192.568 122.268 192.434 121.735 192.438 121.092L192.438 111.58ZM204.601 117.295L204.601 119.455L198.631 119.455L198.631 117.295L204.601 117.295ZM44.9388 145.751L44.9388 135.932L47.5787 135.932L47.5787 137.646L47.681 137.646C47.86 137.036 48.1604 136.576 48.5823 136.265C49.0042 135.95 49.49 135.792 50.0397 135.792C50.176 135.792 50.3231 135.8 50.4807 135.817C50.6384 135.834 50.7769 135.858 50.8962 135.888L50.8962 138.304C50.7684 138.266 50.5915 138.231 50.3657 138.202C50.1398 138.172 49.9331 138.157 49.7456 138.157C49.3451 138.157 48.9871 138.244 48.6718 138.419C48.3607 138.589 48.1135 138.828 47.9303 139.135C47.7513 139.442 47.6618 139.795 47.6618 140.196L47.6618 145.751L44.9388 145.751ZM56.3215 145.942C55.3115 145.942 54.4422 145.738 53.7135 145.329C52.9891 144.915 52.4308 144.332 52.0388 143.577C51.6467 142.819 51.4507 141.922 51.4507 140.886C51.4507 139.876 51.6467 138.99 52.0388 138.227C52.4308 137.464 52.9827 136.87 53.6943 136.444C54.4102 136.018 55.2497 135.805 56.2128 135.805C56.8605 135.805 57.4635 135.909 58.0217 136.118C58.5842 136.322 59.0743 136.631 59.4919 137.045C59.9138 137.458 60.2419 137.978 60.4763 138.604C60.7107 139.227 60.8278 139.955 60.8278 140.79L60.8278 141.538L52.5374 141.538L52.5374 139.851L58.2646 139.851C58.2646 139.459 58.1794 139.111 58.009 138.809C57.8385 138.506 57.602 138.27 57.2994 138.099C57.0011 137.925 56.6538 137.837 56.2575 137.837C55.8442 137.837 55.4777 137.933 55.1581 138.125C54.8428 138.312 54.5956 138.566 54.4166 138.886C54.2376 139.201 54.146 139.553 54.1418 139.94L54.1418 141.545C54.1418 142.031 54.2313 142.45 54.4102 142.804C54.5935 143.158 54.8513 143.43 55.1837 143.622C55.5161 143.814 55.9102 143.91 56.3662 143.91C56.6688 143.91 56.9457 143.867 57.1972 143.782C57.4486 143.697 57.6638 143.569 57.8428 143.398C58.0217 143.228 58.1581 143.019 58.2518 142.772L60.7703 142.938C60.6425 143.543 60.3804 144.072 59.9841 144.523C59.592 144.971 59.0849 145.32 58.4628 145.572C57.8449 145.819 57.1311 145.942 56.3215 145.942ZM65.4045 145.936C64.7781 145.936 64.2199 145.827 63.7298 145.61C63.2398 145.388 62.852 145.062 62.5665 144.632C62.2852 144.197 62.1446 143.656 62.1446 143.008C62.1446 142.463 62.2447 142.005 62.445 141.634C62.6453 141.263 62.918 140.965 63.2632 140.739C63.6084 140.513 64.0004 140.343 64.4393 140.228C64.8825 140.113 65.347 140.032 65.8328 139.985C66.4038 139.925 66.8641 139.87 67.2135 139.819C67.5629 139.763 67.8165 139.682 67.9742 139.576C68.1318 139.469 68.2107 139.312 68.2107 139.103L68.2107 139.065C68.2107 138.66 68.0828 138.347 67.8271 138.125C67.5757 137.903 67.2178 137.793 66.7533 137.793C66.2632 137.793 65.8733 137.901 65.5835 138.119C65.2938 138.332 65.102 138.6 65.0082 138.924L62.4898 138.719C62.6176 138.123 62.869 137.607 63.244 137.173C63.619 136.734 64.1027 136.397 64.695 136.163C65.2916 135.924 65.982 135.805 66.7661 135.805C67.3115 135.805 67.8335 135.869 68.3321 135.996C68.8349 136.124 69.2803 136.322 69.668 136.591C70.0601 136.859 70.369 137.205 70.5949 137.626C70.8207 138.044 70.9337 138.545 70.9337 139.129L70.9337 145.751L68.3513 145.751L68.3513 144.389L68.2746 144.389C68.1169 144.696 67.906 144.967 67.6418 145.201C67.3776 145.431 67.0601 145.612 66.6893 145.744C66.3186 145.872 65.8903 145.936 65.4045 145.936ZM66.1844 144.057C66.5849 144.057 66.9386 143.978 67.2455 143.82C67.5523 143.658 67.793 143.441 67.9678 143.168C68.1425 142.896 68.2298 142.587 68.2298 142.241L68.2298 141.2C68.1446 141.255 68.0274 141.306 67.8783 141.353C67.7334 141.396 67.5693 141.436 67.3861 141.474C67.2028 141.508 67.0196 141.54 66.8364 141.57C66.6531 141.596 66.4869 141.619 66.3378 141.641C66.0182 141.687 65.7391 141.762 65.5004 141.864C65.2618 141.967 65.0764 142.105 64.9443 142.28C64.8122 142.45 64.7462 142.663 64.7462 142.919C64.7462 143.29 64.8804 143.573 65.1489 143.769C65.4216 143.961 65.7668 144.057 66.1844 144.057ZM76.6641 145.91C75.9184 145.91 75.243 145.719 74.6379 145.335C74.037 144.947 73.5597 144.379 73.206 143.629C72.8566 142.874 72.6819 141.95 72.6819 140.854C72.6819 139.729 72.863 138.794 73.2252 138.048C73.5874 137.298 74.069 136.738 74.6698 136.367C75.2749 135.992 75.9376 135.805 76.6577 135.805C77.2075 135.805 77.6656 135.898 78.032 136.086C78.4028 136.269 78.7011 136.499 78.9269 136.776C79.157 137.049 79.3318 137.317 79.4511 137.582L79.5342 137.582L79.5342 132.66L82.2508 132.66L82.2508 145.751L79.5661 145.751L79.5661 144.178L79.4511 144.178C79.3232 144.451 79.1421 144.722 78.9077 144.99C78.6776 145.254 78.3772 145.474 78.0065 145.648C77.64 145.823 77.1925 145.91 76.6641 145.91ZM77.5271 143.744C77.966 143.744 78.3367 143.624 78.6393 143.386C78.9461 143.143 79.1805 142.804 79.3424 142.369C79.5086 141.935 79.5917 141.425 79.5917 140.842C79.5917 140.258 79.5107 139.751 79.3488 139.32C79.1869 138.89 78.9525 138.557 78.6457 138.323C78.3389 138.089 77.966 137.972 77.5271 137.972C77.0796 137.972 76.7025 138.093 76.3957 138.336C76.0889 138.579 75.8566 138.915 75.6989 139.346C75.5413 139.776 75.4624 140.275 75.4624 140.842C75.4624 141.413 75.5413 141.918 75.6989 142.356C75.8609 142.791 76.0931 143.132 76.3957 143.379C76.7025 143.622 77.0796 143.744 77.5271 143.744ZM86.1707 149.432C85.8255 149.432 85.5017 149.405 85.1991 149.349C84.9008 149.298 84.6537 149.232 84.4576 149.151L85.0713 147.119C85.3909 147.217 85.6785 147.27 85.9342 147.278C86.1941 147.287 86.4179 147.227 86.6054 147.099C86.7971 146.972 86.9527 146.754 87.072 146.447L87.2318 146.032L83.7098 135.932L86.5734 135.932L88.6061 143.143L88.7083 143.143L90.7602 135.932L93.643 135.932L89.827 146.812C89.6437 147.34 89.3944 147.8 89.0791 148.192C88.768 148.589 88.3738 148.893 87.8966 149.106C87.4193 149.324 86.844 149.432 86.1707 149.432ZM101.139 145.751L98.4674 135.932L101.222 135.932L102.744 142.529L102.833 142.529L104.418 135.932L107.122 135.932L108.733 142.491L108.816 142.491L110.312 135.932L113.06 135.932L110.395 145.751L107.512 145.751L105.825 139.576L105.703 139.576L104.016 145.751L101.139 145.751ZM118.741 145.942C117.731 145.942 116.862 145.738 116.133 145.329C115.409 144.915 114.851 144.332 114.459 143.577C114.067 142.819 113.871 141.922 113.871 140.886C113.871 139.876 114.067 138.99 114.459 138.227C114.851 137.464 115.403 136.87 116.114 136.444C116.83 136.018 117.67 135.805 118.633 135.805C119.28 135.805 119.883 135.909 120.442 136.118C121.004 136.322 121.494 136.631 121.912 137.045C122.334 137.458 122.662 137.978 122.896 138.604C123.131 139.227 123.248 139.955 123.248 140.79L123.248 141.538L114.957 141.538L114.957 139.851L120.685 139.851C120.685 139.459 120.599 139.111 120.429 138.809C120.258 138.506 120.022 138.27 119.719 138.099C119.421 137.925 119.074 137.837 118.677 137.837C118.264 137.837 117.898 137.933 117.578 138.125C117.263 138.312 117.016 138.566 116.837 138.886C116.658 139.201 116.566 139.553 116.562 139.94L116.562 141.545C116.562 142.031 116.651 142.45 116.83 142.804C117.013 143.158 117.271 143.43 117.604 143.622C117.936 143.814 118.33 143.91 118.786 143.91C119.089 143.91 119.366 143.867 119.617 143.782C119.869 143.697 120.084 143.569 120.263 143.398C120.442 143.228 120.578 143.019 120.672 142.772L123.19 142.938C123.062 143.543 122.8 144.072 122.404 144.523C122.012 144.971 121.505 145.32 120.883 145.572C120.265 145.819 119.551 145.942 118.741 145.942ZM125.076 145.751L125.076 132.66L127.799 132.66L127.799 137.582L127.882 137.582C128.001 137.317 128.174 137.049 128.4 136.776C128.63 136.499 128.928 136.269 129.295 136.086C129.665 135.898 130.126 135.805 130.675 135.805C131.391 135.805 132.052 135.992 132.657 136.367C133.262 136.738 133.746 137.298 134.108 138.048C134.47 138.794 134.651 139.729 134.651 140.854C134.651 141.95 134.474 142.874 134.121 143.629C133.771 144.379 133.294 144.947 132.689 145.335C132.088 145.719 131.415 145.91 130.669 145.91C130.141 145.91 129.691 145.823 129.32 145.648C128.954 145.474 128.653 145.254 128.419 144.99C128.185 144.722 128.006 144.451 127.882 144.178L127.761 144.178L127.761 145.751L125.076 145.751ZM127.741 140.842C127.741 141.425 127.822 141.935 127.984 142.369C128.146 142.804 128.381 143.143 128.687 143.386C128.994 143.624 129.367 143.744 129.806 143.744C130.249 143.744 130.624 143.622 130.931 143.379C131.238 143.132 131.47 142.791 131.628 142.356C131.79 141.918 131.871 141.413 131.871 140.842C131.871 140.275 131.792 139.776 131.634 139.346C131.476 138.915 131.244 138.579 130.937 138.336C130.631 138.093 130.253 137.972 129.806 137.972C129.363 137.972 128.988 138.089 128.681 138.323C128.378 138.557 128.146 138.89 127.984 139.32C127.822 139.751 127.741 140.258 127.741 140.842ZM144.637 138.732L142.144 138.886C142.102 138.673 142.01 138.481 141.869 138.31C141.729 138.136 141.543 137.997 141.313 137.895C141.087 137.788 140.817 137.735 140.501 137.735C140.08 137.735 139.724 137.825 139.434 138.004C139.144 138.178 138.999 138.413 138.999 138.707C138.999 138.941 139.093 139.139 139.281 139.301C139.468 139.463 139.79 139.593 140.246 139.691L142.023 140.049C142.977 140.245 143.689 140.56 144.158 140.995C144.626 141.43 144.861 142.001 144.861 142.708C144.861 143.352 144.671 143.916 144.292 144.402C143.917 144.888 143.401 145.267 142.745 145.54C142.093 145.808 141.341 145.942 140.489 145.942C139.189 145.942 138.153 145.672 137.382 145.131C136.615 144.585 136.166 143.844 136.033 142.906L138.712 142.766C138.793 143.162 138.989 143.464 139.3 143.673C139.611 143.878 140.009 143.98 140.495 143.98C140.972 143.98 141.356 143.888 141.646 143.705C141.94 143.518 142.089 143.277 142.093 142.983C142.089 142.736 141.984 142.533 141.78 142.376C141.575 142.214 141.26 142.09 140.834 142.005L139.134 141.666C138.175 141.474 137.461 141.142 136.992 140.669C136.528 140.196 136.296 139.593 136.296 138.86C136.296 138.229 136.466 137.686 136.807 137.23C137.152 136.774 137.636 136.423 138.258 136.175C138.884 135.928 139.617 135.805 140.457 135.805C141.697 135.805 142.673 136.067 143.384 136.591C144.1 137.115 144.518 137.829 144.637 138.732ZM146.576 145.751L146.576 135.932L149.299 135.932L149.299 145.751L146.576 145.751ZM147.943 134.667C147.539 134.667 147.191 134.533 146.902 134.264C146.616 133.991 146.473 133.665 146.473 133.286C146.473 132.911 146.616 132.589 146.902 132.321C147.191 132.048 147.539 131.912 147.943 131.912C148.348 131.912 148.693 132.048 148.979 132.321C149.269 132.589 149.414 132.911 149.414 133.286C149.414 133.665 149.269 133.991 148.979 134.264C148.693 134.533 148.348 134.667 147.943 134.667ZM156.702 135.932L156.702 137.978L150.789 137.978L150.789 135.932L156.702 135.932ZM152.132 133.58L154.855 133.58L154.855 142.734C154.855 142.985 154.893 143.181 154.97 143.322C155.047 143.458 155.153 143.554 155.289 143.609C155.43 143.665 155.592 143.692 155.775 143.692C155.903 143.692 156.031 143.682 156.159 143.66C156.287 143.635 156.385 143.616 156.453 143.603L156.881 145.629C156.745 145.672 156.553 145.721 156.306 145.776C156.059 145.836 155.758 145.872 155.405 145.885C154.748 145.91 154.173 145.823 153.679 145.623C153.189 145.423 152.807 145.111 152.535 144.69C152.262 144.268 152.128 143.735 152.132 143.092L152.132 133.58ZM162.845 145.942C161.835 145.942 160.966 145.738 160.237 145.329C159.513 144.915 158.954 144.332 158.562 143.577C158.17 142.819 157.974 141.922 157.974 140.886C157.974 139.876 158.17 138.99 158.562 138.227C158.954 137.464 159.506 136.87 160.218 136.444C160.934 136.018 161.773 135.805 162.736 135.805C163.384 135.805 163.987 135.909 164.545 136.118C165.108 136.322 165.598 136.631 166.015 137.045C166.437 137.458 166.765 137.978 167 138.604C167.234 139.227 167.351 139.955 167.351 140.79L167.351 141.538L159.061 141.538L159.061 139.851L164.788 139.851C164.788 139.459 164.703 139.111 164.532 138.809C164.362 138.506 164.125 138.27 163.823 138.099C163.525 137.925 163.177 137.837 162.781 137.837C162.368 137.837 162.001 137.933 161.682 138.125C161.366 138.312 161.119 138.566 160.94 138.886C160.761 139.201 160.669 139.553 160.665 139.94L160.665 141.545C160.665 142.031 160.755 142.45 160.934 142.804C161.117 143.158 161.375 143.43 161.707 143.622C162.039 143.814 162.434 143.91 162.89 143.91C163.192 143.91 163.469 143.867 163.721 143.782C163.972 143.697 164.187 143.569 164.366 143.398C164.545 143.228 164.682 143.019 164.775 142.772L167.294 142.938C167.166 143.543 166.904 144.072 166.508 144.523C166.115 144.971 165.608 145.32 164.986 145.572C164.368 145.819 163.655 145.942 162.845 145.942Z" fill="white"/>
<path d="M53.0049 58.4327C51.4569 58.4327 50.0709 58.0547 48.8469 57.2987C47.6229 56.5247 46.6599 55.4087 45.9579 53.9507C45.2559 52.4927 44.9049 50.7287 44.9049 48.6587C44.9049 46.5887 45.2559 44.8247 45.9579 43.3667C46.6599 41.9087 47.6229 40.8017 48.8469 40.0457C50.0709 39.2717 51.4569 38.8847 53.0049 38.8847C54.5709 38.8847 55.9569 39.2717 57.1629 40.0457C58.3869 40.8017 59.3499 41.9087 60.0519 43.3667C60.7539 44.8247 61.1049 46.5887 61.1049 48.6587C61.1049 50.7287 60.7539 52.4927 60.0519 53.9507C59.3499 55.4087 58.3869 56.5247 57.1629 57.2987C55.9569 58.0547 54.5709 58.4327 53.0049 58.4327ZM53.0049 54.7337C53.7429 54.7337 54.3819 54.5267 54.9219 54.1127C55.4799 53.6987 55.9119 53.0417 56.2179 52.1417C56.5419 51.2417 56.7039 50.0807 56.7039 48.6587C56.7039 47.2367 56.5419 46.0757 56.2179 45.1757C55.9119 44.2757 55.4799 43.6187 54.9219 43.2047C54.3819 42.7907 53.7429 42.5837 53.0049 42.5837C52.2849 42.5837 51.6459 42.7907 51.0879 43.2047C50.5479 43.6187 50.1159 44.2757 49.7919 45.1757C49.4859 46.0757 49.3329 47.2367 49.3329 48.6587C49.3329 50.0807 49.4859 51.2417 49.7919 52.1417C50.1159 53.0417 50.5479 53.6987 51.0879 54.1127C51.6459 54.5267 52.2849 54.7337 53.0049 54.7337ZM69.0954 58.4327C67.7814 58.4327 66.4764 58.2617 65.1804 57.9197C63.8844 57.5597 62.7864 57.0557 61.8864 56.4077L63.5874 53.0597C64.3074 53.5817 65.1444 53.9957 66.0984 54.3017C67.0524 54.6077 68.0154 54.7607 68.9874 54.7607C70.0854 54.7607 70.9494 54.5447 71.5794 54.1127C72.2094 53.6807 72.5244 53.0867 72.5244 52.3307C72.5244 51.6107 72.2454 51.0437 71.6874 50.6297C71.1294 50.2157 70.2294 50.0087 68.9874 50.0087L66.9894 50.0087L66.9894 47.1197L72.2544 41.1527L72.7404 42.7187L62.8314 42.7187L62.8314 39.2087L76.0614 39.2087L76.0614 42.0437L70.8234 48.0107L68.6094 46.7417L69.8784 46.7417C72.2004 46.7417 73.9554 47.2637 75.1434 48.3077C76.3314 49.3517 76.9254 50.6927 76.9254 52.3307C76.9254 53.3927 76.6464 54.3917 76.0884 55.3277C75.5304 56.2457 74.6754 56.9927 73.5234 57.5687C72.3714 58.1447 70.8954 58.4327 69.0954 58.4327Z" fill="white"/>
</svg>
