<svg width="266" height="249" viewBox="0 0 266 249" fill="none" xmlns="http://www.w3.org/2000/svg">
<path d="M10.945 8.21524L11.8495 230.305C11.8877 239.694 19.5299 247.284 28.9187 247.259L240.1 246.69C249.488 246.665 257.069 239.033 257.03 229.644L256.896 196.685" stroke="white" stroke-width="3"/>
<path d="M253.391 196.459C255.388 194.269 258.914 194.537 260.564 197.005C262.59 200.035 260.429 204.097 256.786 204.107C252.81 204.118 250.713 199.395 253.391 196.459Z" fill="white" stroke="white" stroke-width="3"/>
<path d="M7.04948 4.99082C9.04718 2.80035 12.573 3.0685 14.2227 5.53639C16.2488 8.56716 14.0883 12.6292 10.445 12.639C6.46867 12.6497 4.37187 7.92683 7.04948 4.99082Z" fill="white" stroke="white" stroke-width="3"/>
<rect width="212.682" height="200.622" rx="14" transform="matrix(0.999997 0.00247331 0.00247331 -0.999997 27.9314 231.996)" fill="white" fill-opacity="0.53"/>
<rect x="0.501235" y="-0.498762" width="211.682" height="199.622" rx="13.5" transform="matrix(0.999997 0.00247331 0.00247331 -0.999997 27.9327 230.997)" stroke="#7A1E2D" stroke-opacity="0.58"/>
<path d="M48.3424 137.496L45.3765 137.496L49.8957 124.405L53.4625 124.405L57.9753 137.496L55.0094 137.496L51.7302 127.397L51.628 127.397L48.3424 137.496ZM48.1571 132.351L55.1628 132.351L55.1628 134.511L48.1571 134.511L48.1571 132.351ZM71.8348 130.478L69.3419 130.631C69.2993 130.418 69.2077 130.226 69.0671 130.056C68.9264 129.881 68.7411 129.743 68.511 129.641C68.2851 129.534 68.0145 129.481 67.6992 129.481C67.2773 129.481 66.9215 129.57 66.6317 129.749C66.3419 129.924 66.197 130.158 66.197 130.452C66.197 130.687 66.2908 130.885 66.4783 131.047C66.6658 131.209 66.9875 131.339 67.4435 131.437L69.2205 131.795C70.175 131.991 70.8867 132.306 71.3554 132.741C71.8242 133.175 72.0585 133.746 72.0585 134.454C72.0585 135.097 71.8689 135.662 71.4896 136.148C71.1146 136.633 70.599 137.013 69.9428 137.285C69.2908 137.554 68.5386 137.688 67.6864 137.688C66.3867 137.688 65.3511 137.418 64.5798 136.876C63.8128 136.331 63.3632 135.589 63.2311 134.652L65.9094 134.511C65.9904 134.908 66.1864 135.21 66.4975 135.419C66.8085 135.623 67.207 135.726 67.6928 135.726C68.17 135.726 68.5536 135.634 68.8433 135.451C69.1374 135.263 69.2865 135.023 69.2908 134.729C69.2865 134.481 69.1821 134.279 68.9776 134.121C68.773 133.959 68.4577 133.836 68.0315 133.751L66.3313 133.412C65.3725 133.22 64.6587 132.888 64.1899 132.415C63.7254 131.942 63.4932 131.339 63.4932 130.606C63.4932 129.975 63.6636 129.432 64.0046 128.976C64.3497 128.52 64.8334 128.168 65.4556 127.921C66.082 127.674 66.8149 127.55 67.6544 127.55C68.8945 127.55 69.8703 127.812 70.582 128.337C71.2979 128.861 71.7155 129.574 71.8348 130.478ZM73.7732 137.496L73.7732 127.678L76.3684 127.678L76.3684 129.41L76.4834 129.41C76.688 128.835 77.0289 128.381 77.5062 128.049C77.9834 127.717 78.5545 127.55 79.2192 127.55C79.8925 127.55 80.4657 127.719 80.9387 128.055C81.4117 128.388 81.727 128.839 81.8847 129.41L81.987 129.41C82.1873 128.848 82.5495 128.398 83.0736 128.062C83.602 127.721 84.2263 127.55 84.9465 127.55C85.8627 127.55 86.6063 127.842 87.1773 128.426C87.7526 129.006 88.0402 129.828 88.0402 130.893L88.0402 137.496L85.3236 137.496L85.3236 131.43C85.3236 130.885 85.1787 130.476 84.889 130.203C84.5992 129.93 84.237 129.794 83.8023 129.794C83.308 129.794 82.9223 129.952 82.6454 130.267C82.3684 130.578 82.2299 130.989 82.2299 131.501L82.2299 137.496L79.59 137.496L79.59 131.373C79.59 130.891 79.4515 130.508 79.1745 130.222C78.9018 129.937 78.5417 129.794 78.0942 129.794C77.7917 129.794 77.5189 129.871 77.276 130.024C77.0374 130.173 76.8478 130.384 76.7072 130.657C76.5665 130.925 76.4962 131.241 76.4962 131.603L76.4962 137.496L73.7732 137.496ZM92.9909 137.682C92.3645 137.682 91.8062 137.573 91.3162 137.356C90.8261 137.134 90.4383 136.808 90.1528 136.378C89.8716 135.943 89.7309 135.402 89.7309 134.754C89.7309 134.209 89.8311 133.751 90.0314 133.38C90.2317 133.009 90.5044 132.711 90.8496 132.485C91.1947 132.259 91.5868 132.089 92.0257 131.974C92.4689 131.859 92.9334 131.778 93.4192 131.731C93.9902 131.671 94.4504 131.616 94.7998 131.565C95.1493 131.509 95.4028 131.428 95.5605 131.322C95.7182 131.215 95.797 131.057 95.797 130.849L95.797 130.81C95.797 130.405 95.6692 130.092 95.4135 129.871C95.1621 129.649 94.8041 129.538 94.3396 129.538C93.8496 129.538 93.4596 129.647 93.1699 129.864C92.8801 130.077 92.6883 130.346 92.5946 130.67L90.0761 130.465C90.204 129.869 90.4554 129.353 90.8304 128.918C91.2054 128.479 91.689 128.143 92.2814 127.908C92.878 127.67 93.5683 127.55 94.3524 127.55C94.8978 127.55 95.4199 127.614 95.9184 127.742C96.4213 127.87 96.8666 128.068 97.2544 128.337C97.6464 128.605 97.9554 128.95 98.1812 129.372C98.4071 129.79 98.52 130.29 98.52 130.874L98.52 137.496L95.9376 137.496L95.9376 136.135L95.8609 136.135C95.7032 136.442 95.4923 136.712 95.2281 136.947C94.9639 137.177 94.6464 137.358 94.2757 137.49C93.9049 137.618 93.4767 137.682 92.9909 137.682ZM93.7707 135.802C94.1713 135.802 94.525 135.724 94.8318 135.566C95.1386 135.404 95.3794 135.187 95.5541 134.914C95.7288 134.641 95.8162 134.332 95.8162 133.987L95.8162 132.945C95.7309 133.001 95.6138 133.052 95.4646 133.099C95.3197 133.141 95.1557 133.182 94.9724 133.22C94.7892 133.254 94.6059 133.286 94.4227 133.316C94.2395 133.342 94.0733 133.365 93.9241 133.386C93.6045 133.433 93.3254 133.508 93.0868 133.61C92.8481 133.712 92.6628 133.851 92.5307 134.025C92.3986 134.196 92.3325 134.409 92.3325 134.665C92.3325 135.035 92.4667 135.319 92.7352 135.515C93.0079 135.707 93.3531 135.802 93.7707 135.802ZM103.356 124.405L103.356 137.496L100.633 137.496L100.633 124.405L103.356 124.405ZM108.26 124.405L108.26 137.496L105.537 137.496L105.537 124.405L108.26 124.405ZM119.082 137.688C118.072 137.688 117.202 137.484 116.474 137.074C115.749 136.661 115.191 136.077 114.799 135.323C114.407 134.565 114.211 133.668 114.211 132.632C114.211 131.622 114.407 130.736 114.799 129.973C115.191 129.21 115.743 128.616 116.454 128.19C117.17 127.763 118.01 127.55 118.973 127.55C119.621 127.55 120.224 127.655 120.782 127.864C121.344 128.068 121.834 128.377 122.252 128.79C122.674 129.204 123.002 129.724 123.236 130.35C123.471 130.972 123.588 131.701 123.588 132.536L123.588 133.284L115.298 133.284L115.298 131.596L121.025 131.596C121.025 131.204 120.94 130.857 120.769 130.555C120.599 130.252 120.362 130.016 120.06 129.845C119.761 129.67 119.414 129.583 119.018 129.583C118.604 129.583 118.238 129.679 117.918 129.871C117.603 130.058 117.356 130.312 117.177 130.631C116.998 130.947 116.906 131.298 116.902 131.686L116.902 133.29C116.902 133.776 116.991 134.196 117.17 134.55C117.354 134.903 117.611 135.176 117.944 135.368C118.276 135.56 118.67 135.655 119.126 135.655C119.429 135.655 119.706 135.613 119.957 135.528C120.209 135.442 120.424 135.315 120.603 135.144C120.782 134.974 120.918 134.765 121.012 134.518L123.53 134.684C123.403 135.289 123.141 135.817 122.744 136.269C122.352 136.717 121.845 137.066 121.223 137.317C120.605 137.565 119.891 137.688 119.082 137.688ZM131.482 131.04L131.482 133.201L125.512 133.201L125.512 131.04L131.482 131.04ZM50.471 159.688C49.4653 159.688 48.6003 159.475 47.8758 159.049C47.1557 158.619 46.6017 158.022 46.2139 157.259C45.8304 156.496 45.6386 155.619 45.6386 154.626C45.6386 153.62 45.8325 152.738 46.2203 151.979C46.6123 151.217 47.1684 150.622 47.8886 150.196C48.6088 149.766 49.4653 149.55 50.4582 149.55C51.3148 149.55 52.0648 149.706 52.7082 150.017C53.3517 150.328 53.8609 150.765 54.2359 151.327C54.6109 151.89 54.8176 152.55 54.8559 153.309L52.2863 153.309C52.2139 152.819 52.0221 152.425 51.7111 152.126C51.4042 151.824 51.0015 151.672 50.503 151.672C50.0811 151.672 49.7125 151.788 49.3971 152.018C49.0861 152.244 48.8432 152.574 48.6684 153.008C48.4937 153.443 48.4064 153.969 48.4064 154.587C48.4064 155.214 48.4916 155.746 48.6621 156.185C48.8368 156.624 49.0818 156.959 49.3971 157.189C49.7125 157.419 50.0811 157.534 50.503 157.534C50.814 157.534 51.0932 157.47 51.3403 157.342C51.5917 157.214 51.7984 157.029 51.9603 156.786C52.1265 156.539 52.2352 156.243 52.2863 155.898L54.8559 155.898C54.8133 156.648 54.6088 157.308 54.2423 157.879C53.8801 158.446 53.3794 158.889 52.7402 159.209C52.101 159.528 51.3446 159.688 50.471 159.688ZM61.0355 159.688C60.0426 159.688 59.1839 159.477 58.4595 159.055C57.7393 158.629 57.1832 158.037 56.7911 157.278C56.3991 156.516 56.2031 155.631 56.2031 154.626C56.2031 153.611 56.3991 152.725 56.7911 151.967C57.1832 151.204 57.7393 150.611 58.4595 150.19C59.1839 149.763 60.0426 149.55 61.0355 149.55C62.0284 149.55 62.8849 149.763 63.6051 150.19C64.3295 150.611 64.8877 151.204 65.2798 151.967C65.6718 152.725 65.8678 153.611 65.8678 154.626C65.8678 155.631 65.6718 156.516 65.2798 157.278C64.8877 158.037 64.3295 158.629 63.6051 159.055C62.8849 159.477 62.0284 159.688 61.0355 159.688ZM61.0482 157.579C61.4999 157.579 61.8771 157.451 62.1796 157.195C62.4822 156.935 62.7102 156.582 62.8636 156.134C63.0212 155.687 63.1001 155.177 63.1001 154.606C63.1001 154.035 63.0212 153.526 62.8636 153.079C62.7102 152.631 62.4822 152.278 62.1796 152.018C61.8771 151.758 61.4999 151.628 61.0482 151.628C60.5923 151.628 60.2087 151.758 59.8977 152.018C59.5909 152.278 59.3586 152.631 59.2009 153.079C59.0475 153.526 58.9708 154.035 58.9708 154.606C58.9708 155.177 59.0475 155.687 59.2009 156.134C59.3586 156.582 59.5909 156.935 59.8977 157.195C60.2087 157.451 60.5923 157.579 61.0482 157.579ZM67.6384 159.496L67.6384 149.678L70.2336 149.678L70.2336 151.41L70.3487 151.41C70.5532 150.835 70.8941 150.381 71.3714 150.049C71.8487 149.717 72.4197 149.55 73.0845 149.55C73.7578 149.55 74.3309 149.719 74.8039 150.055C75.2769 150.388 75.5923 150.839 75.7499 151.41L75.8522 151.41C76.0525 150.848 76.4147 150.398 76.9389 150.062C77.4673 149.721 78.0916 149.55 78.8117 149.55C79.7279 149.55 80.4715 149.842 81.0426 150.426C81.6178 151.006 81.9055 151.828 81.9055 152.893L81.9055 159.496L79.1889 159.496L79.1889 153.43C79.1889 152.885 79.044 152.476 78.7542 152.203C78.4644 151.93 78.1022 151.794 77.6676 151.794C77.1732 151.794 76.7876 151.952 76.5106 152.267C76.2336 152.578 76.0951 152.989 76.0951 153.501L76.0951 159.496L73.4552 159.496L73.4552 153.373C73.4552 152.891 73.3167 152.508 73.0397 152.222C72.767 151.937 72.4069 151.794 71.9595 151.794C71.6569 151.794 71.3842 151.871 71.1413 152.024C70.9026 152.173 70.713 152.384 70.5724 152.657C70.4318 152.925 70.3614 153.241 70.3614 153.603L70.3614 159.496L67.6384 159.496ZM84.0564 159.496L84.0564 149.678L86.6516 149.678L86.6516 151.41L86.7666 151.41C86.9712 150.835 87.3121 150.381 87.7894 150.049C88.2666 149.717 88.8377 149.55 89.5024 149.55C90.1757 149.55 90.7489 149.719 91.2219 150.055C91.6949 150.388 92.0102 150.839 92.1679 151.41L92.2702 151.41C92.4705 150.848 92.8327 150.398 93.3568 150.062C93.8852 149.721 94.5095 149.55 95.2297 149.55C96.1459 149.55 96.8895 149.842 97.4605 150.426C98.0358 151.006 98.3235 151.828 98.3235 152.893L98.3235 159.496L95.6068 159.496L95.6068 153.43C95.6068 152.885 95.4619 152.476 95.1722 152.203C94.8824 151.93 94.5202 151.794 94.0855 151.794C93.5912 151.794 93.2056 151.952 92.9286 152.267C92.6516 152.578 92.5131 152.989 92.5131 153.501L92.5131 159.496L89.8732 159.496L89.8732 153.373C89.8732 152.891 89.7347 152.508 89.4577 152.222C89.185 151.937 88.8249 151.794 88.3774 151.794C88.0749 151.794 87.8021 151.871 87.5592 152.024C87.3206 152.173 87.131 152.384 86.9904 152.657C86.8497 152.925 86.7794 153.241 86.7794 153.603L86.7794 159.496L84.0564 159.496ZM104.949 159.688C103.939 159.688 103.07 159.484 102.341 159.074C101.616 158.661 101.058 158.077 100.666 157.323C100.274 156.565 100.078 155.668 100.078 154.632C100.078 153.622 100.274 152.736 100.666 151.973C101.058 151.21 101.61 150.616 102.322 150.19C103.038 149.763 103.877 149.55 104.84 149.55C105.488 149.55 106.091 149.655 106.649 149.864C107.212 150.068 107.702 150.377 108.119 150.79C108.541 151.204 108.869 151.724 109.104 152.35C109.338 152.972 109.455 153.701 109.455 154.536L109.455 155.284L101.165 155.284L101.165 153.596L106.892 153.596C106.892 153.204 106.807 152.857 106.636 152.555C106.466 152.252 106.229 152.016 105.927 151.845C105.628 151.67 105.281 151.583 104.885 151.583C104.472 151.583 104.105 151.679 103.785 151.871C103.47 152.058 103.223 152.312 103.044 152.631C102.865 152.947 102.773 153.298 102.769 153.686L102.769 155.29C102.769 155.776 102.859 156.196 103.038 156.55C103.221 156.903 103.479 157.176 103.811 157.368C104.143 157.56 104.538 157.655 104.994 157.655C105.296 157.655 105.573 157.613 105.825 157.528C106.076 157.442 106.291 157.315 106.47 157.144C106.649 156.974 106.785 156.765 106.879 156.518L109.398 156.684C109.27 157.289 109.008 157.817 108.611 158.269C108.219 158.717 107.712 159.066 107.09 159.317C106.472 159.565 105.758 159.688 104.949 159.688ZM111.232 159.496L111.232 149.678L113.872 149.678L113.872 151.391L113.974 151.391C114.153 150.782 114.454 150.322 114.876 150.011C115.298 149.695 115.783 149.538 116.333 149.538C116.469 149.538 116.616 149.546 116.774 149.563C116.932 149.58 117.07 149.604 117.19 149.633L117.19 152.05C117.062 152.011 116.885 151.977 116.659 151.947C116.433 151.918 116.227 151.903 116.039 151.903C115.638 151.903 115.28 151.99 114.965 152.165C114.654 152.335 114.407 152.574 114.224 152.881C114.045 153.187 113.955 153.541 113.955 153.942L113.955 159.496L111.232 159.496ZM122.576 159.688C121.571 159.688 120.706 159.475 119.981 159.049C119.261 158.619 118.707 158.022 118.319 157.259C117.936 156.496 117.744 155.619 117.744 154.626C117.744 153.62 117.938 152.738 118.326 151.979C118.718 151.217 119.274 150.622 119.994 150.196C120.714 149.766 121.571 149.55 122.564 149.55C123.42 149.55 124.17 149.706 124.814 150.017C125.457 150.328 125.966 150.765 126.341 151.327C126.716 151.89 126.923 152.55 126.961 153.309L124.392 153.309C124.319 152.819 124.128 152.425 123.817 152.126C123.51 151.824 123.107 151.672 122.608 151.672C122.187 151.672 121.818 151.788 121.503 152.018C121.192 152.244 120.949 152.574 120.774 153.008C120.599 153.443 120.512 153.969 120.512 154.587C120.512 155.214 120.597 155.746 120.768 156.185C120.942 156.624 121.187 156.959 121.503 157.189C121.818 157.419 122.187 157.534 122.608 157.534C122.92 157.534 123.199 157.47 123.446 157.342C123.697 157.214 123.904 157.029 124.066 156.786C124.232 156.539 124.341 156.243 124.392 155.898L126.961 155.898C126.919 156.648 126.714 157.308 126.348 157.879C125.986 158.446 125.485 158.889 124.846 159.209C124.206 159.528 123.45 159.688 122.576 159.688ZM133.179 159.688C132.169 159.688 131.3 159.484 130.571 159.074C129.847 158.661 129.289 158.077 128.897 157.323C128.505 156.565 128.309 155.668 128.309 154.632C128.309 153.622 128.505 152.736 128.897 151.973C129.289 151.21 129.84 150.616 130.552 150.19C131.268 149.763 132.108 149.55 133.071 149.55C133.718 149.55 134.321 149.655 134.88 149.864C135.442 150.068 135.932 150.377 136.35 150.79C136.772 151.204 137.1 151.724 137.334 152.35C137.568 152.972 137.686 153.701 137.686 154.536L137.686 155.284L129.395 155.284L129.395 153.596L135.122 153.596C135.122 153.204 135.037 152.857 134.867 152.555C134.696 152.252 134.46 152.016 134.157 151.845C133.859 151.67 133.512 151.583 133.115 151.583C132.702 151.583 132.336 151.679 132.016 151.871C131.701 152.058 131.453 152.312 131.274 152.631C131.095 152.947 131.004 153.298 131 153.686L131 155.29C131 155.776 131.089 156.196 131.268 156.55C131.451 156.903 131.709 157.176 132.041 157.368C132.374 157.56 132.768 157.655 133.224 157.655C133.527 157.655 133.804 157.613 134.055 157.528C134.306 157.442 134.522 157.315 134.701 157.144C134.88 156.974 135.016 156.765 135.11 156.518L137.628 156.684C137.5 157.289 137.238 157.817 136.842 158.269C136.45 158.717 135.943 159.066 135.321 159.317C134.703 159.565 133.989 159.688 133.179 159.688ZM151.798 152.478L149.305 152.631C149.262 152.418 149.171 152.226 149.03 152.056C148.889 151.881 148.704 151.743 148.474 151.641C148.248 151.534 147.977 151.481 147.662 151.481C147.24 151.481 146.884 151.57 146.595 151.749C146.305 151.924 146.16 152.158 146.16 152.452C146.16 152.687 146.254 152.885 146.441 153.047C146.629 153.209 146.95 153.339 147.406 153.437L149.183 153.795C150.138 153.991 150.85 154.306 151.318 154.741C151.787 155.175 152.021 155.746 152.021 156.454C152.021 157.097 151.832 157.662 151.453 158.148C151.078 158.633 150.562 159.013 149.906 159.285C149.254 159.554 148.502 159.688 147.649 159.688C146.35 159.688 145.314 159.418 144.543 158.876C143.776 158.331 143.326 157.589 143.194 156.652L145.872 156.511C145.953 156.908 146.149 157.21 146.46 157.419C146.771 157.623 147.17 157.726 147.656 157.726C148.133 157.726 148.516 157.634 148.806 157.451C149.1 157.263 149.249 157.023 149.254 156.729C149.249 156.481 149.145 156.279 148.94 156.121C148.736 155.959 148.421 155.836 147.994 155.751L146.294 155.412C145.335 155.22 144.622 154.888 144.153 154.415C143.688 153.942 143.456 153.339 143.456 152.606C143.456 151.975 143.627 151.432 143.967 150.976C144.313 150.52 144.796 150.168 145.418 149.921C146.045 149.674 146.778 149.55 147.617 149.55C148.857 149.55 149.833 149.812 150.545 150.337C151.261 150.861 151.678 151.574 151.798 152.478ZM158.958 149.678L158.958 151.724L153.046 151.724L153.046 149.678L158.958 149.678ZM154.388 147.326L157.111 147.326L157.111 156.479C157.111 156.731 157.149 156.927 157.226 157.067C157.303 157.204 157.409 157.3 157.546 157.355C157.686 157.41 157.848 157.438 158.032 157.438C158.159 157.438 158.287 157.427 158.415 157.406C158.543 157.381 158.641 157.361 158.709 157.349L159.137 159.375C159.001 159.418 158.809 159.467 158.562 159.522C158.315 159.582 158.015 159.618 157.661 159.631C157.005 159.656 156.429 159.569 155.935 159.369C155.445 159.168 155.064 158.857 154.791 158.435C154.518 158.013 154.384 157.481 154.388 156.837L154.388 147.326ZM165.063 159.688C164.07 159.688 163.211 159.477 162.487 159.055C161.767 158.629 161.211 158.037 160.818 157.278C160.426 156.516 160.23 155.631 160.23 154.626C160.23 153.611 160.426 152.725 160.818 151.967C161.211 151.204 161.767 150.611 162.487 150.19C163.211 149.763 164.07 149.55 165.063 149.55C166.056 149.55 166.912 149.763 167.632 150.19C168.357 150.611 168.915 151.204 169.307 151.967C169.699 152.725 169.895 153.611 169.895 154.626C169.895 155.631 169.699 156.516 169.307 157.278C168.915 158.037 168.357 158.629 167.632 159.055C166.912 159.477 166.056 159.688 165.063 159.688ZM165.076 157.579C165.527 157.579 165.904 157.451 166.207 157.195C166.51 156.935 166.738 156.582 166.891 156.134C167.049 155.687 167.127 155.177 167.127 154.606C167.127 154.035 167.049 153.526 166.891 153.079C166.738 152.631 166.51 152.278 166.207 152.018C165.904 151.758 165.527 151.628 165.076 151.628C164.62 151.628 164.236 151.758 163.925 152.018C163.618 152.278 163.386 152.631 163.228 153.079C163.075 153.526 162.998 154.035 162.998 154.606C162.998 155.177 163.075 155.687 163.228 156.134C163.386 156.582 163.618 156.935 163.925 157.195C164.236 157.451 164.62 157.579 165.076 157.579ZM171.666 159.496L171.666 149.678L174.306 149.678L174.306 151.391L174.408 151.391C174.587 150.782 174.887 150.322 175.309 150.011C175.731 149.695 176.217 149.538 176.767 149.538C176.903 149.538 177.05 149.546 177.208 149.563C177.365 149.58 177.504 149.604 177.623 149.633L177.623 152.05C177.495 152.011 177.318 151.977 177.093 151.947C176.867 151.918 176.66 151.903 176.473 151.903C176.072 151.903 175.714 151.99 175.399 152.165C175.088 152.335 174.84 152.574 174.657 152.881C174.478 153.187 174.389 153.541 174.389 153.942L174.389 159.496L171.666 159.496ZM183.048 159.688C182.038 159.688 181.169 159.484 180.44 159.074C179.716 158.661 179.158 158.077 178.766 157.323C178.374 156.565 178.178 155.668 178.178 154.632C178.178 153.622 178.374 152.736 178.766 151.973C179.158 151.21 179.71 150.616 180.421 150.19C181.137 149.763 181.977 149.55 182.94 149.55C183.587 149.55 184.19 149.655 184.749 149.864C185.311 150.068 185.801 150.377 186.219 150.79C186.641 151.204 186.969 151.724 187.203 152.35C187.438 152.972 187.555 153.701 187.555 154.536L187.555 155.284L179.264 155.284L179.264 153.596L184.992 153.596C184.992 153.204 184.906 152.857 184.736 152.555C184.565 152.252 184.329 152.016 184.026 151.845C183.728 151.67 183.381 151.583 182.984 151.583C182.571 151.583 182.205 151.679 181.885 151.871C181.57 152.058 181.323 152.312 181.144 152.631C180.965 152.947 180.873 153.298 180.869 153.686L180.869 155.29C180.869 155.776 180.958 156.196 181.137 156.55C181.32 156.903 181.578 157.176 181.911 157.368C182.243 157.56 182.637 157.655 183.093 157.655C183.396 157.655 183.673 157.613 183.924 157.528C184.176 157.442 184.391 157.315 184.57 157.144C184.749 156.974 184.885 156.765 184.979 156.518L187.497 156.684C187.369 157.289 187.107 157.817 186.711 158.269C186.319 158.717 185.812 159.066 185.19 159.317C184.572 159.565 183.858 159.688 183.048 159.688Z" fill="white"/>
<path d="M54.1013 70.1759C52.5533 70.1759 51.1673 69.7979 49.9433 69.0419C48.7193 68.2679 47.7563 67.1519 47.0543 65.6939C46.3523 64.2359 46.0013 62.4719 46.0013 60.4019C46.0013 58.3319 46.3523 56.5679 47.0543 55.1099C47.7563 53.6519 48.7193 52.5449 49.9433 51.7889C51.1673 51.0149 52.5533 50.6279 54.1013 50.6279C55.6673 50.6279 57.0533 51.0149 58.2593 51.7889C59.4833 52.5449 60.4463 53.6519 61.1483 55.1099C61.8503 56.5679 62.2013 58.3319 62.2013 60.4019C62.2013 62.4719 61.8503 64.2359 61.1483 65.6939C60.4463 67.1519 59.4833 68.2679 58.2593 69.0419C57.0533 69.7979 55.6673 70.1759 54.1013 70.1759ZM54.1013 66.4769C54.8393 66.4769 55.4783 66.2699 56.0183 65.8559C56.5763 65.4419 57.0083 64.7849 57.3143 63.8849C57.6383 62.9849 57.8003 61.8239 57.8003 60.4019C57.8003 58.9799 57.6383 57.8189 57.3143 56.9189C57.0083 56.0189 56.5763 55.3619 56.0183 54.9479C55.4783 54.5339 54.8393 54.3269 54.1013 54.3269C53.3813 54.3269 52.7423 54.5339 52.1843 54.9479C51.6443 55.3619 51.2123 56.0189 50.8883 56.9189C50.5823 57.8189 50.4293 58.9799 50.4293 60.4019C50.4293 61.8239 50.5823 62.9849 50.8883 63.8849C51.2123 64.7849 51.6443 65.4419 52.1843 65.8559C52.7423 66.2699 53.3813 66.4769 54.1013 66.4769ZM64.1105 65.8829L64.1105 62.9399L73.0205 50.9519L77.6105 50.9519L68.8895 62.9399L66.7565 62.3189L81.6335 62.3189L81.6335 65.8829L64.1105 65.8829ZM74.2895 69.8519L74.2895 65.8829L74.4245 62.3189L74.4245 58.7819L78.5555 58.7819L78.5555 69.8519L74.2895 69.8519Z" fill="white"/>
</svg>
