<svg width="451" height="155" viewBox="0 0 451 155" fill="none" xmlns="http://www.w3.org/2000/svg">
<circle cx="373.816" cy="78.0563" r="66" transform="rotate(-179.761 373.816 78.0563)" stroke="#7A1E2D" stroke-width="21"/>
<path d="M362.118 125.508L4.12092 124.016L4.38354 61.0161C4.45491 43.8955 18.3918 30.0743 35.5125 30.1456L362.51 31.5087C387.915 31.6147 408.423 52.2952 408.317 77.7001L408.309 79.7001C408.203 105.105 387.523 125.614 362.118 125.508Z" fill="white" stroke="#7A1E2D" stroke-width="8"/>
<path d="M50.1892 64.4741L46.8633 52.0518L49.7184 52.1006L51.6178 60.7248L51.7205 60.7266L54.1247 52.1759L56.5693 52.2176L58.6737 60.8635L58.7823 60.8654L60.9756 52.2929L63.8307 52.3417L60.0823 64.6431L57.5351 64.5996L55.3191 56.4771L55.2226 56.4754L52.7365 64.5176L50.1892 64.4741ZM68.16 64.9622C67.2224 64.9462 66.415 64.7332 65.7377 64.3231C65.0645 63.9091 64.5489 63.3408 64.1909 62.6182C63.833 61.8915 63.6622 61.0534 63.6784 60.1037C63.6948 59.146 63.8942 58.3122 64.2766 57.6022C64.6592 56.8882 65.1939 56.3379 65.8807 55.9511C66.5717 55.5604 67.386 55.373 68.3236 55.3891C69.2612 55.4051 70.0666 55.6201 70.7397 56.0341C71.417 56.4442 71.9346 57.0125 72.2925 57.7392C72.6505 58.4618 72.8213 59.3019 72.8049 60.2596C72.7887 61.2093 72.5893 62.0411 72.2068 62.7551C71.8244 63.4651 71.2877 64.0154 70.5967 64.4061C69.9098 64.7929 69.0976 64.9783 68.16 64.9622ZM68.2061 62.9705C68.6327 62.9778 68.9908 62.8632 69.2807 62.6266C69.5706 62.3861 69.7916 62.0557 69.9437 61.6357C70.0998 61.2157 70.1824 60.7361 70.1916 60.1969C70.2008 59.6577 70.1346 59.1755 69.9929 58.7505C69.8553 58.3255 69.6457 57.9878 69.3642 57.7374C69.0827 57.4871 68.7287 57.3583 68.3021 57.351C67.8715 57.3436 67.5073 57.4602 67.2093 57.7006C66.9154 57.9411 66.6904 58.2714 66.5343 58.6914C66.3822 59.1114 66.3016 59.591 66.2923 60.1303C66.2831 60.6695 66.3473 61.1516 66.485 61.5766C66.6267 62.0017 66.8403 62.3394 67.1258 62.5898C67.4154 62.8363 67.7755 62.9632 68.2061 62.9705ZM74.3983 64.8877L74.5567 55.6163L77.0496 55.6589L77.022 57.2766L77.1186 57.2782C77.2974 56.7057 77.5885 56.2759 77.9919 55.989C78.3954 55.698 78.8567 55.5569 79.3758 55.5658C79.5045 55.568 79.6432 55.5784 79.7918 55.5971C79.9405 55.6157 80.0709 55.6401 80.1831 55.6702L80.1441 57.9518C80.024 57.9135 79.8575 57.8785 79.6447 57.8467C79.4319 57.8148 79.237 57.7974 79.06 57.7944C78.6817 57.7879 78.3423 57.8647 78.0417 58.0246C77.7452 58.1805 77.5079 58.4019 77.3299 58.6886C77.156 58.9755 77.0658 59.308 77.0593 59.6863L76.9697 64.9316L74.3983 64.8877ZM84.3356 65.2084C83.6314 65.1964 82.9967 65.0044 82.4315 64.6325C81.8703 64.2566 81.4288 63.7117 81.1069 62.9977C80.7891 62.2799 80.6391 61.4038 80.6567 60.3696C80.6749 59.3073 80.861 58.4269 81.2151 57.7286C81.5692 57.0262 82.033 56.5048 82.6063 56.1644C83.1838 55.8201 83.8126 55.6537 84.4926 55.6653C85.0117 55.6742 85.4428 55.7701 85.7858 55.9531C86.133 56.1321 86.4109 56.3542 86.6198 56.6194C86.8327 56.8806 86.9933 57.137 87.1017 57.3884L87.1802 57.3897L87.2596 52.742L89.8249 52.7858L89.6137 65.1476L87.0786 65.1043L87.1039 63.6195L86.9953 63.6176C86.8702 63.8731 86.6948 64.1257 86.4691 64.3754C86.2476 64.6212 85.9603 64.8236 85.6074 64.9826C85.2585 65.1417 84.8346 65.2169 84.3356 65.2084ZM85.1855 63.1761C85.5999 63.1832 85.9519 63.0765 86.2415 62.856C86.5351 62.6316 86.7619 62.3155 86.9219 61.9076C87.0858 61.4999 87.1725 61.0203 87.1819 60.469C87.1913 59.9178 87.1231 59.4376 86.9771 59.0286C86.8311 58.6195 86.6152 58.3019 86.3292 58.0756C86.0433 57.8493 85.693 57.7326 85.2786 57.7256C84.8561 57.7183 84.498 57.8269 84.2043 58.0514C83.9107 58.2758 83.6859 58.5899 83.5301 58.9938C83.3743 59.3977 83.2918 59.8672 83.2826 60.4024C83.2734 60.9417 83.3397 61.4198 83.4815 61.8368C83.6274 62.2499 83.8412 62.5755 84.1229 62.8138C84.4088 63.0481 84.7629 63.1689 85.1855 63.1761ZM91.7761 65.1846L91.9873 52.8227L96.8645 52.9061C97.8021 52.9221 98.5978 53.1148 99.2516 53.4842C99.9055 53.8496 100.4 54.3512 100.735 54.9888C101.075 55.6226 101.237 56.3499 101.223 57.1708C101.209 57.9917 101.02 58.713 100.655 59.3347C100.29 59.9564 99.7688 60.4365 99.0908 60.7752C98.4168 61.1138 97.605 61.2751 96.6553 61.2588L93.5468 61.2057L93.5826 59.1112L96.2686 59.1571C96.7716 59.1657 97.1876 59.0863 97.5165 58.9188C97.8495 58.7474 98.0991 58.5081 98.2653 58.201C98.4357 57.89 98.5243 57.5312 98.5313 57.1248C98.5383 56.7143 98.4619 56.3548 98.3021 56.0461C98.1465 55.7335 97.9051 55.4899 97.578 55.3153C97.251 55.1366 96.834 55.0429 96.327 55.0343L94.5644 55.0042L94.3897 65.2292L91.7761 65.1846ZM102.733 65.3718L102.891 56.1004L105.384 56.143L105.357 57.7607L105.453 57.7623C105.632 57.1898 105.923 56.76 106.327 56.4731C106.73 56.1821 107.191 56.041 107.711 56.0499C107.839 56.0521 107.978 56.0625 108.127 56.0812C108.275 56.0998 108.406 56.1242 108.518 56.1543L108.479 58.4359C108.359 58.3976 108.192 58.3626 107.979 58.3308C107.767 58.2989 107.572 58.2815 107.395 58.2785C107.016 58.272 106.677 58.3488 106.376 58.5087C106.08 58.6646 105.843 58.886 105.665 59.1727C105.491 59.4596 105.401 59.7921 105.394 60.1704L105.304 65.4157L102.733 65.3718ZM113.479 65.7365C112.525 65.7202 111.707 65.513 111.026 65.115C110.348 64.7129 109.831 64.1526 109.473 63.4341C109.115 62.7115 108.944 61.8612 108.961 60.8834C108.977 59.9297 109.176 59.0959 109.559 58.3819C109.942 57.6679 110.472 57.1155 111.151 56.7245C111.834 56.3337 112.63 56.146 113.54 56.1616C114.151 56.172 114.719 56.2803 115.243 56.4865C115.771 56.6888 116.228 56.9884 116.616 57.3855C117.008 57.7826 117.309 58.2788 117.52 58.8741C117.732 59.4654 117.831 60.1554 117.817 60.9441L117.805 61.6504L109.976 61.5166L110.004 59.9231L115.412 60.0155C115.418 59.6453 115.343 59.316 115.187 59.0275C115.031 58.739 114.812 58.5119 114.529 58.346C114.25 58.1762 113.923 58.0882 113.549 58.0818C113.159 58.0751 112.811 58.1597 112.506 58.3356C112.205 58.5076 111.968 58.7431 111.794 59.042C111.62 59.3369 111.527 59.6674 111.517 60.0335L111.491 61.5485C111.483 62.0073 111.561 62.4051 111.725 62.742C111.892 63.0789 112.131 63.3406 112.442 63.5271C112.752 63.7135 113.123 63.8104 113.554 63.8178C113.839 63.8226 114.102 63.7869 114.34 63.7104C114.579 63.634 114.785 63.5168 114.956 63.3587C115.128 63.2006 115.26 63.0056 115.353 62.7738L117.728 62.9713C117.598 63.5407 117.342 64.0354 116.96 64.4556C116.583 64.8718 116.098 65.1936 115.507 65.421C114.919 65.6444 114.243 65.7496 113.479 65.7365ZM127.243 59.161L124.886 59.2656C124.849 59.0638 124.766 58.8812 124.636 58.718C124.506 58.5507 124.333 58.4169 124.117 58.3167C123.906 58.2124 123.651 58.1577 123.353 58.1527C122.955 58.1459 122.617 58.2246 122.341 58.3889C122.064 58.5493 121.924 58.7682 121.919 59.0459C121.915 59.2672 122.001 59.4559 122.175 59.6118C122.35 59.7677 122.651 59.8957 123.08 59.9956L124.753 60.3623C125.651 60.5628 126.318 60.872 126.753 61.29C127.189 61.708 127.401 62.251 127.39 62.919C127.379 63.5267 127.191 64.0568 126.825 64.5094C126.463 64.9621 125.97 65.3119 125.346 65.5589C124.726 65.8019 124.014 65.9165 123.209 65.9027C121.981 65.8818 121.008 65.6095 120.288 65.086C119.573 64.5586 119.16 63.8512 119.051 62.9637L121.582 62.8742C121.652 63.2497 121.832 63.5386 122.123 63.7408C122.413 63.9389 122.788 64.0419 123.246 64.0498C123.697 64.0575 124.061 63.9771 124.337 63.8088C124.618 63.6365 124.763 63.4115 124.772 63.1339C124.772 62.9005 124.676 62.7076 124.486 62.5555C124.295 62.3992 123.999 62.2775 123.598 62.1901L121.998 61.8428C121.096 61.6462 120.427 61.3208 119.992 60.8666C119.561 60.4124 119.352 59.8393 119.363 59.1471C119.374 58.5516 119.543 58.0413 119.873 57.6162C120.206 57.1912 120.668 56.867 121.26 56.6437C121.855 56.4204 122.549 56.3155 123.342 56.329C124.513 56.3491 125.43 56.6123 126.094 57.1187C126.762 57.6252 127.144 58.306 127.243 59.161ZM136.787 59.3241L134.43 59.4287C134.394 59.2268 134.31 59.0443 134.18 58.881C134.05 58.7138 133.877 58.58 133.662 58.4797C133.45 58.3755 133.196 58.3208 132.898 58.3157C132.499 58.3089 132.162 58.3877 131.885 58.552C131.609 58.7123 131.468 58.9313 131.464 59.209C131.46 59.4303 131.545 59.6189 131.72 59.7749C131.894 59.9308 132.196 60.0587 132.625 60.1586L134.297 60.5253C135.195 60.7258 135.862 61.0351 136.298 61.4531C136.733 61.8711 136.946 62.4141 136.934 63.0821C136.924 63.6897 136.736 64.2199 136.37 64.6725C136.008 65.1252 135.515 65.475 134.891 65.7219C134.271 65.9649 133.558 66.0796 132.753 66.0658C131.526 66.0448 130.552 65.7726 129.833 65.2491C129.117 64.7217 128.705 64.0142 128.595 63.1268L131.127 63.0372C131.197 63.4128 131.377 63.7016 131.667 63.9038C131.958 64.102 132.332 64.205 132.791 64.2128C133.242 64.2205 133.605 64.1402 133.882 63.9719C134.163 63.7995 134.307 63.5746 134.316 63.297C134.316 63.0635 134.221 62.8707 134.03 62.7185C133.84 62.5623 133.544 62.4405 133.143 62.3532L131.543 62.0058C130.64 61.8093 129.972 61.4839 129.537 61.0297C129.106 60.5755 128.896 60.0023 128.908 59.3102C128.918 58.7147 129.088 58.2043 129.417 57.7793C129.75 57.3543 130.213 57.0301 130.804 56.8067C131.4 56.5834 132.094 56.4786 132.887 56.4921C134.058 56.5121 134.975 56.7753 135.638 57.2818C136.306 57.7883 136.689 58.469 136.787 59.3241ZM145.269 66.0985L141.943 53.6762L144.798 53.725L146.698 62.3493L146.8 62.351L149.205 53.8003L151.649 53.8421L153.754 62.4879L153.862 62.4898L156.055 53.9173L158.911 53.9661L155.162 66.2675L152.615 66.224L150.399 58.1015L150.302 58.0999L147.816 66.142L145.269 66.0985ZM163.276 66.5873C162.322 66.571 161.505 66.3638 160.823 65.9658C160.146 65.5637 159.628 65.0034 159.27 64.2849C158.912 63.5623 158.741 62.712 158.758 61.7342C158.774 60.7805 158.974 59.9467 159.356 59.2327C159.739 58.5187 160.27 57.9663 160.949 57.5753C161.631 57.1845 162.428 56.9968 163.337 57.0124C163.949 57.0228 164.516 57.1311 165.04 57.3373C165.568 57.5395 166.026 57.8392 166.414 58.2363C166.805 58.6334 167.107 59.1296 167.318 59.7249C167.529 60.3162 167.628 61.0062 167.615 61.7949L167.603 62.5012L159.774 62.3674L159.801 60.7739L165.209 60.8663C165.216 60.4961 165.141 60.1667 164.985 59.8783C164.829 59.5898 164.609 59.3627 164.326 59.1968C164.047 59.027 163.721 58.9389 163.346 58.9325C162.956 58.9259 162.609 59.0105 162.304 59.1864C162.003 59.3584 161.765 59.5938 161.591 59.8928C161.417 60.1876 161.325 60.5181 161.315 60.8843L161.289 62.3993C161.281 62.8581 161.359 63.2559 161.522 63.5928C161.689 63.9297 161.928 64.1914 162.239 64.3778C162.55 64.5643 162.921 64.6612 163.351 64.6685C163.637 64.6734 163.899 64.6377 164.138 64.5612C164.377 64.4848 164.582 64.3676 164.754 64.2095C164.925 64.0514 165.058 63.8564 165.15 63.6245L167.526 63.8221C167.395 64.3915 167.139 64.8862 166.758 65.3064C166.38 65.7226 165.896 66.0444 165.304 66.2717C164.717 66.4952 164.041 66.6003 163.276 66.5873ZM169.261 66.5084L169.472 54.1466L172.043 54.1905L171.964 58.8383L172.043 58.8396C172.159 58.592 172.327 58.3413 172.544 58.0874C172.766 57.8296 173.052 57.6171 173.401 57.45C173.754 57.2789 174.19 57.1978 174.709 57.2066C175.385 57.2182 176.006 57.4059 176.571 57.7698C177.136 58.1296 177.584 58.6666 177.914 59.3807C178.244 60.0907 178.4 60.9769 178.382 62.0393C178.364 63.0734 178.182 63.9438 177.836 64.6504C177.494 65.3529 177.034 65.8825 176.457 66.2389C175.883 66.5913 175.244 66.7616 174.54 66.7495C174.041 66.741 173.618 66.6513 173.271 66.4803C172.927 66.3094 172.647 66.0973 172.43 65.844C172.213 65.5868 172.048 65.3283 171.936 65.0688L171.821 65.0668L171.796 66.5517L169.261 66.5084ZM171.857 61.9157C171.848 62.467 171.916 62.9492 172.062 63.3623C172.208 63.7753 172.424 64.099 172.709 64.3333C172.995 64.5636 173.345 64.6823 173.76 64.6894C174.178 64.6965 174.535 64.5879 174.828 64.3635C175.122 64.135 175.347 63.8169 175.503 63.409C175.663 62.9971 175.747 62.5216 175.756 61.9823C175.766 61.4471 175.699 60.9751 175.557 60.5661C175.415 60.1571 175.201 59.8355 174.916 59.6011C174.63 59.3668 174.276 59.2461 173.853 59.2388C173.435 59.2317 173.079 59.3363 172.785 59.5527C172.496 59.7691 172.271 60.0792 172.111 60.4831C171.951 60.8869 171.867 61.3644 171.857 61.9157ZM51.4301 85.4983L47.0479 85.4235L47.2591 73.0616L51.6775 73.1371C52.9209 73.1584 53.9871 73.4241 54.876 73.9344C55.765 74.4407 56.443 75.1587 56.9101 76.0884C57.3813 77.0183 57.6059 78.125 57.584 79.4087C57.562 80.6964 57.2996 81.7988 56.7969 82.716C56.2982 83.6333 55.5919 84.3317 54.6781 84.8112C53.7682 85.2907 52.6856 85.5198 51.4301 85.4983ZM49.6998 83.2287L51.3597 83.2571C52.1323 83.2703 52.7845 83.1446 53.3163 82.88C53.8523 82.6114 54.258 82.1896 54.5334 81.6147C54.813 81.0358 54.9607 80.2856 54.9764 79.3641C54.992 78.4507 54.87 77.7019 54.6103 77.1178C54.3546 76.5338 53.9655 76.1005 53.443 75.8179C52.9206 75.5352 52.273 75.3873 51.5004 75.3741L49.8344 75.3457L49.6998 83.2287ZM63.5881 85.8872C62.6344 85.8709 61.8168 85.6637 61.1353 85.2657C60.4579 84.8636 59.9402 84.3033 59.5821 83.5848C59.2241 82.8622 59.0535 82.0119 59.0702 81.0341C59.0865 80.0804 59.2859 79.2466 59.6684 78.5326C60.0509 77.8186 60.5816 77.2662 61.2605 76.8752C61.9434 76.4844 62.7396 76.2967 63.6491 76.3123C64.2607 76.3227 64.8284 76.431 65.3522 76.6372C65.8801 76.8394 66.3379 77.1391 66.7255 77.5362C67.1173 77.9333 67.4187 78.4295 67.6299 79.0248C67.8412 79.6161 67.9401 80.3061 67.9266 81.0948L67.9146 81.8011L60.0858 81.6673L60.113 80.0738L65.5213 80.1662C65.5277 79.796 65.4528 79.4666 65.2967 79.1782C65.1406 78.8897 64.9211 78.6626 64.6382 78.4967C64.3593 78.3269 64.0327 78.2388 63.6585 78.2324C63.2682 78.2258 62.9206 78.3104 62.6157 78.4863C62.3149 78.6583 62.0774 78.8937 61.9032 79.1927C61.7291 79.4876 61.6369 79.8181 61.6266 80.1842L61.6008 81.6992C61.5929 82.158 61.6707 82.5558 61.834 82.8927C62.0013 83.2296 62.2403 83.4913 62.5511 83.6777C62.8619 83.8642 63.2326 83.9611 63.6632 83.9684C63.9489 83.9733 64.2111 83.9376 64.4499 83.8611C64.6887 83.7847 64.894 83.6675 65.0657 83.5094C65.2375 83.3513 65.3696 83.1563 65.4621 82.9245L67.8377 83.122C67.7072 83.6914 67.4512 84.1861 67.0697 84.6063C66.6922 85.0225 66.2077 85.3443 65.6162 85.5716C65.0287 85.7951 64.3527 85.9003 63.5881 85.8872ZM78.0777 76.6795L74.6779 85.8955L71.7806 85.846L68.6977 76.5193L71.4139 76.5657L73.226 83.2322L73.3226 83.2338L75.3554 76.633L78.0777 76.6795ZM83.1585 86.2215C82.2048 86.2053 81.3872 85.9981 80.7057 85.6C80.0283 85.198 79.5105 84.6377 79.1525 83.9191C78.7945 83.1965 78.6239 82.3463 78.6406 81.3685C78.6569 80.4148 78.8563 79.5809 79.2388 78.8669C79.6213 78.153 80.152 77.6005 80.8309 77.2096C81.5138 76.8187 82.31 76.6311 83.2194 76.6466C83.8311 76.6571 84.3988 76.7654 84.9226 76.9716C85.4505 77.1738 85.9082 77.4734 86.2959 77.8705C86.6876 78.2677 86.9891 78.7639 87.2003 79.3592C87.4116 79.9505 87.5105 80.6405 87.497 81.4292L87.485 82.1354L79.6562 82.0017L79.6834 80.4081L85.0917 80.5005C85.0981 80.1303 85.0232 79.801 84.8671 79.5125C84.711 79.2241 84.4915 78.9969 84.2085 78.8311C83.9297 78.6613 83.6031 78.5732 83.2289 78.5668C82.8386 78.5601 82.491 78.6448 82.1861 78.8207C81.8853 78.9927 81.6478 79.2281 81.4736 79.527C81.2995 79.8219 81.2073 80.1524 81.197 80.5185L81.1712 82.0336C81.1633 82.4923 81.241 82.8901 81.4043 83.227C81.5717 83.564 81.8107 83.8257 82.1215 84.0121C82.4323 84.1986 82.803 84.2955 83.2335 84.3028C83.5192 84.3077 83.7815 84.2719 84.0203 84.1955C84.2591 84.1191 84.4644 84.0018 84.6361 83.8437C84.8079 83.6857 84.94 83.4907 85.0325 83.2588L87.4081 83.4564C87.2776 84.0257 87.0216 84.5205 86.64 84.9406C86.2626 85.3568 85.7781 85.6786 85.1866 85.906C84.5991 86.1294 83.9231 86.2346 83.1585 86.2215ZM91.8776 73.8239L91.6664 86.1858L89.095 86.1418L89.3062 73.78L91.8776 73.8239ZM97.9121 86.4736C96.9745 86.4576 96.1671 86.2446 95.4898 85.8345C94.8166 85.4205 94.301 84.8522 93.9431 84.1295C93.5851 83.4029 93.4143 82.5648 93.4305 81.6151C93.4469 80.6574 93.6463 79.8235 94.0287 79.1136C94.4113 78.3996 94.946 77.8492 95.6328 77.4625C96.3238 77.0718 97.1381 76.8844 98.0757 76.9004C99.0133 76.9165 99.8187 77.1315 100.492 77.5455C101.169 77.9556 101.687 78.5239 102.045 79.2505C102.403 79.9731 102.573 80.8133 102.557 81.771C102.541 82.7207 102.341 83.5525 101.959 84.2665C101.576 84.9765 101.04 85.5268 100.349 85.9175C99.6619 86.3043 98.8497 86.4896 97.9121 86.4736ZM97.9582 84.4819C98.3848 84.4892 98.743 84.3746 99.0328 84.138C99.3227 83.8974 99.5437 83.5671 99.6958 83.1471C99.8519 82.7271 99.9345 82.2475 99.9437 81.7083C99.953 81.169 99.8867 80.6869 99.7451 80.2618C99.6074 79.8368 99.3978 79.4992 99.1163 79.2488C98.8348 78.9985 98.4808 78.8696 98.0542 78.8624C97.6237 78.855 97.2594 78.9715 96.9614 79.212C96.6675 79.4525 96.4425 79.7828 96.2864 80.2027C96.1343 80.6228 96.0537 81.1024 96.0445 81.6416C96.0352 82.1809 96.0995 82.663 96.2371 83.088C96.3788 83.513 96.5924 83.8508 96.8779 84.1012C97.1675 84.3477 97.5276 84.4746 97.9582 84.4819ZM104.091 89.8758L104.309 77.1277L106.844 77.171L106.817 78.7283L106.932 78.7303C107.049 78.4827 107.216 78.232 107.434 77.9781C107.656 77.7202 107.941 77.5077 108.29 77.3406C108.643 77.1695 109.079 77.0884 109.598 77.0973C110.275 77.1089 110.895 77.2966 111.461 77.6604C112.026 78.0203 112.474 78.5573 112.804 79.2713C113.134 79.9814 113.29 80.8676 113.271 81.9299C113.254 82.9641 113.072 83.8345 112.726 84.541C112.384 85.2436 111.924 85.7731 111.346 86.1295C110.773 86.482 110.134 86.6522 109.429 86.6402C108.93 86.6317 108.507 86.5419 108.16 86.371C107.817 86.2001 107.537 85.988 107.32 85.7347C107.103 85.4774 106.938 85.219 106.826 84.9595L106.747 84.9581L106.662 89.9198L104.091 89.8758ZM106.747 81.8064C106.737 82.3577 106.806 82.8398 106.951 83.2529C107.097 83.666 107.313 83.9897 107.599 84.224C107.885 84.4543 108.235 84.573 108.65 84.5801C109.068 84.5872 109.424 84.4786 109.718 84.2541C110.011 84.0257 110.236 83.7075 110.392 83.2996C110.552 82.8878 110.637 82.4122 110.646 81.873C110.655 81.3378 110.589 80.8657 110.447 80.4567C110.305 80.0478 110.091 79.7261 109.805 79.4918C109.519 79.2575 109.165 79.1367 108.743 79.1295C108.324 79.1223 107.968 79.227 107.675 79.4433C107.385 79.6598 107.16 79.9699 107.001 80.3737C106.841 80.7775 106.756 81.2551 106.747 81.8064ZM114.907 86.5828L115.065 77.3115L117.516 77.3533L117.488 78.9891L117.596 78.991C117.799 78.451 118.128 78.0279 118.584 77.7218C119.04 77.4156 119.582 77.2679 120.21 77.2786C120.846 77.2895 121.384 77.4577 121.825 77.7832C122.267 78.1047 122.557 78.5363 122.697 79.0781L122.793 79.0797C122.992 78.5518 123.341 78.1331 123.841 77.8237C124.346 77.5103 124.938 77.3594 125.618 77.371C126.483 77.3858 127.181 77.6734 127.711 78.2339C128.245 78.7905 128.503 79.5718 128.486 80.5778L128.379 86.813L125.814 86.7692L125.912 81.041C125.92 80.5259 125.79 80.1372 125.521 79.875C125.252 79.6128 124.912 79.4782 124.502 79.4712C124.035 79.4632 123.668 79.6059 123.401 79.8992C123.135 80.1885 122.997 80.5746 122.989 81.0574L122.892 86.7193L120.399 86.6767L120.498 80.8941C120.506 80.4394 120.381 80.075 120.125 79.8009C119.872 79.5269 119.534 79.3863 119.111 79.3791C118.826 79.3742 118.567 79.4423 118.335 79.5832C118.107 79.7202 117.925 79.9163 117.788 80.1716C117.65 80.4228 117.579 80.7195 117.573 81.0615L117.478 86.6268L114.907 86.5828ZM134.632 87.101C133.679 87.0847 132.861 86.8775 132.18 86.4794C131.502 86.0774 130.984 85.5171 130.626 84.7985C130.268 84.0759 130.098 83.2257 130.115 82.2479C130.131 81.2942 130.33 80.4603 130.713 79.7464C131.095 79.0324 131.626 78.4799 132.305 78.089C132.988 77.6982 133.784 77.5105 134.693 77.526C135.305 77.5365 135.873 77.6448 136.397 77.851C136.924 78.0532 137.382 78.3529 137.77 78.7499C138.162 79.1471 138.463 79.6433 138.674 80.2386C138.886 80.8299 138.984 81.5199 138.971 82.3086L138.959 83.0148L131.13 82.8811L131.157 81.2876L136.566 81.38C136.572 81.0098 136.497 80.6804 136.341 80.392C136.185 80.1035 135.965 79.8764 135.682 79.7105C135.404 79.5407 135.077 79.4526 134.703 79.4462C134.312 79.4396 133.965 79.5242 133.66 79.7001C133.359 79.8721 133.122 80.1075 132.948 80.4064C132.773 80.7013 132.681 81.0318 132.671 81.398L132.645 82.913C132.637 83.3717 132.715 83.7696 132.878 84.1064C133.046 84.4434 133.285 84.7051 133.595 84.8915C133.906 85.078 134.277 85.1749 134.707 85.1822C134.993 85.1871 135.255 85.1513 135.494 85.0749C135.733 84.9985 135.938 84.8812 136.11 84.7232C136.282 84.5651 136.414 84.3701 136.506 84.1382L138.882 84.3358C138.752 84.9052 138.496 85.3999 138.114 85.8201C137.737 86.2363 137.252 86.5581 136.66 86.7854C136.073 87.0089 135.397 87.114 134.632 87.101ZM143.232 81.7052L143.14 87.0652L140.569 87.0213L140.727 77.7499L143.178 77.7918L143.15 79.4275L143.259 79.4294C143.473 78.8937 143.824 78.473 144.313 78.1674C144.801 77.8577 145.389 77.7088 146.077 77.7205C146.721 77.7315 147.28 77.882 147.754 78.1718C148.228 78.4617 148.594 78.8705 148.85 79.3981C149.107 79.9218 149.229 80.5437 149.217 81.264L149.116 87.1673L146.545 87.1234L146.638 81.6788C146.651 81.1115 146.514 80.6664 146.226 80.3435C145.938 80.0165 145.536 79.8487 145.021 79.8399C144.675 79.834 144.368 79.9032 144.099 80.0475C143.835 80.192 143.626 80.4057 143.473 80.6889C143.323 80.9681 143.243 81.3069 143.232 81.7052ZM156.232 78.0148L156.199 79.9463L150.616 79.8509L150.649 77.9194L156.232 78.0148ZM151.955 75.7198L154.526 75.7637L154.378 84.4074C154.374 84.6448 154.407 84.8305 154.477 84.9645C154.548 85.0945 154.647 85.1868 154.775 85.2413C154.907 85.2959 155.059 85.3247 155.232 85.3276C155.353 85.3297 155.474 85.3217 155.595 85.3036C155.716 85.2815 155.809 85.265 155.873 85.254L156.245 87.1744C156.116 87.2124 155.934 87.2556 155.699 87.3039C155.465 87.3563 155.181 87.3856 154.847 87.392C154.226 87.4055 153.685 87.3138 153.221 87.1167C152.762 86.9196 152.406 86.6197 152.156 86.2169C151.905 85.8142 151.787 85.309 151.801 84.7014L151.955 75.7198ZM163.512 87.4132L161.147 78.0988L163.749 78.1432L165.079 84.397L165.164 84.3984L166.767 78.1948L169.32 78.2384L170.735 84.4574L170.814 84.4587L172.332 78.2899L174.928 78.3342L172.252 87.5626L169.53 87.5161L168.036 81.658L167.921 81.6561L166.228 87.4597L163.512 87.4132ZM176.141 87.629L176.299 78.3576L178.871 78.4016L178.712 87.6729L176.141 87.629ZM177.611 77.1846C177.229 77.178 176.903 77.0457 176.634 76.7875C176.369 76.5253 176.239 76.2152 176.245 75.8571C176.251 75.5029 176.391 75.2014 176.665 74.9525C176.943 74.6997 177.274 74.5765 177.656 74.583C178.038 74.5896 178.362 74.7239 178.627 74.986C178.896 75.2442 179.028 75.5504 179.022 75.9045C179.016 76.2626 178.874 76.5681 178.596 76.821C178.322 77.0699 177.994 77.1911 177.611 77.1846ZM185.862 78.521L185.829 80.4525L180.246 80.3572L180.279 78.4256L185.862 78.521ZM181.584 76.226L184.155 76.2699L184.008 84.9136C184.004 85.151 184.037 85.3367 184.107 85.4707C184.177 85.6007 184.276 85.693 184.404 85.7475C184.536 85.8021 184.688 85.8309 184.862 85.8338C184.982 85.8359 185.103 85.8279 185.224 85.8098C185.345 85.7878 185.438 85.7712 185.503 85.7603L185.874 87.6806C185.745 87.7186 185.563 87.7618 185.329 87.8101C185.095 87.8625 184.81 87.8918 184.476 87.8982C183.856 87.9118 183.314 87.82 182.851 87.6229C182.391 87.4259 182.036 87.1259 181.785 86.7232C181.534 86.3204 181.416 85.8152 181.431 85.2077L181.584 76.226ZM190.241 82.5083L190.149 87.8683L187.578 87.8244L187.789 75.4626L190.288 75.5053L190.207 80.2315L190.316 80.2334C190.534 79.6897 190.88 79.2669 191.352 78.965C191.824 78.6591 192.412 78.5122 193.116 78.5242C193.76 78.5352 194.319 78.6856 194.793 78.9755C195.271 79.2614 195.639 79.6682 195.895 80.1958C196.156 80.7196 196.278 81.3435 196.262 82.0678L196.161 87.9711L193.59 87.9271L193.683 82.4826C193.696 81.9113 193.559 81.4641 193.271 81.1412C192.987 80.8184 192.583 80.6525 192.06 80.6435C191.71 80.6375 191.398 80.7067 191.126 80.851C190.858 80.9953 190.645 81.2091 190.487 81.4922C190.334 81.7713 190.251 82.11 190.241 82.5083ZM202.167 88.0737L202.378 75.7118L210.708 75.8541L210.671 78.009L204.955 77.9114L204.905 80.8569L210.192 80.9473L210.155 83.1022L204.868 83.0118L204.817 85.9634L210.558 86.0615L210.521 88.2164L202.167 88.0737ZM215.309 75.9327L215.098 88.2946L212.526 88.2507L212.737 75.8888L215.309 75.9327ZM221.38 88.583C220.426 88.5667 219.608 88.3596 218.927 87.9615C218.249 87.5595 217.732 86.9992 217.374 86.2806C217.016 85.558 216.845 84.7078 216.862 83.7299C216.878 82.7762 217.077 81.9424 217.46 81.2284C217.842 80.5145 218.373 79.962 219.052 79.5711C219.735 79.1802 220.531 78.9926 221.44 79.0081C222.052 79.0186 222.62 79.1269 223.144 79.3331C223.672 79.5353 224.129 79.8349 224.517 80.232C224.909 80.6291 225.21 81.1254 225.421 81.7207C225.633 82.312 225.732 83.002 225.718 83.7907L225.706 84.4969L217.877 84.3632L217.904 82.7696L223.313 82.862C223.319 82.4918 223.244 82.1625 223.088 81.874C222.932 81.5856 222.713 81.3584 222.43 81.1926C222.151 81.0228 221.824 80.9347 221.45 80.9283C221.06 80.9216 220.712 81.0063 220.407 81.1822C220.106 81.3542 219.869 81.5896 219.695 81.8885C219.521 82.1834 219.428 82.5139 219.418 82.88L219.392 84.3951C219.384 84.8538 219.462 85.2516 219.625 85.5885C219.793 85.9255 220.032 86.1872 220.343 86.3736C220.653 86.56 221.024 86.6569 221.455 86.6643C221.74 86.6692 222.003 86.6334 222.241 86.557C222.48 86.4806 222.685 86.3633 222.857 86.2052C223.029 86.0472 223.161 85.8522 223.254 85.6203L225.629 85.8179C225.499 86.3872 225.243 86.882 224.861 87.3021C224.484 87.7183 223.999 88.0401 223.408 88.2675C222.82 88.4909 222.144 88.5961 221.38 88.583ZM227.316 88.5033L227.474 79.232L229.925 79.2738L229.897 80.9096L230.006 80.9115C230.208 80.3715 230.537 79.9484 230.994 79.6423C231.45 79.3361 231.991 79.1884 232.619 79.1991C233.255 79.21 233.794 79.3782 234.235 79.7037C234.676 80.0252 234.967 80.4568 235.106 80.9986L235.203 81.0002C235.401 80.4723 235.75 80.0536 236.251 79.7442C236.755 79.4308 237.347 79.2799 238.028 79.2915C238.893 79.3063 239.59 79.5939 240.12 80.1544C240.654 80.711 240.912 81.4923 240.895 82.4983L240.789 88.7335L238.223 88.6897L238.321 82.9615C238.33 82.4464 238.2 82.0577 237.93 81.7955C237.661 81.5333 237.321 81.3987 236.911 81.3917C236.444 81.3837 236.077 81.5264 235.811 81.8197C235.544 82.109 235.407 82.4951 235.398 82.978L235.302 88.6398L232.809 88.5972L232.908 82.8146C232.915 82.3599 232.791 81.9955 232.534 81.7214C232.281 81.4474 231.943 81.3068 231.521 81.2996C231.235 81.2947 230.976 81.3628 230.744 81.5037C230.517 81.6407 230.334 81.8368 230.197 82.0921C230.06 82.3433 229.988 82.64 229.983 82.982L229.887 88.5473L227.316 88.5033ZM247.042 89.0215C246.088 89.0052 245.271 88.798 244.589 88.3999C243.912 87.9979 243.394 87.4376 243.036 86.719C242.678 85.9964 242.507 85.1462 242.524 84.1684C242.54 83.2147 242.74 82.3808 243.122 81.6669C243.505 80.9529 244.035 80.4004 244.714 80.0095C245.397 79.6187 246.193 79.431 247.103 79.4465C247.714 79.457 248.282 79.5653 248.806 79.7715C249.334 79.9737 249.792 80.2734 250.179 80.6704C250.571 81.0676 250.872 81.5638 251.084 82.1591C251.295 82.7504 251.394 83.4404 251.38 84.2291L251.368 84.9353L243.54 84.8016L243.567 83.2081L248.975 83.3005C248.981 82.9303 248.906 82.6009 248.75 82.3125C248.594 82.024 248.375 81.7969 248.092 81.631C247.813 81.4612 247.486 81.3731 247.112 81.3667C246.722 81.3601 246.374 81.4447 246.069 81.6206C245.769 81.7926 245.531 82.028 245.357 82.3269C245.183 82.6218 245.091 82.9523 245.08 83.3185L245.054 84.8335C245.047 85.2923 245.124 85.6901 245.288 86.0269C245.455 86.3639 245.694 86.6256 246.005 86.812C246.316 86.9985 246.686 87.0954 247.117 87.1027C247.403 87.1076 247.665 87.0718 247.904 86.9954C248.142 86.919 248.348 86.8017 248.519 86.6437C248.691 86.4856 248.823 86.2906 248.916 86.0587L251.291 86.2563C251.161 86.8257 250.905 87.3204 250.523 87.7406C250.146 88.1568 249.661 88.4786 249.07 88.7059C248.482 88.9294 247.806 89.0345 247.042 89.0215ZM255.641 83.6257L255.55 88.9857L252.978 88.9418L253.137 79.6704L255.587 79.7123L255.559 81.348L255.668 81.3499C255.883 80.8142 256.234 80.3935 256.722 80.0879C257.21 79.7782 257.799 79.6293 258.487 79.641C259.131 79.652 259.69 79.8025 260.164 80.0923C260.638 80.3822 261.003 80.791 261.26 81.3186C261.516 81.8423 261.639 82.4642 261.626 83.1845L261.525 89.0878L258.954 89.0439L259.047 83.5993C259.061 83.032 258.923 82.5869 258.635 82.264C258.347 81.937 257.945 81.7692 257.43 81.7604C257.084 81.7545 256.777 81.8237 256.509 81.968C256.245 82.1125 256.036 82.3262 255.882 82.6094C255.732 82.8886 255.652 83.2274 255.641 83.6257ZM268.642 79.9353L268.609 81.8668L263.025 81.7714L263.058 79.8399L268.642 79.9353ZM264.364 77.6403L266.935 77.6842L266.788 86.3279C266.784 86.5653 266.817 86.751 266.887 86.885C266.957 87.015 267.056 87.1073 267.184 87.1618C267.316 87.2164 267.468 87.2452 267.641 87.2481C267.762 87.2502 267.883 87.2422 268.004 87.2241C268.125 87.202 268.218 87.1855 268.283 87.1745L268.654 89.0949C268.525 89.1329 268.343 89.1761 268.109 89.2244C267.874 89.2768 267.59 89.3061 267.256 89.3125C266.636 89.3261 266.094 89.2343 265.63 89.0372C265.171 88.8401 264.816 88.5402 264.565 88.1375C264.314 87.7347 264.196 87.2295 264.211 86.6219L264.364 77.6403ZM274.245 89.4862C273.307 89.4702 272.5 89.2572 271.822 88.8471C271.149 88.4331 270.634 87.8648 270.276 87.1422C269.918 86.4155 269.747 85.5774 269.763 84.6277C269.78 83.67 269.979 82.8362 270.361 82.1262C270.744 81.4122 271.279 80.8619 271.965 80.4751C272.656 80.0844 273.471 79.897 274.408 79.9131C275.346 79.9291 276.151 80.1441 276.825 80.5581C277.502 80.9682 278.019 81.5365 278.377 82.2632C278.735 82.9858 278.906 83.8259 278.89 84.7837C278.873 85.7333 278.674 86.5651 278.292 87.2791C277.909 87.9891 277.372 88.5394 276.681 88.9301C275.995 89.3169 275.182 89.5023 274.245 89.4862ZM274.291 87.4945C274.717 87.5018 275.076 87.3872 275.365 87.1506C275.655 86.9101 275.876 86.5797 276.028 86.1597C276.185 85.7397 276.267 85.2601 276.276 84.7209C276.286 84.1817 276.219 83.6995 276.078 83.2745C275.94 82.8495 275.73 82.5118 275.449 82.2614C275.167 82.0111 274.813 81.8823 274.387 81.875C273.956 81.8676 273.592 81.9842 273.294 82.2246C273 82.4651 272.775 82.7954 272.619 83.2154C272.467 83.6354 272.386 84.115 272.377 84.6543C272.368 85.1935 272.432 85.6756 272.57 86.1006C272.711 86.5257 272.925 86.8634 273.211 87.1138C273.5 87.3603 273.86 87.4872 274.291 87.4945ZM280.483 89.4117L280.642 80.1403L283.134 80.1829L283.107 81.8006L283.203 81.8022C283.382 81.2297 283.673 80.7999 284.077 80.513C284.48 80.222 284.941 80.0809 285.461 80.0898C285.589 80.092 285.728 80.1024 285.877 80.1211C286.025 80.1397 286.156 80.1641 286.268 80.1942L286.229 82.4758C286.109 82.4375 285.942 82.4025 285.73 82.3707C285.517 82.3389 285.322 82.3214 285.145 82.3184C284.766 82.3119 284.427 82.3887 284.126 82.5486C283.83 82.7045 283.593 82.9259 283.415 83.2126C283.241 83.4995 283.151 83.832 283.144 84.2103L283.054 89.4556L280.483 89.4117Z" fill="black"/>
<path d="M50.0383 106.654C49.3338 106.644 48.7076 106.456 48.1596 106.088C47.6154 105.717 47.1908 105.194 46.8857 104.519C46.5845 103.841 46.4404 103.03 46.4534 102.087C46.4665 101.144 46.6349 100.339 46.9585 99.6734C47.2859 99.0074 47.7286 98.5002 48.2865 98.1519C48.8444 97.8035 49.4737 97.6342 50.1744 97.6439C50.716 97.6514 51.1503 97.7483 51.4773 97.9347C51.8082 98.1173 52.0628 98.3292 52.2413 98.5703C52.4236 98.8115 52.5646 99.0237 52.6644 99.2069L52.7666 99.2083L52.8265 94.8849L54.5252 94.9084L54.3641 106.544L52.7051 106.521L52.7239 105.163L52.5819 105.161C52.4771 105.345 52.3264 105.555 52.13 105.791C51.9373 106.027 51.6731 106.232 51.3373 106.405C51.0015 106.579 50.5685 106.662 50.0383 106.654ZM50.4333 105.211C50.9219 105.217 51.3365 105.094 51.6772 104.842C52.0217 104.585 52.2842 104.227 52.4648 103.767C52.6493 103.307 52.7457 102.771 52.7542 102.157C52.7626 101.551 52.6828 101.02 52.5149 100.563C52.347 100.106 52.0962 99.7483 51.7626 99.4899C51.4291 99.2315 51.0142 99.0988 50.518 99.0919C50.0067 99.0849 49.5788 99.2115 49.2342 99.4719C48.8897 99.7323 48.6271 100.09 48.4466 100.546C48.2698 101.002 48.1774 101.518 48.1694 102.094C48.1613 102.677 48.2412 103.203 48.409 103.671C48.5767 104.139 48.8292 104.512 49.1663 104.79C49.5072 105.063 49.9296 105.204 50.4333 105.211ZM60.5471 106.805C59.6874 106.794 58.9494 106.6 58.3334 106.224C57.7212 105.844 57.2511 105.316 56.9233 104.641C56.5994 103.963 56.4437 103.171 56.4562 102.265C56.4686 101.372 56.6461 100.586 56.9889 99.9089C57.3354 99.2318 57.8124 98.7062 58.4199 98.332C59.0312 97.9578 59.7422 97.7764 60.5527 97.7876C61.0451 97.7944 61.5212 97.8825 61.981 98.0517C62.4408 98.221 62.852 98.4824 63.2146 98.8359C63.5771 99.1895 63.8606 99.6461 64.065 100.206C64.2694 100.762 64.3662 101.435 64.3552 102.227L64.3469 102.829L57.41 102.733L57.4277 101.461L62.6999 101.534C62.7061 101.087 62.6206 100.69 62.4436 100.342C62.2666 99.9915 62.0148 99.7133 61.6881 99.508C61.3651 99.3028 60.984 99.1971 60.5446 99.191C60.0674 99.1844 59.6491 99.2961 59.2899 99.526C58.9344 99.7521 58.6575 100.051 58.4592 100.424C58.2646 100.792 58.1644 101.194 58.1583 101.63L58.1446 102.624C58.1365 103.207 58.2319 103.705 58.4307 104.117C58.6334 104.529 58.9188 104.845 59.287 105.066C59.6552 105.283 60.0874 105.396 60.5836 105.402C60.9055 105.407 61.1997 105.365 61.4661 105.278C61.7325 105.187 61.9636 105.05 62.1593 104.867C62.3551 104.684 62.506 104.457 62.612 104.186L64.2158 104.498C64.0805 104.97 63.8437 105.381 63.5054 105.733C63.1711 106.08 62.7525 106.349 62.2498 106.539C61.751 106.726 61.1834 106.814 60.5471 106.805ZM72.8088 100.202L71.2654 100.453C71.2037 100.255 71.104 100.067 70.9664 99.8865C70.8325 99.7066 70.6489 99.5583 70.4157 99.4414C70.1824 99.3245 69.8897 99.2636 69.5374 99.2587C69.0564 99.2521 68.6534 99.3545 68.3285 99.5659C68.0036 99.7735 67.8389 100.046 67.8342 100.383C67.8302 100.675 67.9349 100.911 68.1483 101.092C68.3617 101.273 68.7081 101.424 69.1876 101.544L70.5694 101.881C71.3698 102.078 71.9642 102.372 72.3528 102.764C72.7414 103.156 72.9314 103.66 72.9228 104.278C72.9156 104.8 72.7576 105.264 72.4489 105.669C72.1441 106.07 71.7212 106.382 71.1802 106.606C70.6429 106.83 70.0221 106.937 69.3176 106.927C68.3404 106.913 67.546 106.694 66.9344 106.269C66.3229 105.84 65.9524 105.238 65.823 104.463L67.4683 104.236C67.5646 104.666 67.7704 104.992 68.0855 105.216C68.4006 105.437 68.8139 105.55 69.3252 105.558C69.882 105.565 70.3286 105.456 70.6651 105.229C71.0016 104.999 71.1723 104.716 71.1769 104.379C71.1807 104.106 71.0816 103.875 70.8797 103.687C70.6815 103.498 70.3747 103.354 69.9594 103.254L68.4868 102.909C67.675 102.712 67.0769 102.409 66.6924 101.998C66.3117 101.587 66.1256 101.072 66.1342 100.45C66.1414 99.9353 66.2915 99.4865 66.5847 99.1042C66.8779 98.7219 67.2798 98.4263 67.7903 98.2174C68.3009 98.0048 68.8838 97.903 69.539 97.912C70.4821 97.9251 71.2216 98.1399 71.7576 98.5565C72.2936 98.9692 72.644 99.5177 72.8088 100.202ZM74.7556 106.826L74.8764 98.0996L76.5751 98.1231L76.4543 106.85L74.7556 106.826ZM75.753 96.765C75.4575 96.7609 75.2051 96.659 74.9958 96.4591C74.7902 96.2554 74.6894 96.0154 74.6932 95.7389C74.6971 95.4586 74.8045 95.2214 75.0156 95.0274C75.2305 94.8296 75.4856 94.7327 75.781 94.7368C76.0765 94.7409 76.327 94.8448 76.5325 95.0484C76.7419 95.2483 76.8446 95.4884 76.8407 95.7686C76.8369 96.0451 76.7275 96.2823 76.5127 96.4801C76.3016 96.6741 76.0484 96.7691 75.753 96.765ZM82.3505 110.386C81.6574 110.377 81.0621 110.277 80.5647 110.089C80.071 109.9 79.6691 109.654 79.3589 109.35C79.0486 109.047 78.8183 108.716 78.668 108.358L80.1364 107.776C80.2364 107.944 80.3703 108.122 80.5382 108.31C80.7098 108.501 80.9424 108.666 81.2359 108.802C81.5333 108.939 81.9168 109.011 82.3865 109.017C83.0304 109.026 83.5647 108.876 83.9895 108.568C84.4142 108.263 84.6312 107.77 84.6407 107.088L84.6645 105.372L84.5565 105.371C84.4517 105.555 84.3011 105.759 84.1048 105.984C83.9123 106.208 83.6482 106.402 83.3126 106.564C82.977 106.726 82.5422 106.803 82.0081 106.796C81.3188 106.786 80.6999 106.617 80.1514 106.287C79.6067 105.954 79.1777 105.469 78.8646 104.832C78.5552 104.191 78.407 103.407 78.4198 102.479C78.4327 101.551 78.6009 100.758 78.9244 100.099C79.2518 99.4406 79.6943 98.9391 80.2522 98.5946C80.8101 98.2462 81.4394 98.0769 82.1401 98.0866C82.6817 98.0941 83.1179 98.191 83.4487 98.3774C83.7795 98.5601 84.0361 98.772 84.2184 99.0132C84.4044 99.2544 84.5474 99.4666 84.6471 99.6498L84.7721 99.6516L84.7917 98.2369L86.4563 98.26L86.3328 107.18C86.3224 107.93 86.1396 108.543 85.7845 109.019C85.4294 109.495 84.9529 109.844 84.3551 110.067C83.761 110.29 83.0928 110.396 82.3505 110.386ZM82.4026 105.392C82.8912 105.399 83.3056 105.291 83.6458 105.068C83.9899 104.842 84.252 104.516 84.4322 104.09C84.6162 103.661 84.7123 103.145 84.7207 102.543C84.7288 101.956 84.6489 101.438 84.4808 100.989C84.3128 100.539 84.062 100.187 83.7283 99.9326C83.3948 99.6742 82.9799 99.5415 82.4837 99.5346C81.9724 99.5276 81.5445 99.6542 81.1999 99.9146C80.8554 100.171 80.5929 100.524 80.4125 100.972C80.2358 101.42 80.1436 101.923 80.1359 102.48C80.128 103.052 80.2081 103.555 80.3764 103.989C80.5446 104.423 80.7975 104.764 81.135 105.011C81.4763 105.258 81.8989 105.385 82.4026 105.392ZM90.3841 101.86L90.3123 107.041L88.6136 107.018L88.7345 98.2915L90.365 98.3141L90.3453 99.7344L90.4533 99.7359C90.6604 99.2766 90.9799 98.9098 91.4118 98.6355C91.8475 98.3612 92.3929 98.2286 93.0481 98.2376C93.6428 98.2459 94.1618 98.3781 94.6053 98.6342C95.0488 98.8866 95.3903 99.2588 95.6297 99.7508C95.8691 100.243 95.9839 100.849 95.9739 101.568L95.897 107.119L94.1983 107.095L94.2724 101.749C94.2811 101.117 94.1232 100.62 93.7986 100.26C93.4741 99.8952 93.024 99.709 92.4483 99.7011C92.0544 99.6956 91.7029 99.776 91.3937 99.9422C91.0883 100.108 90.8444 100.355 90.6618 100.682C90.4831 101.005 90.3905 101.398 90.3841 101.86ZM102.364 110.481L102.53 98.4826L104.189 98.5056L104.169 99.9202L104.311 99.9222C104.412 99.7417 104.557 99.5335 104.746 99.2975C104.935 99.0614 105.196 98.8567 105.528 98.6832C105.86 98.506 106.296 98.4211 106.838 98.4286C107.542 98.4384 108.169 98.6251 108.717 98.9888C109.265 99.3525 109.691 99.8717 109.996 100.546C110.305 101.221 110.453 102.03 110.44 102.973C110.427 103.916 110.259 104.723 109.935 105.393C109.611 106.059 109.172 106.57 108.618 106.926C108.064 107.278 107.435 107.449 106.73 107.439C106.2 107.432 105.768 107.337 105.433 107.154C105.102 106.972 104.844 106.76 104.658 106.519C104.472 106.277 104.329 106.063 104.229 105.876L104.127 105.875L104.063 110.505L102.364 110.481ZM104.134 102.869C104.126 103.482 104.207 104.022 104.379 104.486C104.551 104.951 104.803 105.316 105.137 105.582C105.47 105.844 105.881 105.979 106.37 105.985C106.877 105.992 107.303 105.864 107.648 105.6C107.993 105.332 108.255 104.966 108.436 104.502C108.62 104.039 108.717 103.516 108.725 102.932C108.733 102.357 108.653 101.839 108.485 101.378C108.321 100.917 108.068 100.552 107.727 100.282C107.39 100.012 106.966 99.8737 106.454 99.8666C105.962 99.8598 105.544 99.9809 105.199 100.23C104.859 100.479 104.598 100.83 104.418 101.282C104.237 101.734 104.143 102.263 104.134 102.869ZM112.283 107.346L112.404 98.6193L114.046 98.6421L114.027 100.028L114.118 100.03C114.283 99.5621 114.569 99.1967 114.974 98.9334C115.383 98.6663 115.843 98.5363 116.354 98.5434C116.46 98.5448 116.585 98.5503 116.729 98.5599C116.877 98.5695 116.992 98.5806 117.075 98.5931L117.053 100.218C116.985 100.198 116.864 100.176 116.69 100.15C116.516 100.122 116.342 100.106 116.168 100.103C115.767 100.098 115.407 100.178 115.091 100.344C114.778 100.507 114.528 100.736 114.342 101.033C114.157 101.326 114.061 101.662 114.056 102.04L113.982 107.369L112.283 107.346ZM121.784 107.654C120.966 107.642 120.255 107.445 119.65 107.061C119.045 106.678 118.579 106.147 118.252 105.468C117.924 104.789 117.766 103.999 117.779 103.098C117.791 102.192 117.971 101.403 118.317 100.73C118.664 100.057 119.144 99.5366 119.759 99.1701C120.374 98.8036 121.091 98.626 121.909 98.6373C122.727 98.6487 123.438 98.846 124.043 99.2294C124.648 99.6129 125.114 100.146 125.442 100.829C125.769 101.511 125.927 102.305 125.914 103.21C125.902 104.112 125.722 104.897 125.376 105.567C125.029 106.236 124.549 106.754 123.934 107.121C123.319 107.487 122.602 107.665 121.784 107.654ZM121.81 106.228C122.34 106.235 122.781 106.101 123.133 105.825C123.486 105.55 123.749 105.18 123.922 104.717C124.098 104.253 124.191 103.741 124.199 103.181C124.206 102.624 124.128 102.112 123.964 101.643C123.804 101.171 123.552 100.791 123.207 100.502C122.863 100.213 122.425 100.065 121.895 100.058C121.361 100.05 120.916 100.186 120.56 100.465C120.207 100.745 119.943 101.118 119.766 101.585C119.593 102.049 119.502 102.559 119.494 103.116C119.487 103.676 119.563 104.191 119.723 104.659C119.887 105.127 120.141 105.504 120.486 105.789C120.834 106.074 121.276 106.22 121.81 106.228ZM132.024 98.8911L132.005 100.255L127.074 100.186L127.093 98.8228L132.024 98.8911ZM128.324 107.568L128.459 97.8302C128.467 97.2848 128.592 96.8339 128.836 96.4774C129.08 96.1171 129.4 95.8506 129.796 95.6781C130.192 95.5017 130.622 95.4168 131.084 95.4232C131.425 95.4279 131.716 95.4603 131.957 95.5205C132.199 95.5769 132.378 95.6286 132.495 95.6757L132.078 97.045C131.999 97.0212 131.897 96.9933 131.773 96.9613C131.648 96.9254 131.497 96.9063 131.319 96.9038C130.906 96.8981 130.609 96.9963 130.428 97.1984C130.251 97.4005 130.16 97.6947 130.155 98.081L130.023 107.591L128.324 107.568ZM137.071 107.865C136.211 107.853 135.473 107.659 134.857 107.283C134.245 106.904 133.775 106.376 133.447 105.701C133.123 105.022 132.968 104.23 132.98 103.325C132.992 102.431 133.17 101.646 133.513 100.969C133.859 100.292 134.336 99.766 134.944 99.3918C135.555 99.0176 136.266 98.8362 137.077 98.8474C137.569 98.8542 138.045 98.9423 138.505 99.1115C138.965 99.2808 139.376 99.5422 139.738 99.8957C140.101 100.249 140.385 100.706 140.589 101.266C140.793 101.821 140.89 102.495 140.879 103.287L140.871 103.889L133.934 103.793L133.952 102.52L139.224 102.593C139.23 102.146 139.145 101.749 138.968 101.402C138.791 101.051 138.539 100.773 138.212 100.568C137.889 100.363 137.508 100.257 137.069 100.251C136.591 100.244 136.173 100.356 135.814 100.586C135.458 100.812 135.181 101.111 134.983 101.483C134.789 101.852 134.688 102.254 134.682 102.69L134.668 103.684C134.66 104.267 134.756 104.765 134.955 105.177C135.157 105.589 135.443 105.905 135.811 106.126C136.179 106.343 136.611 106.455 137.108 106.462C137.429 106.467 137.724 106.425 137.99 106.338C138.256 106.247 138.488 106.11 138.683 105.927C138.879 105.744 139.03 105.517 139.136 105.246L140.74 105.558C140.604 106.03 140.368 106.441 140.029 106.792C139.695 107.14 139.276 107.409 138.774 107.599C138.275 107.785 137.707 107.874 137.071 107.865ZM149.333 101.262L147.789 101.513C147.728 101.315 147.628 101.126 147.49 100.946C147.356 100.766 147.173 100.618 146.94 100.501C146.706 100.384 146.414 100.323 146.061 100.319C145.58 100.312 145.177 100.414 144.852 100.626C144.528 100.833 144.363 101.106 144.358 101.443C144.354 101.734 144.459 101.971 144.672 102.152C144.886 102.333 145.232 102.483 145.711 102.604L147.093 102.941C147.894 103.138 148.488 103.432 148.877 103.824C149.265 104.216 149.455 104.72 149.447 105.337C149.439 105.86 149.282 106.324 148.973 106.729C148.668 107.13 148.245 107.442 147.704 107.666C147.167 107.89 146.546 107.996 145.841 107.987C144.864 107.973 144.07 107.754 143.458 107.329C142.847 106.9 142.476 106.298 142.347 105.523L143.992 105.296C144.089 105.725 144.294 106.052 144.609 106.276C144.925 106.497 145.338 106.61 145.849 106.617C146.406 106.625 146.852 106.516 147.189 106.289C147.526 106.059 147.696 105.775 147.701 105.438C147.705 105.166 147.606 104.935 147.404 104.747C147.205 104.558 146.899 104.414 146.483 104.313L145.011 103.969C144.199 103.772 143.601 103.468 143.216 103.058C142.836 102.647 142.65 102.131 142.658 101.51C142.665 100.995 142.815 100.546 143.109 100.164C143.402 99.7817 143.804 99.4861 144.314 99.2772C144.825 99.0646 145.408 98.9628 146.063 98.9718C147.006 98.9849 147.746 99.1997 148.282 99.6163C148.818 100.029 149.168 100.577 149.333 101.262ZM157.91 101.38L156.367 101.632C156.305 101.434 156.205 101.245 156.068 101.065C155.934 100.885 155.75 100.737 155.517 100.62C155.284 100.503 154.991 100.442 154.639 100.437C154.158 100.431 153.755 100.533 153.43 100.744C153.105 100.952 152.94 101.224 152.935 101.562C152.931 101.853 153.036 102.09 153.249 102.271C153.463 102.452 153.809 102.602 154.289 102.722L155.671 103.06C156.471 103.257 157.065 103.551 157.454 103.943C157.843 104.334 158.033 104.839 158.024 105.456C158.017 105.979 157.859 106.443 157.55 106.848C157.245 107.249 156.822 107.561 156.281 107.785C155.744 108.008 155.123 108.115 154.419 108.105C153.442 108.092 152.647 107.873 152.036 107.447C151.424 107.018 151.054 106.417 150.924 105.642L152.57 105.415C152.666 105.844 152.872 106.171 153.187 106.395C153.502 106.615 153.915 106.729 154.426 106.736C154.983 106.744 155.43 106.634 155.766 106.408C156.103 106.178 156.273 105.894 156.278 105.557C156.282 105.284 156.183 105.054 155.981 104.865C155.783 104.677 155.476 104.533 155.061 104.432L153.588 104.088C152.776 103.891 152.178 103.587 151.794 103.177C151.413 102.766 151.227 102.25 151.235 101.629C151.243 101.114 151.393 100.665 151.686 100.283C151.979 99.9005 152.381 99.6049 152.892 99.396C153.402 99.1833 153.985 99.0816 154.64 99.0906C155.583 99.1037 156.323 99.3185 156.859 99.7351C157.395 100.148 157.745 100.696 157.91 101.38ZM159.857 108.005L159.978 99.2782L161.676 99.3017L161.555 108.028L159.857 108.005ZM160.854 97.9436C160.559 97.9395 160.306 97.8375 160.097 97.6376C159.891 97.434 159.791 97.194 159.794 96.9175C159.798 96.6372 159.906 96.4 160.117 96.206C160.332 96.0082 160.587 95.9113 160.882 95.9154C161.178 95.9195 161.428 96.0234 161.634 96.227C161.843 96.4269 161.946 96.6669 161.942 96.9472C161.938 97.2237 161.829 97.4609 161.614 97.6587C161.403 97.8527 161.15 97.9477 160.854 97.9436ZM167.514 108.287C166.696 108.276 165.985 108.078 165.38 107.695C164.775 107.311 164.309 106.78 163.982 106.101C163.654 105.422 163.496 104.632 163.509 103.731C163.521 102.826 163.701 102.036 164.047 101.363C164.394 100.69 164.874 100.17 165.489 99.8034C166.104 99.4369 166.821 99.2593 167.639 99.2707C168.457 99.282 169.168 99.4794 169.773 99.8628C170.378 100.246 170.844 100.779 171.171 101.462C171.499 102.144 171.657 102.938 171.644 103.844C171.632 104.745 171.452 105.531 171.106 106.2C170.759 106.87 170.279 107.388 169.664 107.754C169.049 108.121 168.332 108.298 167.514 108.287ZM167.54 106.861C168.07 106.868 168.511 106.734 168.863 106.459C169.216 106.183 169.478 105.814 169.652 105.35C169.828 104.887 169.921 104.375 169.929 103.814C169.936 103.257 169.858 102.745 169.694 102.277C169.534 101.805 169.282 101.424 168.937 101.135C168.593 100.847 168.155 100.698 167.625 100.691C167.091 100.684 166.646 100.82 166.29 101.099C165.937 101.378 165.673 101.751 165.496 102.219C165.323 102.682 165.232 103.192 165.224 103.749C165.217 104.31 165.293 104.824 165.453 105.292C165.617 105.76 165.871 106.137 166.216 106.422C166.564 106.707 167.006 106.854 167.54 106.861ZM175.251 103.036L175.179 108.217L173.48 108.193L173.601 99.4669L175.232 99.4895L175.212 100.91L175.32 100.911C175.527 100.452 175.847 100.085 176.279 99.8108C176.714 99.5365 177.26 99.4039 177.915 99.413C178.51 99.4212 179.029 99.5534 179.472 99.8096C179.916 100.062 180.257 100.434 180.497 100.926C180.736 101.418 180.851 102.024 180.841 102.744L180.764 108.294L179.065 108.271L179.139 102.925C179.148 102.292 178.99 101.796 178.665 101.435C178.341 101.071 177.891 100.884 177.315 100.876C176.921 100.871 176.57 100.951 176.261 101.117C175.955 101.284 175.711 101.53 175.529 101.857C175.35 102.181 175.257 102.573 175.251 103.036ZM185.579 108.554C185.026 108.546 184.527 108.437 184.083 108.227C183.639 108.012 183.289 107.706 183.033 107.308C182.781 106.911 182.659 106.426 182.667 105.854C182.674 105.362 182.774 104.958 182.968 104.643C183.162 104.327 183.421 104.079 183.746 103.898C184.07 103.716 184.432 103.581 184.831 103.492C185.23 103.403 185.636 103.337 186.05 103.293C186.573 103.24 186.998 103.196 187.324 103.163C187.651 103.126 187.888 103.063 188.037 102.974C188.186 102.885 188.262 102.738 188.265 102.534L188.265 102.494C188.272 101.998 188.137 101.612 187.861 101.335C187.588 101.058 187.177 100.916 186.628 100.909C186.056 100.901 185.604 101.021 185.271 101.271C184.941 101.516 184.712 101.791 184.583 102.096L182.992 101.711C183.188 101.183 183.471 100.759 183.839 100.438C184.211 100.114 184.636 99.8811 185.116 99.74C185.595 99.5951 186.098 99.5263 186.624 99.5336C186.973 99.5384 187.342 99.5852 187.731 99.6739C188.123 99.7589 188.489 99.9117 188.827 100.132C189.168 100.353 189.446 100.666 189.66 101.07C189.874 101.471 189.977 101.989 189.968 102.626L189.888 108.421L188.229 108.398L188.246 107.205L188.177 107.204C188.065 107.422 187.897 107.635 187.674 107.844C187.452 108.053 187.167 108.226 186.82 108.361C186.474 108.496 186.06 108.561 185.579 108.554ZM185.967 107.196C186.437 107.202 186.84 107.115 187.175 106.934C187.515 106.753 187.774 106.514 187.952 106.217C188.135 105.917 188.228 105.594 188.233 105.25L188.248 104.125C188.187 104.184 188.069 104.24 187.894 104.29C187.723 104.337 187.527 104.378 187.307 104.413C187.087 104.444 186.872 104.473 186.664 104.501C186.455 104.524 186.28 104.544 186.14 104.561C185.81 104.599 185.508 104.664 185.234 104.759C184.963 104.854 184.746 104.993 184.58 105.176C184.419 105.356 184.336 105.597 184.331 105.9C184.326 106.321 184.477 106.641 184.784 106.861C185.092 107.077 185.486 107.189 185.967 107.196ZM194.01 96.8402L193.849 108.475L192.151 108.452L192.312 96.8166L194.01 96.8402ZM202.26 108.592L199.813 99.8299L201.569 99.8542L203.19 106.286L203.275 106.288L205.08 99.9028L206.835 99.9271L208.451 106.331L208.537 106.332L210.324 99.9755L212.079 99.9998L209.396 108.691L207.663 108.667L205.978 102.342L205.847 102.34L203.988 108.616L202.26 108.592ZM217.063 108.973C216.204 108.961 215.466 108.767 214.85 108.391C214.237 108.011 213.767 107.484 213.44 106.809C213.116 106.13 212.96 105.338 212.972 104.433C212.985 103.539 213.162 102.754 213.505 102.077C213.852 101.399 214.329 100.874 214.936 100.5C215.547 100.125 216.258 99.944 217.069 99.9552C217.561 99.962 218.037 100.05 218.497 100.219C218.957 100.389 219.368 100.65 219.731 101.004C220.093 101.357 220.377 101.814 220.581 102.373C220.786 102.929 220.882 103.603 220.871 104.395L220.863 104.997L213.926 104.901L213.944 103.628L219.216 103.701C219.222 103.254 219.137 102.857 218.96 102.51C218.783 102.159 218.531 101.881 218.204 101.676C217.881 101.47 217.5 101.365 217.061 101.359C216.584 101.352 216.165 101.464 215.806 101.694C215.451 101.92 215.174 102.219 214.975 102.591C214.781 102.96 214.681 103.362 214.675 103.797L214.661 104.792C214.653 105.375 214.748 105.873 214.947 106.284C215.15 106.696 215.435 107.013 215.803 107.234C216.171 107.451 216.604 107.563 217.1 107.57C217.422 107.574 217.716 107.533 217.982 107.446C218.249 107.355 218.48 107.218 218.676 107.035C218.871 106.852 219.022 106.625 219.128 106.354L220.732 106.666C220.597 107.137 220.36 107.549 220.022 107.9C219.687 108.248 219.269 108.517 218.766 108.707C218.267 108.893 217.7 108.982 217.063 108.973ZM222.831 108.877L222.992 97.2415L224.691 97.2651L224.631 101.589L224.733 101.59C224.834 101.409 224.979 101.201 225.168 100.965C225.357 100.729 225.617 100.524 225.949 100.351C226.281 100.174 226.718 100.089 227.26 100.096C227.964 100.106 228.59 100.293 229.138 100.657C229.687 101.02 230.113 101.539 230.418 102.214C230.727 102.889 230.875 103.698 230.862 104.641C230.849 105.584 230.68 106.391 230.357 107.06C230.033 107.726 229.594 108.237 229.04 108.593C228.486 108.946 227.856 109.117 227.152 109.107C226.622 109.1 226.189 109.005 225.855 108.822C225.524 108.639 225.265 108.427 225.079 108.186C224.893 107.945 224.75 107.731 224.651 107.544L224.509 107.542L224.49 108.9L222.831 108.877ZM224.556 104.537C224.547 105.15 224.629 105.689 224.801 106.154C224.972 106.618 225.225 106.984 225.558 107.25C225.892 107.512 226.303 107.646 226.791 107.653C227.299 107.66 227.725 107.532 228.07 107.267C228.414 106.999 228.677 106.634 228.858 106.17C229.042 105.707 229.138 105.183 229.146 104.6C229.154 104.024 229.074 103.506 228.907 103.046C228.742 102.585 228.49 102.22 228.149 101.95C227.812 101.68 227.387 101.541 226.876 101.534C226.384 101.528 225.965 101.649 225.621 101.898C225.28 102.147 225.02 102.497 224.839 102.949C224.659 103.402 224.564 103.931 224.556 104.537ZM239.34 102.508L237.796 102.76C237.735 102.562 237.635 102.373 237.497 102.193C237.363 102.013 237.18 101.865 236.947 101.748C236.713 101.631 236.421 101.57 236.068 101.565C235.587 101.558 235.184 101.661 234.859 101.872C234.535 102.08 234.37 102.352 234.365 102.689C234.361 102.981 234.466 103.217 234.679 103.398C234.893 103.579 235.239 103.73 235.718 103.85L237.1 104.188C237.901 104.384 238.495 104.679 238.884 105.07C239.272 105.462 239.462 105.967 239.454 106.584C239.446 107.107 239.289 107.57 238.98 107.975C238.675 108.376 238.252 108.689 237.711 108.912C237.174 109.136 236.553 109.243 235.848 109.233C234.871 109.22 234.077 109 233.465 108.575C232.854 108.146 232.483 107.544 232.354 106.77L233.999 106.543C234.096 106.972 234.301 107.299 234.616 107.523C234.932 107.743 235.345 107.857 235.856 107.864C236.413 107.872 236.859 107.762 237.196 107.536C237.533 107.306 237.703 107.022 237.708 106.685C237.712 106.412 237.613 106.182 237.411 105.993C237.212 105.805 236.906 105.66 236.49 105.56L235.018 105.216C234.206 105.019 233.608 104.715 233.223 104.304C232.843 103.894 232.657 103.378 232.665 102.757C232.672 102.242 232.822 101.793 233.116 101.411C233.409 101.028 233.811 100.733 234.321 100.524C234.832 100.311 235.415 100.209 236.07 100.218C237.013 100.231 237.753 100.446 238.289 100.863C238.825 101.276 239.175 101.824 239.34 102.508ZM241.286 109.132L241.407 100.406L243.106 100.429L242.985 109.156L241.286 109.132ZM242.284 99.0714C241.988 99.0673 241.736 98.9653 241.527 98.7654C241.321 98.5618 241.22 98.3217 241.224 98.0452C241.228 97.7649 241.335 97.5278 241.546 97.3337C241.761 97.1359 242.017 97.0391 242.312 97.0431C242.607 97.0472 242.858 97.1511 243.063 97.3547C243.273 97.5546 243.376 97.7947 243.372 98.075C243.368 98.3514 243.258 98.5886 243.044 98.7864C242.833 98.9805 242.579 99.0754 242.284 99.0714ZM249.465 100.518L249.446 101.881L244.679 101.815L244.698 100.452L249.465 100.518ZM246.005 98.3785L247.704 98.402L247.59 106.657C247.585 106.986 247.631 107.235 247.727 107.403C247.823 107.567 247.949 107.681 248.103 107.744C248.262 107.803 248.433 107.833 248.619 107.836C248.755 107.838 248.875 107.83 248.977 107.813C249.08 107.795 249.16 107.781 249.217 107.77L249.504 109.178C249.405 109.215 249.264 109.25 249.082 109.286C248.9 109.325 248.672 109.345 248.399 109.345C247.952 109.346 247.537 109.261 247.153 109.089C246.769 108.917 246.46 108.655 246.226 108.303C245.992 107.951 245.879 107.512 245.886 106.986L246.005 98.3785ZM254.888 109.497C254.028 109.485 253.29 109.291 252.674 108.915C252.062 108.535 251.592 108.008 251.264 107.333C250.94 106.654 250.784 105.862 250.797 104.957C250.809 104.063 250.987 103.278 251.33 102.6C251.676 101.923 252.153 101.398 252.761 101.023C253.372 100.649 254.083 100.468 254.893 100.479C255.386 100.486 255.862 100.574 256.322 100.743C256.782 100.912 257.193 101.174 257.555 101.527C257.918 101.881 258.201 102.338 258.406 102.897C258.61 103.453 258.707 104.127 258.696 104.919L258.688 105.521L251.751 105.425L251.768 104.152L257.041 104.225C257.047 103.778 256.961 103.381 256.784 103.034C256.607 102.683 256.356 102.405 256.029 102.199C255.706 101.994 255.325 101.889 254.885 101.882C254.408 101.876 253.99 101.988 253.631 102.217C253.275 102.444 252.998 102.743 252.8 103.115C252.605 103.484 252.505 103.886 252.499 104.321L252.485 105.315C252.477 105.899 252.573 106.396 252.771 106.808C252.974 107.22 253.26 107.537 253.628 107.758C253.996 107.975 254.428 108.087 254.924 108.094C255.246 108.098 255.54 108.057 255.807 107.97C256.073 107.879 256.304 107.742 256.5 107.559C256.696 107.376 256.847 107.149 256.953 106.878L258.557 107.19C258.421 107.661 258.184 108.073 257.846 108.424C257.512 108.772 257.093 109.041 256.591 109.231C256.092 109.417 255.524 109.506 254.888 109.497ZM267.15 102.893L265.606 103.145C265.544 102.947 265.445 102.758 265.307 102.578C265.173 102.398 264.99 102.25 264.756 102.133C264.523 102.016 264.23 101.955 263.878 101.95C263.397 101.944 262.994 102.046 262.669 102.257C262.344 102.465 262.18 102.737 262.175 103.074C262.171 103.366 262.276 103.602 262.489 103.783C262.702 103.964 263.049 104.115 263.528 104.235L264.91 104.573C265.711 104.769 266.305 105.064 266.694 105.455C267.082 105.847 267.272 106.352 267.264 106.969C267.256 107.492 267.098 107.956 266.79 108.36C266.485 108.762 266.062 109.074 265.521 109.298C264.984 109.521 264.363 109.628 263.658 109.618C262.681 109.605 261.887 109.385 261.275 108.96C260.664 108.531 260.293 107.93 260.164 107.155L261.809 106.928C261.905 107.357 262.111 107.684 262.426 107.908C262.741 108.128 263.155 108.242 263.666 108.249C264.223 108.257 264.669 108.147 265.006 107.921C265.342 107.691 265.513 107.407 265.518 107.07C265.521 106.797 265.422 106.567 265.22 106.378C265.022 106.19 264.715 106.046 264.3 105.945L262.828 105.601C262.016 105.404 261.418 105.1 261.033 104.689C260.652 104.279 260.466 103.763 260.475 103.142C260.482 102.627 260.632 102.178 260.925 101.796C261.219 101.413 261.621 101.118 262.131 100.909C262.642 100.696 263.225 100.594 263.88 100.604C264.823 100.617 265.562 100.831 266.098 101.248C266.634 101.661 266.985 102.209 267.15 102.893Z" fill="black"/>
<circle cx="361.812" cy="79.0059" r="36.5" transform="rotate(-179.761 361.812 79.0059)" fill="#7A1E2D"/>
<path d="M354.398 89.781C352.85 89.7711 351.466 89.3842 350.247 88.6204C349.028 87.8386 348.072 86.7164 347.38 85.254C346.687 83.7915 346.347 82.0253 346.361 79.9553C346.374 77.8854 346.736 76.1237 347.447 74.6702C348.159 73.2167 349.129 72.1159 350.358 71.3678C351.587 70.6016 352.975 70.2235 354.523 70.2334C356.089 70.2435 357.472 70.6393 358.673 71.421C359.893 72.1849 360.848 73.298 361.541 74.7605C362.234 76.2229 362.573 77.9891 362.56 80.0591C362.547 82.1291 362.185 83.8908 361.473 85.3442C360.762 86.7977 359.792 87.9075 358.563 88.6737C357.352 89.4219 355.964 89.7911 354.398 89.781ZM354.421 86.0821C355.159 86.0868 355.8 85.8839 356.342 85.4734C356.903 85.063 357.339 84.4088 357.651 83.5107C357.981 82.6128 358.15 81.4529 358.159 80.0309C358.168 78.6089 358.014 77.4469 357.696 76.5449C357.395 75.6429 356.968 74.9832 356.412 74.5656C355.875 74.1482 355.237 73.9371 354.499 73.9323C353.779 73.9277 353.139 74.1306 352.578 74.5411C352.036 74.9516 351.6 75.6058 351.27 76.5037C350.958 77.4017 350.798 78.5617 350.788 79.9837C350.779 81.4057 350.925 82.5676 351.225 83.4696C351.543 84.3716 351.971 85.0314 352.508 85.4488C353.064 85.8664 353.701 86.0775 354.421 86.0821ZM364.434 85.5522L364.453 82.6093L373.44 70.6786L378.03 70.708L369.232 82.6399L367.103 82.0052L381.98 82.1005L381.957 85.6644L364.434 85.5522ZM374.588 89.5863L374.613 85.6174L374.771 82.0543L374.794 78.5174L378.924 78.5439L378.854 89.6137L374.588 89.5863Z" fill="white"/>
</svg>
