<svg width="450" height="153" viewBox="0 0 450 153" fill="none" xmlns="http://www.w3.org/2000/svg">
<circle cx="76.5" cy="76.5" r="66" stroke="#7A1E2D" stroke-width="21"/>
<path d="M88 29H446V92C446 109.121 432.121 123 415 123H88C62.5949 123 42 102.405 42 77V75C42 49.5949 62.5949 29 88 29Z" fill="white" stroke="#7A1E2D" stroke-width="8"/>
<path d="M172.056 52.6328C171.971 52.339 171.853 52.0794 171.7 51.854C171.547 51.6246 171.36 51.4315 171.138 51.2745C170.921 51.1135 170.671 50.9908 170.39 50.9062C170.112 50.8217 169.804 50.7795 169.466 50.7795C168.834 50.7795 168.279 50.9364 167.8 51.2504C167.325 51.5643 166.955 52.0211 166.689 52.6207C166.423 53.2164 166.291 53.9448 166.291 54.8061C166.291 55.6674 166.421 56.3999 166.683 57.0036C166.945 57.6072 167.315 58.0681 167.794 58.386C168.273 58.6999 168.838 58.8569 169.49 58.8569C170.082 58.8569 170.587 58.7522 171.006 58.543C171.428 58.3297 171.75 58.0298 171.971 57.6435C172.197 57.2571 172.309 56.8003 172.309 56.2731L172.841 56.3516H169.653V54.3835H174.827V55.9411C174.827 57.0277 174.597 57.9614 174.139 58.7422C173.68 59.5189 173.048 60.1186 172.243 60.5412C171.438 60.9598 170.517 61.169 169.478 61.169C168.319 61.169 167.301 60.9135 166.423 60.4023C165.546 59.8872 164.862 59.1567 164.371 58.2109C163.884 57.2611 163.64 56.1342 163.64 54.8303C163.64 53.8281 163.785 52.9347 164.075 52.1499C164.369 51.361 164.779 50.6929 165.307 50.1456C165.834 49.5982 166.448 49.1817 167.148 48.896C167.848 48.6102 168.607 48.4673 169.424 48.4673C170.124 48.4673 170.776 48.57 171.38 48.7752C171.983 48.9764 172.519 49.2622 172.986 49.6325C173.456 50.0027 173.841 50.4434 174.139 50.9545C174.436 51.4616 174.628 52.0211 174.712 52.6328H172.056ZM176.742 61V51.7273H179.235V53.3452H179.332C179.501 52.7696 179.785 52.335 180.183 52.0412C180.582 51.7434 181.04 51.5945 181.56 51.5945C181.688 51.5945 181.827 51.6025 181.976 51.6186C182.125 51.6347 182.256 51.6568 182.369 51.685V53.967C182.248 53.9308 182.081 53.8986 181.867 53.8704C181.654 53.8422 181.459 53.8281 181.282 53.8281C180.904 53.8281 180.565 53.9106 180.268 54.0756C179.974 54.2366 179.74 54.462 179.567 54.7518C179.398 55.0415 179.314 55.3756 179.314 55.7539V61H176.742ZM186.077 61.1751C185.485 61.1751 184.958 61.0724 184.495 60.8672C184.032 60.6579 183.666 60.35 183.396 59.9435C183.131 59.533 182.998 59.0219 182.998 58.4102C182.998 57.895 183.092 57.4624 183.282 57.1122C183.471 56.7621 183.728 56.4804 184.054 56.267C184.38 56.0537 184.751 55.8928 185.165 55.7841C185.584 55.6754 186.022 55.599 186.481 55.5547C187.02 55.4983 187.455 55.446 187.785 55.3977C188.115 55.3454 188.355 55.2689 188.504 55.1683C188.652 55.0677 188.727 54.9188 188.727 54.7216V54.6854C188.727 54.303 188.606 54.0072 188.365 53.7979C188.127 53.5887 187.789 53.484 187.35 53.484C186.888 53.484 186.519 53.5866 186.246 53.7919C185.972 53.9931 185.791 54.2467 185.702 54.5526L183.324 54.3594C183.445 53.7959 183.682 53.3089 184.036 52.8984C184.39 52.4839 184.847 52.166 185.407 51.9446C185.97 51.7192 186.622 51.6065 187.363 51.6065C187.878 51.6065 188.371 51.6669 188.842 51.7876C189.317 51.9084 189.737 52.0955 190.103 52.3491C190.474 52.6026 190.765 52.9286 190.979 53.3271C191.192 53.7215 191.299 54.1944 191.299 54.7457V61H188.86V59.7141H188.787C188.638 60.0039 188.439 60.2595 188.19 60.4808C187.94 60.6982 187.64 60.8692 187.29 60.994C186.94 61.1147 186.536 61.1751 186.077 61.1751ZM186.813 59.4002C187.192 59.4002 187.526 59.3258 187.815 59.1768C188.105 59.0239 188.333 58.8187 188.498 58.5611C188.663 58.3035 188.745 58.0117 188.745 57.6857V56.7017C188.665 56.754 188.554 56.8023 188.413 56.8466C188.276 56.8868 188.121 56.9251 187.948 56.9613C187.775 56.9935 187.602 57.0237 187.429 57.0518C187.256 57.076 187.099 57.0981 186.958 57.1183C186.656 57.1625 186.393 57.233 186.167 57.3295C185.942 57.4261 185.767 57.5569 185.642 57.7219C185.517 57.8829 185.455 58.0842 185.455 58.3256C185.455 58.6758 185.582 58.9434 185.835 59.1286C186.093 59.3097 186.419 59.4002 186.813 59.4002ZM193.294 64.4773V51.7273H195.829V53.2848H195.944C196.057 53.0353 196.22 52.7817 196.433 52.5241C196.65 52.2625 196.932 52.0452 197.278 51.8722C197.628 51.6951 198.063 51.6065 198.582 51.6065C199.258 51.6065 199.882 51.7836 200.454 52.1378C201.025 52.4879 201.482 53.0172 201.824 53.7255C202.166 54.4298 202.337 55.3132 202.337 56.3757C202.337 57.41 202.17 58.2834 201.836 58.9957C201.506 59.7041 201.055 60.2414 200.484 60.6076C199.916 60.9698 199.28 61.1509 198.576 61.1509C198.077 61.1509 197.653 61.0684 197.302 60.9034C196.956 60.7384 196.673 60.5311 196.451 60.2816C196.23 60.0281 196.061 59.7725 195.944 59.5149H195.866V64.4773H193.294ZM195.811 56.3636C195.811 56.915 195.888 57.396 196.041 57.8065C196.194 58.217 196.415 58.5369 196.705 58.7663C196.994 58.9917 197.347 59.1044 197.761 59.1044C198.18 59.1044 198.534 58.9897 198.824 58.7603C199.113 58.5269 199.333 58.2049 199.482 57.7944C199.635 57.3799 199.711 56.9029 199.711 56.3636C199.711 55.8284 199.637 55.3575 199.488 54.951C199.339 54.5445 199.119 54.2266 198.83 53.9972C198.54 53.7678 198.184 53.6531 197.761 53.6531C197.343 53.6531 196.988 53.7637 196.699 53.9851C196.413 54.2064 196.194 54.5204 196.041 54.9268C195.888 55.3333 195.811 55.8123 195.811 56.3636ZM206.623 55.6392V61H204.052V48.6364H206.551V53.3633H206.66C206.869 52.8159 207.207 52.3873 207.674 52.0774C208.141 51.7635 208.726 51.6065 209.431 51.6065C210.075 51.6065 210.636 51.7474 211.115 52.0291C211.598 52.3068 211.972 52.7073 212.238 53.2305C212.507 53.7496 212.64 54.3714 212.636 55.0959V61H210.064V55.5547C210.068 54.9832 209.924 54.5385 209.63 54.2205C209.34 53.9026 208.934 53.7436 208.41 53.7436C208.06 53.7436 207.75 53.8181 207.481 53.967C207.215 54.1159 207.006 54.3332 206.853 54.619C206.704 54.9007 206.627 55.2408 206.623 55.6392ZM214.66 61V51.7273H217.232V61H214.66ZM215.952 50.532C215.57 50.532 215.242 50.4052 214.968 50.1516C214.698 49.8941 214.563 49.5862 214.563 49.228C214.563 48.8738 214.698 48.57 214.968 48.3164C215.242 48.0588 215.57 47.93 215.952 47.93C216.334 47.93 216.66 48.0588 216.93 48.3164C217.204 48.57 217.34 48.8738 217.34 49.228C217.34 49.5862 217.204 49.8941 216.93 50.1516C216.66 50.4052 216.334 50.532 215.952 50.532ZM223.482 61.1811C222.532 61.1811 221.715 60.9799 221.031 60.5774C220.35 60.1709 219.827 59.6075 219.461 58.8871C219.099 58.1667 218.918 57.3376 218.918 56.3999C218.918 55.45 219.101 54.617 219.467 53.9006C219.837 53.1802 220.362 52.6187 221.043 52.2163C221.723 51.8098 222.532 51.6065 223.469 51.6065C224.278 51.6065 224.987 51.7534 225.594 52.0472C226.202 52.341 226.683 52.7536 227.037 53.2848C227.391 53.8161 227.587 54.4399 227.623 55.1562H225.196C225.128 54.6934 224.946 54.3211 224.653 54.0394C224.363 53.7537 223.983 53.6108 223.512 53.6108C223.113 53.6108 222.765 53.7195 222.467 53.9368C222.174 54.1501 221.944 54.462 221.779 54.8725C221.614 55.283 221.532 55.7801 221.532 56.3636C221.532 56.9553 221.612 57.4583 221.773 57.8729C221.938 58.2874 222.17 58.6033 222.467 58.8207C222.765 59.038 223.113 59.1467 223.512 59.1467C223.806 59.1467 224.069 59.0863 224.303 58.9656C224.54 58.8448 224.735 58.6697 224.888 58.4403C225.045 58.2069 225.148 57.9272 225.196 57.6012H227.623C227.583 58.3095 227.389 58.9334 227.043 59.4727C226.701 60.0079 226.228 60.4265 225.625 60.7283C225.021 61.0302 224.307 61.1811 223.482 61.1811ZM237.635 61H233.252V48.6364H237.671C238.915 48.6364 239.985 48.8839 240.883 49.3789C241.78 49.8699 242.471 50.5762 242.954 51.4979C243.441 52.4195 243.684 53.5223 243.684 54.8061C243.684 56.094 243.441 57.2008 242.954 58.1264C242.471 59.0521 241.776 59.7624 240.871 60.2575C239.969 60.7525 238.891 61 237.635 61ZM235.866 58.7603H237.526C238.299 58.7603 238.949 58.6235 239.476 58.3498C240.008 58.0721 240.406 57.6435 240.672 57.0639C240.941 56.4804 241.076 55.7277 241.076 54.8061C241.076 53.8925 240.941 53.146 240.672 52.5664C240.406 51.9869 240.01 51.5603 239.482 51.2866C238.955 51.0129 238.305 50.8761 237.532 50.8761H235.866V58.7603ZM249.798 61.1811C248.844 61.1811 248.023 60.9879 247.335 60.6016C246.651 60.2112 246.124 59.6598 245.753 58.9474C245.383 58.2311 245.198 57.3839 245.198 56.4059C245.198 55.4521 245.383 54.6149 245.753 53.8945C246.124 53.1741 246.645 52.6127 247.317 52.2102C247.993 51.8078 248.786 51.6065 249.695 51.6065C250.307 51.6065 250.877 51.7051 251.404 51.9023C251.935 52.0955 252.398 52.3873 252.792 52.7777C253.191 53.1681 253.501 53.6591 253.722 54.2507C253.943 54.8383 254.054 55.5265 254.054 56.3153V57.0217H246.224V55.4279H251.633C251.633 55.0576 251.553 54.7296 251.392 54.4439C251.231 54.1581 251.007 53.9348 250.722 53.7738C250.44 53.6088 250.112 53.5263 249.738 53.5263C249.347 53.5263 249.001 53.6168 248.699 53.7979C248.401 53.975 248.168 54.2145 247.999 54.5163C247.83 54.8142 247.743 55.1462 247.739 55.5124V57.0277C247.739 57.4865 247.824 57.8829 247.993 58.217C248.166 58.551 248.41 58.8086 248.723 58.9897C249.037 59.1708 249.41 59.2614 249.84 59.2614C250.126 59.2614 250.388 59.2211 250.625 59.1406C250.863 59.0601 251.066 58.9394 251.235 58.7784C251.404 58.6174 251.533 58.4202 251.621 58.1868L254 58.3438C253.879 58.9152 253.631 59.4143 253.257 59.8409C252.887 60.2635 252.408 60.5935 251.82 60.831C251.237 61.0644 250.563 61.1811 249.798 61.1811ZM263.448 54.3714L261.093 54.5163C261.053 54.3151 260.966 54.134 260.834 53.973C260.701 53.808 260.526 53.6772 260.308 53.5806C260.095 53.48 259.839 53.4297 259.542 53.4297C259.143 53.4297 258.807 53.5142 258.533 53.6832C258.26 53.8482 258.123 54.0696 258.123 54.3473C258.123 54.5687 258.211 54.7558 258.389 54.9087C258.566 55.0617 258.87 55.1844 259.3 55.277L260.978 55.6151C261.88 55.8002 262.552 56.098 262.995 56.5085C263.437 56.919 263.659 57.4583 263.659 58.1264C263.659 58.7341 263.48 59.2674 263.122 59.7262C262.767 60.185 262.28 60.5432 261.661 60.8008C261.045 61.0543 260.334 61.1811 259.53 61.1811C258.302 61.1811 257.324 60.9255 256.596 60.4144C255.871 59.8993 255.447 59.199 255.322 58.3136L257.851 58.1808C257.928 58.555 258.113 58.8408 258.407 59.038C258.7 59.2312 259.077 59.3278 259.536 59.3278C259.986 59.3278 260.349 59.2412 260.622 59.0682C260.9 58.8911 261.041 58.6637 261.045 58.386C261.041 58.1526 260.942 57.9614 260.749 57.8125C260.556 57.6596 260.258 57.5429 259.856 57.4624L258.25 57.1424C257.344 56.9613 256.67 56.6474 256.227 56.2006C255.789 55.7539 255.569 55.1844 255.569 54.4922C255.569 53.8965 255.73 53.3834 256.052 52.9528C256.378 52.5221 256.835 52.1901 257.423 51.9567C258.014 51.7232 258.707 51.6065 259.499 51.6065C260.671 51.6065 261.592 51.854 262.264 52.3491C262.94 52.8441 263.335 53.5182 263.448 54.3714ZM265.278 61V51.7273H267.85V61H265.278ZM266.57 50.532C266.188 50.532 265.86 50.4052 265.586 50.1516C265.316 49.8941 265.182 49.5862 265.182 49.228C265.182 48.8738 265.316 48.57 265.586 48.3164C265.86 48.0588 266.188 47.93 266.57 47.93C266.952 47.93 267.278 48.0588 267.548 48.3164C267.822 48.57 267.959 48.8738 267.959 49.228C267.959 49.5862 267.822 49.8941 267.548 50.1516C267.278 50.4052 266.952 50.532 266.57 50.532ZM274.088 64.6705C273.255 64.6705 272.54 64.5558 271.945 64.3263C271.353 64.101 270.882 63.7931 270.532 63.4027C270.182 63.0123 269.954 62.5736 269.85 62.0866L272.228 61.7667C272.301 61.9518 272.415 62.1249 272.572 62.2859C272.729 62.4469 272.937 62.5756 273.194 62.6722C273.456 62.7728 273.774 62.8232 274.148 62.8232C274.707 62.8232 275.168 62.6863 275.53 62.4126C275.897 62.143 276.08 61.6902 276.08 61.0543V59.358H275.971C275.858 59.6155 275.689 59.859 275.464 60.0884C275.239 60.3178 274.949 60.505 274.595 60.6499C274.241 60.7947 273.818 60.8672 273.327 60.8672C272.631 60.8672 271.997 60.7062 271.425 60.3842C270.858 60.0582 270.405 59.5612 270.067 58.8931C269.733 58.221 269.566 57.3718 269.566 56.3455C269.566 55.2951 269.737 54.4177 270.079 53.7134C270.421 53.0091 270.876 52.4819 271.443 52.1317C272.015 51.7816 272.641 51.6065 273.321 51.6065C273.84 51.6065 274.275 51.6951 274.625 51.8722C274.975 52.0452 275.257 52.2625 275.47 52.5241C275.687 52.7817 275.854 53.0353 275.971 53.2848H276.068V51.7273H278.621V61.0906C278.621 61.8794 278.428 62.5394 278.042 63.0707C277.655 63.6019 277.12 64.0004 276.436 64.266C275.756 64.5356 274.973 64.6705 274.088 64.6705ZM274.142 58.9354C274.556 58.9354 274.907 58.8327 275.192 58.6275C275.482 58.4182 275.704 58.1204 275.856 57.734C276.013 57.3436 276.092 56.8768 276.092 56.3335C276.092 55.7901 276.015 55.3192 275.862 54.9208C275.71 54.5183 275.488 54.2064 275.198 53.9851C274.909 53.7637 274.556 53.6531 274.142 53.6531C273.719 53.6531 273.363 53.7678 273.073 53.9972C272.784 54.2225 272.564 54.5365 272.415 54.9389C272.266 55.3414 272.192 55.8062 272.192 56.3335C272.192 56.8687 272.266 57.3316 272.415 57.7219C272.568 58.1083 272.788 58.4081 273.073 58.6214C273.363 58.8307 273.719 58.9354 274.142 58.9354ZM283.24 55.6392V61H280.668V51.7273H283.119V53.3633H283.228C283.433 52.824 283.777 52.3974 284.26 52.0835C284.743 51.7655 285.328 51.6065 286.017 51.6065C286.661 51.6065 287.222 51.7474 287.701 52.0291C288.18 52.3108 288.552 52.7133 288.818 53.2365C289.083 53.7557 289.216 54.3755 289.216 55.0959V61H286.644V55.5547C286.648 54.9872 286.504 54.5445 286.21 54.2266C285.916 53.9046 285.512 53.7436 284.996 53.7436C284.65 53.7436 284.344 53.8181 284.079 53.967C283.817 54.1159 283.612 54.3332 283.463 54.619C283.318 54.9007 283.244 55.2408 283.24 55.6392Z" fill="black"/>
<path d="M168.31 84.2727V85.6364H163.543V84.2727H168.31ZM164.821 82.1818H166.52V90.4375C166.52 90.767 166.569 91.0152 166.668 91.1818C166.766 91.3447 166.893 91.4564 167.048 91.517C167.207 91.5739 167.38 91.6023 167.565 91.6023C167.702 91.6023 167.821 91.5928 167.923 91.5739C168.026 91.5549 168.105 91.5398 168.162 91.5284L168.469 92.9318C168.37 92.9697 168.23 93.0076 168.048 93.0455C167.866 93.0871 167.639 93.1098 167.366 93.1136C166.92 93.1212 166.503 93.0417 166.116 92.875C165.73 92.7083 165.418 92.4508 165.179 92.1023C164.94 91.7538 164.821 91.3163 164.821 90.7898V82.1818ZM175.717 89.3807V84.2727H177.422V93H175.751V91.4886H175.661C175.46 91.9545 175.138 92.3428 174.695 92.6534C174.255 92.9602 173.708 93.1136 173.053 93.1136C172.492 93.1136 171.996 92.9905 171.564 92.7443C171.136 92.4943 170.799 92.125 170.553 91.6364C170.31 91.1477 170.189 90.5436 170.189 89.8239V84.2727H171.888V89.6193C171.888 90.214 172.053 90.6875 172.382 91.0398C172.712 91.392 173.14 91.5682 173.666 91.5682C173.984 91.5682 174.301 91.4886 174.615 91.3295C174.933 91.1705 175.196 90.9299 175.405 90.608C175.617 90.286 175.721 89.8769 175.717 89.3807ZM179.705 93V84.2727H181.347V85.6591H181.438C181.597 85.1894 181.877 84.8201 182.278 84.5511C182.684 84.2784 183.142 84.142 183.653 84.142C183.759 84.142 183.884 84.1458 184.028 84.1534C184.176 84.161 184.292 84.1705 184.375 84.1818V85.8068C184.307 85.7879 184.186 85.767 184.011 85.7443C183.837 85.7178 183.663 85.7045 183.489 85.7045C183.087 85.7045 182.729 85.7898 182.415 85.9602C182.104 86.1269 181.858 86.3598 181.676 86.6591C181.494 86.9545 181.403 87.2917 181.403 87.6705V93H179.705ZM187.544 87.8182V93H185.845V84.2727H187.476V85.6932H187.584C187.785 85.2311 188.099 84.8598 188.527 84.5795C188.959 84.2992 189.502 84.1591 190.158 84.1591C190.752 84.1591 191.273 84.2841 191.72 84.5341C192.167 84.7803 192.514 85.1477 192.76 85.6364C193.006 86.125 193.129 86.7292 193.129 87.4489V93H191.43V87.6534C191.43 87.0208 191.266 86.5265 190.936 86.1705C190.607 85.8106 190.154 85.6307 189.578 85.6307C189.184 85.6307 188.834 85.7159 188.527 85.8864C188.224 86.0568 187.983 86.3068 187.805 86.6364C187.631 86.9621 187.544 87.3561 187.544 87.8182ZM199.642 93V84.2727H201.341V93H199.642ZM200.5 82.9261C200.205 82.9261 199.951 82.8277 199.739 82.6307C199.53 82.4299 199.426 82.1913 199.426 81.9148C199.426 81.6345 199.53 81.3958 199.739 81.1989C199.951 80.9981 200.205 80.8977 200.5 80.8977C200.795 80.8977 201.047 80.9981 201.256 81.1989C201.468 81.3958 201.574 81.6345 201.574 81.9148C201.574 82.1913 201.468 82.4299 201.256 82.6307C201.047 82.8277 200.795 82.9261 200.5 82.9261ZM206.893 93.1705C206.189 93.1705 205.56 92.9905 205.007 92.6307C204.458 92.267 204.026 91.75 203.712 91.0795C203.401 90.4053 203.246 89.5966 203.246 88.6534C203.246 87.7102 203.403 86.9034 203.717 86.233C204.036 85.5625 204.471 85.0492 205.024 84.6932C205.577 84.3371 206.204 84.1591 206.905 84.1591C207.446 84.1591 207.882 84.25 208.212 84.4318C208.545 84.6098 208.803 84.8182 208.984 85.0568C209.17 85.2955 209.314 85.5057 209.416 85.6875H209.518V81.3636H211.217V93H209.558V91.642H209.416C209.314 91.8277 209.166 92.0398 208.973 92.2784C208.784 92.517 208.522 92.7254 208.189 92.9034C207.856 93.0814 207.424 93.1705 206.893 93.1705ZM207.268 91.7216C207.757 91.7216 208.17 91.5928 208.507 91.3352C208.848 91.0739 209.106 90.7121 209.28 90.25C209.458 89.7879 209.547 89.25 209.547 88.6364C209.547 88.0303 209.46 87.5 209.286 87.0455C209.111 86.5909 208.856 86.2367 208.518 85.983C208.181 85.7292 207.765 85.6023 207.268 85.6023C206.757 85.6023 206.331 85.7348 205.99 86C205.649 86.2652 205.392 86.6269 205.217 87.0852C205.047 87.5436 204.962 88.0606 204.962 88.6364C204.962 89.2197 205.049 89.7443 205.223 90.2102C205.397 90.6761 205.655 91.0455 205.996 91.3182C206.34 91.5871 206.765 91.7216 207.268 91.7216ZM217.403 93.1761C216.544 93.1761 215.803 92.9924 215.182 92.625C214.564 92.2538 214.087 91.733 213.75 91.0625C213.417 90.3883 213.25 89.5985 213.25 88.6932C213.25 87.7992 213.417 87.0114 213.75 86.3295C214.087 85.6477 214.557 85.1155 215.159 84.733C215.765 84.3504 216.473 84.1591 217.284 84.1591C217.777 84.1591 218.254 84.2405 218.716 84.4034C219.178 84.5663 219.593 84.822 219.96 85.1705C220.328 85.5189 220.617 85.9716 220.83 86.5284C221.042 87.0814 221.148 87.7538 221.148 88.5455V89.1477H214.21V87.875H219.483C219.483 87.428 219.392 87.0322 219.21 86.6875C219.028 86.339 218.773 86.0644 218.443 85.8636C218.117 85.6629 217.735 85.5625 217.295 85.5625C216.818 85.5625 216.402 85.6799 216.045 85.9148C215.693 86.1458 215.42 86.4489 215.227 86.8239C215.038 87.1951 214.943 87.5985 214.943 88.0341V89.0284C214.943 89.6117 215.045 90.108 215.25 90.517C215.458 90.9261 215.748 91.2386 216.119 91.4545C216.491 91.6667 216.924 91.7727 217.42 91.7727C217.742 91.7727 218.036 91.7273 218.301 91.6364C218.566 91.5417 218.795 91.4015 218.989 91.2159C219.182 91.0303 219.33 90.8011 219.432 90.5284L221.04 90.8182C220.911 91.2917 220.68 91.7064 220.347 92.0625C220.017 92.4148 219.602 92.6894 219.102 92.8864C218.606 93.0795 218.04 93.1761 217.403 93.1761ZM225.572 93.1932C225.019 93.1932 224.519 93.0909 224.072 92.8864C223.625 92.678 223.271 92.3769 223.01 91.983C222.752 91.589 222.624 91.1061 222.624 90.5341C222.624 90.0417 222.718 89.6364 222.908 89.3182C223.097 89 223.353 88.7481 223.675 88.5625C223.997 88.3769 224.357 88.2367 224.754 88.142C225.152 88.0473 225.557 87.9754 225.97 87.9261C226.493 87.8655 226.917 87.8163 227.243 87.7784C227.569 87.7367 227.805 87.6705 227.953 87.5795C228.101 87.4886 228.175 87.3409 228.175 87.1364V87.0966C228.175 86.6004 228.035 86.2159 227.754 85.9432C227.478 85.6705 227.065 85.5341 226.516 85.5341C225.944 85.5341 225.493 85.661 225.163 85.9148C224.838 86.1648 224.612 86.4432 224.487 86.75L222.891 86.3864C223.08 85.8561 223.357 85.428 223.72 85.1023C224.088 84.7727 224.51 84.5341 224.987 84.3864C225.464 84.2348 225.966 84.1591 226.493 84.1591C226.841 84.1591 227.211 84.2008 227.601 84.2841C227.995 84.3636 228.362 84.5114 228.703 84.7273C229.048 84.9432 229.33 85.2519 229.55 85.6534C229.769 86.0511 229.879 86.5682 229.879 87.2045V93H228.22V91.8068H228.152C228.042 92.0265 227.877 92.2424 227.658 92.4545C227.438 92.6667 227.156 92.8428 226.811 92.983C226.466 93.1231 226.054 93.1932 225.572 93.1932ZM225.942 91.8295C226.411 91.8295 226.813 91.7367 227.146 91.5511C227.483 91.3655 227.739 91.1231 227.913 90.8239C228.091 90.5208 228.18 90.197 228.18 89.8523V88.7273C228.12 88.7879 228.002 88.8447 227.828 88.8977C227.658 88.947 227.463 88.9905 227.243 89.0284C227.023 89.0625 226.809 89.0947 226.601 89.125C226.393 89.1515 226.218 89.1742 226.078 89.1932C225.749 89.2348 225.447 89.3049 225.175 89.4034C224.906 89.5019 224.69 89.6439 224.527 89.8295C224.368 90.0114 224.288 90.2538 224.288 90.5568C224.288 90.9773 224.444 91.2955 224.754 91.5114C225.065 91.7235 225.461 91.8295 225.942 91.8295ZM238.682 86.4034L237.142 86.6761C237.078 86.4792 236.975 86.2917 236.835 86.1136C236.699 85.9356 236.513 85.7898 236.278 85.6761C236.044 85.5625 235.75 85.5057 235.398 85.5057C234.917 85.5057 234.515 85.6136 234.193 85.8295C233.871 86.0417 233.71 86.3163 233.71 86.6534C233.71 86.9451 233.818 87.1799 234.034 87.358C234.25 87.536 234.598 87.6818 235.08 87.7955L236.466 88.1136C237.269 88.2992 237.867 88.5852 238.261 88.9716C238.655 89.358 238.852 89.8598 238.852 90.4773C238.852 91 238.701 91.4659 238.398 91.875C238.098 92.2803 237.68 92.5985 237.142 92.8295C236.608 93.0606 235.989 93.1761 235.284 93.1761C234.307 93.1761 233.509 92.9678 232.892 92.5511C232.275 92.1307 231.896 91.5341 231.756 90.7614L233.398 90.5114C233.5 90.9394 233.71 91.2633 234.028 91.483C234.347 91.6989 234.761 91.8068 235.273 91.8068C235.83 91.8068 236.275 91.6913 236.608 91.4602C236.941 91.2254 237.108 90.9394 237.108 90.6023C237.108 90.3295 237.006 90.1004 236.801 89.9148C236.6 89.7292 236.292 89.589 235.875 89.4943L234.398 89.1705C233.583 88.9848 232.981 88.6894 232.591 88.2841C232.205 87.8788 232.011 87.3655 232.011 86.7443C232.011 86.2292 232.155 85.7784 232.443 85.392C232.731 85.0057 233.129 84.7045 233.636 84.4886C234.144 84.2689 234.725 84.1591 235.381 84.1591C236.324 84.1591 237.066 84.3636 237.608 84.7727C238.15 85.178 238.508 85.7216 238.682 86.4034ZM244.955 93V84.2727H246.653V93H244.955ZM245.812 82.9261C245.517 82.9261 245.263 82.8277 245.051 82.6307C244.843 82.4299 244.739 82.1913 244.739 81.9148C244.739 81.6345 244.843 81.3958 245.051 81.1989C245.263 80.9981 245.517 80.8977 245.812 80.8977C246.108 80.8977 246.36 80.9981 246.568 81.1989C246.78 81.3958 246.886 81.6345 246.886 81.9148C246.886 82.1913 246.78 82.4299 246.568 82.6307C246.36 82.8277 246.108 82.9261 245.812 82.9261ZM250.638 87.8182V93H248.939V84.2727H250.57V85.6932H250.678C250.878 85.2311 251.193 84.8598 251.621 84.5795C252.053 84.2992 252.596 84.1591 253.251 84.1591C253.846 84.1591 254.367 84.2841 254.814 84.5341C255.261 84.7803 255.607 85.1477 255.854 85.6364C256.1 86.125 256.223 86.7292 256.223 87.4489V93H254.524V87.6534C254.524 87.0208 254.359 86.5265 254.03 86.1705C253.7 85.8106 253.248 85.6307 252.672 85.6307C252.278 85.6307 251.928 85.7159 251.621 85.8864C251.318 86.0568 251.077 86.3068 250.899 86.6364C250.725 86.9621 250.638 87.3561 250.638 87.8182ZM262.575 84.2727V85.6364H257.808V84.2727H262.575ZM259.087 82.1818H260.786V90.4375C260.786 90.767 260.835 91.0152 260.933 91.1818C261.032 91.3447 261.159 91.4564 261.314 91.517C261.473 91.5739 261.645 91.6023 261.831 91.6023C261.967 91.6023 262.087 91.5928 262.189 91.5739C262.291 91.5549 262.371 91.5398 262.428 91.5284L262.734 92.9318C262.636 92.9697 262.496 93.0076 262.314 93.0455C262.132 93.0871 261.905 93.1098 261.632 93.1136C261.185 93.1212 260.768 93.0417 260.382 92.875C259.996 92.7083 259.683 92.4508 259.445 92.1023C259.206 91.7538 259.087 91.3163 259.087 90.7898V82.1818ZM268.037 93.1761C267.219 93.1761 266.505 92.9886 265.895 92.6136C265.285 92.2386 264.812 91.714 264.474 91.0398C264.137 90.3655 263.969 89.5777 263.969 88.6761C263.969 87.7708 264.137 86.9792 264.474 86.3011C264.812 85.6231 265.285 85.0966 265.895 84.7216C266.505 84.3466 267.219 84.1591 268.037 84.1591C268.855 84.1591 269.569 84.3466 270.179 84.7216C270.789 85.0966 271.262 85.6231 271.599 86.3011C271.937 86.9792 272.105 87.7708 272.105 88.6761C272.105 89.5777 271.937 90.3655 271.599 91.0398C271.262 91.714 270.789 92.2386 270.179 92.6136C269.569 92.9886 268.855 93.1761 268.037 93.1761ZM268.043 91.75C268.573 91.75 269.012 91.6098 269.361 91.3295C269.709 91.0492 269.967 90.6761 270.134 90.2102C270.304 89.7443 270.389 89.2311 270.389 88.6705C270.389 88.1136 270.304 87.6023 270.134 87.1364C269.967 86.6667 269.709 86.2898 269.361 86.0057C269.012 85.7216 268.573 85.5795 268.043 85.5795C267.509 85.5795 267.065 85.7216 266.713 86.0057C266.365 86.2898 266.105 86.6667 265.935 87.1364C265.768 87.6023 265.685 88.1136 265.685 88.6705C265.685 89.2311 265.768 89.7443 265.935 90.2102C266.105 90.6761 266.365 91.0492 266.713 91.3295C267.065 91.6098 267.509 91.75 268.043 91.75ZM285.702 84.2727L282.537 93H280.719L277.548 84.2727H279.372L281.582 90.9886H281.673L283.878 84.2727H285.702ZM287.298 93V84.2727H288.997V93H287.298ZM288.156 82.9261C287.861 82.9261 287.607 82.8277 287.395 82.6307C287.187 82.4299 287.082 82.1913 287.082 81.9148C287.082 81.6345 287.187 81.3958 287.395 81.1989C287.607 80.9981 287.861 80.8977 288.156 80.8977C288.452 80.8977 288.704 80.9981 288.912 81.1989C289.124 81.3958 289.23 81.6345 289.23 81.9148C289.23 82.1913 289.124 82.4299 288.912 82.6307C288.704 82.8277 288.452 82.9261 288.156 82.9261ZM297.822 86.4034L296.283 86.6761C296.218 86.4792 296.116 86.2917 295.976 86.1136C295.839 85.9356 295.654 85.7898 295.419 85.6761C295.184 85.5625 294.891 85.5057 294.538 85.5057C294.057 85.5057 293.656 85.6136 293.334 85.8295C293.012 86.0417 292.851 86.3163 292.851 86.6534C292.851 86.9451 292.959 87.1799 293.175 87.358C293.391 87.536 293.739 87.6818 294.22 87.7955L295.607 88.1136C296.41 88.2992 297.008 88.5852 297.402 88.9716C297.796 89.358 297.993 89.8598 297.993 90.4773C297.993 91 297.841 91.4659 297.538 91.875C297.239 92.2803 296.821 92.5985 296.283 92.8295C295.749 93.0606 295.129 93.1761 294.425 93.1761C293.447 93.1761 292.65 92.9678 292.033 92.5511C291.415 92.1307 291.036 91.5341 290.896 90.7614L292.538 90.5114C292.641 90.9394 292.851 91.2633 293.169 91.483C293.487 91.6989 293.902 91.8068 294.413 91.8068C294.97 91.8068 295.415 91.6913 295.749 91.4602C296.082 91.2254 296.249 90.9394 296.249 90.6023C296.249 90.3295 296.146 90.1004 295.942 89.9148C295.741 89.7292 295.432 89.589 295.016 89.4943L293.538 89.1705C292.724 88.9848 292.122 88.6894 291.732 88.2841C291.345 87.8788 291.152 87.3655 291.152 86.7443C291.152 86.2292 291.296 85.7784 291.584 85.392C291.872 85.0057 292.269 84.7045 292.777 84.4886C293.285 84.2689 293.866 84.1591 294.521 84.1591C295.464 84.1591 296.207 84.3636 296.749 84.7727C297.29 85.178 297.648 85.7216 297.822 86.4034ZM305.389 89.3807V84.2727H307.094V93H305.423V91.4886H305.332C305.132 91.9545 304.81 92.3428 304.366 92.6534C303.927 92.9602 303.38 93.1136 302.724 93.1136C302.164 93.1136 301.668 92.9905 301.236 92.7443C300.808 92.4943 300.471 92.125 300.224 91.6364C299.982 91.1477 299.861 90.5436 299.861 89.8239V84.2727H301.56V89.6193C301.56 90.214 301.724 90.6875 302.054 91.0398C302.384 91.392 302.812 91.5682 303.338 91.5682C303.656 91.5682 303.973 91.4886 304.287 91.3295C304.605 91.1705 304.868 90.9299 305.077 90.608C305.289 90.286 305.393 89.8769 305.389 89.3807ZM311.916 93.1932C311.363 93.1932 310.863 93.0909 310.416 92.8864C309.969 92.678 309.615 92.3769 309.354 91.983C309.096 91.589 308.967 91.1061 308.967 90.5341C308.967 90.0417 309.062 89.6364 309.251 89.3182C309.441 89 309.696 88.7481 310.018 88.5625C310.34 88.3769 310.7 88.2367 311.098 88.142C311.496 88.0473 311.901 87.9754 312.314 87.9261C312.837 87.8655 313.261 87.8163 313.587 87.7784C313.912 87.7367 314.149 87.6705 314.297 87.5795C314.445 87.4886 314.518 87.3409 314.518 87.1364V87.0966C314.518 86.6004 314.378 86.2159 314.098 85.9432C313.821 85.6705 313.409 85.5341 312.859 85.5341C312.287 85.5341 311.837 85.661 311.507 85.9148C311.181 86.1648 310.956 86.4432 310.831 86.75L309.234 86.3864C309.424 85.8561 309.7 85.428 310.064 85.1023C310.431 84.7727 310.854 84.5341 311.331 84.3864C311.808 84.2348 312.31 84.1591 312.837 84.1591C313.185 84.1591 313.554 84.2008 313.945 84.2841C314.339 84.3636 314.706 84.5114 315.047 84.7273C315.392 84.9432 315.674 85.2519 315.893 85.6534C316.113 86.0511 316.223 86.5682 316.223 87.2045V93H314.564V91.8068H314.496C314.386 92.0265 314.221 92.2424 314.001 92.4545C313.782 92.6667 313.5 92.8428 313.155 92.983C312.81 93.1231 312.397 93.1932 311.916 93.1932ZM312.286 91.8295C312.755 91.8295 313.157 91.7367 313.49 91.5511C313.827 91.3655 314.083 91.1231 314.257 90.8239C314.435 90.5208 314.524 90.197 314.524 89.8523V88.7273C314.464 88.7879 314.346 88.8447 314.172 88.8977C314.001 88.947 313.806 88.9905 313.587 89.0284C313.367 89.0625 313.153 89.0947 312.945 89.125C312.736 89.1515 312.562 89.1742 312.422 89.1932C312.092 89.2348 311.791 89.3049 311.518 89.4034C311.25 89.5019 311.034 89.6439 310.871 89.8295C310.712 90.0114 310.632 90.2538 310.632 90.5568C310.632 90.9773 310.787 91.2955 311.098 91.5114C311.409 91.7235 311.804 91.8295 312.286 91.8295ZM320.185 81.3636V93H318.486V81.3636H320.185ZM329.01 86.4034L327.47 86.6761C327.406 86.4792 327.304 86.2917 327.163 86.1136C327.027 85.9356 326.841 85.7898 326.607 85.6761C326.372 85.5625 326.078 85.5057 325.726 85.5057C325.245 85.5057 324.843 85.6136 324.521 85.8295C324.199 86.0417 324.038 86.3163 324.038 86.6534C324.038 86.9451 324.146 87.1799 324.362 87.358C324.578 87.536 324.927 87.6818 325.408 87.7955L326.794 88.1136C327.597 88.2992 328.196 88.5852 328.589 88.9716C328.983 89.358 329.18 89.8598 329.18 90.4773C329.18 91 329.029 91.4659 328.726 91.875C328.427 92.2803 328.008 92.5985 327.47 92.8295C326.936 93.0606 326.317 93.1761 325.612 93.1761C324.635 93.1761 323.838 92.9678 323.22 92.5511C322.603 92.1307 322.224 91.5341 322.084 90.7614L323.726 90.5114C323.828 90.9394 324.038 91.2633 324.357 91.483C324.675 91.6989 325.089 91.8068 325.601 91.8068C326.158 91.8068 326.603 91.6913 326.936 91.4602C327.269 91.2254 327.436 90.9394 327.436 90.6023C327.436 90.3295 327.334 90.1004 327.129 89.9148C326.929 89.7292 326.62 89.589 326.203 89.4943L324.726 89.1705C323.911 88.9848 323.309 88.6894 322.919 88.2841C322.533 87.8788 322.339 87.3655 322.339 86.7443C322.339 86.2292 322.483 85.7784 322.771 85.392C323.059 85.0057 323.457 84.7045 323.964 84.4886C324.472 84.2689 325.054 84.1591 325.709 84.1591C326.652 84.1591 327.394 84.3636 327.936 84.7727C328.478 85.178 328.836 85.7216 329.01 86.4034Z" fill="black"/>
<circle cx="88.5" cy="75.5" r="36.5" fill="#7A1E2D"/>
<path d="M79.153 84.324C74.509 84.324 71.053 80.787 71.053 74.55C71.053 68.313 74.509 64.776 79.153 64.776C83.824 64.776 87.253 68.313 87.253 74.55C87.253 80.787 83.824 84.324 79.153 84.324ZM79.153 80.625C81.34 80.625 82.852 78.843 82.852 74.55C82.852 70.257 81.34 68.475 79.153 68.475C76.993 68.475 75.481 70.257 75.481 74.55C75.481 78.843 76.993 80.625 79.153 80.625ZM88.356 65.1H96.51V84H92.136V68.61H88.356V65.1Z" fill="white"/>
</svg>
