<svg width="267" height="250" viewBox="0 0 267 250" fill="none" xmlns="http://www.w3.org/2000/svg">
<path d="M10.9631 240.499L12.4169 18.412C12.4784 9.02338 20.1393 1.4517 29.528 1.50022L240.707 2.5915C250.096 2.64002 257.657 10.2903 257.595 19.679L257.38 52.6377" stroke="white" stroke-width="3"/>
<path d="M253.874 52.8525C255.866 55.0479 259.393 54.7885 261.048 52.3247C263.082 49.2989 260.932 45.2316 257.288 45.2127C253.312 45.1922 251.203 49.9099 253.874 52.8525Z" fill="white" stroke="white" stroke-width="3"/>
<path d="M7.05986 243.711C9.05213 245.906 12.5786 245.647 14.2344 243.183C16.268 240.157 14.1176 236.09 10.4743 236.071C6.49799 236.05 4.38951 240.768 7.05986 243.711Z" fill="white" stroke="white" stroke-width="3"/>
<rect x="26.3112" y="18.9531" width="212.682" height="200.622" rx="14" fill="white" fill-opacity="0.53"/>
<rect x="26.8112" y="19.4531" width="211.682" height="199.622" rx="13.5" stroke="#7A1E2D" stroke-opacity="0.58"/>
<path d="M53.7653 112.424C53.7142 111.909 53.4947 111.508 53.107 111.223C52.7192 110.937 52.1929 110.794 51.5281 110.794C51.0764 110.794 50.695 110.858 50.384 110.986C50.0729 111.11 49.8342 111.282 49.668 111.504C49.5061 111.726 49.4251 111.977 49.4251 112.258C49.4166 112.493 49.4656 112.697 49.5722 112.872C49.683 113.047 49.8342 113.198 50.026 113.326C50.2178 113.449 50.4393 113.558 50.6908 113.652C50.9422 113.741 51.2107 113.818 51.4962 113.882L52.6723 114.163C53.2433 114.291 53.7675 114.461 54.2447 114.674C54.722 114.888 55.1354 115.15 55.4848 115.461C55.8342 115.772 56.1048 116.138 56.2966 116.56C56.4926 116.982 56.5928 117.466 56.597 118.011C56.5928 118.812 56.3882 119.507 55.9834 120.095C55.5828 120.679 55.0033 121.133 54.2447 121.456C53.4905 121.776 52.5807 121.936 51.5153 121.936C50.4585 121.936 49.5381 121.774 48.754 121.45C47.9741 121.126 47.3648 120.647 46.9259 120.012C46.4912 119.373 46.2632 118.582 46.2419 117.64L48.9202 117.64C48.95 118.079 49.0757 118.446 49.2973 118.74C49.5232 119.03 49.8236 119.249 50.1986 119.398C50.5778 119.543 51.0061 119.615 51.4834 119.615C51.9521 119.615 52.3591 119.547 52.7043 119.411C53.0537 119.275 53.3243 119.085 53.5161 118.842C53.7078 118.599 53.8037 118.32 53.8037 118.005C53.8037 117.711 53.7163 117.463 53.5416 117.263C53.3712 117.063 53.1197 116.892 52.7874 116.752C52.4592 116.611 52.0565 116.483 51.5793 116.368L50.1538 116.01C49.0501 115.742 48.1787 115.322 47.5395 114.751C46.9003 114.18 46.5828 113.411 46.5871 112.444C46.5828 111.651 46.7938 110.959 47.2199 110.366C47.6503 109.774 48.2405 109.312 48.9905 108.979C49.7405 108.647 50.5928 108.481 51.5473 108.481C52.5189 108.481 53.3669 108.647 54.0913 108.979C54.82 109.312 55.3868 109.774 55.7916 110.366C56.1965 110.959 56.4053 111.645 56.418 112.424L53.7653 112.424ZM58.4076 121.75L58.4076 111.932L61.1306 111.932L61.1306 121.75L58.4076 121.75ZM59.7755 110.667C59.3706 110.667 59.0233 110.532 58.7336 110.264C58.448 109.991 58.3053 109.665 58.3053 109.286C58.3053 108.911 58.448 108.589 58.7336 108.321C59.0233 108.048 59.3706 107.912 59.7755 107.912C60.1803 107.912 60.5255 108.048 60.811 108.321C61.1007 108.589 61.2456 108.911 61.2456 109.286C61.2456 109.665 61.1007 109.991 60.811 110.264C60.5255 110.532 60.1803 110.667 59.7755 110.667ZM66.0349 116.074L66.0349 121.75L63.3119 121.75L63.3119 111.932L65.907 111.932L65.907 113.664L66.0221 113.664C66.2394 113.093 66.6038 112.642 67.1151 112.309C67.6265 111.973 68.2465 111.804 68.9752 111.804C69.657 111.804 70.2515 111.954 70.7586 112.252C71.2657 112.55 71.6599 112.976 71.9411 113.53C72.2224 114.08 72.363 114.736 72.363 115.499L72.363 121.75L69.64 121.75L69.64 115.985C69.6442 115.384 69.4908 114.915 69.1798 114.579C68.8687 114.238 68.4404 114.067 67.895 114.067C67.5285 114.067 67.2046 114.146 66.9234 114.304C66.6464 114.461 66.429 114.691 66.2714 114.994C66.118 115.292 66.0391 115.652 66.0349 116.074ZM78.9324 125.637C78.0503 125.637 77.2939 125.515 76.6632 125.272C76.0368 125.034 75.5382 124.708 75.1675 124.294C74.7968 123.881 74.556 123.417 74.4452 122.901L76.9637 122.562C77.0404 122.758 77.1618 122.941 77.328 123.112C77.4942 123.282 77.7137 123.419 77.9864 123.521C78.2634 123.628 78.6 123.681 78.9963 123.681C79.5887 123.681 80.0766 123.536 80.4601 123.246C80.8479 122.961 81.0418 122.481 81.0418 121.808L81.0418 120.012L80.9267 120.012C80.8074 120.285 80.6284 120.542 80.3898 120.785C80.1512 121.028 79.8444 121.226 79.4694 121.38C79.0944 121.533 78.6469 121.61 78.127 121.61C77.3898 121.61 76.7186 121.439 76.1135 121.098C75.5127 120.753 75.0333 120.227 74.6753 119.52C74.3216 118.808 74.1448 117.909 74.1448 116.822C74.1448 115.71 74.3259 114.781 74.6881 114.035C75.0503 113.289 75.5319 112.731 76.1327 112.361C76.7378 111.99 77.4005 111.804 78.1206 111.804C78.6703 111.804 79.1306 111.898 79.5013 112.086C79.8721 112.269 80.1703 112.499 80.3962 112.776C80.6263 113.049 80.8032 113.317 80.9267 113.581L81.029 113.581L81.029 111.932L83.7328 111.932L83.7328 121.846C83.7328 122.682 83.5283 123.38 83.1192 123.943C82.7101 124.505 82.1434 124.927 81.4189 125.209C80.6988 125.494 79.8699 125.637 78.9324 125.637ZM78.99 119.564C79.4289 119.564 79.7996 119.456 80.1022 119.238C80.409 119.017 80.6434 118.701 80.8053 118.292C80.9715 117.879 81.0546 117.385 81.0546 116.809C81.0546 116.234 80.9736 115.736 80.8117 115.314C80.6498 114.888 80.4154 114.557 80.1086 114.323C79.8017 114.088 79.4289 113.971 78.99 113.971C78.5425 113.971 78.1654 114.093 77.8586 114.336C77.5517 114.574 77.3195 114.907 77.1618 115.333C77.0042 115.759 76.9253 116.251 76.9253 116.809C76.9253 117.376 77.0042 117.866 77.1618 118.28C77.3238 118.689 77.556 119.006 77.8586 119.232C78.1654 119.454 78.5425 119.564 78.99 119.564ZM88.6228 108.66L88.6228 121.75L85.8998 121.75L85.8998 108.66L88.6228 108.66ZM95.2785 121.942C94.2685 121.942 93.3992 121.738 92.6705 121.329C91.9461 120.915 91.3879 120.331 90.9958 119.577C90.6038 118.819 90.4077 117.922 90.4077 116.886C90.4077 115.876 90.6038 114.99 90.9958 114.227C91.3879 113.464 91.9397 112.87 92.6514 112.444C93.3673 112.017 94.2067 111.804 95.1698 111.804C95.8175 111.804 96.4205 111.909 96.9788 112.118C97.5413 112.322 98.0313 112.631 98.4489 113.044C98.8708 113.458 99.1989 113.978 99.4333 114.604C99.6677 115.226 99.7849 115.955 99.7849 116.79L99.7849 117.538L91.4944 117.538L91.4944 115.851L97.2217 115.851C97.2217 115.459 97.1364 115.111 96.966 114.809C96.7955 114.506 96.559 114.27 96.2565 114.099C95.9582 113.924 95.6109 113.837 95.2146 113.837C94.8012 113.837 94.4347 113.933 94.1151 114.125C93.7998 114.312 93.5526 114.566 93.3737 114.885C93.1947 115.201 93.1031 115.552 93.0988 115.94L93.0988 117.544C93.0988 118.03 93.1883 118.45 93.3673 118.804C93.5505 119.157 93.8083 119.43 94.1407 119.622C94.4731 119.814 94.8673 119.91 95.3232 119.91C95.6258 119.91 95.9028 119.867 96.1542 119.782C96.4056 119.696 96.6208 119.569 96.7998 119.398C96.9788 119.228 97.1151 119.019 97.2089 118.772L99.7273 118.938C99.5995 119.543 99.3374 120.071 98.9411 120.523C98.5491 120.971 98.042 121.32 97.4198 121.571C96.8019 121.819 96.0881 121.942 95.2785 121.942ZM107.679 115.294L107.679 117.455L101.709 117.455L101.709 115.294L107.679 115.294ZM109.999 125.432L109.999 111.932L112.684 111.932L112.684 113.581L112.805 113.581C112.925 113.317 113.097 113.049 113.323 112.776C113.553 112.499 113.852 112.269 114.218 112.086C114.589 111.898 115.049 111.804 115.599 111.804C116.315 111.804 116.975 111.992 117.58 112.367C118.185 112.738 118.669 113.298 119.031 114.048C119.394 114.794 119.575 115.729 119.575 116.854C119.575 117.949 119.398 118.874 119.044 119.628C118.695 120.378 118.217 120.947 117.612 121.335C117.011 121.718 116.338 121.91 115.592 121.91C115.064 121.91 114.614 121.823 114.244 121.648C113.877 121.473 113.577 121.254 113.342 120.99C113.108 120.721 112.929 120.451 112.805 120.178L112.722 120.178L112.722 125.432L109.999 125.432ZM112.665 116.841C112.665 117.425 112.746 117.934 112.908 118.369C113.07 118.804 113.304 119.142 113.611 119.385C113.918 119.624 114.291 119.743 114.729 119.743C115.173 119.743 115.548 119.622 115.854 119.379C116.161 119.132 116.394 118.791 116.551 118.356C116.713 117.917 116.794 117.412 116.794 116.841C116.794 116.275 116.715 115.776 116.558 115.346C116.4 114.915 116.168 114.579 115.861 114.336C115.554 114.093 115.177 113.971 114.729 113.971C114.286 113.971 113.911 114.088 113.604 114.323C113.302 114.557 113.07 114.89 112.908 115.32C112.746 115.75 112.665 116.258 112.665 116.841ZM124.19 121.936C123.563 121.936 123.005 121.827 122.515 121.61C122.025 121.388 121.637 121.062 121.352 120.632C121.07 120.197 120.93 119.656 120.93 119.008C120.93 118.463 121.03 118.005 121.23 117.634C121.43 117.263 121.703 116.965 122.048 116.739C122.394 116.513 122.786 116.343 123.225 116.228C123.668 116.113 124.132 116.032 124.618 115.985C125.189 115.925 125.649 115.87 125.999 115.819C126.348 115.763 126.602 115.682 126.759 115.576C126.917 115.469 126.996 115.312 126.996 115.103L126.996 115.064C126.996 114.66 126.868 114.346 126.612 114.125C126.361 113.903 126.003 113.792 125.538 113.792C125.048 113.792 124.658 113.901 124.369 114.118C124.079 114.331 123.887 114.6 123.793 114.924L121.275 114.719C121.403 114.123 121.654 113.607 122.029 113.172C122.404 112.733 122.888 112.397 123.48 112.162C124.077 111.924 124.767 111.804 125.551 111.804C126.097 111.804 126.619 111.868 127.117 111.996C127.62 112.124 128.065 112.322 128.453 112.591C128.845 112.859 129.154 113.204 129.38 113.626C129.606 114.044 129.719 114.544 129.719 115.128L129.719 121.75L127.136 121.75L127.136 120.389L127.06 120.389C126.902 120.696 126.691 120.966 126.427 121.201C126.163 121.431 125.845 121.612 125.475 121.744C125.104 121.872 124.675 121.936 124.19 121.936ZM124.97 120.057C125.37 120.057 125.724 119.978 126.031 119.82C126.337 119.658 126.578 119.441 126.753 119.168C126.928 118.895 127.015 118.586 127.015 118.241L127.015 117.199C126.93 117.255 126.813 117.306 126.663 117.353C126.519 117.395 126.354 117.436 126.171 117.474C125.988 117.508 125.805 117.54 125.622 117.57C125.438 117.596 125.272 117.619 125.123 117.64C124.803 117.687 124.524 117.762 124.286 117.864C124.047 117.966 123.862 118.105 123.729 118.28C123.597 118.45 123.531 118.663 123.531 118.919C123.531 119.289 123.666 119.573 123.934 119.769C124.207 119.961 124.552 120.057 124.97 120.057ZM136.255 125.637C135.373 125.637 134.616 125.515 133.986 125.272C133.359 125.034 132.861 124.708 132.49 124.294C132.119 123.881 131.878 123.417 131.767 122.901L134.286 122.562C134.363 122.758 134.484 122.941 134.65 123.112C134.816 123.282 135.036 123.419 135.309 123.521C135.586 123.628 135.922 123.681 136.319 123.681C136.911 123.681 137.399 123.536 137.782 123.246C138.17 122.961 138.364 122.481 138.364 121.808L138.364 120.012L138.249 120.012C138.13 120.285 137.951 120.542 137.712 120.785C137.473 121.028 137.167 121.226 136.792 121.38C136.417 121.533 135.969 121.61 135.449 121.61C134.712 121.61 134.041 121.439 133.436 121.098C132.835 120.753 132.356 120.227 131.998 119.52C131.644 118.808 131.467 117.909 131.467 116.822C131.467 115.71 131.648 114.781 132.01 114.035C132.373 113.289 132.854 112.731 133.455 112.361C134.06 111.99 134.723 111.804 135.443 111.804C135.993 111.804 136.453 111.898 136.824 112.086C137.194 112.269 137.493 112.499 137.718 112.776C137.949 113.049 138.125 113.317 138.249 113.581L138.351 113.581L138.351 111.932L141.055 111.932L141.055 121.846C141.055 122.682 140.851 123.38 140.441 123.943C140.032 124.505 139.466 124.927 138.741 125.209C138.021 125.494 137.192 125.637 136.255 125.637ZM136.312 119.564C136.751 119.564 137.122 119.456 137.424 119.238C137.731 119.017 137.966 118.701 138.128 118.292C138.294 117.879 138.377 117.385 138.377 116.809C138.377 116.234 138.296 115.736 138.134 115.314C137.972 114.888 137.738 114.557 137.431 114.323C137.124 114.088 136.751 113.971 136.312 113.971C135.865 113.971 135.488 114.093 135.181 114.336C134.874 114.574 134.642 114.907 134.484 115.333C134.326 115.759 134.248 116.251 134.248 116.809C134.248 117.376 134.326 117.866 134.484 118.28C134.646 118.689 134.878 119.006 135.181 119.232C135.488 119.454 135.865 119.564 136.312 119.564ZM147.696 121.942C146.687 121.942 145.817 121.738 145.088 121.329C144.364 120.915 143.806 120.331 143.414 119.577C143.022 118.819 142.826 117.922 142.826 116.886C142.826 115.876 143.022 114.99 143.414 114.227C143.806 113.464 144.358 112.87 145.069 112.444C145.785 112.017 146.625 111.804 147.588 111.804C148.236 111.804 148.838 111.909 149.397 112.118C149.959 112.322 150.449 112.631 150.867 113.044C151.289 113.458 151.617 113.978 151.851 114.604C152.086 115.226 152.203 115.955 152.203 116.79L152.203 117.538L143.912 117.538L143.912 115.851L149.64 115.851C149.64 115.459 149.554 115.111 149.384 114.809C149.213 114.506 148.977 114.27 148.674 114.099C148.376 113.924 148.029 113.837 147.633 113.837C147.219 113.837 146.853 113.933 146.533 114.125C146.218 114.312 145.971 114.566 145.792 114.885C145.613 115.201 145.521 115.552 145.517 115.94L145.517 117.544C145.517 118.03 145.606 118.45 145.785 118.804C145.968 119.157 146.226 119.43 146.559 119.622C146.891 119.814 147.285 119.91 147.741 119.91C148.044 119.91 148.321 119.867 148.572 119.782C148.824 119.696 149.039 119.569 149.218 119.398C149.397 119.228 149.533 119.019 149.627 118.772L152.145 118.938C152.017 119.543 151.755 120.071 151.359 120.523C150.967 120.971 150.46 121.32 149.838 121.571C149.22 121.819 148.506 121.942 147.696 121.942ZM160.946 121.936C160.319 121.936 159.761 121.827 159.271 121.61C158.781 121.388 158.393 121.062 158.107 120.632C157.826 120.197 157.686 119.656 157.686 119.008C157.686 118.463 157.786 118.005 157.986 117.634C158.186 117.263 158.459 116.965 158.804 116.739C159.149 116.513 159.541 116.343 159.98 116.228C160.424 116.113 160.888 116.032 161.374 115.985C161.945 115.925 162.405 115.87 162.755 115.819C163.104 115.763 163.357 115.682 163.515 115.576C163.673 115.469 163.752 115.312 163.752 115.103L163.752 115.064C163.752 114.66 163.624 114.346 163.368 114.125C163.117 113.903 162.759 113.792 162.294 113.792C161.804 113.792 161.414 113.901 161.125 114.118C160.835 114.331 160.643 114.6 160.549 114.924L158.031 114.719C158.159 114.123 158.41 113.607 158.785 113.172C159.16 112.733 159.644 112.397 160.236 112.162C160.833 111.924 161.523 111.804 162.307 111.804C162.853 111.804 163.375 111.868 163.873 111.996C164.376 112.124 164.821 112.322 165.209 112.591C165.601 112.859 165.91 113.204 166.136 113.626C166.362 114.044 166.475 114.544 166.475 115.128L166.475 121.75L163.892 121.75L163.892 120.389L163.816 120.389C163.658 120.696 163.447 120.966 163.183 121.201C162.919 121.431 162.601 121.612 162.23 121.744C161.86 121.872 161.431 121.936 160.946 121.936ZM161.725 120.057C162.126 120.057 162.48 119.978 162.786 119.82C163.093 119.658 163.334 119.441 163.509 119.168C163.683 118.895 163.771 118.586 163.771 118.241L163.771 117.199C163.686 117.255 163.568 117.306 163.419 117.353C163.274 117.395 163.11 117.436 162.927 117.474C162.744 117.508 162.561 117.54 162.377 117.57C162.194 117.596 162.028 117.619 161.879 117.64C161.559 117.687 161.28 117.762 161.041 117.864C160.803 117.966 160.617 118.105 160.485 118.28C160.353 118.45 160.287 118.663 160.287 118.919C160.287 119.289 160.421 119.573 160.69 119.769C160.963 119.961 161.308 120.057 161.725 120.057ZM171.31 116.074L171.31 121.75L168.587 121.75L168.587 111.932L171.182 111.932L171.182 113.664L171.297 113.664C171.515 113.093 171.879 112.642 172.391 112.309C172.902 111.973 173.522 111.804 174.251 111.804C174.932 111.804 175.527 111.954 176.034 112.252C176.541 112.55 176.935 112.976 177.217 113.53C177.498 114.08 177.638 114.736 177.638 115.499L177.638 121.75L174.915 121.75L174.915 115.985C174.92 115.384 174.766 114.915 174.455 114.579C174.144 114.238 173.716 114.067 173.17 114.067C172.804 114.067 172.48 114.146 172.199 114.304C171.922 114.461 171.704 114.691 171.547 114.994C171.393 115.292 171.315 115.652 171.31 116.074ZM183.402 121.91C182.657 121.91 181.981 121.718 181.376 121.335C180.775 120.947 180.298 120.378 179.944 119.628C179.595 118.874 179.42 117.949 179.42 116.854C179.42 115.729 179.601 114.794 179.963 114.048C180.326 113.298 180.807 112.738 181.408 112.367C182.013 111.992 182.676 111.804 183.396 111.804C183.946 111.804 184.404 111.898 184.77 112.086C185.141 112.269 185.439 112.499 185.665 112.776C185.895 113.049 186.07 113.317 186.189 113.581L186.272 113.581L186.272 108.66L188.989 108.66L188.989 121.75L186.304 121.75L186.304 120.178L186.189 120.178C186.062 120.451 185.88 120.721 185.646 120.99C185.416 121.254 185.115 121.473 184.745 121.648C184.378 121.823 183.931 121.91 183.402 121.91ZM184.265 119.743C184.704 119.743 185.075 119.624 185.378 119.385C185.684 119.142 185.919 118.804 186.081 118.369C186.247 117.934 186.33 117.425 186.33 116.841C186.33 116.258 186.249 115.75 186.087 115.32C185.925 114.89 185.691 114.557 185.384 114.323C185.077 114.088 184.704 113.971 184.265 113.971C183.818 113.971 183.441 114.093 183.134 114.336C182.827 114.579 182.595 114.915 182.437 115.346C182.28 115.776 182.201 116.275 182.201 116.841C182.201 117.412 182.28 117.917 182.437 118.356C182.599 118.791 182.831 119.132 183.134 119.379C183.441 119.622 183.818 119.743 184.265 119.743ZM46.6126 143.75L46.6126 133.932L49.2078 133.932L49.2078 135.664L49.3229 135.664C49.5274 135.089 49.8683 134.635 50.3456 134.303C50.8229 133.971 51.3939 133.804 52.0587 133.804C52.732 133.804 53.3051 133.973 53.7781 134.309C54.2511 134.642 54.5665 135.093 54.7241 135.664L54.8264 135.664C55.0267 135.102 55.3889 134.652 55.9131 134.316C56.4415 133.975 57.0658 133.804 57.7859 133.804C58.7021 133.804 59.4457 134.096 60.0168 134.68C60.592 135.26 60.8797 136.082 60.8797 137.147L60.8797 143.75L58.1631 143.75L58.1631 137.684C58.1631 137.139 58.0182 136.73 57.7284 136.457C57.4386 136.184 57.0764 136.048 56.6418 136.048C56.1474 136.048 55.7618 136.206 55.4848 136.521C55.2078 136.832 55.0693 137.243 55.0693 137.755L55.0693 143.75L52.4294 143.75L52.4294 137.627C52.4294 137.145 52.2909 136.762 52.0139 136.476C51.7412 136.191 51.3811 136.048 50.9337 136.048C50.6311 136.048 50.3584 136.125 50.1155 136.278C49.8768 136.427 49.6872 136.638 49.5466 136.911C49.406 137.179 49.3357 137.495 49.3357 137.857L49.3357 143.75L46.6126 143.75ZM69.3268 139.57L69.3268 133.932L72.0498 133.932L72.0498 143.75L69.4354 143.75L69.4354 141.967L69.3332 141.967C69.1116 142.542 68.743 143.005 68.2273 143.354C67.716 143.704 67.0917 143.878 66.3545 143.878C65.6982 143.878 65.1208 143.729 64.6222 143.431C64.1237 143.133 63.7337 142.709 63.4525 142.159C63.1755 141.609 63.0349 140.951 63.0306 140.184L63.0306 133.932L65.7536 133.932L65.7536 139.698C65.7579 140.277 65.9134 140.736 66.2202 141.072C66.5271 141.409 66.9383 141.577 67.4539 141.577C67.782 141.577 68.0889 141.503 68.3744 141.353C68.6599 141.2 68.89 140.974 69.0647 140.676C69.2437 140.378 69.331 140.009 69.3268 139.57ZM76.9509 130.66L76.9509 143.75L74.2279 143.75L74.2279 130.66L76.9509 130.66ZM84.3545 133.932L84.3545 135.978L78.4418 135.978L78.4418 133.932L84.3545 133.932ZM79.7842 131.58L82.5072 131.58L82.5072 140.733C82.5072 140.985 82.5455 141.181 82.6222 141.321C82.6989 141.458 82.8055 141.554 82.9418 141.609C83.0825 141.664 83.2444 141.692 83.4276 141.692C83.5555 141.692 83.6833 141.682 83.8112 141.66C83.939 141.635 84.037 141.615 84.1052 141.603L84.5335 143.629C84.3971 143.672 84.2053 143.721 83.9582 143.776C83.711 143.836 83.4106 143.872 83.0569 143.885C82.4006 143.91 81.8254 143.823 81.331 143.623C80.841 143.422 80.4596 143.111 80.1869 142.689C79.9141 142.267 79.7799 141.735 79.7842 141.091L79.7842 131.58ZM86.1283 143.75L86.1283 133.932L88.8513 133.932L88.8513 143.75L86.1283 143.75ZM87.4962 132.667C87.0913 132.667 86.744 132.532 86.4543 132.264C86.1688 131.991 86.026 131.665 86.026 131.286C86.026 130.911 86.1688 130.589 86.4543 130.321C86.744 130.048 87.0913 129.912 87.4962 129.912C87.901 129.912 88.2462 130.048 88.5317 130.321C88.8215 130.589 88.9663 130.911 88.9663 131.286C88.9663 131.665 88.8215 131.991 88.5317 132.264C88.2462 132.532 87.901 132.667 87.4962 132.667ZM97.1498 137.294L97.1498 139.455L91.1796 139.455L91.1796 137.294L97.1498 137.294ZM99.4701 147.432L99.4701 133.932L102.155 133.932L102.155 135.581L102.276 135.581C102.395 135.317 102.568 135.049 102.794 134.776C103.024 134.499 103.322 134.269 103.689 134.086C104.06 133.898 104.52 133.804 105.069 133.804C105.785 133.804 106.446 133.992 107.051 134.367C107.656 134.738 108.14 135.298 108.502 136.048C108.864 136.794 109.045 137.729 109.045 138.854C109.045 139.949 108.869 140.874 108.515 141.628C108.165 142.378 107.688 142.947 107.083 143.335C106.482 143.718 105.809 143.91 105.063 143.91C104.535 143.91 104.085 143.823 103.714 143.648C103.348 143.473 103.047 143.254 102.813 142.99C102.579 142.721 102.4 142.451 102.276 142.178L102.193 142.178L102.193 147.432L99.4701 147.432ZM102.136 138.841C102.136 139.425 102.217 139.934 102.378 140.369C102.54 140.804 102.775 141.142 103.082 141.385C103.388 141.624 103.761 141.743 104.2 141.743C104.643 141.743 105.018 141.622 105.325 141.379C105.632 141.132 105.864 140.791 106.022 140.356C106.184 139.917 106.265 139.412 106.265 138.841C106.265 138.275 106.186 137.776 106.028 137.346C105.871 136.915 105.638 136.579 105.332 136.336C105.025 136.093 104.648 135.971 104.2 135.971C103.757 135.971 103.382 136.088 103.075 136.323C102.773 136.557 102.54 136.89 102.378 137.32C102.217 137.75 102.136 138.258 102.136 138.841ZM113.66 143.936C113.034 143.936 112.476 143.827 111.986 143.61C111.496 143.388 111.108 143.062 110.822 142.632C110.541 142.197 110.4 141.656 110.4 141.008C110.4 140.463 110.501 140.005 110.701 139.634C110.901 139.263 111.174 138.965 111.519 138.739C111.864 138.513 112.256 138.343 112.695 138.228C113.138 138.113 113.603 138.032 114.089 137.985C114.66 137.925 115.12 137.87 115.469 137.819C115.819 137.763 116.072 137.682 116.23 137.576C116.388 137.469 116.467 137.312 116.467 137.103L116.467 137.064C116.467 136.66 116.339 136.346 116.083 136.125C115.832 135.903 115.474 135.792 115.009 135.792C114.519 135.792 114.129 135.901 113.839 136.118C113.55 136.331 113.358 136.6 113.264 136.924L110.746 136.719C110.873 136.123 111.125 135.607 111.5 135.172C111.875 134.733 112.359 134.397 112.951 134.162C113.547 133.924 114.238 133.804 115.022 133.804C115.567 133.804 116.089 133.868 116.588 133.996C117.091 134.124 117.536 134.322 117.924 134.591C118.316 134.859 118.625 135.204 118.851 135.626C119.077 136.044 119.19 136.544 119.19 137.128L119.19 143.75L116.607 143.75L116.607 142.389L116.53 142.389C116.373 142.696 116.162 142.966 115.898 143.201C115.633 143.431 115.316 143.612 114.945 143.744C114.574 143.872 114.146 143.936 113.66 143.936ZM114.44 142.057C114.841 142.057 115.194 141.978 115.501 141.82C115.808 141.658 116.049 141.441 116.224 141.168C116.398 140.895 116.486 140.586 116.486 140.241L116.486 139.199C116.4 139.255 116.283 139.306 116.134 139.353C115.989 139.395 115.825 139.436 115.642 139.474C115.459 139.508 115.275 139.54 115.092 139.57C114.909 139.596 114.743 139.619 114.594 139.64C114.274 139.687 113.995 139.762 113.756 139.864C113.518 139.966 113.332 140.105 113.2 140.28C113.068 140.45 113.002 140.663 113.002 140.919C113.002 141.289 113.136 141.573 113.405 141.769C113.677 141.961 114.023 142.057 114.44 142.057ZM125.725 147.637C124.843 147.637 124.087 147.515 123.456 147.272C122.83 147.034 122.331 146.708 121.96 146.294C121.59 145.881 121.349 145.417 121.238 144.901L123.757 144.562C123.833 144.758 123.955 144.941 124.121 145.112C124.287 145.282 124.507 145.419 124.779 145.521C125.056 145.628 125.393 145.681 125.789 145.681C126.382 145.681 126.87 145.536 127.253 145.246C127.641 144.961 127.835 144.481 127.835 143.808L127.835 142.012L127.72 142.012C127.6 142.285 127.421 142.542 127.183 142.785C126.944 143.028 126.637 143.226 126.262 143.38C125.887 143.533 125.44 143.61 124.92 143.61C124.183 143.61 123.512 143.439 122.907 143.098C122.306 142.753 121.826 142.227 121.468 141.52C121.115 140.808 120.938 139.909 120.938 138.822C120.938 137.71 121.119 136.781 121.481 136.035C121.843 135.289 122.325 134.731 122.926 134.361C123.531 133.99 124.193 133.804 124.914 133.804C125.463 133.804 125.924 133.898 126.294 134.086C126.665 134.269 126.963 134.499 127.189 134.776C127.419 135.049 127.596 135.317 127.72 135.581L127.822 135.581L127.822 133.932L130.526 133.932L130.526 143.846C130.526 144.682 130.321 145.38 129.912 145.943C129.503 146.505 128.936 146.927 128.212 147.209C127.492 147.494 126.663 147.637 125.725 147.637ZM125.783 141.564C126.222 141.564 126.593 141.456 126.895 141.238C127.202 141.017 127.436 140.701 127.598 140.292C127.764 139.879 127.848 139.385 127.848 138.809C127.848 138.234 127.767 137.736 127.605 137.314C127.443 136.888 127.208 136.557 126.902 136.323C126.595 136.088 126.222 135.971 125.783 135.971C125.335 135.971 124.958 136.093 124.652 136.336C124.345 136.574 124.112 136.907 123.955 137.333C123.797 137.759 123.718 138.251 123.718 138.809C123.718 139.376 123.797 139.866 123.955 140.28C124.117 140.689 124.349 141.006 124.652 141.232C124.958 141.454 125.335 141.564 125.783 141.564ZM137.167 143.942C136.157 143.942 135.288 143.738 134.559 143.329C133.835 142.915 133.277 142.331 132.884 141.577C132.492 140.819 132.296 139.922 132.296 138.886C132.296 137.876 132.492 136.99 132.884 136.227C133.277 135.464 133.828 134.87 134.54 134.444C135.256 134.017 136.095 133.804 137.058 133.804C137.706 133.804 138.309 133.909 138.867 134.118C139.43 134.322 139.92 134.631 140.338 135.044C140.759 135.458 141.088 135.978 141.322 136.604C141.556 137.226 141.674 137.955 141.674 138.79L141.674 139.538L133.383 139.538L133.383 137.851L139.11 137.851C139.11 137.459 139.025 137.111 138.855 136.809C138.684 136.506 138.448 136.27 138.145 136.099C137.847 135.924 137.5 135.837 137.103 135.837C136.69 135.837 136.323 135.933 136.004 136.125C135.688 136.312 135.441 136.566 135.262 136.885C135.083 137.201 134.992 137.552 134.987 137.94L134.987 139.544C134.987 140.03 135.077 140.45 135.256 140.804C135.439 141.157 135.697 141.43 136.029 141.622C136.362 141.814 136.756 141.91 137.212 141.91C137.514 141.91 137.791 141.867 138.043 141.782C138.294 141.696 138.509 141.569 138.688 141.398C138.867 141.228 139.004 141.019 139.098 140.772L141.616 140.938C141.488 141.543 141.226 142.071 140.83 142.523C140.438 142.971 139.931 143.32 139.308 143.571C138.691 143.819 137.977 143.942 137.167 143.942ZM48.5494 165.75L45.8776 155.932L48.6325 155.932L50.1538 162.529L50.2433 162.529L51.8286 155.932L54.5324 155.932L56.1432 162.49L56.2263 162.49L57.722 155.932L60.4706 155.932L57.8051 165.75L54.9223 165.75L53.2348 159.576L53.1134 159.576L51.4259 165.75L48.5494 165.75ZM66.1515 165.942C65.1416 165.942 64.2723 165.738 63.5436 165.329C62.8191 164.915 62.2609 164.331 61.8689 163.577C61.4768 162.819 61.2808 161.922 61.2808 160.886C61.2808 159.876 61.4768 158.99 61.8689 158.227C62.2609 157.464 62.8128 156.87 63.5244 156.444C64.2403 156.017 65.0798 155.804 66.0429 155.804C66.6906 155.804 67.2936 155.909 67.8518 156.118C68.4143 156.322 68.9044 156.631 69.322 157.044C69.7439 157.458 70.072 157.978 70.3064 158.604C70.5407 159.226 70.6579 159.955 70.6579 160.79L70.6579 161.538L62.3674 161.538L62.3674 159.851L68.0947 159.851C68.0947 159.459 68.0095 159.111 67.839 158.809C67.6686 158.506 67.4321 158.27 67.1295 158.099C66.8312 157.924 66.4839 157.837 66.0876 157.837C65.6743 157.837 65.3078 157.933 64.9882 158.125C64.6728 158.312 64.4257 158.566 64.2467 158.885C64.0677 159.201 63.9761 159.552 63.9718 159.94L63.9718 161.544C63.9718 162.03 64.0613 162.45 64.2403 162.804C64.4235 163.157 64.6814 163.43 65.0137 163.622C65.3461 163.814 65.7403 163.91 66.1963 163.91C66.4988 163.91 66.7758 163.867 67.0272 163.782C67.2787 163.696 67.4939 163.569 67.6728 163.398C67.8518 163.228 67.9882 163.019 68.0819 162.772L70.6004 162.938C70.4726 163.543 70.2105 164.071 69.8142 164.523C69.4221 164.971 68.915 165.32 68.2929 165.571C67.675 165.819 66.9612 165.942 66.1515 165.942ZM72.486 165.75L72.486 152.66L75.2091 152.66L75.2091 157.581L75.2922 157.581C75.4115 157.317 75.5841 157.049 75.8099 156.776C76.04 156.499 76.3383 156.269 76.7048 156.086C77.0755 155.898 77.5358 155.804 78.0855 155.804C78.8014 155.804 79.4619 155.992 80.067 156.367C80.6721 156.738 81.1558 157.298 81.518 158.048C81.8802 158.794 82.0613 159.729 82.0613 160.854C82.0613 161.949 81.8845 162.874 81.5308 163.628C81.1814 164.378 80.7041 164.947 80.099 165.335C79.4981 165.718 78.8248 165.91 78.0791 165.91C77.5507 165.91 77.1011 165.823 76.7304 165.648C76.3639 165.473 76.0635 165.254 75.8291 164.99C75.5947 164.721 75.4157 164.451 75.2922 164.178L75.1707 164.178L75.1707 165.75L72.486 165.75ZM75.1515 160.841C75.1515 161.425 75.2325 161.934 75.3944 162.369C75.5564 162.804 75.7907 163.142 76.0976 163.385C76.4044 163.624 76.7772 163.743 77.2162 163.743C77.6593 163.743 78.0343 163.622 78.3412 163.379C78.648 163.132 78.8802 162.791 79.0379 162.356C79.1998 161.917 79.2808 161.412 79.2808 160.841C79.2808 160.275 79.202 159.776 79.0443 159.346C78.8866 158.915 78.6544 158.579 78.3476 158.336C78.0407 158.093 77.6636 157.971 77.2162 157.971C76.773 157.971 76.398 158.088 76.0912 158.323C75.7886 158.557 75.5564 158.89 75.3944 159.32C75.2325 159.75 75.1515 160.258 75.1515 160.841ZM92.0473 158.732L89.5544 158.885C89.5118 158.672 89.4202 158.481 89.2795 158.31C89.1389 158.135 88.9536 157.997 88.7234 157.895C88.4976 157.788 88.227 157.735 87.9116 157.735C87.4898 157.735 87.134 157.824 86.8442 158.003C86.5544 158.178 86.4095 158.412 86.4095 158.706C86.4095 158.941 86.5033 159.139 86.6908 159.301C86.8783 159.463 87.2 159.593 87.656 159.691L89.433 160.049C90.3875 160.245 91.0991 160.56 91.5679 160.995C92.0366 161.429 92.271 162 92.271 162.708C92.271 163.351 92.0814 163.916 91.7021 164.402C91.3271 164.888 90.8115 165.267 90.1553 165.539C89.5033 165.808 88.7511 165.942 87.8989 165.942C86.5991 165.942 85.5636 165.672 84.7923 165.13C84.0253 164.585 83.5757 163.843 83.4436 162.906L86.1219 162.765C86.2028 163.162 86.3989 163.464 86.7099 163.673C87.021 163.878 87.4195 163.98 87.9053 163.98C88.3825 163.98 88.7661 163.888 89.0558 163.705C89.3499 163.517 89.499 163.277 89.5033 162.983C89.499 162.736 89.3946 162.533 89.1901 162.375C88.9855 162.213 88.6702 162.09 88.244 162.005L86.5438 161.666C85.5849 161.474 84.8712 161.142 84.4024 160.669C83.9379 160.196 83.7057 159.593 83.7057 158.86C83.7057 158.229 83.8761 157.686 84.217 157.23C84.5622 156.774 85.0459 156.422 85.668 156.175C86.2945 155.928 87.0274 155.804 87.8669 155.804C89.107 155.804 90.0828 156.066 90.7945 156.591C91.5104 157.115 91.928 157.829 92.0473 158.732ZM93.9857 165.75L93.9857 155.932L96.7087 155.932L96.7087 165.75L93.9857 165.75ZM95.3536 154.667C94.9488 154.667 94.6015 154.532 94.3117 154.264C94.0262 153.991 93.8834 153.665 93.8834 153.286C93.8834 152.911 94.0262 152.589 94.3117 152.321C94.6015 152.048 94.9488 151.912 95.3536 151.912C95.7584 151.912 96.1036 152.048 96.3891 152.321C96.6789 152.589 96.8238 152.911 96.8238 153.286C96.8238 153.665 96.6789 153.991 96.3891 154.264C96.1036 154.532 95.7584 154.667 95.3536 154.667ZM104.112 155.932L104.112 157.978L98.1996 157.978L98.1996 155.932L104.112 155.932ZM99.542 153.58L102.265 153.58L102.265 162.733C102.265 162.985 102.303 163.181 102.38 163.321C102.457 163.458 102.563 163.554 102.7 163.609C102.84 163.664 103.002 163.692 103.185 163.692C103.313 163.692 103.441 163.682 103.569 163.66C103.697 163.635 103.795 163.615 103.863 163.603L104.291 165.629C104.155 165.672 103.963 165.721 103.716 165.776C103.469 165.836 103.168 165.872 102.815 165.885C102.158 165.91 101.583 165.823 101.089 165.623C100.599 165.422 100.217 165.111 99.9447 164.689C99.6719 164.267 99.5377 163.735 99.542 163.091L99.542 153.58ZM110.255 165.942C109.245 165.942 108.376 165.738 107.647 165.329C106.923 164.915 106.364 164.331 105.972 163.577C105.58 162.819 105.384 161.922 105.384 160.886C105.384 159.876 105.58 158.99 105.972 158.227C106.364 157.464 106.916 156.87 107.628 156.444C108.344 156.017 109.183 155.804 110.146 155.804C110.794 155.804 111.397 155.909 111.955 156.118C112.518 156.322 113.008 156.631 113.425 157.044C113.847 157.458 114.175 157.978 114.41 158.604C114.644 159.226 114.761 159.955 114.761 160.79L114.761 161.538L106.471 161.538L106.471 159.851L112.198 159.851C112.198 159.459 112.113 159.111 111.943 158.809C111.772 158.506 111.536 158.27 111.233 158.099C110.935 157.924 110.587 157.837 110.191 157.837C109.778 157.837 109.411 157.933 109.092 158.125C108.776 158.312 108.529 158.566 108.35 158.885C108.171 159.201 108.08 159.552 108.075 159.94L108.075 161.544C108.075 162.03 108.165 162.45 108.344 162.804C108.527 163.157 108.785 163.43 109.117 163.622C109.45 163.814 109.844 163.91 110.3 163.91C110.602 163.91 110.879 163.867 111.131 163.782C111.382 163.696 111.597 163.569 111.776 163.398C111.955 163.228 112.092 163.019 112.185 162.772L114.704 162.938C114.576 163.543 114.314 164.071 113.918 164.523C113.526 164.971 113.019 165.32 112.396 165.571C111.778 165.819 111.065 165.942 110.255 165.942ZM124.707 158.732L122.215 158.885C122.172 158.672 122.08 158.481 121.94 158.31C121.799 158.135 121.614 157.997 121.384 157.895C121.158 157.788 120.887 157.735 120.572 157.735C120.15 157.735 119.794 157.824 119.504 158.003C119.215 158.178 119.07 158.412 119.07 158.706C119.07 158.941 119.163 159.139 119.351 159.301C119.538 159.463 119.86 159.593 120.316 159.691L122.093 160.049C123.048 160.245 123.759 160.56 124.228 160.995C124.697 161.429 124.931 162 124.931 162.708C124.931 163.351 124.742 163.916 124.362 164.402C123.987 164.888 123.472 165.267 122.815 165.539C122.163 165.808 121.411 165.942 120.559 165.942C119.259 165.942 118.224 165.672 117.452 165.13C116.685 164.585 116.236 163.843 116.104 162.906L118.782 162.765C118.863 163.162 119.059 163.464 119.37 163.673C119.681 163.878 120.08 163.98 120.565 163.98C121.043 163.98 121.426 163.888 121.716 163.705C122.01 163.517 122.159 163.277 122.163 162.983C122.159 162.736 122.055 162.533 121.85 162.375C121.646 162.213 121.33 162.09 120.904 162.005L119.204 161.666C118.245 161.474 117.531 161.142 117.063 160.669C116.598 160.196 116.366 159.593 116.366 158.86C116.366 158.229 116.536 157.686 116.877 157.23C117.222 156.774 117.706 156.422 118.328 156.175C118.955 155.928 119.688 155.804 120.527 155.804C121.767 155.804 122.743 156.066 123.455 156.591C124.171 157.115 124.588 157.829 124.707 158.732Z" fill="white"/>
<path d="M53.679 58.4327C52.131 58.4327 50.745 58.0547 49.521 57.2987C48.297 56.5247 47.334 55.4087 46.632 53.9507C45.93 52.4927 45.579 50.7287 45.579 48.6587C45.579 46.5887 45.93 44.8247 46.632 43.3667C47.334 41.9087 48.297 40.8017 49.521 40.0457C50.745 39.2717 52.131 38.8847 53.679 38.8847C55.245 38.8847 56.631 39.2717 57.837 40.0457C59.061 40.8017 60.024 41.9087 60.726 43.3667C61.428 44.8247 61.779 46.5887 61.779 48.6587C61.779 50.7287 61.428 52.4927 60.726 53.9507C60.024 55.4087 59.061 56.5247 57.837 57.2987C56.631 58.0547 55.245 58.4327 53.679 58.4327ZM53.679 54.7337C54.417 54.7337 55.056 54.5267 55.596 54.1127C56.154 53.6987 56.586 53.0417 56.892 52.1417C57.216 51.2417 57.378 50.0807 57.378 48.6587C57.378 47.2367 57.216 46.0757 56.892 45.1757C56.586 44.2757 56.154 43.6187 55.596 43.2047C55.056 42.7907 54.417 42.5837 53.679 42.5837C52.959 42.5837 52.32 42.7907 51.762 43.2047C51.222 43.6187 50.79 44.2757 50.466 45.1757C50.16 46.0757 50.007 47.2367 50.007 48.6587C50.007 50.0807 50.16 51.2417 50.466 52.1417C50.79 53.0417 51.222 53.6987 51.762 54.1127C52.32 54.5267 52.959 54.7337 53.679 54.7337ZM66.7147 58.1087L66.7147 40.8287L68.6047 42.7187L62.9347 42.7187L62.9347 39.2087L71.0887 39.2087L71.0887 58.1087L66.7147 58.1087Z" fill="white"/>
</svg>
