<svg width="266" height="249" viewBox="0 0 266 249" fill="none" xmlns="http://www.w3.org/2000/svg">
<path d="M10.945 8.21514L11.8495 230.305C11.8877 239.693 19.5299 247.284 28.9187 247.259L240.1 246.69C249.488 246.665 257.069 239.033 257.03 229.644L256.896 196.685" stroke="white" stroke-width="3"/>
<path d="M253.391 196.459C255.388 194.268 258.914 194.537 260.564 197.004C262.59 200.035 260.43 204.097 256.786 204.107C252.81 204.118 250.713 199.395 253.391 196.459Z" fill="white" stroke="white" stroke-width="3"/>
<path d="M7.04948 4.99082C9.04718 2.80035 12.573 3.0685 14.2227 5.53639C16.2488 8.56716 14.0883 12.6292 10.445 12.639C6.46867 12.6497 4.37187 7.92683 7.04948 4.99082Z" fill="white" stroke="white" stroke-width="3"/>
<rect width="212.682" height="200.622" rx="14" transform="matrix(0.999997 0.00247331 0.00247331 -0.999997 27.9317 231.996)" fill="white" fill-opacity="0.53"/>
<rect x="0.501235" y="-0.498762" width="211.682" height="199.622" rx="13.5" transform="matrix(0.999997 0.00247331 0.00247331 -0.999997 27.9329 230.997)" stroke="black" stroke-opacity="0.58"/>
<path d="M46.0861 137.496L46.0861 124.405L51.3275 124.405C52.2906 124.405 53.0939 124.548 53.7373 124.834C54.3808 125.119 54.8645 125.515 55.1883 126.023C55.5122 126.525 55.6741 127.105 55.6741 127.761C55.6741 128.273 55.5719 128.722 55.3673 129.11C55.1628 129.493 54.8815 129.809 54.5236 130.056C54.1699 130.299 53.765 130.471 53.3091 130.574L53.3091 130.701C53.8076 130.723 54.2743 130.863 54.7089 131.123C55.1478 131.383 55.5037 131.748 55.7764 132.216C56.0491 132.681 56.1855 133.235 56.1855 133.878C56.1855 134.573 56.0129 135.193 55.6677 135.738C55.3268 136.28 54.8219 136.708 54.1528 137.023C53.4838 137.339 52.6592 137.496 51.6791 137.496L46.0861 137.496ZM48.8538 135.233L51.1102 135.233C51.8815 135.233 52.444 135.086 52.7977 134.792C53.1514 134.494 53.3282 134.098 53.3282 133.603C53.3282 133.241 53.2409 132.922 53.0662 132.645C52.8915 132.368 52.6422 132.15 52.3183 131.993C51.9987 131.835 51.6173 131.756 51.1741 131.756L48.8538 131.756L48.8538 135.233ZM48.8538 129.883L50.9057 129.883C51.2849 129.883 51.6216 129.817 51.9156 129.685C52.2139 129.549 52.4483 129.357 52.6187 129.11C52.7934 128.863 52.8808 128.567 52.8808 128.221C52.8808 127.748 52.7125 127.367 52.3758 127.077C52.0434 126.787 51.5704 126.643 50.9568 126.643L48.8538 126.643L48.8538 129.883ZM64.2315 133.316L64.2315 127.678L66.9545 127.678L66.9545 137.496L64.3401 137.496L64.3401 135.713L64.2379 135.713C64.0163 136.288 63.6477 136.751 63.132 137.1C62.6207 137.449 61.9964 137.624 61.2592 137.624C60.6029 137.624 60.0255 137.475 59.5269 137.177C59.0284 136.878 58.6384 136.454 58.3572 135.905C58.0802 135.355 57.9396 134.697 57.9353 133.929L57.9353 127.678L60.6583 127.678L60.6583 133.444C60.6626 134.023 60.8181 134.481 61.1249 134.818C61.4318 135.155 61.843 135.323 62.3586 135.323C62.6867 135.323 62.9935 135.248 63.2791 135.099C63.5646 134.946 63.7947 134.72 63.9694 134.422C64.1484 134.123 64.2357 133.755 64.2315 133.316ZM77.3016 130.478L74.8087 130.631C74.7661 130.418 74.6745 130.226 74.5339 130.056C74.3932 129.881 74.2079 129.743 73.9777 129.64C73.7519 129.534 73.4813 129.481 73.166 129.481C72.7441 129.481 72.3883 129.57 72.0985 129.749C71.8087 129.924 71.6638 130.158 71.6638 130.452C71.6638 130.687 71.7576 130.885 71.9451 131.047C72.1326 131.209 72.4543 131.339 72.9103 131.437L74.6873 131.795C75.6418 131.991 76.3535 132.306 76.8222 132.741C77.291 133.175 77.5253 133.746 77.5253 134.454C77.5253 135.097 77.3357 135.662 76.9564 136.148C76.5814 136.633 76.0658 137.013 75.4096 137.285C74.7576 137.554 74.0054 137.688 73.1532 137.688C71.8535 137.688 70.8179 137.417 70.0466 136.876C69.2796 136.331 68.83 135.589 68.6979 134.652L71.3762 134.511C71.4572 134.907 71.6532 135.21 71.9643 135.419C72.2753 135.623 72.6738 135.726 73.1596 135.726C73.6368 135.726 74.0204 135.634 74.3101 135.451C74.6042 135.263 74.7533 135.023 74.7576 134.728C74.7533 134.481 74.6489 134.279 74.4444 134.121C74.2398 133.959 73.9245 133.836 73.4983 133.751L71.7981 133.412C70.8393 133.22 70.1255 132.888 69.6567 132.415C69.1922 131.942 68.96 131.339 68.96 130.606C68.96 129.975 69.1304 129.432 69.4714 128.976C69.8165 128.52 70.3002 128.168 70.9223 127.921C71.5488 127.674 72.2817 127.55 73.1212 127.55C74.3613 127.55 75.3371 127.812 76.0488 128.336C76.7647 128.861 77.1823 129.574 77.3016 130.478ZM79.24 137.496L79.24 127.678L81.963 127.678L81.963 137.496L79.24 137.496ZM80.6079 126.412C80.2031 126.412 79.8558 126.278 79.566 126.01C79.2805 125.737 79.1377 125.411 79.1377 125.032C79.1377 124.657 79.2805 124.335 79.566 124.067C79.8558 123.794 80.2031 123.657 80.6079 123.657C81.0127 123.657 81.3579 123.794 81.6434 124.067C81.9332 124.335 82.0781 124.657 82.0781 125.032C82.0781 125.411 81.9332 125.737 81.6434 126.01C81.3579 126.278 81.0127 126.412 80.6079 126.412ZM86.8673 131.82L86.8673 137.496L84.1443 137.496L84.1443 127.678L86.7395 127.678L86.7395 129.41L86.8545 129.41C87.0719 128.839 87.4362 128.388 87.9476 128.055C88.4589 127.719 89.079 127.55 89.8076 127.55C90.4895 127.55 91.0839 127.699 91.591 127.998C92.0981 128.296 92.4923 128.722 92.7736 129.276C93.0548 129.826 93.1954 130.482 93.1954 131.245L93.1954 137.496L90.4724 137.496L90.4724 131.731C90.4767 131.13 90.3233 130.661 90.0122 130.324C89.7011 129.983 89.2728 129.813 88.7274 129.813C88.3609 129.813 88.0371 129.892 87.7558 130.05C87.4788 130.207 87.2615 130.437 87.1038 130.74C86.9504 131.038 86.8716 131.398 86.8673 131.82ZM99.816 137.688C98.806 137.688 97.9367 137.483 97.208 137.074C96.4836 136.661 95.9254 136.077 95.5333 135.323C95.1413 134.564 94.9453 133.667 94.9453 132.632C94.9453 131.622 95.1413 130.736 95.5333 129.973C95.9254 129.21 96.4772 128.616 97.1889 128.189C97.9048 127.763 98.7443 127.55 99.7073 127.55C100.355 127.55 100.958 127.655 101.516 127.863C102.079 128.068 102.569 128.377 102.986 128.79C103.408 129.204 103.736 129.724 103.971 130.35C104.205 130.972 104.322 131.701 104.322 132.536L104.322 133.284L96.0319 133.284L96.0319 131.596L101.759 131.596C101.759 131.204 101.674 130.857 101.503 130.554C101.333 130.252 101.097 130.015 100.794 129.845C100.496 129.67 100.148 129.583 99.7521 129.583C99.3387 129.583 98.9722 129.679 98.6526 129.871C98.3373 130.058 98.0901 130.312 97.9112 130.631C97.7322 130.947 97.6406 131.298 97.6363 131.686L97.6363 133.29C97.6363 133.776 97.7258 134.196 97.9048 134.55C98.088 134.903 98.3458 135.176 98.6782 135.368C99.0106 135.559 99.4048 135.655 99.8607 135.655C100.163 135.655 100.44 135.613 100.692 135.527C100.943 135.442 101.158 135.314 101.337 135.144C101.516 134.974 101.653 134.765 101.746 134.518L104.265 134.684C104.137 135.289 103.875 135.817 103.479 136.269C103.087 136.716 102.579 137.066 101.957 137.317C101.339 137.564 100.626 137.688 99.816 137.688ZM114.268 130.478L111.776 130.631C111.733 130.418 111.641 130.226 111.501 130.056C111.36 129.881 111.175 129.743 110.945 129.64C110.719 129.534 110.448 129.481 110.133 129.481C109.711 129.481 109.355 129.57 109.065 129.749C108.776 129.924 108.631 130.158 108.631 130.452C108.631 130.687 108.724 130.885 108.912 131.047C109.099 131.209 109.421 131.339 109.877 131.437L111.654 131.795C112.609 131.991 113.32 132.306 113.789 132.741C114.258 133.175 114.492 133.746 114.492 134.454C114.492 135.097 114.302 135.662 113.923 136.148C113.548 136.633 113.033 137.013 112.376 137.285C111.724 137.554 110.972 137.688 110.12 137.688C108.82 137.688 107.785 137.417 107.013 136.876C106.246 136.331 105.797 135.589 105.665 134.652L108.343 134.511C108.424 134.907 108.62 135.21 108.931 135.419C109.242 135.623 109.641 135.726 110.126 135.726C110.604 135.726 110.987 135.634 111.277 135.451C111.571 135.263 111.72 135.023 111.724 134.728C111.72 134.481 111.616 134.279 111.411 134.121C111.207 133.959 110.891 133.836 110.465 133.751L108.765 133.412C107.806 133.22 107.092 132.888 106.624 132.415C106.159 131.942 105.927 131.339 105.927 130.606C105.927 129.975 106.097 129.432 106.438 128.976C106.783 128.52 107.267 128.168 107.889 127.921C108.516 127.674 109.249 127.55 110.088 127.55C111.328 127.55 112.304 127.812 113.016 128.336C113.731 128.861 114.149 129.574 114.268 130.478ZM124.376 130.478L121.883 130.631C121.84 130.418 121.749 130.226 121.608 130.056C121.467 129.881 121.282 129.743 121.052 129.64C120.826 129.534 120.556 129.481 120.24 129.481C119.818 129.481 119.462 129.57 119.173 129.749C118.883 129.924 118.738 130.158 118.738 130.452C118.738 130.687 118.832 130.885 119.019 131.047C119.207 131.209 119.529 131.339 119.984 131.437L121.761 131.795C122.716 131.991 123.428 132.306 123.896 132.741C124.365 133.175 124.6 133.746 124.6 134.454C124.6 135.097 124.41 135.662 124.031 136.148C123.656 136.633 123.14 137.013 122.484 137.285C121.832 137.554 121.08 137.688 120.227 137.688C118.928 137.688 117.892 137.417 117.121 136.876C116.354 136.331 115.904 135.589 115.772 134.652L118.45 134.511C118.531 134.907 118.727 135.21 119.038 135.419C119.35 135.623 119.748 135.726 120.234 135.726C120.711 135.726 121.095 135.634 121.384 135.451C121.678 135.263 121.828 135.023 121.832 134.728C121.828 134.481 121.723 134.279 121.519 134.121C121.314 133.959 120.999 133.836 120.573 133.751L118.872 133.412C117.913 133.22 117.2 132.888 116.731 132.415C116.266 131.942 116.034 131.339 116.034 130.606C116.034 129.975 116.205 129.432 116.546 128.976C116.891 128.52 117.374 128.168 117.997 127.921C118.623 127.674 119.356 127.55 120.195 127.55C121.435 127.55 122.411 127.812 123.123 128.336C123.839 128.861 124.257 129.574 124.376 130.478ZM133.28 137.682C132.654 137.682 132.095 137.573 131.605 137.356C131.115 137.134 130.727 136.808 130.442 136.378C130.161 135.943 130.02 135.402 130.02 134.754C130.02 134.209 130.12 133.751 130.32 133.38C130.521 133.009 130.793 132.711 131.139 132.485C131.484 132.259 131.876 132.089 132.315 131.974C132.758 131.858 133.222 131.777 133.708 131.731C134.279 131.671 134.739 131.616 135.089 131.564C135.438 131.509 135.692 131.428 135.85 131.322C136.007 131.215 136.086 131.057 136.086 130.849L136.086 130.81C136.086 130.405 135.958 130.092 135.703 129.871C135.451 129.649 135.093 129.538 134.629 129.538C134.139 129.538 133.749 129.647 133.459 129.864C133.169 130.077 132.977 130.346 132.884 130.67L130.365 130.465C130.493 129.868 130.744 129.353 131.119 128.918C131.494 128.479 131.978 128.143 132.57 127.908C133.167 127.67 133.857 127.55 134.641 127.55C135.187 127.55 135.709 127.614 136.208 127.742C136.71 127.87 137.156 128.068 137.543 128.336C137.935 128.605 138.244 128.95 138.47 129.372C138.696 129.79 138.809 130.29 138.809 130.874L138.809 137.496L136.227 137.496L136.227 136.135L136.15 136.135C135.992 136.442 135.781 136.712 135.517 136.947C135.253 137.177 134.935 137.358 134.565 137.49C134.194 137.618 133.766 137.682 133.28 137.682ZM134.06 135.802C134.46 135.802 134.814 135.724 135.121 135.566C135.428 135.404 135.668 135.187 135.843 134.914C136.018 134.641 136.105 134.332 136.105 133.987L136.105 132.945C136.02 133.001 135.903 133.052 135.754 133.099C135.609 133.141 135.445 133.182 135.261 133.22C135.078 133.254 134.895 133.286 134.712 133.316C134.529 133.341 134.362 133.365 134.213 133.386C133.894 133.433 133.614 133.508 133.376 133.61C133.137 133.712 132.952 133.851 132.82 134.025C132.688 134.196 132.622 134.409 132.622 134.665C132.622 135.035 132.756 135.319 133.024 135.515C133.297 135.706 133.642 135.802 134.06 135.802ZM143.645 131.82L143.645 137.496L140.922 137.496L140.922 127.678L143.517 127.678L143.517 129.41L143.632 129.41C143.849 128.839 144.214 128.388 144.725 128.055C145.236 127.719 145.856 127.55 146.585 127.55C147.267 127.55 147.861 127.699 148.368 127.998C148.875 128.296 149.27 128.722 149.551 129.276C149.832 129.826 149.973 130.482 149.973 131.245L149.973 137.496L147.25 137.496L147.25 131.731C147.254 131.13 147.101 130.661 146.79 130.324C146.478 129.983 146.05 129.813 145.505 129.813C145.138 129.813 144.814 129.892 144.533 130.05C144.256 130.207 144.039 130.437 143.881 130.74C143.728 131.038 143.649 131.398 143.645 131.82ZM155.737 137.656C154.991 137.656 154.316 137.464 153.711 137.081C153.11 136.693 152.632 136.124 152.279 135.374C151.929 134.62 151.755 133.695 151.755 132.6C151.755 131.475 151.936 130.54 152.298 129.794C152.66 129.044 153.142 128.483 153.742 128.113C154.348 127.738 155.01 127.55 155.73 127.55C156.28 127.55 156.738 127.644 157.105 127.831C157.475 128.015 157.774 128.245 158 128.522C158.23 128.795 158.404 129.063 158.524 129.327L158.607 129.327L158.607 124.405L161.323 124.405L161.323 137.496L158.639 137.496L158.639 135.924L158.524 135.924C158.396 136.197 158.215 136.467 157.98 136.736C157.75 137 157.45 137.219 157.079 137.394C156.713 137.569 156.265 137.656 155.737 137.656ZM156.6 135.489C157.039 135.489 157.409 135.37 157.712 135.131C158.019 134.888 158.253 134.55 158.415 134.115C158.581 133.68 158.664 133.171 158.664 132.587C158.664 132.003 158.583 131.496 158.421 131.066C158.26 130.635 158.025 130.303 157.718 130.069C157.412 129.834 157.039 129.717 156.6 129.717C156.152 129.717 155.775 129.839 155.468 130.081C155.162 130.324 154.929 130.661 154.772 131.091C154.614 131.522 154.535 132.02 154.535 132.587C154.535 133.158 154.614 133.663 154.772 134.102C154.934 134.537 155.166 134.878 155.468 135.125C155.775 135.368 156.152 135.489 156.6 135.489ZM46.0349 163.178L46.0349 149.678L48.7196 149.678L48.7196 151.327L48.841 151.327C48.9603 151.063 49.1329 150.795 49.3588 150.522C49.5889 150.245 49.8872 150.015 50.2537 149.831C50.6244 149.644 51.0846 149.55 51.6344 149.55C52.3503 149.55 53.0108 149.738 53.6159 150.113C54.221 150.483 54.7047 151.044 55.0669 151.794C55.4291 152.54 55.6102 153.475 55.6102 154.6C55.6102 155.695 55.4334 156.62 55.0797 157.374C54.7302 158.124 54.253 158.693 53.6478 159.081C53.047 159.464 52.3737 159.656 51.628 159.656C51.0996 159.656 50.65 159.569 50.2792 159.394C49.9128 159.219 49.6123 159 49.378 158.736C49.1436 158.467 48.9646 158.197 48.841 157.924L48.7579 157.924L48.7579 163.178L46.0349 163.178ZM48.7004 154.587C48.7004 155.171 48.7814 155.68 48.9433 156.115C49.1052 156.55 49.3396 156.888 49.6464 157.131C49.9532 157.37 50.3261 157.489 50.765 157.489C51.2082 157.489 51.5832 157.368 51.89 157.125C52.1969 156.878 52.4291 156.537 52.5868 156.102C52.7487 155.663 52.8297 155.158 52.8297 154.587C52.8297 154.02 52.7508 153.522 52.5932 153.091C52.4355 152.661 52.2032 152.324 51.8964 152.081C51.5896 151.839 51.2125 151.717 50.765 151.717C50.3219 151.717 49.9469 151.834 49.64 152.069C49.3375 152.303 49.1052 152.635 48.9433 153.066C48.7814 153.496 48.7004 154.003 48.7004 154.587ZM61.8616 159.688C60.8687 159.688 60.0101 159.477 59.2856 159.055C58.5655 158.629 58.0094 158.037 57.6173 157.278C57.2253 156.515 57.0292 155.631 57.0292 154.626C57.0292 153.611 57.2253 152.725 57.6173 151.966C58.0094 151.204 58.5655 150.611 59.2856 150.189C60.0101 149.763 60.8687 149.55 61.8616 149.55C62.8545 149.55 63.7111 149.763 64.4312 150.189C65.1557 150.611 65.7139 151.204 66.1059 151.966C66.498 152.725 66.694 153.611 66.694 154.626C66.694 155.631 66.498 156.515 66.1059 157.278C65.7139 158.037 65.1557 158.629 64.4312 159.055C63.7111 159.477 62.8545 159.688 61.8616 159.688ZM61.8744 157.579C62.3261 157.579 62.7032 157.451 63.0058 157.195C63.3084 156.935 63.5363 156.581 63.6897 156.134C63.8474 155.687 63.9263 155.177 63.9263 154.606C63.9263 154.035 63.8474 153.526 63.6897 153.079C63.5363 152.631 63.3084 152.277 63.0058 152.018C62.7032 151.758 62.3261 151.628 61.8744 151.628C61.4184 151.628 61.0349 151.758 60.7238 152.018C60.417 152.277 60.1848 152.631 60.0271 153.079C59.8737 153.526 59.797 154.035 59.797 154.606C59.797 155.177 59.8737 155.687 60.0271 156.134C60.1848 156.581 60.417 156.935 60.7238 157.195C61.0349 157.451 61.4184 157.579 61.8744 157.579ZM68.4646 159.496L68.4646 149.678L71.1045 149.678L71.1045 151.391L71.2068 151.391C71.3858 150.782 71.6862 150.322 72.1081 150.01C72.5299 149.695 73.0157 149.537 73.5655 149.537C73.7018 149.537 73.8488 149.546 74.0065 149.563C74.1642 149.58 74.3027 149.603 74.422 149.633L74.422 152.05C74.2942 152.011 74.1173 151.977 73.8915 151.947C73.6656 151.917 73.4589 151.902 73.2714 151.902C72.8709 151.902 72.5129 151.99 72.1976 152.165C71.8865 152.335 71.6393 152.574 71.4561 152.88C71.2771 153.187 71.1876 153.541 71.1876 153.942L71.1876 159.496L68.4646 159.496ZM81.5443 149.678L81.5443 151.724L75.6317 151.724L75.6317 149.678L81.5443 149.678ZM76.974 147.326L79.697 147.326L79.697 156.479C79.697 156.731 79.7354 156.927 79.8121 157.067C79.8888 157.204 79.9953 157.3 80.1317 157.355C80.2723 157.41 80.4342 157.438 80.6175 157.438C80.7453 157.438 80.8732 157.427 81.001 157.406C81.1288 157.38 81.2269 157.361 81.295 157.349L81.7233 159.375C81.5869 159.417 81.3952 159.466 81.148 159.522C80.9009 159.581 80.6004 159.618 80.2467 159.63C79.5905 159.656 79.0152 159.569 78.5209 159.368C78.0308 159.168 77.6494 158.857 77.3767 158.435C77.104 158.013 76.9698 157.481 76.974 156.837L76.974 147.326ZM88.598 149.678L88.598 151.724L82.5383 151.724L82.5383 149.678L88.598 149.678ZM83.9254 159.496L83.9254 148.969C83.9254 148.257 84.0639 147.667 84.3409 147.198C84.6221 146.729 85.0056 146.378 85.4914 146.143C85.9772 145.909 86.5291 145.792 87.147 145.792C87.5646 145.792 87.946 145.824 88.2911 145.888C88.6406 145.951 88.9005 146.009 89.071 146.06L88.5852 148.106C88.4786 148.072 88.3465 148.04 88.1889 148.01C88.0355 147.98 87.8778 147.965 87.7159 147.965C87.3153 147.965 87.0362 148.059 86.8785 148.246C86.7208 148.429 86.642 148.687 86.642 149.02L86.642 159.496L83.9254 159.496ZM94.346 159.688C93.3531 159.688 92.4944 159.477 91.77 159.055C91.0498 158.629 90.4937 158.037 90.1017 157.278C89.7096 156.515 89.5136 155.631 89.5136 154.626C89.5136 153.611 89.7096 152.725 90.1017 151.966C90.4937 151.204 91.0498 150.611 91.77 150.189C92.4944 149.763 93.3531 149.55 94.346 149.55C95.3389 149.55 96.1954 149.763 96.9156 150.189C97.64 150.611 98.1983 151.204 98.5903 151.966C98.9824 152.725 99.1784 153.611 99.1784 154.626C99.1784 155.631 98.9824 156.515 98.5903 157.278C98.1983 158.037 97.64 158.629 96.9156 159.055C96.1954 159.477 95.3389 159.688 94.346 159.688ZM94.3588 157.579C94.8105 157.579 95.1876 157.451 95.4902 157.195C95.7927 156.935 96.0207 156.581 96.1741 156.134C96.3318 155.687 96.4106 155.177 96.4106 154.606C96.4106 154.035 96.3318 153.526 96.1741 153.079C96.0207 152.631 95.7927 152.277 95.4902 152.018C95.1876 151.758 94.8105 151.628 94.3588 151.628C93.9028 151.628 93.5193 151.758 93.2082 152.018C92.9014 152.277 92.6692 152.631 92.5115 153.079C92.3581 153.526 92.2814 154.035 92.2814 154.606C92.2814 155.177 92.3581 155.687 92.5115 156.134C92.6692 156.581 92.9014 156.935 93.2082 157.195C93.5193 157.451 93.9028 157.579 94.3588 157.579ZM103.672 146.405L103.672 159.496L100.949 159.496L100.949 146.405L103.672 146.405ZM105.853 159.496L105.853 149.678L108.576 149.678L108.576 159.496L105.853 159.496ZM107.221 148.412C106.816 148.412 106.469 148.278 106.179 148.01C105.894 147.737 105.751 147.411 105.751 147.032C105.751 146.657 105.894 146.335 106.179 146.067C106.469 145.794 106.816 145.657 107.221 145.657C107.626 145.657 107.971 145.794 108.257 146.067C108.546 146.335 108.691 146.657 108.691 147.032C108.691 147.411 108.546 147.737 108.257 148.01C107.971 148.278 107.626 148.412 107.221 148.412ZM115.194 159.688C114.201 159.688 113.342 159.477 112.618 159.055C111.897 158.629 111.341 158.037 110.949 157.278C110.557 156.515 110.361 155.631 110.361 154.626C110.361 153.611 110.557 152.725 110.949 151.966C111.341 151.204 111.897 150.611 112.618 150.189C113.342 149.763 114.201 149.55 115.194 149.55C116.187 149.55 117.043 149.763 117.763 150.189C118.488 150.611 119.046 151.204 119.438 151.966C119.83 152.725 120.026 153.611 120.026 154.626C120.026 155.631 119.83 156.515 119.438 157.278C119.046 158.037 118.488 158.629 117.763 159.055C117.043 159.477 116.187 159.688 115.194 159.688ZM115.206 157.579C115.658 157.579 116.035 157.451 116.338 157.195C116.64 156.935 116.868 156.581 117.022 156.134C117.179 155.687 117.258 155.177 117.258 154.606C117.258 154.035 117.179 153.526 117.022 153.079C116.868 152.631 116.64 152.277 116.338 152.018C116.035 151.758 115.658 151.628 115.206 151.628C114.75 151.628 114.367 151.758 114.056 152.018C113.749 152.277 113.517 152.631 113.359 153.079C113.206 153.526 113.129 154.035 113.129 154.606C113.129 155.177 113.206 155.687 113.359 156.134C113.517 156.581 113.749 156.935 114.056 157.195C114.367 157.451 114.75 157.579 115.206 157.579ZM127.899 159.496L125.228 149.678L127.983 149.678L129.504 156.275L129.593 156.275L131.179 149.678L133.882 149.678L135.493 156.236L135.576 156.236L137.072 149.678L139.821 149.678L137.155 159.496L134.272 159.496L132.585 153.322L132.463 153.322L130.776 159.496L127.899 159.496ZM145.502 159.688C144.492 159.688 143.622 159.483 142.894 159.074C142.169 158.661 141.611 158.077 141.219 157.323C140.827 156.564 140.631 155.667 140.631 154.632C140.631 153.622 140.827 152.736 141.219 151.973C141.611 151.21 142.163 150.616 142.874 150.189C143.59 149.763 144.43 149.55 145.393 149.55C146.041 149.55 146.644 149.655 147.202 149.863C147.764 150.068 148.254 150.377 148.672 150.79C149.094 151.204 149.422 151.724 149.656 152.35C149.891 152.972 150.008 153.701 150.008 154.536L150.008 155.284L141.717 155.284L141.717 153.596L147.445 153.596C147.445 153.204 147.359 152.857 147.189 152.554C147.019 152.252 146.782 152.015 146.48 151.845C146.181 151.67 145.834 151.583 145.438 151.583C145.024 151.583 144.658 151.679 144.338 151.871C144.023 152.058 143.776 152.312 143.597 152.631C143.418 152.947 143.326 153.298 143.322 153.686L143.322 155.29C143.322 155.776 143.411 156.196 143.59 156.55C143.774 156.903 144.031 157.176 144.364 157.368C144.696 157.559 145.09 157.655 145.546 157.655C145.849 157.655 146.126 157.613 146.377 157.527C146.629 157.442 146.844 157.314 147.023 157.144C147.202 156.974 147.338 156.765 147.432 156.518L149.95 156.684C149.823 157.289 149.56 157.817 149.164 158.269C148.772 158.716 148.265 159.066 147.643 159.317C147.025 159.564 146.311 159.688 145.502 159.688ZM151.836 159.496L151.836 146.405L154.559 146.405L154.559 151.327L154.642 151.327C154.761 151.063 154.934 150.795 155.16 150.522C155.39 150.245 155.688 150.015 156.055 149.831C156.426 149.644 156.886 149.55 157.435 149.55C158.151 149.55 158.812 149.738 159.417 150.113C160.022 150.483 160.506 151.044 160.868 151.794C161.23 152.54 161.411 153.475 161.411 154.6C161.411 155.695 161.234 156.62 160.881 157.374C160.531 158.124 160.054 158.693 159.449 159.081C158.848 159.464 158.175 159.656 157.429 159.656C156.901 159.656 156.451 159.569 156.08 159.394C155.714 159.219 155.413 159 155.179 158.736C154.945 158.467 154.766 158.197 154.642 157.924L154.521 157.924L154.521 159.496L151.836 159.496ZM154.502 154.587C154.502 155.171 154.583 155.68 154.744 156.115C154.906 156.55 155.141 156.888 155.448 157.131C155.754 157.37 156.127 157.489 156.566 157.489C157.009 157.489 157.384 157.368 157.691 157.125C157.998 156.878 158.23 156.537 158.388 156.102C158.55 155.663 158.631 155.158 158.631 154.587C158.631 154.02 158.552 153.522 158.394 153.091C158.237 152.661 158.004 152.324 157.698 152.081C157.391 151.839 157.014 151.717 156.566 151.717C156.123 151.717 155.748 151.834 155.441 152.069C155.139 152.303 154.906 152.635 154.744 153.066C154.583 153.496 154.502 154.003 154.502 154.587ZM171.397 152.478L168.904 152.631C168.862 152.418 168.77 152.226 168.63 152.056C168.489 151.881 168.304 151.743 168.073 151.64C167.848 151.534 167.577 151.481 167.262 151.481C166.84 151.481 166.484 151.57 166.194 151.749C165.904 151.924 165.76 152.158 165.76 152.452C165.76 152.687 165.853 152.885 166.041 153.047C166.228 153.209 166.55 153.339 167.006 153.437L168.783 153.795C169.738 153.991 170.449 154.306 170.918 154.741C171.387 155.175 171.621 155.746 171.621 156.454C171.621 157.097 171.431 157.662 171.052 158.148C170.677 158.633 170.162 159.013 169.505 159.285C168.853 159.554 168.101 159.688 167.249 159.688C165.949 159.688 164.914 159.417 164.142 158.876C163.375 158.331 162.926 157.589 162.794 156.652L165.472 156.511C165.553 156.907 165.749 157.21 166.06 157.419C166.371 157.623 166.769 157.726 167.255 157.726C167.733 157.726 168.116 157.634 168.406 157.451C168.7 157.263 168.849 157.023 168.853 156.728C168.849 156.481 168.745 156.279 168.54 156.121C168.336 155.959 168.02 155.836 167.594 155.751L165.894 155.412C164.935 155.22 164.221 154.888 163.752 154.415C163.288 153.942 163.056 153.339 163.056 152.606C163.056 151.975 163.226 151.432 163.567 150.976C163.912 150.52 164.396 150.168 165.018 149.921C165.644 149.674 166.377 149.55 167.217 149.55C168.457 149.55 169.433 149.812 170.144 150.336C170.86 150.861 171.278 151.574 171.397 152.478ZM173.336 159.496L173.336 149.678L176.059 149.678L176.059 159.496L173.336 159.496ZM174.704 148.412C174.299 148.412 173.951 148.278 173.662 148.01C173.376 147.737 173.233 147.411 173.233 147.032C173.233 146.657 173.376 146.335 173.662 146.067C173.951 145.794 174.299 145.657 174.704 145.657C175.108 145.657 175.454 145.794 175.739 146.067C176.029 146.335 176.174 146.657 176.174 147.032C176.174 147.411 176.029 147.737 175.739 148.01C175.454 148.278 175.108 148.412 174.704 148.412ZM183.462 149.678L183.462 151.724L177.55 151.724L177.55 149.678L183.462 149.678ZM178.892 147.326L181.615 147.326L181.615 156.479C181.615 156.731 181.653 156.927 181.73 157.067C181.807 157.204 181.913 157.3 182.05 157.355C182.19 157.41 182.352 157.438 182.535 157.438C182.663 157.438 182.791 157.427 182.919 157.406C183.047 157.38 183.145 157.361 183.213 157.349L183.641 159.375C183.505 159.417 183.313 159.466 183.066 159.522C182.819 159.581 182.518 159.618 182.165 159.63C181.508 159.656 180.933 159.569 180.439 159.368C179.949 159.168 179.567 158.857 179.295 158.435C179.022 158.013 178.888 157.481 178.892 156.837L178.892 147.326ZM189.605 159.688C188.595 159.688 187.726 159.483 186.997 159.074C186.273 158.661 185.714 158.077 185.322 157.323C184.93 156.564 184.734 155.667 184.734 154.632C184.734 153.622 184.93 152.736 185.322 151.973C185.714 151.21 186.266 150.616 186.978 150.189C187.694 149.763 188.533 149.55 189.496 149.55C190.144 149.55 190.747 149.655 191.305 149.863C191.868 150.068 192.358 150.377 192.776 150.79C193.197 151.204 193.526 151.724 193.76 152.35C193.994 152.972 194.111 153.701 194.111 154.536L194.111 155.284L185.821 155.284L185.821 153.596L191.548 153.596C191.548 153.204 191.463 152.857 191.293 152.554C191.122 152.252 190.886 152.015 190.583 151.845C190.285 151.67 189.937 151.583 189.541 151.583C189.128 151.583 188.761 151.679 188.442 151.871C188.126 152.058 187.879 152.312 187.7 152.631C187.521 152.947 187.43 153.298 187.425 153.686L187.425 155.29C187.425 155.776 187.515 156.196 187.694 156.55C187.877 156.903 188.135 157.176 188.467 157.368C188.8 157.559 189.194 157.655 189.65 157.655C189.952 157.655 190.229 157.613 190.481 157.527C190.732 157.442 190.947 157.314 191.126 157.144C191.305 156.974 191.442 156.765 191.535 156.518L194.054 156.684C193.926 157.289 193.664 157.817 193.268 158.269C192.876 158.716 192.369 159.066 191.746 159.317C191.128 159.564 190.415 159.688 189.605 159.688ZM204.057 152.478L201.565 152.631C201.522 152.418 201.43 152.226 201.29 152.056C201.149 151.881 200.964 151.743 200.734 151.64C200.508 151.534 200.237 151.481 199.922 151.481C199.5 151.481 199.144 151.57 198.854 151.749C198.565 151.924 198.42 152.158 198.42 152.452C198.42 152.687 198.513 152.885 198.701 153.047C198.888 153.209 199.21 153.339 199.666 153.437L201.443 153.795C202.398 153.991 203.109 154.306 203.578 154.741C204.047 155.175 204.281 155.746 204.281 156.454C204.281 157.097 204.092 157.662 203.712 158.148C203.337 158.633 202.822 159.013 202.165 159.285C201.513 159.554 200.761 159.688 199.909 159.688C198.609 159.688 197.574 159.417 196.802 158.876C196.035 158.331 195.586 157.589 195.454 156.652L198.132 156.511C198.213 156.907 198.409 157.21 198.72 157.419C199.031 157.623 199.43 157.726 199.915 157.726C200.393 157.726 200.776 157.634 201.066 157.451C201.36 157.263 201.509 157.023 201.513 156.728C201.509 156.481 201.405 156.279 201.2 156.121C200.996 155.959 200.68 155.836 200.254 155.751L198.554 155.412C197.595 155.22 196.881 154.888 196.413 154.415C195.948 153.942 195.716 153.339 195.716 152.606C195.716 151.975 195.886 151.432 196.227 150.976C196.572 150.52 197.056 150.168 197.678 149.921C198.305 149.674 199.038 149.55 199.877 149.55C201.117 149.55 202.093 149.812 202.805 150.336C203.521 150.861 203.938 151.574 204.057 152.478Z" fill="white"/>
<path d="M54.1013 70.1758C52.5533 70.1758 51.1673 69.7978 49.9433 69.0418C48.7193 68.2678 47.7563 67.1518 47.0543 65.6938C46.3523 64.2358 46.0013 62.4718 46.0013 60.4018C46.0013 58.3318 46.3523 56.5678 47.0543 55.1098C47.7563 53.6518 48.7193 52.5448 49.9433 51.7888C51.1673 51.0148 52.5533 50.6278 54.1013 50.6278C55.6673 50.6278 57.0533 51.0148 58.2593 51.7888C59.4833 52.5448 60.4463 53.6518 61.1483 55.1098C61.8503 56.5678 62.2013 58.3318 62.2013 60.4018C62.2013 62.4718 61.8503 64.2358 61.1483 65.6938C60.4463 67.1518 59.4833 68.2678 58.2593 69.0418C57.0533 69.7978 55.6673 70.1758 54.1013 70.1758ZM54.1013 66.4768C54.8393 66.4768 55.4783 66.2698 56.0183 65.8558C56.5763 65.4418 57.0083 64.7848 57.3143 63.8848C57.6383 62.9848 57.8003 61.8238 57.8003 60.4018C57.8003 58.9798 57.6383 57.8188 57.3143 56.9188C57.0083 56.0188 56.5763 55.3618 56.0183 54.9478C55.4783 54.5338 54.8393 54.3268 54.1013 54.3268C53.3813 54.3268 52.7423 54.5338 52.1843 54.9478C51.6443 55.3618 51.2123 56.0188 50.8883 56.9188C50.5823 57.8188 50.4293 58.9798 50.4293 60.4018C50.4293 61.8238 50.5823 62.9848 50.8883 63.8848C51.2123 64.7848 51.6443 65.4418 52.1843 65.8558C52.7423 66.2698 53.3813 66.4768 54.1013 66.4768ZM64.059 69.8518L64.059 67.0168L71.349 60.1318C71.925 59.6098 72.348 59.1418 72.618 58.7278C72.888 58.3138 73.068 57.9358 73.158 57.5938C73.266 57.2518 73.32 56.9368 73.32 56.6488C73.32 55.8928 73.059 55.3168 72.537 54.9208C72.033 54.5068 71.286 54.2998 70.296 54.2998C69.504 54.2998 68.766 54.4528 68.082 54.7588C67.416 55.0648 66.849 55.5418 66.381 56.1898L63.195 54.1378C63.915 53.0578 64.923 52.2028 66.219 51.5728C67.515 50.9428 69.009 50.6278 70.701 50.6278C72.105 50.6278 73.329 50.8618 74.373 51.3298C75.435 51.7798 76.254 52.4188 76.83 53.2468C77.424 54.0748 77.721 55.0648 77.721 56.2168C77.721 56.8288 77.64 57.4408 77.478 58.0528C77.334 58.6468 77.028 59.2768 76.56 59.9428C76.11 60.6088 75.444 61.3558 74.562 62.1838L68.514 67.8808L67.677 66.2878L78.342 66.2878L78.342 69.8518L64.059 69.8518Z" fill="white"/>
</svg>
