<svg width="661" height="397" viewBox="0 0 661 397" fill="none" xmlns="http://www.w3.org/2000/svg">
<path d="M442.541 27V6.63636H450.953C452.478 6.63636 453.794 6.93466 454.901 7.53125C456.014 8.12121 456.873 8.94649 457.476 10.0071C458.079 11.0611 458.381 12.2874 458.381 13.6861C458.381 15.0914 458.072 16.321 457.456 17.375C456.846 18.4223 455.974 19.2344 454.841 19.8111C453.707 20.3878 452.362 20.6761 450.804 20.6761H445.614V16.7983H449.889C450.632 16.7983 451.251 16.669 451.749 16.4105C452.252 16.152 452.634 15.7907 452.892 15.3267C453.151 14.8561 453.28 14.3092 453.28 13.6861C453.28 13.0563 453.151 12.5128 452.892 12.0554C452.634 11.5914 452.252 11.2334 451.749 10.9815C451.245 10.7296 450.625 10.6037 449.889 10.6037H447.463V27H442.541ZM467.635 27.2884C466.031 27.2884 464.652 26.9602 463.499 26.304C462.352 25.6411 461.467 24.7197 460.844 23.5398C460.228 22.3532 459.919 20.9777 459.919 19.4134C459.919 17.8423 460.228 16.4669 460.844 15.2869C461.467 14.1004 462.352 13.179 463.499 12.5227C464.652 11.8598 466.031 11.5284 467.635 11.5284C469.239 11.5284 470.615 11.8598 471.762 12.5227C472.915 13.179 473.8 14.1004 474.417 15.2869C475.04 16.4669 475.351 17.8423 475.351 19.4134C475.351 20.9777 475.04 22.3532 474.417 23.5398C473.8 24.7197 472.915 25.6411 471.762 26.304C470.615 26.9602 469.239 27.2884 467.635 27.2884ZM467.665 23.6193C468.248 23.6193 468.742 23.4403 469.147 23.0824C469.551 22.7244 469.859 22.2273 470.071 21.5909C470.29 20.9545 470.4 20.2187 470.4 19.3835C470.4 18.535 470.29 17.7926 470.071 17.1562C469.859 16.5199 469.551 16.0227 469.147 15.6648C468.742 15.3068 468.248 15.1278 467.665 15.1278C467.062 15.1278 466.551 15.3068 466.134 15.6648C465.723 16.0227 465.408 16.5199 465.189 17.1562C464.977 17.7926 464.871 18.535 464.871 19.3835C464.871 20.2187 464.977 20.9545 465.189 21.5909C465.408 22.2273 465.723 22.7244 466.134 23.0824C466.551 23.4403 467.062 23.6193 467.665 23.6193ZM477.842 27V11.7273H482.565V14.5114H482.724C483.002 13.5038 483.457 12.7547 484.086 12.2642C484.716 11.767 485.449 11.5185 486.284 11.5185C486.509 11.5185 486.741 11.535 486.98 11.5682C487.218 11.5947 487.44 11.6378 487.646 11.6974V15.9233C487.414 15.8437 487.109 15.7808 486.731 15.7344C486.36 15.688 486.029 15.6648 485.737 15.6648C485.16 15.6648 484.64 15.794 484.176 16.0526C483.718 16.3045 483.357 16.6591 483.092 17.1165C482.833 17.5672 482.704 18.0975 482.704 18.7074V27H477.842ZM498.959 11.7273V15.3068H489.324V11.7273H498.959ZM491.342 8.06818H496.205V22.1974C496.205 22.4957 496.251 22.7377 496.344 22.9233C496.443 23.1023 496.586 23.2315 496.771 23.3111C496.957 23.384 497.179 23.4205 497.438 23.4205C497.623 23.4205 497.819 23.4039 498.024 23.3707C498.236 23.331 498.395 23.2978 498.501 23.2713L499.237 26.7812C499.005 26.8475 498.677 26.9304 498.253 27.0298C497.835 27.1293 497.335 27.1922 496.751 27.2188C495.611 27.2718 494.634 27.1392 493.818 26.821C493.009 26.4962 492.39 25.9924 491.959 25.3097C491.535 24.6269 491.329 23.7685 491.342 22.7344V8.06818ZM510.12 11.7273V15.3068H500.296V11.7273H510.12ZM502.344 27V10.9517C502.344 9.77178 502.567 8.79403 503.011 8.01847C503.455 7.23627 504.071 6.65293 504.86 6.26847C505.649 5.87737 506.56 5.68182 507.594 5.68182C508.271 5.68182 508.907 5.73485 509.504 5.84091C510.107 5.94034 510.554 6.02983 510.846 6.10938L510.07 9.66903C509.891 9.60937 509.673 9.55966 509.414 9.51989C509.162 9.48011 508.924 9.46023 508.698 9.46023C508.128 9.46023 507.737 9.58617 507.525 9.83807C507.313 10.09 507.207 10.4347 507.207 10.8722V27H502.344ZM519.096 27.2884C517.492 27.2884 516.113 26.9602 514.96 26.304C513.813 25.6411 512.928 24.7197 512.305 23.5398C511.689 22.3532 511.38 20.9777 511.38 19.4134C511.38 17.8423 511.689 16.4669 512.305 15.2869C512.928 14.1004 513.813 13.179 514.96 12.5227C516.113 11.8598 517.492 11.5284 519.096 11.5284C520.7 11.5284 522.076 11.8598 523.223 12.5227C524.376 13.179 525.261 14.1004 525.877 15.2869C526.501 16.4669 526.812 17.8423 526.812 19.4134C526.812 20.9777 526.501 22.3532 525.877 23.5398C525.261 24.7197 524.376 25.6411 523.223 26.304C522.076 26.9602 520.7 27.2884 519.096 27.2884ZM519.126 23.6193C519.709 23.6193 520.203 23.4403 520.608 23.0824C521.012 22.7244 521.32 22.2273 521.532 21.5909C521.751 20.9545 521.86 20.2187 521.86 19.3835C521.86 18.535 521.751 17.7926 521.532 17.1562C521.32 16.5199 521.012 16.0227 520.608 15.6648C520.203 15.3068 519.709 15.1278 519.126 15.1278C518.523 15.1278 518.012 15.3068 517.595 15.6648C517.184 16.0227 516.869 16.5199 516.65 17.1562C516.438 17.7926 516.332 18.535 516.332 19.3835C516.332 20.2187 516.438 20.9545 516.65 21.5909C516.869 22.2273 517.184 22.7244 517.595 23.0824C518.012 23.4403 518.523 23.6193 519.126 23.6193ZM534.165 6.63636V27H529.303V6.63636H534.165ZM537.26 27V11.7273H542.122V27H537.26ZM539.696 9.94744C539.013 9.94744 538.427 9.72206 537.936 9.27131C537.446 8.81392 537.2 8.26373 537.2 7.62074C537.2 6.98437 537.446 6.44081 537.936 5.99006C538.427 5.53267 539.013 5.30398 539.696 5.30398C540.385 5.30398 540.972 5.53267 541.456 5.99006C541.946 6.44081 542.192 6.98437 542.192 7.62074C542.192 8.26373 541.946 8.81392 541.456 9.27131C540.972 9.72206 540.385 9.94744 539.696 9.94744ZM552.346 27.2884C550.742 27.2884 549.363 26.9602 548.21 26.304C547.063 25.6411 546.178 24.7197 545.555 23.5398C544.939 22.3532 544.63 20.9777 544.63 19.4134C544.63 17.8423 544.939 16.4669 545.555 15.2869C546.178 14.1004 547.063 13.179 548.21 12.5227C549.363 11.8598 550.742 11.5284 552.346 11.5284C553.95 11.5284 555.326 11.8598 556.473 12.5227C557.626 13.179 558.511 14.1004 559.127 15.2869C559.751 16.4669 560.062 17.8423 560.062 19.4134C560.062 20.9777 559.751 22.3532 559.127 23.5398C558.511 24.7197 557.626 25.6411 556.473 26.304C555.326 26.9602 553.95 27.2884 552.346 27.2884ZM552.376 23.6193C552.959 23.6193 553.453 23.4403 553.858 23.0824C554.262 22.7244 554.57 22.2273 554.782 21.5909C555.001 20.9545 555.11 20.2187 555.11 19.3835C555.11 18.535 555.001 17.7926 554.782 17.1562C554.57 16.5199 554.262 16.0227 553.858 15.6648C553.453 15.3068 552.959 15.1278 552.376 15.1278C551.773 15.1278 551.262 15.3068 550.845 15.6648C550.434 16.0227 550.119 16.5199 549.9 17.1562C549.688 17.7926 549.582 18.535 549.582 19.3835C549.582 20.2187 549.688 20.9545 549.9 21.5909C550.119 22.2273 550.434 22.7244 550.845 23.0824C551.262 23.4403 551.773 23.6193 552.376 23.6193ZM449.67 61.2884C448.06 61.2884 446.678 60.9569 445.524 60.294C444.377 59.6312 443.496 58.7098 442.879 57.5298C442.263 56.3433 441.955 54.9711 441.955 53.4134C441.955 51.849 442.263 50.4768 442.879 49.2969C443.502 48.1103 444.387 47.1856 445.534 46.5227C446.688 45.8598 448.063 45.5284 449.661 45.5284C451.072 45.5284 452.302 45.7836 453.349 46.294C454.403 46.8045 455.225 47.527 455.815 48.4616C456.412 49.3897 456.727 50.4801 456.76 51.733H452.216C452.123 50.9508 451.858 50.3376 451.42 49.8935C450.99 49.4493 450.426 49.2273 449.73 49.2273C449.167 49.2273 448.673 49.3864 448.249 49.7045C447.824 50.0161 447.493 50.4801 447.254 51.0966C447.022 51.7064 446.906 52.4621 446.906 53.3636C446.906 54.2652 447.022 55.0275 447.254 55.6506C447.493 56.267 447.824 56.7344 448.249 57.0526C448.673 57.3641 449.167 57.5199 449.73 57.5199C450.181 57.5199 450.579 57.4238 450.923 57.2315C451.275 57.0393 451.563 56.7576 451.788 56.3864C452.014 56.0085 452.156 55.5511 452.216 55.0142H456.76C456.714 56.2737 456.399 57.3741 455.815 58.3153C455.239 59.2566 454.427 59.9891 453.379 60.5128C452.339 61.0298 451.102 61.2884 449.67 61.2884ZM459.248 61V45.7273H463.971V48.5114H464.13C464.409 47.5038 464.863 46.7547 465.493 46.2642C466.122 45.767 466.855 45.5185 467.69 45.5185C467.915 45.5185 468.147 45.535 468.386 45.5682C468.625 45.5947 468.847 45.6378 469.052 45.6974V49.9233C468.82 49.8437 468.515 49.7808 468.137 49.7344C467.766 49.688 467.435 49.6648 467.143 49.6648C466.566 49.6648 466.046 49.794 465.582 50.0526C465.125 50.3045 464.763 50.6591 464.498 51.1165C464.24 51.5672 464.11 52.0975 464.11 52.7074V61H459.248ZM477.38 61.2884C475.782 61.2884 474.403 60.9735 473.243 60.3438C472.09 59.7074 471.202 58.8026 470.578 57.6293C469.962 56.4493 469.654 55.0473 469.654 53.4233C469.654 51.8456 469.965 50.4669 470.588 49.2869C471.212 48.1004 472.09 47.179 473.223 46.5227C474.357 45.8598 475.693 45.5284 477.23 45.5284C478.318 45.5284 479.312 45.6974 480.213 46.0355C481.115 46.3736 481.894 46.8741 482.55 47.5369C483.206 48.1998 483.717 49.0185 484.081 49.9929C484.446 50.9607 484.628 52.071 484.628 53.3239V54.5369H471.354V51.7131H480.104C480.097 51.196 479.975 50.7353 479.736 50.331C479.498 49.9266 479.169 49.6117 478.752 49.3864C478.341 49.1544 477.867 49.0384 477.33 49.0384C476.786 49.0384 476.299 49.161 475.868 49.4062C475.437 49.6449 475.096 49.973 474.844 50.3906C474.592 50.8016 474.46 51.2689 474.446 51.7926V54.6662C474.446 55.2893 474.569 55.8362 474.814 56.3068C475.06 56.7708 475.408 57.1321 475.858 57.3906C476.309 57.6491 476.846 57.7784 477.469 57.7784C477.9 57.7784 478.291 57.7187 478.642 57.5994C478.994 57.4801 479.295 57.3045 479.547 57.0724C479.799 56.8404 479.988 56.5554 480.114 56.2173L484.578 56.3466C484.393 57.3475 483.985 58.2192 483.355 58.9616C482.732 59.6974 481.914 60.2708 480.9 60.6818C479.885 61.0862 478.712 61.2884 477.38 61.2884ZM491.417 61.2585C490.442 61.2585 489.577 61.0961 488.822 60.7713C488.073 60.4399 487.479 59.9427 487.042 59.2798C486.611 58.6103 486.396 57.7718 486.396 56.7642C486.396 55.9157 486.545 55.1998 486.843 54.6165C487.141 54.0331 487.552 53.5592 488.076 53.1946C488.6 52.83 489.203 52.5549 489.886 52.3693C490.568 52.1771 491.298 52.0478 492.073 51.9815C492.942 51.902 493.641 51.8191 494.171 51.733C494.701 51.6402 495.086 51.5109 495.325 51.3452C495.57 51.1728 495.692 50.9309 495.692 50.6193V50.5696C495.692 50.0592 495.517 49.6648 495.165 49.3864C494.814 49.108 494.34 48.9688 493.744 48.9688C493.101 48.9688 492.584 49.108 492.192 49.3864C491.801 49.6648 491.553 50.0492 491.447 50.5398L486.962 50.3807C487.095 49.4527 487.436 48.6241 487.987 47.8949C488.543 47.1591 489.306 46.5824 490.273 46.1648C491.248 45.7405 492.418 45.5284 493.783 45.5284C494.758 45.5284 495.656 45.6444 496.478 45.8764C497.3 46.1018 498.016 46.4332 498.626 46.8707C499.236 47.3016 499.706 47.8319 500.038 48.4616C500.376 49.0914 500.545 49.8106 500.545 50.6193V61H495.971V58.8722H495.852C495.58 59.3892 495.232 59.8267 494.808 60.1847C494.39 60.5426 493.896 60.8111 493.326 60.9901C492.763 61.169 492.126 61.2585 491.417 61.2585ZM492.918 58.0767C493.442 58.0767 493.913 57.9706 494.33 57.7585C494.754 57.5464 495.093 57.2547 495.344 56.8835C495.596 56.5057 495.722 56.0682 495.722 55.571V54.1193C495.583 54.1922 495.414 54.2585 495.215 54.3182C495.023 54.3778 494.811 54.4342 494.579 54.4872C494.347 54.5402 494.108 54.5866 493.863 54.6264C493.618 54.6662 493.382 54.7027 493.157 54.7358C492.7 54.8087 492.308 54.9214 491.984 55.0739C491.665 55.2263 491.42 55.4252 491.248 55.6705C491.082 55.9091 490.999 56.1941 490.999 56.5256C490.999 57.0294 491.178 57.4138 491.536 57.679C491.901 57.9441 492.362 58.0767 492.918 58.0767ZM512.138 45.7273V49.3068H502.504V45.7273H512.138ZM504.522 42.0682H509.384V56.1974C509.384 56.4957 509.431 56.7377 509.523 56.9233C509.623 57.1023 509.765 57.2315 509.951 57.3111C510.137 57.384 510.359 57.4205 510.617 57.4205C510.803 57.4205 510.998 57.4039 511.204 57.3707C511.416 57.331 511.575 57.2978 511.681 57.2713L512.417 60.7812C512.185 60.8475 511.857 60.9304 511.433 61.0298C511.015 61.1293 510.514 61.1922 509.931 61.2188C508.791 61.2718 507.813 61.1392 506.998 60.821C506.189 60.4962 505.569 59.9924 505.138 59.3097C504.714 58.6269 504.509 57.7685 504.522 56.7344V42.0682ZM514.619 61V45.7273H519.482V61H514.619ZM517.055 43.9474C516.373 43.9474 515.786 43.7221 515.295 43.2713C514.805 42.8139 514.56 42.2637 514.56 41.6207C514.56 40.9844 514.805 40.4408 515.295 39.9901C515.786 39.5327 516.373 39.304 517.055 39.304C517.745 39.304 518.331 39.5327 518.815 39.9901C519.306 40.4408 519.551 40.9844 519.551 41.6207C519.551 42.2637 519.306 42.8139 518.815 43.2713C518.331 43.7221 517.745 43.9474 517.055 43.9474ZM529.706 61.2884C528.101 61.2884 526.723 60.9602 525.569 60.304C524.422 59.6411 523.538 58.7197 522.914 57.5398C522.298 56.3532 521.99 54.9777 521.99 53.4134C521.99 51.8423 522.298 50.4669 522.914 49.2869C523.538 48.1004 524.422 47.179 525.569 46.5227C526.723 45.8598 528.101 45.5284 529.706 45.5284C531.31 45.5284 532.685 45.8598 533.832 46.5227C534.985 47.179 535.87 48.1004 536.487 49.2869C537.11 50.4669 537.422 51.8423 537.422 53.4134C537.422 54.9777 537.11 56.3532 536.487 57.5398C535.87 58.7197 534.985 59.6411 533.832 60.304C532.685 60.9602 531.31 61.2884 529.706 61.2884ZM529.735 57.6193C530.319 57.6193 530.813 57.4403 531.217 57.0824C531.621 56.7244 531.93 56.2273 532.142 55.5909C532.36 54.9545 532.47 54.2187 532.47 53.3835C532.47 52.535 532.36 51.7926 532.142 51.1562C531.93 50.5199 531.621 50.0227 531.217 49.6648C530.813 49.3068 530.319 49.1278 529.735 49.1278C529.132 49.1278 528.622 49.3068 528.204 49.6648C527.793 50.0227 527.478 50.5199 527.26 51.1562C527.047 51.7926 526.941 52.535 526.941 53.3835C526.941 54.2187 527.047 54.9545 527.26 55.5909C527.478 56.2273 527.793 56.7244 528.204 57.0824C528.622 57.4403 529.132 57.6193 529.735 57.6193ZM544.775 52.2898V61H539.912V45.7273H544.536V48.5312H544.705C545.043 47.5966 545.62 46.8641 546.435 46.3338C547.25 45.7969 548.221 45.5284 549.348 45.5284C550.422 45.5284 551.354 45.7704 552.142 46.2543C552.938 46.7315 553.554 47.401 553.992 48.2628C554.436 49.1179 554.655 50.1188 554.648 51.2656V61H549.786V52.2202C549.792 51.3717 549.577 50.7088 549.14 50.2315C548.709 49.7543 548.109 49.5156 547.34 49.5156C546.829 49.5156 546.379 49.6283 545.988 49.8537C545.603 50.0724 545.305 50.3873 545.093 50.7983C544.887 51.2093 544.781 51.7064 544.775 52.2898Z" fill="white"/>
<path d="M442.541 228V207.636H450.953C452.478 207.636 453.794 207.935 454.901 208.531C456.014 209.121 456.873 209.946 457.476 211.007C458.079 212.061 458.381 213.287 458.381 214.686C458.381 216.091 458.072 217.321 457.456 218.375C456.846 219.422 455.974 220.234 454.841 220.811C453.707 221.388 452.362 221.676 450.804 221.676H445.614V217.798H449.889C450.632 217.798 451.251 217.669 451.749 217.411C452.252 217.152 452.634 216.791 452.892 216.327C453.151 215.856 453.28 215.309 453.28 214.686C453.28 214.056 453.151 213.513 452.892 213.055C452.634 212.591 452.252 212.233 451.749 211.982C451.245 211.73 450.625 211.604 449.889 211.604H447.463V228H442.541ZM460.807 228V212.727H465.53V215.511H465.689C465.967 214.504 466.421 213.755 467.051 213.264C467.681 212.767 468.413 212.518 469.249 212.518C469.474 212.518 469.706 212.535 469.945 212.568C470.183 212.595 470.405 212.638 470.611 212.697V216.923C470.379 216.844 470.074 216.781 469.696 216.734C469.325 216.688 468.993 216.665 468.702 216.665C468.125 216.665 467.605 216.794 467.141 217.053C466.683 217.304 466.322 217.659 466.057 218.116C465.798 218.567 465.669 219.098 465.669 219.707V228H460.807ZM472.592 228V212.727H477.454V228H472.592ZM475.028 210.947C474.345 210.947 473.759 210.722 473.268 210.271C472.778 209.814 472.532 209.264 472.532 208.621C472.532 207.984 472.778 207.441 473.268 206.99C473.759 206.533 474.345 206.304 475.028 206.304C475.717 206.304 476.304 206.533 476.788 206.99C477.279 207.441 477.524 207.984 477.524 208.621C477.524 209.264 477.279 209.814 476.788 210.271C476.304 210.722 475.717 210.947 475.028 210.947ZM487.678 228.288C486.067 228.288 484.685 227.957 483.532 227.294C482.385 226.631 481.504 225.71 480.887 224.53C480.271 223.343 479.962 221.971 479.962 220.413C479.962 218.849 480.271 217.477 480.887 216.297C481.51 215.11 482.395 214.186 483.542 213.523C484.695 212.86 486.071 212.528 487.668 212.528C489.08 212.528 490.31 212.784 491.357 213.294C492.411 213.804 493.233 214.527 493.823 215.462C494.42 216.39 494.735 217.48 494.768 218.733H490.224C490.131 217.951 489.866 217.338 489.428 216.893C488.997 216.449 488.434 216.227 487.738 216.227C487.174 216.227 486.681 216.386 486.256 216.705C485.832 217.016 485.501 217.48 485.262 218.097C485.03 218.706 484.914 219.462 484.914 220.364C484.914 221.265 485.03 222.027 485.262 222.651C485.501 223.267 485.832 223.734 486.256 224.053C486.681 224.364 487.174 224.52 487.738 224.52C488.189 224.52 488.586 224.424 488.931 224.232C489.282 224.039 489.571 223.758 489.796 223.386C490.022 223.009 490.164 222.551 490.224 222.014H494.768C494.721 223.274 494.406 224.374 493.823 225.315C493.246 226.257 492.434 226.989 491.387 227.513C490.346 228.03 489.11 228.288 487.678 228.288ZM497.256 228V212.727H502.118V228H497.256ZM499.692 210.947C499.009 210.947 498.423 210.722 497.932 210.271C497.442 209.814 497.196 209.264 497.196 208.621C497.196 207.984 497.442 207.441 497.932 206.99C498.423 206.533 499.009 206.304 499.692 206.304C500.382 206.304 500.968 206.533 501.452 206.99C501.943 207.441 502.188 207.984 502.188 208.621C502.188 209.264 501.943 209.814 501.452 210.271C500.968 210.722 500.382 210.947 499.692 210.947ZM510.075 219.29V228H505.213V212.727H509.837V215.531H510.006C510.344 214.597 510.92 213.864 511.736 213.334C512.551 212.797 513.522 212.528 514.649 212.528C515.723 212.528 516.654 212.77 517.443 213.254C518.239 213.732 518.855 214.401 519.293 215.263C519.737 216.118 519.955 217.119 519.949 218.266V228H515.087V219.22C515.093 218.372 514.878 217.709 514.44 217.232C514.009 216.754 513.41 216.516 512.641 216.516C512.13 216.516 511.679 216.628 511.288 216.854C510.904 217.072 510.606 217.387 510.393 217.798C510.188 218.209 510.082 218.706 510.075 219.29ZM530.078 234.045C528.627 234.045 527.384 233.843 526.35 233.439C525.316 233.035 524.504 232.481 523.914 231.778C523.324 231.076 522.969 230.28 522.85 229.392L527.453 229.134C527.54 229.445 527.699 229.717 527.931 229.949C528.169 230.181 528.478 230.36 528.855 230.486C529.24 230.612 529.691 230.675 530.208 230.675C531.023 230.675 531.696 230.476 532.226 230.078C532.763 229.687 533.032 229.001 533.032 228.02V225.335H532.863C532.67 225.806 532.379 226.227 531.988 226.598C531.596 226.969 531.109 227.261 530.526 227.473C529.949 227.685 529.286 227.791 528.537 227.791C527.424 227.791 526.403 227.533 525.475 227.016C524.553 226.492 523.814 225.683 523.257 224.589C522.707 223.489 522.432 222.074 522.432 220.344C522.432 218.561 522.717 217.092 523.287 215.939C523.857 214.779 524.603 213.92 525.525 213.364C526.453 212.807 527.45 212.528 528.517 212.528C529.319 212.528 530.006 212.668 530.576 212.946C531.152 213.218 531.626 213.569 531.998 214C532.369 214.431 532.65 214.878 532.843 215.342H532.982V212.727H537.824V228.06C537.824 229.352 537.499 230.443 536.85 231.331C536.2 232.219 535.292 232.892 534.125 233.349C532.959 233.813 531.61 234.045 530.078 234.045ZM530.228 224.251C530.818 224.251 531.321 224.096 531.739 223.784C532.157 223.473 532.478 223.025 532.703 222.442C532.929 221.858 533.042 221.159 533.042 220.344C533.042 219.515 532.929 218.803 532.703 218.206C532.485 217.603 532.163 217.139 531.739 216.814C531.321 216.489 530.818 216.327 530.228 216.327C529.624 216.327 529.114 216.492 528.696 216.824C528.279 217.155 527.961 217.623 527.742 218.226C527.53 218.822 527.424 219.528 527.424 220.344C527.424 221.159 527.533 221.858 527.752 222.442C527.971 223.025 528.285 223.473 528.696 223.784C529.114 224.096 529.624 224.251 530.228 224.251ZM553.343 228.308C551.911 228.308 550.675 228.053 549.634 227.543C548.6 227.032 547.805 226.346 547.248 225.484C546.691 224.616 546.413 223.652 546.413 222.591C546.413 221.809 546.565 221.119 546.87 220.523C547.182 219.92 547.609 219.366 548.153 218.862C548.703 218.352 549.343 217.851 550.072 217.361L554.347 214.626C554.831 214.321 555.173 214 555.371 213.662C555.577 213.324 555.68 212.986 555.68 212.648C555.68 212.283 555.537 211.952 555.252 211.653C554.974 211.355 554.559 211.209 554.009 211.216C553.658 211.216 553.353 211.289 553.094 211.435C552.836 211.58 552.634 211.776 552.488 212.021C552.349 212.267 552.279 212.545 552.279 212.857C552.279 213.261 552.395 213.675 552.627 214.099C552.859 214.524 553.171 214.974 553.562 215.452C553.96 215.929 554.4 216.456 554.884 217.033L564.638 228H559.687L551.523 219.141C551.059 218.624 550.572 218.044 550.062 217.401C549.551 216.758 549.121 216.055 548.769 215.293C548.418 214.524 548.242 213.688 548.242 212.787C548.242 211.773 548.481 210.855 548.958 210.033C549.435 209.211 550.105 208.558 550.967 208.074C551.835 207.583 552.846 207.338 553.999 207.338C555.113 207.338 556.074 207.567 556.883 208.024C557.692 208.482 558.315 209.088 558.752 209.844C559.19 210.599 559.408 211.428 559.408 212.33C559.408 213.284 559.173 214.162 558.702 214.964C558.232 215.76 557.566 216.466 556.704 217.082L552.518 220.075C552.074 220.393 551.726 220.735 551.474 221.099C551.222 221.457 551.096 221.848 551.096 222.273C551.096 222.71 551.199 223.091 551.404 223.416C551.616 223.741 551.915 223.996 552.299 224.182C552.683 224.367 553.134 224.46 553.651 224.46C554.341 224.46 555.03 224.298 555.719 223.973C556.409 223.642 557.039 223.178 557.609 222.581C558.179 221.978 558.636 221.265 558.981 220.443C559.326 219.615 559.498 218.706 559.498 217.719H563.415C563.415 218.938 563.286 220.072 563.028 221.119C562.769 222.16 562.381 223.095 561.864 223.923C561.354 224.745 560.721 225.428 559.965 225.972C559.727 226.104 559.495 226.23 559.269 226.349C559.044 226.469 558.812 226.595 558.573 226.727C557.791 227.291 556.942 227.695 556.028 227.94C555.12 228.186 554.225 228.308 553.343 228.308ZM442.541 267.727V246.727H447.354V249.342H447.503C447.702 248.878 447.983 248.431 448.348 248C448.719 247.569 449.19 247.218 449.76 246.946C450.337 246.668 451.026 246.528 451.828 246.528C452.889 246.528 453.88 246.807 454.801 247.364C455.729 247.92 456.478 248.779 457.048 249.939C457.618 251.099 457.903 252.577 457.903 254.374C457.903 256.104 457.628 257.552 457.078 258.719C456.535 259.885 455.799 260.76 454.871 261.344C453.949 261.927 452.925 262.219 451.798 262.219C451.029 262.219 450.363 262.093 449.8 261.841C449.236 261.589 448.762 261.258 448.378 260.847C448 260.436 447.708 259.995 447.503 259.524H447.403V267.727H442.541ZM447.304 254.364C447.304 255.186 447.413 255.902 447.632 256.511C447.857 257.121 448.179 257.595 448.597 257.933C449.021 258.265 449.528 258.43 450.118 258.43C450.714 258.43 451.222 258.265 451.639 257.933C452.057 257.595 452.372 257.121 452.584 256.511C452.803 255.902 452.912 255.186 452.912 254.364C452.912 253.542 452.803 252.829 452.584 252.226C452.372 251.623 452.057 251.155 451.639 250.824C451.228 250.492 450.721 250.327 450.118 250.327C449.521 250.327 449.014 250.489 448.597 250.814C448.179 251.139 447.857 251.603 447.632 252.206C447.413 252.809 447.304 253.528 447.304 254.364ZM460.451 262V246.727H465.174V249.511H465.333C465.612 248.504 466.066 247.755 466.696 247.264C467.325 246.767 468.058 246.518 468.893 246.518C469.118 246.518 469.35 246.535 469.589 246.568C469.828 246.595 470.05 246.638 470.255 246.697V250.923C470.023 250.844 469.718 250.781 469.341 250.734C468.969 250.688 468.638 250.665 468.346 250.665C467.77 250.665 467.249 250.794 466.785 251.053C466.328 251.304 465.967 251.659 465.701 252.116C465.443 252.567 465.314 253.098 465.314 253.707V262H460.451ZM478.573 262.288C476.969 262.288 475.59 261.96 474.436 261.304C473.29 260.641 472.405 259.72 471.782 258.54C471.165 257.353 470.857 255.978 470.857 254.413C470.857 252.842 471.165 251.467 471.782 250.287C472.405 249.1 473.29 248.179 474.436 247.523C475.59 246.86 476.969 246.528 478.573 246.528C480.177 246.528 481.552 246.86 482.699 247.523C483.853 248.179 484.738 249.1 485.354 250.287C485.977 251.467 486.289 252.842 486.289 254.413C486.289 255.978 485.977 257.353 485.354 258.54C484.738 259.72 483.853 260.641 482.699 261.304C481.552 261.96 480.177 262.288 478.573 262.288ZM478.603 258.619C479.186 258.619 479.68 258.44 480.084 258.082C480.489 257.724 480.797 257.227 481.009 256.591C481.228 255.955 481.337 255.219 481.337 254.384C481.337 253.535 481.228 252.793 481.009 252.156C480.797 251.52 480.489 251.023 480.084 250.665C479.68 250.307 479.186 250.128 478.603 250.128C477.999 250.128 477.489 250.307 477.071 250.665C476.66 251.023 476.346 251.52 476.127 252.156C475.915 252.793 475.809 253.535 475.809 254.384C475.809 255.219 475.915 255.955 476.127 256.591C476.346 257.227 476.66 257.724 477.071 258.082C477.489 258.44 477.999 258.619 478.603 258.619ZM488.779 267.727V246.727H493.592V249.342H493.741C493.94 248.878 494.222 248.431 494.586 248C494.958 247.569 495.428 247.218 495.998 246.946C496.575 246.668 497.264 246.528 498.066 246.528C499.127 246.528 500.118 246.807 501.039 247.364C501.967 247.92 502.717 248.779 503.287 249.939C503.857 251.099 504.142 252.577 504.142 254.374C504.142 256.104 503.867 257.552 503.316 258.719C502.773 259.885 502.037 260.76 501.109 261.344C500.188 261.927 499.163 262.219 498.037 262.219C497.268 262.219 496.601 262.093 496.038 261.841C495.475 261.589 495.001 261.258 494.616 260.847C494.238 260.436 493.947 259.995 493.741 259.524H493.642V267.727H488.779ZM493.542 254.364C493.542 255.186 493.652 255.902 493.87 256.511C494.096 257.121 494.417 257.595 494.835 257.933C495.259 258.265 495.766 258.43 496.356 258.43C496.953 258.43 497.46 258.265 497.877 257.933C498.295 257.595 498.61 257.121 498.822 256.511C499.041 255.902 499.15 255.186 499.15 254.364C499.15 253.542 499.041 252.829 498.822 252.226C498.61 251.623 498.295 251.155 497.877 250.824C497.467 250.492 496.959 250.327 496.356 250.327C495.76 250.327 495.252 250.489 494.835 250.814C494.417 251.139 494.096 251.603 493.87 252.206C493.652 252.809 493.542 253.528 493.542 254.364ZM513.819 262.288C512.215 262.288 510.836 261.96 509.683 261.304C508.536 260.641 507.651 259.72 507.028 258.54C506.411 257.353 506.103 255.978 506.103 254.413C506.103 252.842 506.411 251.467 507.028 250.287C507.651 249.1 508.536 248.179 509.683 247.523C510.836 246.86 512.215 246.528 513.819 246.528C515.423 246.528 516.799 246.86 517.945 247.523C519.099 248.179 519.984 249.1 520.6 250.287C521.223 251.467 521.535 252.842 521.535 254.413C521.535 255.978 521.223 257.353 520.6 258.54C519.984 259.72 519.099 260.641 517.945 261.304C516.799 261.96 515.423 262.288 513.819 262.288ZM513.849 258.619C514.432 258.619 514.926 258.44 515.33 258.082C515.735 257.724 516.043 257.227 516.255 256.591C516.474 255.955 516.583 255.219 516.583 254.384C516.583 253.535 516.474 252.793 516.255 252.156C516.043 251.52 515.735 251.023 515.33 250.665C514.926 250.307 514.432 250.128 513.849 250.128C513.246 250.128 512.735 250.307 512.317 250.665C511.906 251.023 511.592 251.52 511.373 252.156C511.161 252.793 511.055 253.535 511.055 254.384C511.055 255.219 511.161 255.955 511.373 256.591C511.592 257.227 511.906 257.724 512.317 258.082C512.735 258.44 513.246 258.619 513.849 258.619ZM537.359 251.391L532.895 251.51C532.848 251.192 532.723 250.91 532.517 250.665C532.312 250.413 532.043 250.217 531.712 250.078C531.387 249.932 531.009 249.859 530.578 249.859C530.015 249.859 529.534 249.972 529.136 250.197C528.745 250.423 528.553 250.728 528.56 251.112C528.553 251.411 528.672 251.669 528.918 251.888C529.17 252.107 529.617 252.282 530.26 252.415L533.203 252.972C534.728 253.263 535.861 253.747 536.604 254.423C537.353 255.099 537.731 255.994 537.737 257.108C537.731 258.155 537.419 259.067 536.803 259.842C536.193 260.618 535.357 261.221 534.297 261.652C533.236 262.076 532.023 262.288 530.658 262.288C528.477 262.288 526.757 261.841 525.497 260.946C524.244 260.045 523.528 258.838 523.349 257.327L528.152 257.207C528.258 257.764 528.533 258.188 528.977 258.48C529.421 258.772 529.988 258.918 530.678 258.918C531.301 258.918 531.808 258.802 532.199 258.57C532.59 258.338 532.789 258.029 532.795 257.645C532.789 257.3 532.636 257.025 532.338 256.82C532.04 256.607 531.572 256.442 530.936 256.322L528.271 255.815C526.74 255.537 525.6 255.023 524.851 254.274C524.102 253.518 523.731 252.557 523.737 251.391C523.731 250.37 524.002 249.498 524.553 248.776C525.103 248.046 525.885 247.49 526.899 247.105C527.913 246.721 529.11 246.528 530.489 246.528C532.557 246.528 534.188 246.963 535.381 247.831C536.574 248.693 537.233 249.879 537.359 251.391ZM544.436 262.259C543.462 262.259 542.597 262.096 541.841 261.771C541.092 261.44 540.499 260.943 540.061 260.28C539.631 259.61 539.415 258.772 539.415 257.764C539.415 256.916 539.564 256.2 539.863 255.616C540.161 255.033 540.572 254.559 541.096 254.195C541.619 253.83 542.222 253.555 542.905 253.369C543.588 253.177 544.317 253.048 545.093 252.982C545.961 252.902 546.66 252.819 547.191 252.733C547.721 252.64 548.105 252.511 548.344 252.345C548.589 252.173 548.712 251.931 548.712 251.619V251.57C548.712 251.059 548.536 250.665 548.185 250.386C547.834 250.108 547.36 249.969 546.763 249.969C546.12 249.969 545.603 250.108 545.212 250.386C544.821 250.665 544.572 251.049 544.466 251.54L539.982 251.381C540.114 250.453 540.456 249.624 541.006 248.895C541.563 248.159 542.325 247.582 543.293 247.165C544.267 246.741 545.437 246.528 546.803 246.528C547.777 246.528 548.676 246.644 549.498 246.876C550.319 247.102 551.035 247.433 551.645 247.871C552.255 248.302 552.726 248.832 553.057 249.462C553.395 250.091 553.564 250.811 553.564 251.619V262H548.99V259.872H548.871C548.599 260.389 548.251 260.827 547.827 261.185C547.409 261.543 546.916 261.811 546.346 261.99C545.782 262.169 545.146 262.259 544.436 262.259ZM545.938 259.077C546.462 259.077 546.932 258.971 547.35 258.759C547.774 258.546 548.112 258.255 548.364 257.884C548.616 257.506 548.742 257.068 548.742 256.571V255.119C548.603 255.192 548.434 255.259 548.235 255.318C548.042 255.378 547.83 255.434 547.598 255.487C547.366 255.54 547.128 255.587 546.882 255.626C546.637 255.666 546.402 255.703 546.176 255.736C545.719 255.809 545.328 255.921 545.003 256.074C544.685 256.226 544.44 256.425 544.267 256.67C544.102 256.909 544.019 257.194 544.019 257.526C544.019 258.029 544.198 258.414 544.556 258.679C544.92 258.944 545.381 259.077 545.938 259.077ZM561.4 241.636V262H556.537V241.636H561.4ZM442.541 296V275.636H447.403V283.342H447.503C447.702 282.878 447.983 282.431 448.348 282C448.719 281.569 449.19 281.218 449.76 280.946C450.337 280.668 451.026 280.528 451.828 280.528C452.889 280.528 453.88 280.807 454.801 281.364C455.729 281.92 456.478 282.779 457.048 283.939C457.618 285.099 457.903 286.577 457.903 288.374C457.903 290.104 457.628 291.552 457.078 292.719C456.535 293.885 455.799 294.76 454.871 295.344C453.949 295.927 452.925 296.219 451.798 296.219C451.029 296.219 450.363 296.093 449.8 295.841C449.236 295.589 448.762 295.258 448.378 294.847C448 294.436 447.708 293.995 447.503 293.524H447.354V296H442.541ZM447.304 288.364C447.304 289.186 447.413 289.902 447.632 290.511C447.857 291.121 448.179 291.595 448.597 291.933C449.021 292.265 449.528 292.43 450.118 292.43C450.714 292.43 451.222 292.265 451.639 291.933C452.057 291.595 452.372 291.121 452.584 290.511C452.803 289.902 452.912 289.186 452.912 288.364C452.912 287.542 452.803 286.829 452.584 286.226C452.372 285.623 452.057 285.155 451.639 284.824C451.228 284.492 450.721 284.327 450.118 284.327C449.521 284.327 449.014 284.489 448.597 284.814C448.179 285.139 447.857 285.603 447.632 286.206C447.413 286.809 447.304 287.528 447.304 288.364ZM464.757 296.259C463.782 296.259 462.917 296.096 462.162 295.771C461.413 295.44 460.819 294.943 460.382 294.28C459.951 293.61 459.735 292.772 459.735 291.764C459.735 290.916 459.885 290.2 460.183 289.616C460.481 289.033 460.892 288.559 461.416 288.195C461.94 287.83 462.543 287.555 463.225 287.369C463.908 287.177 464.637 287.048 465.413 286.982C466.281 286.902 466.981 286.819 467.511 286.733C468.041 286.64 468.426 286.511 468.664 286.345C468.91 286.173 469.032 285.931 469.032 285.619V285.57C469.032 285.059 468.857 284.665 468.505 284.386C468.154 284.108 467.68 283.969 467.083 283.969C466.44 283.969 465.923 284.108 465.532 284.386C465.141 284.665 464.893 285.049 464.787 285.54L460.302 285.381C460.435 284.453 460.776 283.624 461.326 282.895C461.883 282.159 462.645 281.582 463.613 281.165C464.588 280.741 465.758 280.528 467.123 280.528C468.098 280.528 468.996 280.644 469.818 280.876C470.64 281.102 471.356 281.433 471.966 281.871C472.575 282.302 473.046 282.832 473.377 283.462C473.716 284.091 473.885 284.811 473.885 285.619V296H469.311V293.872H469.191C468.92 294.389 468.572 294.827 468.147 295.185C467.73 295.543 467.236 295.811 466.666 295.99C466.102 296.169 465.466 296.259 464.757 296.259ZM466.258 293.077C466.782 293.077 467.252 292.971 467.67 292.759C468.094 292.546 468.432 292.255 468.684 291.884C468.936 291.506 469.062 291.068 469.062 290.571V289.119C468.923 289.192 468.754 289.259 468.555 289.318C468.363 289.378 468.151 289.434 467.919 289.487C467.687 289.54 467.448 289.587 467.203 289.626C466.958 289.666 466.722 289.703 466.497 289.736C466.039 289.809 465.648 289.921 465.324 290.074C465.005 290.226 464.76 290.425 464.588 290.67C464.422 290.909 464.339 291.194 464.339 291.526C464.339 292.029 464.518 292.414 464.876 292.679C465.241 292.944 465.701 293.077 466.258 293.077ZM490.191 285.391L485.727 285.51C485.681 285.192 485.555 284.91 485.349 284.665C485.144 284.413 484.875 284.217 484.544 284.078C484.219 283.932 483.841 283.859 483.41 283.859C482.847 283.859 482.366 283.972 481.968 284.197C481.577 284.423 481.385 284.728 481.392 285.112C481.385 285.411 481.504 285.669 481.75 285.888C482.002 286.107 482.449 286.282 483.092 286.415L486.035 286.972C487.56 287.263 488.693 287.747 489.436 288.423C490.185 289.099 490.563 289.994 490.569 291.108C490.563 292.155 490.251 293.067 489.635 293.842C489.025 294.618 488.19 295.221 487.129 295.652C486.068 296.076 484.855 296.288 483.49 296.288C481.309 296.288 479.589 295.841 478.329 294.946C477.076 294.045 476.36 292.838 476.181 291.327L480.984 291.207C481.09 291.764 481.365 292.188 481.809 292.48C482.253 292.772 482.82 292.918 483.51 292.918C484.133 292.918 484.64 292.802 485.031 292.57C485.422 292.338 485.621 292.029 485.627 291.645C485.621 291.3 485.468 291.025 485.17 290.82C484.872 290.607 484.404 290.442 483.768 290.322L481.103 289.815C479.572 289.537 478.432 289.023 477.683 288.274C476.934 287.518 476.563 286.557 476.569 285.391C476.563 284.37 476.834 283.498 477.385 282.776C477.935 282.046 478.717 281.49 479.731 281.105C480.745 280.721 481.942 280.528 483.321 280.528C485.389 280.528 487.02 280.963 488.213 281.831C489.406 282.693 490.065 283.879 490.191 285.391ZM492.963 296V280.727H497.825V296H492.963ZM495.399 278.947C494.716 278.947 494.13 278.722 493.639 278.271C493.149 277.814 492.903 277.264 492.903 276.621C492.903 275.984 493.149 275.441 493.639 274.99C494.13 274.533 494.716 274.304 495.399 274.304C496.089 274.304 496.675 274.533 497.159 274.99C497.65 275.441 497.895 275.984 497.895 276.621C497.895 277.264 497.65 277.814 497.159 278.271C496.675 278.722 496.089 278.947 495.399 278.947ZM508.049 296.288C506.439 296.288 505.056 295.957 503.903 295.294C502.756 294.631 501.875 293.71 501.258 292.53C500.642 291.343 500.333 289.971 500.333 288.413C500.333 286.849 500.642 285.477 501.258 284.297C501.881 283.11 502.766 282.186 503.913 281.523C505.066 280.86 506.442 280.528 508.039 280.528C509.451 280.528 510.681 280.784 511.728 281.294C512.782 281.804 513.604 282.527 514.194 283.462C514.791 284.39 515.106 285.48 515.139 286.733H510.595C510.502 285.951 510.237 285.338 509.799 284.893C509.368 284.449 508.805 284.227 508.109 284.227C507.546 284.227 507.052 284.386 506.627 284.705C506.203 285.016 505.872 285.48 505.633 286.097C505.401 286.706 505.285 287.462 505.285 288.364C505.285 289.265 505.401 290.027 505.633 290.651C505.872 291.267 506.203 291.734 506.627 292.053C507.052 292.364 507.546 292.52 508.109 292.52C508.56 292.52 508.958 292.424 509.302 292.232C509.654 292.039 509.942 291.758 510.167 291.386C510.393 291.009 510.535 290.551 510.595 290.014H515.139C515.092 291.274 514.778 292.374 514.194 293.315C513.618 294.257 512.806 294.989 511.758 295.513C510.717 296.03 509.481 296.288 508.049 296.288ZM530.961 285.391L526.496 285.51C526.45 285.192 526.324 284.91 526.119 284.665C525.913 284.413 525.645 284.217 525.313 284.078C524.988 283.932 524.611 283.859 524.18 283.859C523.616 283.859 523.136 283.972 522.738 284.197C522.347 284.423 522.155 284.728 522.161 285.112C522.155 285.411 522.274 285.669 522.519 285.888C522.771 286.107 523.219 286.282 523.862 286.415L526.805 286.972C528.329 287.263 529.463 287.747 530.205 288.423C530.954 289.099 531.332 289.994 531.339 291.108C531.332 292.155 531.021 293.067 530.404 293.842C529.794 294.618 528.959 295.221 527.898 295.652C526.838 296.076 525.625 296.288 524.259 296.288C522.078 296.288 520.358 295.841 519.099 294.946C517.846 294.045 517.13 292.838 516.951 291.327L521.754 291.207C521.86 291.764 522.135 292.188 522.579 292.48C523.023 292.772 523.59 292.918 524.279 292.918C524.902 292.918 525.409 292.802 525.8 292.57C526.192 292.338 526.39 292.029 526.397 291.645C526.39 291.3 526.238 291.025 525.94 290.82C525.641 290.607 525.174 290.442 524.538 290.322L521.873 289.815C520.342 289.537 519.201 289.023 518.452 288.274C517.703 287.518 517.332 286.557 517.339 285.391C517.332 284.37 517.604 283.498 518.154 282.776C518.704 282.046 519.487 281.49 520.501 281.105C521.515 280.721 522.711 280.528 524.09 280.528C526.158 280.528 527.789 280.963 528.982 281.831C530.175 282.693 530.835 283.879 530.961 285.391Z" fill="white"/>
<path d="M74.2443 130V109.636H88.1449V113.634H79.1662V117.81H87.2599V121.817H79.1662V130H74.2443ZM90.3224 130V114.727H95.0455V117.511H95.2045C95.483 116.504 95.937 115.755 96.5668 115.264C97.1965 114.767 97.929 114.518 98.7642 114.518C98.9896 114.518 99.2216 114.535 99.4602 114.568C99.6989 114.595 99.9209 114.638 100.126 114.697V118.923C99.8944 118.844 99.5895 118.781 99.2116 118.734C98.8404 118.688 98.509 118.665 98.2173 118.665C97.6406 118.665 97.1203 118.794 96.6562 119.053C96.1989 119.304 95.8376 119.659 95.5724 120.116C95.3139 120.567 95.1847 121.098 95.1847 121.707V130H90.3224ZM108.454 130.288C106.856 130.288 105.478 129.973 104.317 129.344C103.164 128.707 102.276 127.803 101.653 126.629C101.036 125.449 100.728 124.047 100.728 122.423C100.728 120.846 101.04 119.467 101.663 118.287C102.286 117.1 103.164 116.179 104.298 115.523C105.431 114.86 106.767 114.528 108.305 114.528C109.392 114.528 110.386 114.697 111.288 115.036C112.189 115.374 112.968 115.874 113.624 116.537C114.281 117.2 114.791 118.018 115.156 118.993C115.52 119.961 115.702 121.071 115.702 122.324V123.537H102.428V120.713H111.178C111.172 120.196 111.049 119.735 110.81 119.331C110.572 118.927 110.244 118.612 109.826 118.386C109.415 118.154 108.941 118.038 108.404 118.038C107.861 118.038 107.373 118.161 106.942 118.406C106.512 118.645 106.17 118.973 105.918 119.391C105.666 119.802 105.534 120.269 105.521 120.793V123.666C105.521 124.289 105.643 124.836 105.888 125.307C106.134 125.771 106.482 126.132 106.933 126.391C107.383 126.649 107.92 126.778 108.543 126.778C108.974 126.778 109.365 126.719 109.717 126.599C110.068 126.48 110.37 126.304 110.621 126.072C110.873 125.84 111.062 125.555 111.188 125.217L115.653 125.347C115.467 126.348 115.059 127.219 114.43 127.962C113.807 128.697 112.988 129.271 111.974 129.682C110.96 130.086 109.786 130.288 108.454 130.288ZM125.325 130.288C123.727 130.288 122.349 129.973 121.189 129.344C120.035 128.707 119.147 127.803 118.524 126.629C117.907 125.449 117.599 124.047 117.599 122.423C117.599 120.846 117.911 119.467 118.534 118.287C119.157 117.1 120.035 116.179 121.169 115.523C122.302 114.86 123.638 114.528 125.176 114.528C126.263 114.528 127.257 114.697 128.159 115.036C129.06 115.374 129.839 115.874 130.495 116.537C131.152 117.2 131.662 118.018 132.027 118.993C132.391 119.961 132.574 121.071 132.574 122.324V123.537H119.299V120.713H128.049C128.043 120.196 127.92 119.735 127.681 119.331C127.443 118.927 127.115 118.612 126.697 118.386C126.286 118.154 125.812 118.038 125.275 118.038C124.732 118.038 124.244 118.161 123.814 118.406C123.383 118.645 123.041 118.973 122.789 119.391C122.538 119.802 122.405 120.269 122.392 120.793V123.666C122.392 124.289 122.514 124.836 122.76 125.307C123.005 125.771 123.353 126.132 123.804 126.391C124.254 126.649 124.791 126.778 125.414 126.778C125.845 126.778 126.236 126.719 126.588 126.599C126.939 126.48 127.241 126.304 127.493 126.072C127.744 125.84 127.933 125.555 128.059 125.217L132.524 125.347C132.338 126.348 131.931 127.219 131.301 127.962C130.678 128.697 129.859 129.271 128.845 129.682C127.831 130.086 126.657 130.288 125.325 130.288ZM139.919 109.636V130H135.057V109.636H139.919ZM147.319 130.259C146.345 130.259 145.48 130.096 144.724 129.771C143.975 129.44 143.382 128.943 142.944 128.28C142.513 127.61 142.298 126.772 142.298 125.764C142.298 124.916 142.447 124.2 142.745 123.616C143.044 123.033 143.455 122.559 143.978 122.195C144.502 121.83 145.105 121.555 145.788 121.369C146.471 121.177 147.2 121.048 147.975 120.982C148.844 120.902 149.543 120.819 150.074 120.733C150.604 120.64 150.988 120.511 151.227 120.345C151.472 120.173 151.595 119.931 151.595 119.619V119.57C151.595 119.059 151.419 118.665 151.068 118.386C150.717 118.108 150.243 117.969 149.646 117.969C149.003 117.969 148.486 118.108 148.095 118.386C147.704 118.665 147.455 119.049 147.349 119.54L142.865 119.381C142.997 118.453 143.339 117.624 143.889 116.895C144.446 116.159 145.208 115.582 146.176 115.165C147.15 114.741 148.32 114.528 149.686 114.528C150.66 114.528 151.558 114.644 152.38 114.876C153.202 115.102 153.918 115.433 154.528 115.871C155.138 116.302 155.609 116.832 155.94 117.462C156.278 118.091 156.447 118.811 156.447 119.619V130H151.873V127.872H151.754C151.482 128.389 151.134 128.827 150.71 129.185C150.292 129.543 149.798 129.811 149.228 129.99C148.665 130.169 148.029 130.259 147.319 130.259ZM148.821 127.077C149.344 127.077 149.815 126.971 150.233 126.759C150.657 126.546 150.995 126.255 151.247 125.884C151.499 125.506 151.625 125.068 151.625 124.571V123.119C151.485 123.192 151.316 123.259 151.118 123.318C150.925 123.378 150.713 123.434 150.481 123.487C150.249 123.54 150.011 123.587 149.765 123.626C149.52 123.666 149.285 123.703 149.059 123.736C148.602 123.809 148.211 123.921 147.886 124.074C147.568 124.226 147.323 124.425 147.15 124.67C146.984 124.909 146.902 125.194 146.902 125.526C146.902 126.029 147.081 126.414 147.439 126.679C147.803 126.944 148.264 127.077 148.821 127.077ZM164.282 121.29V130H159.42V114.727H164.044V117.531H164.213C164.551 116.597 165.127 115.864 165.943 115.334C166.758 114.797 167.729 114.528 168.856 114.528C169.93 114.528 170.861 114.77 171.65 115.254C172.446 115.732 173.062 116.401 173.5 117.263C173.944 118.118 174.163 119.119 174.156 120.266V130H169.294V121.22C169.3 120.372 169.085 119.709 168.647 119.232C168.217 118.754 167.617 118.516 166.848 118.516C166.337 118.516 165.886 118.628 165.495 118.854C165.111 119.072 164.813 119.387 164.6 119.798C164.395 120.209 164.289 120.706 164.282 121.29ZM184.295 130.288C182.685 130.288 181.303 129.957 180.149 129.294C179.002 128.631 178.121 127.71 177.504 126.53C176.888 125.343 176.58 123.971 176.58 122.413C176.58 120.849 176.888 119.477 177.504 118.297C178.127 117.11 179.012 116.186 180.159 115.523C181.313 114.86 182.688 114.528 184.286 114.528C185.697 114.528 186.927 114.784 187.974 115.294C189.028 115.804 189.85 116.527 190.44 117.462C191.037 118.39 191.352 119.48 191.385 120.733H186.841C186.748 119.951 186.483 119.338 186.045 118.893C185.615 118.449 185.051 118.227 184.355 118.227C183.792 118.227 183.298 118.386 182.874 118.705C182.449 119.016 182.118 119.48 181.879 120.097C181.647 120.706 181.531 121.462 181.531 122.364C181.531 123.265 181.647 124.027 181.879 124.651C182.118 125.267 182.449 125.734 182.874 126.053C183.298 126.364 183.792 126.52 184.355 126.52C184.806 126.52 185.204 126.424 185.548 126.232C185.9 126.039 186.188 125.758 186.413 125.386C186.639 125.009 186.781 124.551 186.841 124.014H191.385C191.339 125.274 191.024 126.374 190.44 127.315C189.864 128.257 189.052 128.989 188.004 129.513C186.964 130.03 185.727 130.288 184.295 130.288ZM193.873 130V114.727H198.735V130H193.873ZM196.309 112.947C195.627 112.947 195.04 112.722 194.549 112.271C194.059 111.814 193.814 111.264 193.814 110.621C193.814 109.984 194.059 109.441 194.549 108.99C195.04 108.533 195.627 108.304 196.309 108.304C196.999 108.304 197.585 108.533 198.069 108.99C198.56 109.441 198.805 109.984 198.805 110.621C198.805 111.264 198.56 111.814 198.069 112.271C197.585 112.722 196.999 112.947 196.309 112.947ZM206.692 121.29V130H201.83V114.727H206.454V117.531H206.623C206.961 116.597 207.538 115.864 208.353 115.334C209.168 114.797 210.139 114.528 211.266 114.528C212.34 114.528 213.272 114.77 214.06 115.254C214.856 115.732 215.472 116.401 215.91 117.263C216.354 118.118 216.573 119.119 216.566 120.266V130H211.704V121.22C211.71 120.372 211.495 119.709 211.058 119.232C210.627 118.754 210.027 118.516 209.258 118.516C208.747 118.516 208.297 118.628 207.906 118.854C207.521 119.072 207.223 119.387 207.011 119.798C206.805 120.209 206.699 120.706 206.692 121.29ZM226.696 136.045C225.244 136.045 224.001 135.843 222.967 135.439C221.933 135.035 221.121 134.481 220.531 133.778C219.941 133.076 219.586 132.28 219.467 131.392L224.071 131.134C224.157 131.445 224.316 131.717 224.548 131.949C224.787 132.181 225.095 132.36 225.473 132.486C225.857 132.612 226.308 132.675 226.825 132.675C227.64 132.675 228.313 132.476 228.843 132.078C229.38 131.687 229.649 131.001 229.649 130.02V127.335H229.48C229.288 127.806 228.996 128.227 228.605 128.598C228.214 128.969 227.726 129.261 227.143 129.473C226.566 129.685 225.904 129.791 225.154 129.791C224.041 129.791 223.02 129.533 222.092 129.016C221.171 128.492 220.431 127.683 219.875 126.589C219.324 125.489 219.049 124.074 219.049 122.344C219.049 120.561 219.334 119.092 219.904 117.939C220.475 116.779 221.22 115.92 222.142 115.364C223.07 114.807 224.067 114.528 225.135 114.528C225.937 114.528 226.623 114.668 227.193 114.946C227.77 115.218 228.243 115.569 228.615 116C228.986 116.431 229.268 116.878 229.46 117.342H229.599V114.727H234.441V130.06C234.441 131.352 234.117 132.443 233.467 133.331C232.817 134.219 231.909 134.892 230.743 135.349C229.576 135.813 228.227 136.045 226.696 136.045ZM226.845 126.251C227.435 126.251 227.939 126.096 228.356 125.784C228.774 125.473 229.095 125.025 229.321 124.442C229.546 123.858 229.659 123.159 229.659 122.344C229.659 121.515 229.546 120.803 229.321 120.206C229.102 119.603 228.78 119.139 228.356 118.814C227.939 118.489 227.435 118.327 226.845 118.327C226.242 118.327 225.731 118.492 225.314 118.824C224.896 119.155 224.578 119.623 224.359 120.226C224.147 120.822 224.041 121.528 224.041 122.344C224.041 123.159 224.15 123.858 224.369 124.442C224.588 125.025 224.903 125.473 225.314 125.784C225.731 126.096 226.242 126.251 226.845 126.251ZM102.49 169.727V148.727H107.303V151.342H107.452C107.651 150.878 107.933 150.431 108.297 150C108.668 149.569 109.139 149.218 109.709 148.946C110.286 148.668 110.975 148.528 111.777 148.528C112.838 148.528 113.829 148.807 114.75 149.364C115.678 149.92 116.427 150.779 116.998 151.939C117.568 153.099 117.853 154.577 117.853 156.374C117.853 158.104 117.578 159.552 117.027 160.719C116.484 161.885 115.748 162.76 114.82 163.344C113.899 163.927 112.874 164.219 111.748 164.219C110.979 164.219 110.312 164.093 109.749 163.841C109.185 163.589 108.712 163.258 108.327 162.847C107.949 162.436 107.658 161.995 107.452 161.524H107.353V169.727H102.49ZM107.253 156.364C107.253 157.186 107.363 157.902 107.581 158.511C107.807 159.121 108.128 159.595 108.546 159.933C108.97 160.265 109.477 160.43 110.067 160.43C110.664 160.43 111.171 160.265 111.588 159.933C112.006 159.595 112.321 159.121 112.533 158.511C112.752 157.902 112.861 157.186 112.861 156.364C112.861 155.542 112.752 154.829 112.533 154.226C112.321 153.623 112.006 153.155 111.588 152.824C111.177 152.492 110.67 152.327 110.067 152.327C109.471 152.327 108.963 152.489 108.546 152.814C108.128 153.139 107.807 153.603 107.581 154.206C107.363 154.809 107.253 155.528 107.253 156.364ZM125.263 143.636V164H120.401V143.636H125.263ZM132.663 164.259C131.689 164.259 130.824 164.096 130.068 163.771C129.319 163.44 128.725 162.943 128.288 162.28C127.857 161.61 127.642 160.772 127.642 159.764C127.642 158.916 127.791 158.2 128.089 157.616C128.387 157.033 128.798 156.559 129.322 156.195C129.846 155.83 130.449 155.555 131.132 155.369C131.815 155.177 132.544 155.048 133.319 154.982C134.188 154.902 134.887 154.819 135.417 154.733C135.948 154.64 136.332 154.511 136.571 154.345C136.816 154.173 136.939 153.931 136.939 153.619V153.57C136.939 153.059 136.763 152.665 136.412 152.386C136.06 152.108 135.586 151.969 134.99 151.969C134.347 151.969 133.83 152.108 133.439 152.386C133.047 152.665 132.799 153.049 132.693 153.54L128.208 153.381C128.341 152.453 128.682 151.624 129.233 150.895C129.789 150.159 130.552 149.582 131.52 149.165C132.494 148.741 133.664 148.528 135.029 148.528C136.004 148.528 136.902 148.644 137.724 148.876C138.546 149.102 139.262 149.433 139.872 149.871C140.482 150.302 140.952 150.832 141.284 151.462C141.622 152.091 141.791 152.811 141.791 153.619V164H137.217V161.872H137.098C136.826 162.389 136.478 162.827 136.054 163.185C135.636 163.543 135.142 163.811 134.572 163.99C134.009 164.169 133.372 164.259 132.663 164.259ZM134.164 161.077C134.688 161.077 135.159 160.971 135.576 160.759C136.001 160.546 136.339 160.255 136.591 159.884C136.842 159.506 136.968 159.068 136.968 158.571V157.119C136.829 157.192 136.66 157.259 136.461 157.318C136.269 157.378 136.057 157.434 135.825 157.487C135.593 157.54 135.354 157.587 135.109 157.626C134.864 157.666 134.628 157.703 134.403 157.736C133.946 157.809 133.555 157.921 133.23 158.074C132.912 158.226 132.666 158.425 132.494 158.67C132.328 158.909 132.245 159.194 132.245 159.526C132.245 160.029 132.424 160.414 132.782 160.679C133.147 160.944 133.608 161.077 134.164 161.077ZM153.385 148.727V152.307H143.75V148.727H153.385ZM145.768 145.068H150.63V159.197C150.63 159.496 150.677 159.738 150.77 159.923C150.869 160.102 151.011 160.232 151.197 160.311C151.383 160.384 151.605 160.42 151.863 160.42C152.049 160.42 152.244 160.404 152.45 160.371C152.662 160.331 152.821 160.298 152.927 160.271L153.663 163.781C153.431 163.848 153.103 163.93 152.679 164.03C152.261 164.129 151.761 164.192 151.177 164.219C150.037 164.272 149.059 164.139 148.244 163.821C147.435 163.496 146.815 162.992 146.385 162.31C145.96 161.627 145.755 160.768 145.768 159.734V145.068ZM164.546 148.727V152.307H154.722V148.727H164.546ZM156.77 164V147.952C156.77 146.772 156.992 145.794 157.436 145.018C157.881 144.236 158.497 143.653 159.286 143.268C160.075 142.877 160.986 142.682 162.02 142.682C162.696 142.682 163.333 142.735 163.929 142.841C164.533 142.94 164.98 143.03 165.272 143.109L164.496 146.669C164.317 146.609 164.098 146.56 163.84 146.52C163.588 146.48 163.349 146.46 163.124 146.46C162.554 146.46 162.163 146.586 161.951 146.838C161.739 147.09 161.632 147.435 161.632 147.872V164H156.77ZM173.522 164.288C171.918 164.288 170.539 163.96 169.386 163.304C168.239 162.641 167.354 161.72 166.731 160.54C166.114 159.353 165.806 157.978 165.806 156.413C165.806 154.842 166.114 153.467 166.731 152.287C167.354 151.1 168.239 150.179 169.386 149.523C170.539 148.86 171.918 148.528 173.522 148.528C175.126 148.528 176.502 148.86 177.648 149.523C178.802 150.179 179.687 151.1 180.303 152.287C180.926 153.467 181.238 154.842 181.238 156.413C181.238 157.978 180.926 159.353 180.303 160.54C179.687 161.72 178.802 162.641 177.648 163.304C176.502 163.96 175.126 164.288 173.522 164.288ZM173.552 160.619C174.135 160.619 174.629 160.44 175.033 160.082C175.438 159.724 175.746 159.227 175.958 158.591C176.177 157.955 176.286 157.219 176.286 156.384C176.286 155.535 176.177 154.793 175.958 154.156C175.746 153.52 175.438 153.023 175.033 152.665C174.629 152.307 174.135 152.128 173.552 152.128C172.949 152.128 172.438 152.307 172.021 152.665C171.61 153.023 171.295 153.52 171.076 154.156C170.864 154.793 170.758 155.535 170.758 156.384C170.758 157.219 170.864 157.955 171.076 158.591C171.295 159.227 171.61 159.724 172.021 160.082C172.438 160.44 172.949 160.619 173.552 160.619ZM183.729 164V148.727H188.452V151.511H188.611C188.889 150.504 189.343 149.755 189.973 149.264C190.603 148.767 191.335 148.518 192.17 148.518C192.396 148.518 192.628 148.535 192.866 148.568C193.105 148.595 193.327 148.638 193.533 148.697V152.923C193.301 152.844 192.996 152.781 192.618 152.734C192.247 152.688 191.915 152.665 191.624 152.665C191.047 152.665 190.527 152.794 190.062 153.053C189.605 153.304 189.244 153.659 188.979 154.116C188.72 154.567 188.591 155.098 188.591 155.707V164H183.729ZM195.514 164V148.727H200.137V151.531H200.306C200.625 150.603 201.162 149.871 201.917 149.334C202.673 148.797 203.574 148.528 204.622 148.528C205.682 148.528 206.591 148.8 207.346 149.344C208.102 149.887 208.583 150.616 208.788 151.531H208.947C209.232 150.623 209.789 149.897 210.618 149.354C211.446 148.804 212.424 148.528 213.551 148.528C214.996 148.528 216.169 148.992 217.071 149.92C217.972 150.842 218.423 152.108 218.423 153.719V164H213.561V154.832C213.561 154.07 213.365 153.49 212.974 153.092C212.583 152.688 212.076 152.486 211.453 152.486C210.783 152.486 210.256 152.705 209.872 153.142C209.494 153.573 209.305 154.153 209.305 154.882V164H204.632V154.783C204.632 154.073 204.44 153.513 204.055 153.102C203.671 152.691 203.163 152.486 202.534 152.486C202.109 152.486 201.735 152.589 201.41 152.794C201.085 152.993 200.83 153.278 200.645 153.649C200.466 154.02 200.376 154.458 200.376 154.962V164H195.514ZM234.77 153.391L230.305 153.51C230.259 153.192 230.133 152.91 229.927 152.665C229.722 152.413 229.453 152.217 229.122 152.078C228.797 151.932 228.419 151.859 227.988 151.859C227.425 151.859 226.944 151.972 226.547 152.197C226.155 152.423 225.963 152.728 225.97 153.112C225.963 153.411 226.083 153.669 226.328 153.888C226.58 154.107 227.027 154.282 227.67 154.415L230.613 154.972C232.138 155.263 233.271 155.747 234.014 156.423C234.763 157.099 235.141 157.994 235.147 159.108C235.141 160.155 234.829 161.067 234.213 161.842C233.603 162.618 232.768 163.221 231.707 163.652C230.646 164.076 229.433 164.288 228.068 164.288C225.887 164.288 224.167 163.841 222.907 162.946C221.654 162.045 220.939 160.838 220.76 159.327L225.562 159.207C225.668 159.764 225.943 160.188 226.387 160.48C226.832 160.772 227.398 160.918 228.088 160.918C228.711 160.918 229.218 160.802 229.609 160.57C230 160.338 230.199 160.029 230.206 159.645C230.199 159.3 230.047 159.025 229.748 158.82C229.45 158.607 228.983 158.442 228.346 158.322L225.681 157.815C224.15 157.537 223.01 157.023 222.261 156.274C221.512 155.518 221.141 154.557 221.147 153.391C221.141 152.37 221.413 151.498 221.963 150.776C222.513 150.046 223.295 149.49 224.309 149.105C225.324 148.721 226.52 148.528 227.899 148.528C229.967 148.528 231.598 148.963 232.791 149.831C233.984 150.693 234.644 151.879 234.77 153.391ZM117.03 198.288C115.426 198.288 114.047 197.96 112.893 197.304C111.747 196.641 110.862 195.72 110.239 194.54C109.622 193.353 109.314 191.978 109.314 190.413C109.314 188.842 109.622 187.467 110.239 186.287C110.862 185.1 111.747 184.179 112.893 183.523C114.047 182.86 115.426 182.528 117.03 182.528C118.634 182.528 120.009 182.86 121.156 183.523C122.31 184.179 123.195 185.1 123.811 186.287C124.434 187.467 124.746 188.842 124.746 190.413C124.746 191.978 124.434 193.353 123.811 194.54C123.195 195.72 122.31 196.641 121.156 197.304C120.009 197.96 118.634 198.288 117.03 198.288ZM117.06 194.619C117.643 194.619 118.137 194.44 118.541 194.082C118.946 193.724 119.254 193.227 119.466 192.591C119.685 191.955 119.794 191.219 119.794 190.384C119.794 189.535 119.685 188.793 119.466 188.156C119.254 187.52 118.946 187.023 118.541 186.665C118.137 186.307 117.643 186.128 117.06 186.128C116.456 186.128 115.946 186.307 115.528 186.665C115.117 187.023 114.803 187.52 114.584 188.156C114.372 188.793 114.266 189.535 114.266 190.384C114.266 191.219 114.372 191.955 114.584 192.591C114.803 193.227 115.117 193.724 115.528 194.082C115.946 194.44 116.456 194.619 117.06 194.619ZM141.56 182.727L136.32 198H130.751L125.521 182.727H130.642L133.456 193.247H133.615L136.439 182.727H141.56ZM150.071 198.288C148.473 198.288 147.095 197.973 145.935 197.344C144.781 196.707 143.893 195.803 143.27 194.629C142.653 193.449 142.345 192.047 142.345 190.423C142.345 188.846 142.657 187.467 143.28 186.287C143.903 185.1 144.781 184.179 145.915 183.523C147.048 182.86 148.384 182.528 149.922 182.528C151.009 182.528 152.003 182.697 152.905 183.036C153.806 183.374 154.585 183.874 155.241 184.537C155.898 185.2 156.408 186.018 156.773 186.993C157.137 187.961 157.32 189.071 157.32 190.324V191.537H144.045V188.713H152.795C152.789 188.196 152.666 187.735 152.428 187.331C152.189 186.927 151.861 186.612 151.443 186.386C151.032 186.154 150.558 186.038 150.021 186.038C149.478 186.038 148.991 186.161 148.56 186.406C148.129 186.645 147.787 186.973 147.536 187.391C147.284 187.802 147.151 188.269 147.138 188.793V191.666C147.138 192.289 147.26 192.836 147.506 193.307C147.751 193.771 148.099 194.132 148.55 194.391C149 194.649 149.537 194.778 150.161 194.778C150.591 194.778 150.982 194.719 151.334 194.599C151.685 194.48 151.987 194.304 152.239 194.072C152.491 193.84 152.679 193.555 152.805 193.217L157.27 193.347C157.084 194.348 156.677 195.219 156.047 195.962C155.424 196.697 154.605 197.271 153.591 197.682C152.577 198.086 151.403 198.288 150.071 198.288ZM159.803 198V182.727H164.526V185.511H164.685C164.963 184.504 165.417 183.755 166.047 183.264C166.677 182.767 167.409 182.518 168.245 182.518C168.47 182.518 168.702 182.535 168.941 182.568C169.179 182.595 169.401 182.638 169.607 182.697V186.923C169.375 186.844 169.07 186.781 168.692 186.734C168.321 186.688 167.989 186.665 167.698 186.665C167.121 186.665 166.601 186.794 166.137 187.053C165.679 187.304 165.318 187.659 165.053 188.116C164.794 188.567 164.665 189.098 164.665 189.707V198H159.803ZM186.868 182.727L181.628 198H176.06L170.83 182.727H175.951L178.765 193.247H178.924L181.748 182.727H186.868ZM188.733 198V182.727H193.595V198H188.733ZM191.169 180.947C190.486 180.947 189.899 180.722 189.409 180.271C188.918 179.814 188.673 179.264 188.673 178.621C188.673 177.984 188.918 177.441 189.409 176.99C189.899 176.533 190.486 176.304 191.169 176.304C191.858 176.304 192.445 176.533 192.929 176.99C193.419 177.441 193.664 177.984 193.664 178.621C193.664 179.264 193.419 179.814 192.929 180.271C192.445 180.722 191.858 180.947 191.169 180.947ZM203.829 198.288C202.231 198.288 200.853 197.973 199.692 197.344C198.539 196.707 197.651 195.803 197.028 194.629C196.411 193.449 196.103 192.047 196.103 190.423C196.103 188.846 196.415 187.467 197.038 186.287C197.661 185.1 198.539 184.179 199.673 183.523C200.806 182.86 202.142 182.528 203.68 182.528C204.767 182.528 205.761 182.697 206.663 183.036C207.564 183.374 208.343 183.874 208.999 184.537C209.656 185.2 210.166 186.018 210.531 186.993C210.895 187.961 211.077 189.071 211.077 190.324V191.537H197.803V188.713H206.553C206.547 188.196 206.424 187.735 206.185 187.331C205.947 186.927 205.619 186.612 205.201 186.386C204.79 186.154 204.316 186.038 203.779 186.038C203.236 186.038 202.748 186.161 202.317 186.406C201.887 186.645 201.545 186.973 201.293 187.391C201.041 187.802 200.909 188.269 200.896 188.793V191.666C200.896 192.289 201.018 192.836 201.263 193.307C201.509 193.771 201.857 194.132 202.308 194.391C202.758 194.649 203.295 194.778 203.918 194.778C204.349 194.778 204.74 194.719 205.092 194.599C205.443 194.48 205.745 194.304 205.996 194.072C206.248 193.84 206.437 193.555 206.563 193.217L211.028 193.347C210.842 194.348 210.434 195.219 209.805 195.962C209.182 196.697 208.363 197.271 207.349 197.682C206.335 198.086 205.161 198.288 203.829 198.288ZM216.25 198L212.273 182.727H217.155L219.213 192.511H219.343L221.55 182.727H226.313L228.58 192.442H228.709L230.708 182.727H235.59L231.603 198H226.402L224.016 189.101H223.847L221.461 198H216.25Z" fill="white"/>
<path d="M182.092 315.014H177.12C177.054 314.504 176.918 314.043 176.713 313.632C176.507 313.221 176.235 312.87 175.897 312.578C175.559 312.286 175.158 312.064 174.694 311.912C174.237 311.753 173.73 311.673 173.173 311.673C172.185 311.673 171.333 311.915 170.618 312.399C169.908 312.883 169.361 313.582 168.977 314.497C168.599 315.412 168.41 316.519 168.41 317.818C168.41 319.17 168.602 320.304 168.987 321.219C169.378 322.127 169.925 322.813 170.627 323.277C171.337 323.734 172.175 323.963 173.143 323.963C173.687 323.963 174.181 323.893 174.625 323.754C175.075 323.615 175.47 323.413 175.808 323.148C176.153 322.876 176.434 322.548 176.653 322.163C176.878 321.772 177.034 321.331 177.12 320.841L182.092 320.871C182.006 321.772 181.744 322.661 181.306 323.536C180.876 324.411 180.282 325.209 179.527 325.932C178.771 326.648 177.85 327.218 176.762 327.642C175.682 328.066 174.442 328.278 173.044 328.278C171.201 328.278 169.55 327.874 168.092 327.065C166.64 326.25 165.493 325.063 164.652 323.506C163.81 321.948 163.389 320.052 163.389 317.818C163.389 315.578 163.816 313.679 164.672 312.121C165.527 310.563 166.683 309.38 168.142 308.571C169.6 307.762 171.234 307.358 173.044 307.358C174.277 307.358 175.417 307.53 176.464 307.875C177.511 308.213 178.433 308.71 179.228 309.366C180.024 310.016 180.67 310.815 181.167 311.763C181.664 312.711 181.973 313.795 182.092 315.014ZM189.771 307.636V328H184.908V307.636H189.771ZM192.865 328V312.727H197.728V328H192.865ZM195.301 310.947C194.619 310.947 194.032 310.722 193.542 310.271C193.051 309.814 192.806 309.264 192.806 308.621C192.806 307.984 193.051 307.441 193.542 306.99C194.032 306.533 194.619 306.304 195.301 306.304C195.991 306.304 196.578 306.533 197.061 306.99C197.552 307.441 197.797 307.984 197.797 308.621C197.797 309.264 197.552 309.814 197.061 310.271C196.578 310.722 195.991 310.947 195.301 310.947ZM207.962 328.288C206.364 328.288 204.985 327.973 203.825 327.344C202.672 326.707 201.784 325.803 201.161 324.629C200.544 323.449 200.236 322.047 200.236 320.423C200.236 318.846 200.547 317.467 201.17 316.287C201.794 315.1 202.672 314.179 203.805 313.523C204.939 312.86 206.275 312.528 207.812 312.528C208.9 312.528 209.894 312.697 210.795 313.036C211.697 313.374 212.476 313.874 213.132 314.537C213.788 315.2 214.299 316.018 214.663 316.993C215.028 317.961 215.21 319.071 215.21 320.324V321.537H201.936V318.713H210.686C210.679 318.196 210.557 317.735 210.318 317.331C210.08 316.927 209.751 316.612 209.334 316.386C208.923 316.154 208.449 316.038 207.912 316.038C207.368 316.038 206.881 316.161 206.45 316.406C206.019 316.645 205.678 316.973 205.426 317.391C205.174 317.802 205.042 318.269 205.028 318.793V321.666C205.028 322.289 205.151 322.836 205.396 323.307C205.642 323.771 205.99 324.132 206.44 324.391C206.891 324.649 207.428 324.778 208.051 324.778C208.482 324.778 208.873 324.719 209.224 324.599C209.576 324.48 209.877 324.304 210.129 324.072C210.381 323.84 210.57 323.555 210.696 323.217L215.161 323.347C214.975 324.348 214.567 325.219 213.938 325.962C213.314 326.697 212.496 327.271 211.482 327.682C210.467 328.086 209.294 328.288 207.962 328.288ZM222.556 319.29V328H217.694V312.727H222.317V315.531H222.486C222.824 314.597 223.401 313.864 224.216 313.334C225.032 312.797 226.003 312.528 227.13 312.528C228.203 312.528 229.135 312.77 229.924 313.254C230.719 313.732 231.336 314.401 231.773 315.263C232.217 316.118 232.436 317.119 232.429 318.266V328H227.567V319.22C227.574 318.372 227.358 317.709 226.921 317.232C226.49 316.754 225.89 316.516 225.121 316.516C224.611 316.516 224.16 316.628 223.769 316.854C223.384 317.072 223.086 317.387 222.874 317.798C222.668 318.209 222.562 318.706 222.556 319.29ZM244.06 312.727V316.307H234.425V312.727H244.06ZM236.444 309.068H241.306V323.197C241.306 323.496 241.353 323.738 241.445 323.923C241.545 324.102 241.687 324.232 241.873 324.311C242.058 324.384 242.281 324.42 242.539 324.42C242.725 324.42 242.92 324.404 243.126 324.371C243.338 324.331 243.497 324.298 243.603 324.271L244.339 327.781C244.107 327.848 243.779 327.93 243.354 328.03C242.937 328.129 242.436 328.192 241.853 328.219C240.713 328.272 239.735 328.139 238.92 327.821C238.111 327.496 237.491 326.992 237.06 326.31C236.636 325.627 236.431 324.768 236.444 323.734V309.068ZM37.0259 362.288C35.4151 362.288 34.033 361.957 32.8796 361.294C31.7328 360.631 30.8512 359.71 30.2347 358.53C29.6183 357.343 29.31 355.971 29.31 354.413C29.31 352.849 29.6183 351.477 30.2347 350.297C30.8578 349.11 31.7428 348.186 32.8896 347.523C34.043 346.86 35.4184 346.528 37.016 346.528C38.4279 346.528 39.6576 346.784 40.7049 347.294C41.7589 347.804 42.5808 348.527 43.1708 349.462C43.7674 350.39 44.0823 351.48 44.1154 352.733H39.5714C39.4786 351.951 39.2134 351.338 38.7759 350.893C38.3451 350.449 37.7816 350.227 37.0856 350.227C36.5221 350.227 36.0283 350.386 35.604 350.705C35.1798 351.016 34.8484 351.48 34.6097 352.097C34.3777 352.706 34.2617 353.462 34.2617 354.364C34.2617 355.265 34.3777 356.027 34.6097 356.651C34.8484 357.267 35.1798 357.734 35.604 358.053C36.0283 358.364 36.5221 358.52 37.0856 358.52C37.5363 358.52 37.9341 358.424 38.2788 358.232C38.6301 358.039 38.9184 357.758 39.1438 357.386C39.3692 357.009 39.5117 356.551 39.5714 356.014H44.1154C44.069 357.274 43.7541 358.374 43.1708 359.315C42.5941 360.257 41.7821 360.989 40.7347 361.513C39.694 362.03 38.4577 362.288 37.0259 362.288ZM53.733 362.288C52.1288 362.288 50.75 361.96 49.5966 361.304C48.4498 360.641 47.5649 359.72 46.9418 358.54C46.3253 357.353 46.017 355.978 46.017 354.413C46.017 352.842 46.3253 351.467 46.9418 350.287C47.5649 349.1 48.4498 348.179 49.5966 347.523C50.75 346.86 52.1288 346.528 53.733 346.528C55.3371 346.528 56.7126 346.86 57.8594 347.523C59.0128 348.179 59.8977 349.1 60.5142 350.287C61.1373 351.467 61.4489 352.842 61.4489 354.413C61.4489 355.978 61.1373 357.353 60.5142 358.54C59.8977 359.72 59.0128 360.641 57.8594 361.304C56.7126 361.96 55.3371 362.288 53.733 362.288ZM53.7628 358.619C54.3461 358.619 54.84 358.44 55.2443 358.082C55.6487 357.724 55.9569 357.227 56.169 356.591C56.3878 355.955 56.4972 355.219 56.4972 354.384C56.4972 353.535 56.3878 352.793 56.169 352.156C55.9569 351.52 55.6487 351.023 55.2443 350.665C54.84 350.307 54.3461 350.128 53.7628 350.128C53.1596 350.128 52.6491 350.307 52.2315 350.665C51.8205 351.023 51.5057 351.52 51.2869 352.156C51.0748 352.793 50.9688 353.535 50.9688 354.384C50.9688 355.219 51.0748 355.955 51.2869 356.591C51.5057 357.227 51.8205 357.724 52.2315 358.082C52.6491 358.44 53.1596 358.619 53.7628 358.619ZM63.9396 362V346.727H68.5632V349.531H68.7322C69.0504 348.603 69.5874 347.871 70.343 347.334C71.0987 346.797 72.0002 346.528 73.0476 346.528C74.1082 346.528 75.0163 346.8 75.772 347.344C76.5277 347.887 77.0083 348.616 77.2138 349.531H77.3729C77.6579 348.623 78.2147 347.897 79.0433 347.354C79.8719 346.804 80.8497 346.528 81.9766 346.528C83.4216 346.528 84.5949 346.992 85.4964 347.92C86.398 348.842 86.8487 350.108 86.8487 351.719V362H81.9865V352.832C81.9865 352.07 81.791 351.49 81.3999 351.092C81.0088 350.688 80.5017 350.486 79.8786 350.486C79.209 350.486 78.6821 350.705 78.2976 351.142C77.9197 351.573 77.7308 352.153 77.7308 352.882V362H73.0575V352.783C73.0575 352.073 72.8653 351.513 72.4808 351.102C72.0964 350.691 71.5893 350.486 70.9595 350.486C70.5353 350.486 70.1607 350.589 69.8359 350.794C69.5111 350.993 69.2559 351.278 69.0703 351.649C68.8913 352.02 68.8018 352.458 68.8018 352.962V362H63.9396ZM89.8615 362V346.727H94.4851V349.531H94.6541C94.9723 348.603 95.5092 347.871 96.2649 347.334C97.0206 346.797 97.9221 346.528 98.9695 346.528C100.03 346.528 100.938 346.8 101.694 347.344C102.45 347.887 102.93 348.616 103.136 349.531H103.295C103.58 348.623 104.137 347.897 104.965 347.354C105.794 346.804 106.772 346.528 107.898 346.528C109.344 346.528 110.517 346.992 111.418 347.92C112.32 348.842 112.771 350.108 112.771 351.719V362H107.908V352.832C107.908 352.07 107.713 351.49 107.322 351.092C106.931 350.688 106.424 350.486 105.8 350.486C105.131 350.486 104.604 350.705 104.219 351.142C103.842 351.573 103.653 352.153 103.653 352.882V362H98.9794V352.783C98.9794 352.073 98.7872 351.513 98.4027 351.102C98.0182 350.691 97.5111 350.486 96.8814 350.486C96.4571 350.486 96.0826 350.589 95.7578 350.794C95.433 350.993 95.1778 351.278 94.9922 351.649C94.8132 352.02 94.7237 352.458 94.7237 352.962V362H89.8615ZM125.637 355.408V346.727H130.489V362H125.856V359.156H125.697C125.359 360.091 124.782 360.833 123.967 361.384C123.158 361.927 122.18 362.199 121.033 362.199C119.993 362.199 119.078 361.96 118.289 361.483C117.5 361.006 116.887 360.339 116.45 359.484C116.012 358.623 115.79 357.615 115.783 356.462V346.727H120.646V355.507C120.652 356.336 120.871 356.989 121.302 357.466C121.733 357.943 122.319 358.182 123.062 358.182C123.546 358.182 123.98 358.076 124.364 357.864C124.755 357.645 125.064 357.33 125.289 356.919C125.521 356.501 125.637 355.998 125.637 355.408ZM138.446 353.29V362H133.584V346.727H138.208V349.531H138.377C138.715 348.597 139.292 347.864 140.107 347.334C140.922 346.797 141.893 346.528 143.02 346.528C144.094 346.528 145.025 346.77 145.814 347.254C146.61 347.732 147.226 348.401 147.664 349.263C148.108 350.118 148.327 351.119 148.32 352.266V362H143.458V353.22C143.464 352.372 143.249 351.709 142.811 351.232C142.381 350.754 141.781 350.516 141.012 350.516C140.501 350.516 140.051 350.628 139.659 350.854C139.275 351.072 138.977 351.387 138.765 351.798C138.559 352.209 138.453 352.706 138.446 353.29ZM151.33 362V346.727H156.192V362H151.33ZM153.766 344.947C153.084 344.947 152.497 344.722 152.006 344.271C151.516 343.814 151.271 343.264 151.271 342.621C151.271 341.984 151.516 341.441 152.006 340.99C152.497 340.533 153.084 340.304 153.766 340.304C154.456 340.304 155.042 340.533 155.526 340.99C156.017 341.441 156.262 341.984 156.262 342.621C156.262 343.264 156.017 343.814 155.526 344.271C155.042 344.722 154.456 344.947 153.766 344.947ZM166.417 362.288C164.806 362.288 163.424 361.957 162.27 361.294C161.123 360.631 160.242 359.71 159.625 358.53C159.009 357.343 158.701 355.971 158.701 354.413C158.701 352.849 159.009 351.477 159.625 350.297C160.248 349.11 161.133 348.186 162.28 347.523C163.434 346.86 164.809 346.528 166.407 346.528C167.819 346.528 169.048 346.784 170.096 347.294C171.15 347.804 171.971 348.527 172.561 349.462C173.158 350.39 173.473 351.48 173.506 352.733H168.962C168.869 351.951 168.604 351.338 168.167 350.893C167.736 350.449 167.172 350.227 166.476 350.227C165.913 350.227 165.419 350.386 164.995 350.705C164.57 351.016 164.239 351.48 164 352.097C163.768 352.706 163.652 353.462 163.652 354.364C163.652 355.265 163.768 356.027 164 356.651C164.239 357.267 164.57 357.734 164.995 358.053C165.419 358.364 165.913 358.52 166.476 358.52C166.927 358.52 167.325 358.424 167.669 358.232C168.021 358.039 168.309 357.758 168.534 357.386C168.76 357.009 168.902 356.551 168.962 356.014H173.506C173.46 357.274 173.145 358.374 172.561 359.315C171.985 360.257 171.173 360.989 170.125 361.513C169.085 362.03 167.848 362.288 166.417 362.288ZM180.3 362.259C179.325 362.259 178.46 362.096 177.705 361.771C176.955 361.44 176.362 360.943 175.925 360.28C175.494 359.61 175.278 358.772 175.278 357.764C175.278 356.916 175.428 356.2 175.726 355.616C176.024 355.033 176.435 354.559 176.959 354.195C177.482 353.83 178.086 353.555 178.768 353.369C179.451 353.177 180.18 353.048 180.956 352.982C181.824 352.902 182.524 352.819 183.054 352.733C183.584 352.64 183.969 352.511 184.207 352.345C184.453 352.173 184.575 351.931 184.575 351.619V351.57C184.575 351.059 184.4 350.665 184.048 350.386C183.697 350.108 183.223 349.969 182.626 349.969C181.983 349.969 181.466 350.108 181.075 350.386C180.684 350.665 180.436 351.049 180.33 351.54L175.845 351.381C175.978 350.453 176.319 349.624 176.869 348.895C177.426 348.159 178.188 347.582 179.156 347.165C180.131 346.741 181.301 346.528 182.666 346.528C183.641 346.528 184.539 346.644 185.361 346.876C186.183 347.102 186.899 347.433 187.509 347.871C188.118 348.302 188.589 348.832 188.92 349.462C189.259 350.091 189.428 350.811 189.428 351.619V362H184.854V359.872H184.734C184.463 360.389 184.115 360.827 183.69 361.185C183.273 361.543 182.779 361.811 182.209 361.99C181.645 362.169 181.009 362.259 180.3 362.259ZM181.801 359.077C182.325 359.077 182.795 358.971 183.213 358.759C183.637 358.546 183.975 358.255 184.227 357.884C184.479 357.506 184.605 357.068 184.605 356.571V355.119C184.466 355.192 184.297 355.259 184.098 355.318C183.906 355.378 183.694 355.434 183.462 355.487C183.23 355.54 182.991 355.587 182.746 355.626C182.5 355.666 182.265 355.703 182.04 355.736C181.582 355.809 181.191 355.921 180.866 356.074C180.548 356.226 180.303 356.425 180.131 356.67C179.965 356.909 179.882 357.194 179.882 357.526C179.882 358.029 180.061 358.414 180.419 358.679C180.784 358.944 181.244 359.077 181.801 359.077ZM201.021 346.727V350.307H191.386V346.727H201.021ZM193.405 343.068H198.267V357.197C198.267 357.496 198.313 357.738 198.406 357.923C198.506 358.102 198.648 358.232 198.834 358.311C199.019 358.384 199.241 358.42 199.5 358.42C199.686 358.42 199.881 358.404 200.087 358.371C200.299 358.331 200.458 358.298 200.564 358.271L201.3 361.781C201.068 361.848 200.74 361.93 200.315 362.03C199.898 362.129 199.397 362.192 198.814 362.219C197.674 362.272 196.696 362.139 195.881 361.821C195.072 361.496 194.452 360.992 194.021 360.31C193.597 359.627 193.392 358.768 193.405 357.734V343.068ZM203.502 362V346.727H208.364V362H203.502ZM205.938 344.947C205.255 344.947 204.669 344.722 204.178 344.271C203.688 343.814 203.442 343.264 203.442 342.621C203.442 341.984 203.688 341.441 204.178 340.99C204.669 340.533 205.255 340.304 205.938 340.304C206.628 340.304 207.214 340.533 207.698 340.99C208.189 341.441 208.434 341.984 208.434 342.621C208.434 343.264 208.189 343.814 207.698 344.271C207.214 344.722 206.628 344.947 205.938 344.947ZM218.588 362.288C216.984 362.288 215.605 361.96 214.452 361.304C213.305 360.641 212.42 359.72 211.797 358.54C211.181 357.353 210.873 355.978 210.873 354.413C210.873 352.842 211.181 351.467 211.797 350.287C212.42 349.1 213.305 348.179 214.452 347.523C215.605 346.86 216.984 346.528 218.588 346.528C220.193 346.528 221.568 346.86 222.715 347.523C223.868 348.179 224.753 349.1 225.37 350.287C225.993 351.467 226.304 352.842 226.304 354.413C226.304 355.978 225.993 357.353 225.37 358.54C224.753 359.72 223.868 360.641 222.715 361.304C221.568 361.96 220.193 362.288 218.588 362.288ZM218.618 358.619C219.202 358.619 219.695 358.44 220.1 358.082C220.504 357.724 220.812 357.227 221.025 356.591C221.243 355.955 221.353 355.219 221.353 354.384C221.353 353.535 221.243 352.793 221.025 352.156C220.812 351.52 220.504 351.023 220.1 350.665C219.695 350.307 219.202 350.128 218.618 350.128C218.015 350.128 217.505 350.307 217.087 350.665C216.676 351.023 216.361 351.52 216.142 352.156C215.93 352.793 215.824 353.535 215.824 354.384C215.824 355.219 215.93 355.955 216.142 356.591C216.361 357.227 216.676 357.724 217.087 358.082C217.505 358.44 218.015 358.619 218.618 358.619ZM233.657 353.29V362H228.795V346.727H233.419V349.531H233.588C233.926 348.597 234.502 347.864 235.318 347.334C236.133 346.797 237.104 346.528 238.231 346.528C239.305 346.528 240.236 346.77 241.025 347.254C241.821 347.732 242.437 348.401 242.875 349.263C243.319 350.118 243.538 351.119 243.531 352.266V362H238.669V353.22C238.675 352.372 238.46 351.709 238.022 351.232C237.592 350.754 236.992 350.516 236.223 350.516C235.712 350.516 235.261 350.628 234.87 350.854C234.486 351.072 234.188 351.387 233.975 351.798C233.77 352.209 233.664 352.706 233.657 353.29ZM110.454 396.288C108.856 396.288 107.478 395.973 106.317 395.344C105.164 394.707 104.276 393.803 103.653 392.629C103.036 391.449 102.728 390.047 102.728 388.423C102.728 386.846 103.04 385.467 103.663 384.287C104.286 383.1 105.164 382.179 106.298 381.523C107.431 380.86 108.767 380.528 110.305 380.528C111.392 380.528 112.386 380.697 113.288 381.036C114.189 381.374 114.968 381.874 115.624 382.537C116.281 383.2 116.791 384.018 117.156 384.993C117.52 385.961 117.702 387.071 117.702 388.324V389.537H104.428V386.713H113.178C113.172 386.196 113.049 385.735 112.81 385.331C112.572 384.927 112.244 384.612 111.826 384.386C111.415 384.154 110.941 384.038 110.404 384.038C109.861 384.038 109.373 384.161 108.942 384.406C108.512 384.645 108.17 384.973 107.918 385.391C107.666 385.802 107.534 386.269 107.521 386.793V389.666C107.521 390.289 107.643 390.836 107.888 391.307C108.134 391.771 108.482 392.132 108.933 392.391C109.383 392.649 109.92 392.778 110.543 392.778C110.974 392.778 111.365 392.719 111.717 392.599C112.068 392.48 112.37 392.304 112.621 392.072C112.873 391.84 113.062 391.555 113.188 391.217L117.653 391.347C117.467 392.348 117.059 393.219 116.43 393.962C115.807 394.697 114.988 395.271 113.974 395.682C112.96 396.086 111.786 396.288 110.454 396.288ZM133.52 385.391L129.055 385.51C129.009 385.192 128.883 384.91 128.677 384.665C128.472 384.413 128.203 384.217 127.872 384.078C127.547 383.932 127.169 383.859 126.738 383.859C126.175 383.859 125.694 383.972 125.297 384.197C124.905 384.423 124.713 384.728 124.72 385.112C124.713 385.411 124.833 385.669 125.078 385.888C125.33 386.107 125.777 386.282 126.42 386.415L129.363 386.972C130.888 387.263 132.021 387.747 132.764 388.423C133.513 389.099 133.891 389.994 133.897 391.108C133.891 392.155 133.579 393.067 132.963 393.842C132.353 394.618 131.518 395.221 130.457 395.652C129.396 396.076 128.183 396.288 126.818 396.288C124.637 396.288 122.917 395.841 121.657 394.946C120.404 394.045 119.689 392.838 119.51 391.327L124.312 391.207C124.418 391.764 124.693 392.188 125.137 392.48C125.582 392.772 126.148 392.918 126.838 392.918C127.461 392.918 127.968 392.802 128.359 392.57C128.75 392.338 128.949 392.029 128.956 391.645C128.949 391.3 128.797 391.025 128.498 390.82C128.2 390.607 127.733 390.442 127.096 390.322L124.431 389.815C122.9 389.537 121.76 389.023 121.011 388.274C120.262 387.518 119.891 386.557 119.897 385.391C119.891 384.37 120.163 383.498 120.713 382.776C121.263 382.046 122.045 381.49 123.059 381.105C124.074 380.721 125.27 380.528 126.649 380.528C128.717 380.528 130.348 380.963 131.541 381.831C132.734 382.693 133.394 383.879 133.52 385.391ZM149.625 385.391L145.161 385.51C145.114 385.192 144.988 384.91 144.783 384.665C144.577 384.413 144.309 384.217 143.977 384.078C143.652 383.932 143.275 383.859 142.844 383.859C142.28 383.859 141.8 383.972 141.402 384.197C141.011 384.423 140.819 384.728 140.825 385.112C140.819 385.411 140.938 385.669 141.183 385.888C141.435 386.107 141.883 386.282 142.526 386.415L145.469 386.972C146.993 387.263 148.127 387.747 148.869 388.423C149.618 389.099 149.996 389.994 150.003 391.108C149.996 392.155 149.685 393.067 149.068 393.842C148.458 394.618 147.623 395.221 146.562 395.652C145.502 396.076 144.289 396.288 142.923 396.288C140.742 396.288 139.022 395.841 137.763 394.946C136.51 394.045 135.794 392.838 135.615 391.327L140.418 391.207C140.524 391.764 140.799 392.188 141.243 392.48C141.687 392.772 142.254 392.918 142.943 392.918C143.566 392.918 144.073 392.802 144.464 392.57C144.856 392.338 145.054 392.029 145.061 391.645C145.054 391.3 144.902 391.025 144.604 390.82C144.305 390.607 143.838 390.442 143.202 390.322L140.537 389.815C139.006 389.537 137.866 389.023 137.116 388.274C136.367 387.518 135.996 386.557 136.003 385.391C135.996 384.37 136.268 383.498 136.818 382.776C137.368 382.046 138.151 381.49 139.165 381.105C140.179 380.721 141.375 380.528 142.754 380.528C144.822 380.528 146.453 380.963 147.646 381.831C148.839 382.693 149.499 383.879 149.625 385.391ZM159.536 396.288C157.938 396.288 156.56 395.973 155.4 395.344C154.246 394.707 153.358 393.803 152.735 392.629C152.118 391.449 151.81 390.047 151.81 388.423C151.81 386.846 152.122 385.467 152.745 384.287C153.368 383.1 154.246 382.179 155.38 381.523C156.513 380.86 157.849 380.528 159.387 380.528C160.474 380.528 161.468 380.697 162.37 381.036C163.271 381.374 164.05 381.874 164.706 382.537C165.363 383.2 165.873 384.018 166.238 384.993C166.602 385.961 166.784 387.071 166.784 388.324V389.537H153.51V386.713H162.26C162.254 386.196 162.131 385.735 161.892 385.331C161.654 384.927 161.326 384.612 160.908 384.386C160.497 384.154 160.023 384.038 159.486 384.038C158.943 384.038 158.455 384.161 158.025 384.406C157.594 384.645 157.252 384.973 157 385.391C156.748 385.802 156.616 386.269 156.603 386.793V389.666C156.603 390.289 156.725 390.836 156.971 391.307C157.216 391.771 157.564 392.132 158.015 392.391C158.465 392.649 159.002 392.778 159.625 392.778C160.056 392.778 160.447 392.719 160.799 392.599C161.15 392.48 161.452 392.304 161.703 392.072C161.955 391.84 162.144 391.555 162.27 391.217L166.735 391.347C166.549 392.348 166.141 393.219 165.512 393.962C164.889 394.697 164.07 395.271 163.056 395.682C162.042 396.086 160.868 396.288 159.536 396.288ZM174.13 387.29V396H169.268V380.727H173.891V383.531H174.06C174.398 382.597 174.975 381.864 175.79 381.334C176.606 380.797 177.577 380.528 178.704 380.528C179.778 380.528 180.709 380.77 181.498 381.254C182.293 381.732 182.91 382.401 183.347 383.263C183.791 384.118 184.01 385.119 184.004 386.266V396H179.141V387.22C179.148 386.372 178.933 385.709 178.495 385.232C178.064 384.754 177.464 384.516 176.695 384.516C176.185 384.516 175.734 384.628 175.343 384.854C174.959 385.072 174.66 385.387 174.448 385.798C174.243 386.209 174.137 386.706 174.13 387.29ZM195.635 380.727V384.307H186V380.727H195.635ZM188.018 377.068H192.88V391.197C192.88 391.496 192.927 391.738 193.02 391.923C193.119 392.102 193.261 392.232 193.447 392.311C193.633 392.384 193.855 392.42 194.113 392.42C194.299 392.42 194.494 392.404 194.7 392.371C194.912 392.331 195.071 392.298 195.177 392.271L195.913 395.781C195.681 395.848 195.353 395.93 194.929 396.03C194.511 396.129 194.011 396.192 193.427 396.219C192.287 396.272 191.309 396.139 190.494 395.821C189.685 395.496 189.065 394.992 188.635 394.31C188.21 393.627 188.005 392.768 188.018 391.734V377.068ZM198.115 396V380.727H202.978V396H198.115ZM200.551 378.947C199.869 378.947 199.282 378.722 198.792 378.271C198.301 377.814 198.056 377.264 198.056 376.621C198.056 375.984 198.301 375.441 198.792 374.99C199.282 374.533 199.869 374.304 200.551 374.304C201.241 374.304 201.828 374.533 202.311 374.99C202.802 375.441 203.047 375.984 203.047 376.621C203.047 377.264 202.802 377.814 202.311 378.271C201.828 378.722 201.241 378.947 200.551 378.947ZM210.378 396.259C209.403 396.259 208.538 396.096 207.783 395.771C207.034 395.44 206.44 394.943 206.003 394.28C205.572 393.61 205.357 392.772 205.357 391.764C205.357 390.916 205.506 390.2 205.804 389.616C206.102 389.033 206.513 388.559 207.037 388.195C207.561 387.83 208.164 387.555 208.847 387.369C209.529 387.177 210.259 387.048 211.034 386.982C211.902 386.902 212.602 386.819 213.132 386.733C213.662 386.64 214.047 386.511 214.286 386.345C214.531 386.173 214.653 385.931 214.653 385.619V385.57C214.653 385.059 214.478 384.665 214.126 384.386C213.775 384.108 213.301 383.969 212.705 383.969C212.062 383.969 211.545 384.108 211.153 384.386C210.762 384.665 210.514 385.049 210.408 385.54L205.923 385.381C206.056 384.453 206.397 383.624 206.947 382.895C207.504 382.159 208.267 381.582 209.234 381.165C210.209 380.741 211.379 380.528 212.744 380.528C213.719 380.528 214.617 380.644 215.439 380.876C216.261 381.102 216.977 381.433 217.587 381.871C218.196 382.302 218.667 382.832 218.999 383.462C219.337 384.091 219.506 384.811 219.506 385.619V396H214.932V393.872H214.812C214.541 394.389 214.193 394.827 213.768 395.185C213.351 395.543 212.857 395.811 212.287 395.99C211.723 396.169 211.087 396.259 210.378 396.259ZM211.879 393.077C212.403 393.077 212.874 392.971 213.291 392.759C213.715 392.546 214.054 392.255 214.305 391.884C214.557 391.506 214.683 391.068 214.683 390.571V389.119C214.544 389.192 214.375 389.259 214.176 389.318C213.984 389.378 213.772 389.434 213.54 389.487C213.308 389.54 213.069 389.587 212.824 389.626C212.579 389.666 212.343 389.703 212.118 389.736C211.661 389.809 211.269 389.921 210.945 390.074C210.626 390.226 210.381 390.425 210.209 390.67C210.043 390.909 209.96 391.194 209.96 391.526C209.96 392.029 210.139 392.414 210.497 392.679C210.862 392.944 211.322 393.077 211.879 393.077ZM227.341 375.636V396H222.479V375.636H227.341ZM243.77 385.391L239.305 385.51C239.259 385.192 239.133 384.91 238.927 384.665C238.722 384.413 238.453 384.217 238.122 384.078C237.797 383.932 237.419 383.859 236.988 383.859C236.425 383.859 235.944 383.972 235.547 384.197C235.155 384.423 234.963 384.728 234.97 385.112C234.963 385.411 235.083 385.669 235.328 385.888C235.58 386.107 236.027 386.282 236.67 386.415L239.613 386.972C241.138 387.263 242.271 387.747 243.014 388.423C243.763 389.099 244.141 389.994 244.147 391.108C244.141 392.155 243.829 393.067 243.213 393.842C242.603 394.618 241.768 395.221 240.707 395.652C239.646 396.076 238.433 396.288 237.068 396.288C234.887 396.288 233.167 395.841 231.907 394.946C230.654 394.045 229.939 392.838 229.76 391.327L234.562 391.207C234.668 391.764 234.943 392.188 235.387 392.48C235.832 392.772 236.398 392.918 237.088 392.918C237.711 392.918 238.218 392.802 238.609 392.57C239 392.338 239.199 392.029 239.206 391.645C239.199 391.3 239.047 391.025 238.748 390.82C238.45 390.607 237.983 390.442 237.346 390.322L234.681 389.815C233.15 389.537 232.01 389.023 231.261 388.274C230.512 387.518 230.141 386.557 230.147 385.391C230.141 384.37 230.413 383.498 230.963 382.776C231.513 382.046 232.295 381.49 233.309 381.105C234.324 380.721 235.52 380.528 236.899 380.528C238.967 380.528 240.598 380.963 241.791 381.831C242.984 382.693 243.644 383.879 243.77 385.391Z" fill="white"/>
<ellipse cx="338.5" cy="14.5" rx="10.5" ry="11.5" fill="#275D8F"/>
<circle cx="339" cy="130" r="11" fill="#275D8F"/>
<ellipse cx="335.5" cy="238.5" rx="10.5" ry="11.5" fill="#275D8F"/>
<circle cx="336" cy="343" r="11" fill="#275D8F"/>
<path d="M355 14H424" stroke="#275D8F" stroke-width="3"/>
<path d="M349.557 235H419M252 343H321.443" stroke="#275D8F" stroke-width="3"/>
<path d="M250 130H320" stroke="#275D8F" stroke-width="3"/>
<path d="M338 148L337.147 219.756" stroke="#275D8F" stroke-width="3"/>
<path d="M337.853 37L337 108.756" stroke="#275D8F" stroke-width="3"/>
<path d="M335.853 256L335 327.756" stroke="#275D8F" stroke-width="3"/>
</svg>
